<svg width="774" height="876" viewBox="0 0 774 876" fill="none" xmlns="http://www.w3.org/2000/svg">
<path d="M441.259 222.576C445.838 218.357 450.897 214.658 456.366 211.662C459.111 210.184 461.956 208.829 465.062 208.126C468.177 207.494 471.383 207.514 474.488 208.126L474.078 208.187C474.949 207.83 475.801 207.392 476.602 206.862C477.423 206.353 478.095 205.65 478.856 205.028L479.177 204.743V205.16C479.147 206.373 478.906 207.739 477.874 208.727C477.624 208.972 477.323 209.165 477.033 209.318C476.893 209.4 476.742 209.451 476.612 209.512C476.552 209.532 476.492 209.573 476.502 209.563C476.472 209.553 476.622 209.573 476.682 209.196C476.682 209.043 476.642 208.951 476.562 208.87C476.512 208.819 476.522 208.829 476.502 208.809C476.442 208.778 476.622 208.829 476.732 208.839C476.862 208.849 476.993 208.86 477.133 208.86C477.403 208.87 477.694 208.86 477.974 208.86C479.106 208.798 480.198 208.605 481.25 208.187C482.302 207.79 483.314 207.229 484.296 206.556H484.316L484.566 206.801L481.531 210.684V210.704L481.501 210.154C481.992 210.663 482.573 211.091 483.224 211.346C483.865 211.601 484.566 211.652 485.257 211.479C485.949 211.316 486.61 210.979 487.241 210.602C487.892 210.215 488.503 209.818 489.104 209.349L489.134 209.328C489.084 209.328 489.315 209.257 489.365 209.359C489.405 209.39 489.435 209.502 489.385 209.573C489.315 209.665 489.345 209.624 489.325 209.654L489.264 209.705L489.154 209.807L488.924 210.001L488.473 210.388L487.561 211.153L485.738 212.671L485.718 212.691V212.396C486.199 212.64 486.67 212.936 487.141 213.231C487.602 213.547 488.072 213.833 488.493 214.189C489.335 214.913 490.176 215.636 490.917 216.472L490.937 216.492L490.797 216.452C493.752 216.126 496.577 214.791 498.721 212.691C498.851 212.559 498.982 212.426 499.102 212.294C499.162 212.223 499.222 212.151 499.272 212.09C499.292 212.06 499.332 212.019 499.332 211.998C499.332 211.998 499.352 211.958 499.332 212.019C499.332 212.09 499.332 212.141 499.473 212.202C499.583 212.202 499.513 212.202 499.513 212.202C499.222 212.375 498.912 212.62 498.611 212.834L496.808 214.21L493.232 216.992C490.837 218.836 488.503 220.742 486.049 222.556C483.484 224.268 480.439 224.992 477.444 225.287C475.941 225.44 474.438 225.552 472.926 225.572C471.413 225.593 469.91 225.491 468.408 225.399L459.412 224.829C456.416 224.665 453.411 224.594 450.406 224.472C448.903 224.431 447.4 224.339 445.908 224.329H441.4C441.3 224.329 441.219 224.248 441.219 224.156C441.219 224.064 441.3 223.972 441.4 223.972H445.908C447.41 223.983 448.913 224.074 450.416 224.115C453.421 224.237 456.426 224.309 459.432 224.472L468.428 225.043C469.93 225.134 471.423 225.236 472.915 225.216C474.408 225.195 475.911 225.093 477.393 224.941C480.359 224.645 483.344 223.932 485.828 222.271C488.243 220.487 490.597 218.561 492.991 216.717L496.577 213.935L498.381 212.559C498.691 212.335 498.972 212.11 499.332 211.896C499.372 211.896 499.342 211.866 499.503 211.856C499.683 211.917 499.653 211.998 499.663 212.09C499.643 212.172 499.643 212.141 499.633 212.172C499.593 212.243 499.573 212.274 499.533 212.314C499.473 212.396 499.402 212.467 499.342 212.538C499.212 212.681 499.082 212.824 498.942 212.956C496.748 215.117 493.843 216.482 490.817 216.819H490.737L490.677 216.778L490.657 216.757C489.705 216.187 488.854 215.504 488.002 214.831C487.591 214.465 487.141 214.169 486.72 213.823C486.299 213.476 485.878 213.119 485.488 212.722L485.287 212.518L485.468 212.426L485.488 212.406L487.311 210.888L488.223 210.123L488.673 209.736L488.894 209.542L489.004 209.451L489.054 209.4C489.054 209.4 489.094 209.349 489.044 209.42C489.004 209.491 489.044 209.593 489.074 209.614C489.114 209.716 489.345 209.644 489.295 209.644C488.734 210.133 488.092 210.592 487.461 211.01C486.83 211.428 486.139 211.835 485.368 212.049C484.606 212.274 483.735 212.274 482.963 212.009C482.192 211.754 481.501 211.285 480.92 210.735L480.639 210.47L480.9 210.184H480.91L484.276 206.577L484.526 206.832H484.516C483.745 207.8 482.763 208.615 481.631 209.165C480.499 209.726 479.227 210.001 477.984 210.021C477.674 210.021 477.363 210.021 477.043 210.011C476.883 210.001 476.722 209.981 476.552 209.95C476.362 209.899 476.241 209.919 475.921 209.746C475.861 209.705 475.841 209.695 475.771 209.624C475.67 209.502 475.6 209.379 475.6 209.196C475.6 208.962 475.71 208.849 475.771 208.778C475.821 208.717 475.881 208.676 475.911 208.666C476.051 208.584 476.121 208.564 476.201 208.523L476.602 208.37C476.852 208.279 477.063 208.167 477.263 208.014C478.075 207.392 478.505 206.251 478.796 205.109L479.106 205.252C478.445 206.006 477.854 206.852 477.083 207.525C476.332 208.218 475.51 208.829 474.629 209.369L474.458 209.471L474.218 209.43C471.273 208.89 468.207 208.798 465.262 209.328C462.327 209.899 459.482 211.132 456.747 212.498C451.267 215.28 446.138 218.785 441.46 222.852C441.39 222.913 441.269 222.913 441.209 222.831C441.149 222.76 441.149 222.648 441.229 222.576H441.259Z" fill="#171717"/>
<path d="M436.321 277.107C436.091 277.107 435.87 276.985 435.75 276.761C432.725 271.176 431.803 264.389 429.95 250.866C428.377 239.34 429.89 225.837 434.327 211.825C434.438 211.479 434.798 211.285 435.149 211.397C435.489 211.509 435.68 211.886 435.57 212.233C431.182 226.062 429.689 239.361 431.242 250.693C433.075 264.053 433.987 270.768 436.892 276.129C437.062 276.445 436.952 276.852 436.632 277.026C436.531 277.077 436.421 277.107 436.321 277.107V277.107Z" fill="#171717"/>
<path d="M442.692 200.84C442.392 200.84 442.131 200.636 442.061 200.33C441.981 199.973 442.201 199.617 442.552 199.535C446.028 198.71 449.514 197.986 452.92 197.385L454.653 197.079C457.989 196.498 461.435 195.907 464.511 194.888C466.424 194.256 468.428 193.492 468.819 193.349L468.929 193.309C469.68 193.023 470.532 192.687 471.724 192.188C474.128 191.189 475.991 190.363 477.634 189.64C481.822 187.785 484.126 186.756 488.323 186.144C492.44 185.533 495.616 185.706 498.631 186.705C501.346 187.602 503.821 189.09 505.994 191.118C506.615 189.986 507.257 188.295 506.866 186.511C506.565 185.146 505.744 184.147 504.372 182.506C503.189 181.09 502.408 180.152 501.376 179.541C500.284 178.889 499.012 178.675 497.76 178.685C497.048 179.622 494.304 180.01 492.571 180.162C492.02 180.213 491.388 180.264 491.258 179.643L491.168 179.225L491.559 178.929C491.769 178.777 492.891 178.236 494.444 177.829C493.242 177.584 491.709 177.34 490.136 177.166C487.291 176.85 484.837 176.575 481.902 177.166C480.139 177.513 478.606 178.073 474.609 180.315C471.123 182.262 468.368 184.035 466.354 185.329C462.828 187.592 461.516 188.437 460.664 187.602C460.053 187 460.374 185.93 460.925 184.728C460.484 185.176 459.983 185.655 459.422 186.134C455.976 189.059 450.927 191.128 449.214 189.395C448.913 189.1 448.793 188.764 448.723 188.549C448.162 188.876 446.81 191.077 445.988 192.422L445.868 192.626C444.375 195.072 442.792 197.599 441.159 200.126C440.959 200.432 440.558 200.513 440.258 200.32C439.957 200.116 439.877 199.708 440.068 199.403C441.69 196.886 443.263 194.368 444.756 191.933L444.876 191.729C446.789 188.6 447.921 186.858 449.184 187.255C449.695 187.418 449.845 187.846 449.935 188.111C449.995 188.285 450.035 188.376 450.125 188.468C450.947 189.293 454.944 188.223 458.59 185.125C459.652 184.218 460.494 183.301 461.105 182.618C461.986 181.65 462.467 181.11 463.068 181.548C463.73 182.017 463.339 182.802 462.618 184.229C462.317 184.83 461.736 186.002 461.636 186.552C462.297 186.358 463.93 185.309 465.653 184.208C467.686 182.904 470.461 181.12 473.978 179.154C478.125 176.83 479.758 176.239 481.651 175.862C484.777 175.24 487.331 175.526 490.277 175.862C494.694 176.361 496.568 176.912 497.349 177.38C498.902 177.309 500.565 177.554 502.017 178.41C503.239 179.133 504.121 180.193 505.343 181.661C506.796 183.403 507.747 184.555 508.118 186.236C508.699 188.896 507.447 191.332 506.656 192.544L506.215 193.207L505.654 192.646C503.49 190.465 500.985 188.896 498.211 187.979C495.396 187.051 492.4 186.888 488.493 187.469C484.476 188.06 482.352 188.998 478.135 190.873C476.482 191.607 474.619 192.432 472.195 193.431C470.922 193.961 470.051 194.307 469.259 194.603C468.859 194.756 466.835 195.52 464.892 196.162C461.736 197.212 458.24 197.813 454.854 198.404L453.131 198.71C449.755 199.311 446.289 200.034 442.833 200.85C442.782 200.86 442.732 200.87 442.682 200.87L442.692 200.84Z" fill="#171717"/>
<path d="M245.032 277.291C247.396 288.694 250.101 300.026 253.166 311.256C256.202 322.497 259.558 333.645 263.324 344.641C267.111 355.596 271.369 366.551 278.211 375.896C284.913 385.292 293.067 393.638 302.353 400.375C306.982 403.768 311.93 406.672 317.07 409.22C322.219 411.737 327.418 414.193 332.747 416.292C338.067 418.402 343.516 420.196 348.996 421.897L365.465 426.901C370.965 428.532 376.455 430.203 382.045 431.344C387.645 432.424 393.345 433.066 399.045 433.179C410.465 433.454 421.895 431.895 432.955 428.99L432.895 429.011C438.465 426.575 443.594 423.08 447.881 418.708C452.109 414.254 456.096 409.536 459.852 404.644C463.609 399.753 467.145 394.678 470.471 389.481C472.144 386.882 473.737 384.243 475.31 381.573C476.091 380.238 476.853 378.892 477.594 377.537L478.696 375.499L479.237 374.47L479.497 373.96L479.627 373.705C479.627 373.705 479.678 373.634 479.728 373.593L479.768 373.44C485.177 362.516 489.565 351.082 493.081 339.373L498.381 321.814L503.48 304.184C511.274 281.061 512.796 255.533 505.974 231.931C504.892 225.899 504.431 219.743 504.672 213.608C504.792 210.541 505.113 207.494 505.413 204.447C505.724 201.4 505.944 198.353 506.104 195.296C506.405 189.181 506.465 183.057 506.134 176.942C505.984 173.885 505.744 170.838 505.363 167.801C505.002 164.764 504.522 161.748 503.88 158.762C501.376 146.788 496.457 135.435 490.266 124.979C487.141 119.762 483.635 114.779 479.798 110.07C477.914 107.686 475.851 105.464 473.817 103.212C471.673 101.072 469.6 98.8606 467.306 96.8835C458.39 88.6902 448.052 82.1273 436.952 77.5211C434.207 76.2778 431.352 75.2995 428.507 74.3314C425.652 73.3938 422.767 72.5582 419.822 72.0181C413.931 71.0194 407.86 71.2232 402 72.3952C396.12 73.5263 390.399 75.5135 384.509 76.8995C378.639 78.3262 372.598 79.2433 366.527 79.2332C363.502 79.2535 360.486 79.1007 357.491 79.1211C354.496 79.1211 351.511 79.3453 348.555 79.7835C342.645 80.721 336.835 82.3413 331.315 84.6852C320.235 89.3322 310.157 96.2823 301.272 104.455C292.376 112.628 284.552 122.045 278.121 132.337C274.915 137.484 272.07 142.885 269.886 148.541C268.774 151.374 267.922 154.247 267.241 157.243C266.5 160.219 265.668 163.185 264.737 166.109C261.03 177.819 255.911 189.069 249.49 199.505L249.57 199.026C250.391 202.776 250.782 206.618 250.742 210.46C250.712 214.301 250.211 218.133 249.319 221.873C248.388 225.603 247.065 229.221 245.322 232.635C243.589 236.049 241.486 239.269 239.031 242.183L238.24 243.121L237.949 241.918C236.276 235.04 233.221 228.436 228.603 223.127C227.471 221.781 226.209 220.559 224.896 219.397C223.574 218.266 222.161 217.196 220.719 216.187C217.864 214.169 214.748 212.437 211.382 211.845C209.709 211.56 207.996 211.591 206.353 212.009C204.73 212.467 203.198 213.231 201.825 214.261C199.121 216.38 197.107 219.356 195.614 222.536C194.863 224.125 194.222 225.786 193.711 227.478C193.15 229.17 192.94 230.851 192.96 232.624C192.99 236.15 193.611 239.707 194.272 243.213C195.664 250.234 197.558 257.164 199.541 264.053C200.543 267.497 201.555 270.942 202.607 274.366C203.679 277.78 204.781 281.194 206.283 284.424C209.389 290.834 213.536 296.724 218.214 302.085C222.933 307.425 227.972 312.489 233.511 316.943C233.532 316.963 233.542 316.994 233.511 317.024C233.491 317.045 233.461 317.055 233.431 317.024C227.831 312.632 222.722 307.618 217.934 302.319C213.175 296.999 208.938 291.14 205.722 284.689C204.159 281.428 203.007 278.004 201.915 274.59C200.834 271.166 199.802 267.732 198.78 264.287C196.746 257.398 194.803 250.468 193.35 243.406C192.659 239.87 192.008 236.303 191.948 232.635C191.898 230.821 192.138 228.895 192.709 227.172C193.22 225.42 193.871 223.718 194.633 222.067C196.145 218.775 198.249 215.647 201.144 213.354C202.617 212.243 204.29 211.397 206.073 210.898C207.866 210.429 209.759 210.398 211.563 210.704C215.199 211.336 218.445 213.16 221.37 215.208C222.843 216.228 224.265 217.308 225.658 218.48C227.01 219.672 228.322 220.936 229.494 222.322C234.273 227.794 237.418 234.581 239.151 241.613L238.07 241.358C240.454 238.505 242.497 235.366 244.18 232.033C245.873 228.711 247.146 225.175 248.047 221.547C248.919 217.919 249.42 214.179 249.45 210.439C249.5 206.699 249.129 202.949 248.338 199.29L248.278 199.036L248.418 198.812C254.799 188.478 259.898 177.34 263.595 165.732C264.516 162.828 265.348 159.903 266.099 156.938C266.78 153.972 267.672 150.956 268.804 148.102C271.038 142.355 273.933 136.913 277.169 131.716C283.68 121.341 291.574 111.884 300.56 103.65C309.536 95.4263 319.714 88.4354 330.934 83.7477C336.524 81.3834 342.414 79.7529 348.415 78.8153C351.42 78.3669 354.456 78.1631 357.481 78.1631C360.506 78.1529 363.522 78.316 366.517 78.2956C372.508 78.316 378.468 77.4294 384.299 76.0231C390.149 74.6677 395.869 72.6907 401.84 71.5595C407.79 70.3876 413.951 70.1939 419.952 71.2334C422.947 71.7939 425.852 72.6499 428.727 73.5977C431.592 74.576 434.447 75.5645 437.212 76.8281C448.382 81.5057 458.77 88.1399 467.706 96.4046C470 98.402 472.084 100.634 474.238 102.784C476.272 105.057 478.335 107.299 480.229 109.693C484.065 114.432 487.572 119.446 490.707 124.694C496.898 135.221 501.797 146.625 504.281 158.66C504.922 161.656 505.393 164.693 505.744 167.74C506.114 170.787 506.345 173.844 506.495 176.912C506.806 183.036 506.725 189.181 506.415 195.296C506.255 198.353 506.014 201.41 505.704 204.467C505.393 207.514 505.063 210.561 504.932 213.619C504.652 219.723 505.123 225.868 506.225 231.881C506.766 234.887 507.517 237.852 508.238 240.828C508.889 243.824 509.48 246.841 509.841 249.888C510.622 255.971 510.823 262.127 510.532 268.262C510.282 274.396 509.5 280.49 508.469 286.534L508.068 288.796C507.938 289.54 507.807 290.314 507.597 291.058L506.385 295.491L503.89 304.327L498.862 321.977L493.622 339.576C490.146 351.306 485.738 362.791 480.339 373.756L480.379 373.603C480.339 373.736 480.279 373.879 480.219 374.011L480.078 374.276L479.808 374.796L479.267 375.825L478.165 377.873C477.414 379.229 476.652 380.584 475.871 381.919C474.308 384.599 472.705 387.249 471.032 389.858C467.696 395.086 464.16 400.171 460.403 405.093C456.637 410.015 452.65 414.733 448.392 419.238C444.044 423.681 438.835 427.237 433.185 429.724H433.155L433.125 429.744C422.005 432.689 410.505 434.269 398.995 434.004C393.244 433.892 387.504 433.26 381.844 432.18C376.184 431.039 370.684 429.367 365.185 427.747L348.706 422.764C343.216 421.062 337.746 419.278 332.387 417.159C327.017 415.049 321.808 412.593 316.629 410.076C311.46 407.528 306.441 404.583 301.762 401.169C292.416 394.321 284.231 385.873 277.529 376.365C274.143 371.637 271.288 366.5 268.924 361.171C266.56 355.841 264.556 350.358 262.683 344.845C258.967 333.808 255.651 322.629 252.675 311.368C249.73 300.097 247.146 288.725 244.902 277.291C244.902 277.26 244.912 277.229 244.942 277.219C244.972 277.219 245.002 277.229 245.012 277.26L245.032 277.291Z" fill="#171717"/>
<path d="M380.912 285.158C380.582 289.356 381.594 293.84 384.439 296.928C385.821 298.498 387.474 299.904 389.467 300.159C390.459 300.301 391.411 300.128 392.333 299.7C393.254 299.272 394.186 298.701 395.198 298.284C399.265 296.561 403.943 296.877 407.95 298.538C411.997 300.169 415.484 303.348 417.407 307.384C417.567 307.72 417.427 308.118 417.106 308.281C416.786 308.444 416.395 308.301 416.235 307.975C414.512 304.204 411.336 301.198 407.54 299.598C403.763 297.968 399.375 297.611 395.548 299.16C394.587 299.537 393.695 300.067 392.683 300.525C391.681 300.994 390.469 301.198 389.357 301.004C388.235 300.841 387.183 300.352 386.292 299.71C385.39 299.058 384.629 298.263 383.918 297.448C382.465 295.797 381.453 293.779 380.912 291.66C380.351 289.54 380.221 287.328 380.421 285.158C380.431 285.015 380.562 284.913 380.702 284.923C380.842 284.934 380.942 285.066 380.932 285.199L380.912 285.158Z" fill="#171717"/>
<path d="M426.533 307.241C429.128 305.254 431.572 303.073 433.826 300.668C434.948 299.486 436.2 298.171 437.883 297.59C439.526 296.989 441.329 297.091 442.932 297.601C443.092 297.652 443.183 297.825 443.133 297.988C443.082 298.151 442.922 298.233 442.762 298.192C441.229 297.764 439.586 297.754 438.144 298.334C436.691 298.895 435.599 300.097 434.517 301.33C432.323 303.837 429.899 306.161 427.335 308.281C427.054 308.515 426.643 308.464 426.423 308.179C426.193 307.893 426.243 307.476 426.523 307.251C426.523 307.251 426.533 307.241 426.543 307.241H426.533Z" fill="#171717"/>
<path d="M447.39 294.268C447.31 294.268 447.23 294.258 447.15 294.217C446.819 294.085 446.649 293.698 446.779 293.361C447.55 291.374 447.891 289.295 447.791 287.206C447.58 282.936 445.547 279.838 444.355 278.371C444.124 278.085 444.164 277.668 444.445 277.433C444.725 277.199 445.136 277.24 445.366 277.525C446.659 279.115 448.873 282.488 449.103 287.135C449.213 289.418 448.843 291.68 448.001 293.84C447.901 294.105 447.651 294.258 447.4 294.258L447.39 294.268Z" fill="#171717"/>
<path d="M246.765 365.155L237.839 364.921L237.649 364.717C233.381 360.131 230.296 354.547 228.743 348.565C226.279 339.087 228.302 331.291 229.164 327.959C230.937 321.131 234.373 314.691 239.111 309.351L239.141 309.32C240.374 308.107 242.197 307.802 243.68 308.556C244.952 309.198 245.773 310.533 245.833 312.021V312.275L245.673 312.469C242.768 315.934 238.971 321.722 237.378 329.651C236.817 332.473 235.315 339.984 238.4 348.483C239.041 350.246 239.833 351.948 240.764 353.558C243.76 346.027 244.731 338.109 243.569 330.588C243.119 327.684 242.357 324.81 241.285 322.038L240.915 321.08L241.926 321.141C242.608 321.182 243.289 321.182 243.96 321.141C245.793 321.039 247.607 320.652 249.36 320L249.931 319.786L250.181 320.346C253.417 327.663 257.945 342.083 251.874 356.483C250.622 359.459 248.959 362.281 246.935 364.89L246.735 365.155H246.765ZM238.42 363.616L246.144 363.82C248.007 361.385 249.54 358.745 250.702 355.973C256.432 342.399 252.385 328.733 249.259 321.457C247.566 322.028 245.813 322.374 244.06 322.476C243.67 322.497 243.259 322.507 242.868 322.507C243.79 325.075 244.461 327.725 244.882 330.395C246.114 338.384 245.022 346.791 241.716 354.75L245.493 359.805L244.511 360.671C241.245 357.268 238.781 353.334 237.198 348.962C233.982 340.106 235.535 332.331 236.116 329.406C237.719 321.355 241.536 315.445 244.521 311.837C244.411 310.93 243.88 310.145 243.109 309.758C242.127 309.259 240.905 309.463 240.073 310.268C235.485 315.455 232.149 321.692 230.426 328.316C229.585 331.546 227.621 339.108 230.005 348.249C231.488 353.935 234.393 359.245 238.41 363.637L238.42 363.616Z" fill="#171717"/>
<path d="M388.296 198.587C388.296 198.587 388.266 198.587 388.256 198.587C382.826 198.21 377.296 197.68 371.836 196.998C364.934 196.131 360.787 195.377 356.399 194.562C353.564 194.042 350.639 193.502 346.772 192.901C334.41 190.965 325.494 189.568 314.375 189.925C305.769 190.2 297.024 191.525 288.379 193.869L286.044 194.501L287.757 192.758C295.812 184.544 305.359 178.736 315.346 175.964C320.275 174.598 330.062 174.935 349.557 175.617C358.964 175.943 366.357 178.216 372.868 180.213L374.431 180.692C376.334 181.273 377.867 181.691 378.939 181.936C378.258 181.232 377.697 180.407 377.246 179.469L376.645 178.216L377.977 178.532C381.313 179.337 384.078 180.753 386.182 182.771C386.392 182.965 386.613 183.189 386.853 183.434C388.095 184.687 389.808 186.399 392.483 187.673C393.785 188.284 394.046 188.121 394.066 188.101C394.186 187.999 394.306 187.53 393.705 185.564C393.505 184.901 393.304 184.279 393.936 184.035L394.236 183.923L394.547 184.106C395.088 184.443 396.58 186.899 396.921 189.946C397.211 192.595 396.58 195.357 395.088 197.945C394.907 198.261 394.507 198.363 394.196 198.18C393.885 197.996 393.785 197.589 393.966 197.273C395.318 194.929 395.889 192.452 395.629 190.088C395.568 189.528 395.458 188.998 395.328 188.509C395.238 188.753 395.098 188.957 394.897 189.13C394.026 189.864 392.613 189.191 391.932 188.876C389.047 187.51 387.174 185.625 385.931 184.381C385.701 184.147 385.481 183.933 385.28 183.739C383.677 182.211 381.644 181.039 379.23 180.264C379.59 180.753 380.001 181.182 380.452 181.569C380.582 181.681 380.712 181.783 380.822 181.864C381.203 182.16 381.624 182.496 381.433 183.036C381.213 183.648 381.053 184.096 374.06 181.966L372.488 181.487C366.046 179.51 358.753 177.278 349.547 176.952C330.153 176.27 320.435 175.933 315.687 177.248C306.631 179.765 297.946 184.84 290.432 191.974C298.396 189.986 306.421 188.855 314.335 188.6C325.564 188.244 334.54 189.64 346.952 191.586C350.849 192.198 353.784 192.738 356.619 193.258C360.987 194.063 365.114 194.827 371.987 195.683C377.426 196.366 382.926 196.896 388.336 197.263C388.696 197.283 388.967 197.599 388.937 197.966C388.917 198.312 388.626 198.587 388.286 198.587H388.296Z" fill="#171717"/>
<path d="M446.399 211.601C447.651 209.95 449.124 208.472 450.716 207.137C452.329 205.823 454.092 204.702 455.956 203.754C457.829 202.827 459.812 202.134 461.856 201.685C463.9 201.237 466.003 201.064 468.087 201.094C470.171 201.166 472.204 201.349 474.268 201.645C476.312 201.971 478.345 202.429 480.309 203.071C482.272 203.713 484.196 204.488 486.059 205.374C487.902 206.312 489.695 207.331 491.378 208.513C489.545 207.586 487.702 206.689 485.798 205.965C483.915 205.201 481.992 204.549 480.028 204.039C476.121 203 472.084 202.511 468.057 202.399C464.05 202.276 460.073 203.092 456.366 204.661C454.523 205.456 452.75 206.455 451.087 207.637C449.394 208.778 447.861 210.144 446.389 211.581L446.399 211.601Z" fill="#171717"/>
<path d="M373.379 213.384C371.165 211.275 368.801 209.339 366.237 207.749C363.702 206.108 360.977 204.794 358.152 203.785C355.297 202.867 352.402 202.124 349.427 201.787C346.451 201.492 343.456 201.512 340.491 201.859C334.54 202.46 328.75 204.345 323.381 207.056C320.696 208.411 318.121 210.021 315.737 211.876C313.313 213.69 311.079 215.779 308.975 218.001C310.858 215.586 313.022 213.384 315.336 211.367C317.681 209.379 320.235 207.647 322.92 206.149C328.299 203.194 334.25 201.257 340.361 200.544C343.416 200.228 346.512 200.248 349.567 200.595C352.612 201.003 355.628 201.736 358.503 202.837C361.358 203.978 364.093 205.436 366.597 207.209C369.082 209.012 371.386 211.061 373.389 213.384H373.379Z" fill="#171717"/>
<path d="M315.126 218.663C316.478 217.134 317.981 215.738 319.604 214.505C320.415 213.894 321.257 213.313 322.138 212.793L324.823 211.356L324.723 212.508C322.259 210.786 320.285 208.36 319.083 205.578L317.029 200.839L320.185 204.906C321.247 206.271 322.499 207.474 323.922 208.411C324.633 208.88 325.384 209.288 326.166 209.624C326.947 209.97 327.788 210.123 328.59 210.388L328.259 210.409L331.635 209.339L331.575 210.582C329.832 209.828 328.219 208.737 326.857 207.402C325.494 206.057 324.372 204.478 323.521 202.766L324.623 202.073C326.095 204.06 327.698 205.986 329.662 207.351C330.633 208.024 331.705 208.554 332.807 208.737C333.909 208.951 335.021 208.676 336.273 208.411C338.768 207.871 341.342 207.708 343.867 207.79C346.421 207.83 348.986 208.421 351.38 209.226C356.169 210.898 360.737 213.089 365.034 215.789C367.188 217.134 369.202 218.633 371.305 219.937C373.399 221.262 375.623 222.352 377.877 223.371H377.897L380.462 224.584L377.667 224.645L370.594 224.808C368.23 224.839 365.876 225.063 363.522 225.185C358.803 225.471 354.095 225.858 349.387 226.184C347.022 226.327 344.678 226.561 342.284 226.581C339.91 226.581 337.536 226.449 335.171 226.164C332.807 225.868 330.433 225.42 328.179 224.472C325.945 223.524 323.861 222.25 321.978 220.681C321.698 220.446 321.658 220.029 321.888 219.743C322.118 219.458 322.529 219.417 322.81 219.652C322.81 219.652 322.83 219.672 322.84 219.672C324.533 221.252 326.466 222.597 328.56 223.595C330.653 224.553 332.958 225.073 335.272 225.43C337.596 225.756 339.95 225.888 342.294 225.929C344.628 225.929 346.992 225.736 349.347 225.552C354.055 225.165 358.773 224.818 363.482 224.38C368.19 223.911 372.908 223.646 377.637 223.3L377.396 224.574H377.376C375.072 223.524 372.788 222.403 370.634 221.048C368.47 219.713 366.457 218.215 364.353 216.9C360.166 214.261 355.638 212.1 350.979 210.47C348.635 209.685 346.281 209.145 343.827 209.094C341.372 209.012 338.928 209.165 336.534 209.685C335.933 209.807 335.312 209.95 334.651 210.042C333.979 210.133 333.268 210.133 332.597 210.021C331.235 209.797 330.002 209.176 328.92 208.421C326.747 206.903 325.094 204.885 323.571 202.827L324.673 202.134C326.236 205.323 328.86 207.953 332.076 209.328L333.719 210.032L332.016 210.572L328.64 211.642L328.45 211.703L328.309 211.662C327.428 211.377 326.506 211.203 325.655 210.826C324.793 210.47 323.972 210.021 323.2 209.502C321.648 208.472 320.285 207.168 319.153 205.7L320.255 205.018C321.357 207.576 323.18 209.807 325.444 211.387L326.336 212.009L325.354 212.538L322.78 213.914C321.948 214.414 321.137 214.964 320.365 215.545C318.812 216.717 317.37 218.052 316.078 219.519C315.837 219.794 315.427 219.815 315.156 219.57C314.886 219.326 314.865 218.908 315.106 218.633L315.126 218.663Z" fill="#171717"/>
<path d="M355.327 339.76C359.174 342.002 363.241 343.857 367.519 345.018C369.652 345.579 371.836 345.997 374.03 346.099C376.234 346.313 378.408 346.007 380.642 345.772C385.09 345.253 389.558 344.794 394.006 344.366C398.464 343.938 402.921 343.48 407.409 343.225C409.643 343.092 411.937 343.102 414.171 343.337C416.415 343.52 418.639 343.918 420.833 344.081C423.027 344.254 425.221 343.897 427.355 343.286C429.478 342.685 431.542 341.686 433.836 341.37C438.424 340.514 442.962 342.776 447.05 343.316C449.183 343.255 451.317 342.542 453.341 341.666C455.374 340.789 457.338 339.74 459.261 338.608C459.572 338.425 459.973 338.537 460.153 338.853C460.333 339.169 460.223 339.577 459.912 339.76C459.912 339.76 459.892 339.76 459.892 339.77C457.899 340.84 455.855 341.849 453.731 342.664C451.608 343.459 449.404 344.203 447.05 344.223C446.459 344.213 445.868 344.162 445.276 343.999C444.665 343.816 444.215 343.622 443.664 343.459C442.602 343.123 441.53 342.827 440.448 342.573C439.366 342.338 438.274 342.063 437.202 341.982C436.12 341.9 435.008 341.941 433.926 342.083C431.763 342.369 429.719 343.327 427.525 343.938C425.361 344.57 423.057 344.957 420.783 344.794C418.509 344.641 416.315 344.254 414.091 344.091C411.867 343.867 409.673 343.867 407.439 344.02C402.992 344.295 398.534 344.784 394.086 345.232C389.628 345.681 385.19 346.17 380.742 346.71C376.314 347.423 371.616 347.199 367.238 346.068C362.83 344.947 358.633 343.113 354.676 340.901C354.365 340.728 354.245 340.32 354.416 340.005C354.586 339.689 354.987 339.566 355.297 339.74L355.327 339.76Z" fill="#171717"/>
<path d="M372.217 341.329C375.683 341.003 379.13 340.524 382.496 339.699C385.871 338.904 389.177 337.834 392.323 336.417C393.896 335.714 395.428 334.919 396.951 334.084C398.474 333.248 399.976 332.341 401.579 331.567C403.182 330.782 404.925 330.17 406.738 329.967C408.542 329.753 410.375 329.855 412.138 330.283C413.911 330.721 415.504 331.454 417.117 331.801C418.73 332.168 420.433 332.158 422.086 331.913C422.917 331.791 423.709 331.577 424.47 331.271C425.231 330.955 425.973 330.527 426.804 330.14C428.487 329.335 430.37 329.131 432.143 329.233C433.947 329.325 435.7 329.804 437.353 330.405C439.006 331.016 440.608 331.73 442.191 332.453C445.367 333.91 448.512 335.48 451.468 337.355C448.362 335.745 445.197 334.308 441.941 333.054C438.725 331.77 435.469 330.313 432.103 330.242C430.42 330.221 428.747 330.456 427.265 331.169C426.513 331.526 425.742 331.984 424.901 332.341C424.049 332.698 423.158 332.952 422.266 333.085C420.483 333.36 418.65 333.401 416.856 333.014C415.063 332.637 413.45 331.913 411.827 331.536C410.215 331.128 408.522 331.016 406.869 331.19C405.216 331.363 403.613 331.893 402.07 332.626C399.005 334.114 395.989 336.071 392.694 337.335C389.428 338.67 386.042 339.648 382.606 340.31C379.16 340.932 375.673 341.278 372.197 341.309L372.217 341.329Z" fill="#171717"/>
<path d="M378.969 357.196C381.764 358.266 384.569 359.285 387.424 360.111C390.269 360.977 393.144 361.721 396.059 362.302C398.974 362.852 401.89 363.372 404.835 363.678C407.77 363.994 410.755 364.146 413.711 364.248C416.666 364.371 419.621 364.32 422.536 363.963C425.461 363.617 428.336 362.934 431.141 362.027C433.956 361.13 436.681 359.927 439.276 358.491C441.901 357.094 444.375 355.393 446.739 353.548C444.565 355.627 442.141 357.441 439.596 359.051C437.022 360.62 434.297 361.955 431.462 362.985C425.792 365.115 419.651 365.757 413.66 365.563C407.69 365.278 401.679 364.727 395.839 363.28C392.924 362.577 390.049 361.721 387.224 360.712C384.409 359.673 381.644 358.531 378.959 357.186L378.969 357.196Z" fill="#171717"/>
<g opacity="0.06">
<path d="M326.787 240.838C328.91 241.276 331.034 241.704 333.178 241.949C335.312 242.244 337.456 242.448 339.599 242.53C343.887 242.683 348.195 242.52 352.432 241.867C356.68 241.276 360.847 240.206 364.924 238.841C366.958 238.148 368.961 237.343 370.935 236.446C372.918 235.59 374.842 234.581 376.755 233.552C374.992 234.836 373.119 235.967 371.205 237.027C369.272 238.056 367.288 238.973 365.265 239.788C361.198 241.409 356.94 242.54 352.612 243.172C348.285 243.804 343.887 243.946 339.539 243.539C337.365 243.335 335.202 243.019 333.068 242.591C330.944 242.122 328.83 241.572 326.787 240.838V240.838Z" fill="#171717"/>
</g>
<g opacity="0.06">
<path d="M451.387 232.798C457.208 236.018 463.439 238.28 469.91 239.177C476.371 240.125 482.973 239.707 489.445 238.27C486.349 239.483 483.083 240.298 479.757 240.655C476.432 241.032 473.056 240.96 469.73 240.492C463.088 239.544 456.657 236.915 451.387 232.808V232.798Z" fill="#171717"/>
</g>
<path d="M464.2 226.113C461.165 226.113 458.2 224.91 456.136 223.116C453.111 220.487 452.289 216.951 452.069 215.076C452.029 214.709 452.279 214.383 452.64 214.342C453 214.301 453.321 214.556 453.361 214.923C453.561 216.605 454.293 219.774 456.987 222.118C460.183 224.9 465.803 226.102 469.92 222.851C473.667 219.886 474.769 214.342 472.485 209.96C472.315 209.634 472.435 209.237 472.755 209.063C473.076 208.89 473.467 209.012 473.637 209.339C476.211 214.281 474.959 220.548 470.722 223.901C468.738 225.471 466.454 226.133 464.21 226.133L464.2 226.113Z" fill="#171717"/>
<path d="M337.816 226.143C335.662 226.143 333.418 225.501 331.345 224.248C327.678 222.036 325.144 218.245 324.392 213.863C324.332 213.507 324.563 213.16 324.923 213.099C325.274 213.038 325.614 213.272 325.675 213.639C326.366 217.644 328.67 221.099 332.016 223.116C334.851 224.828 338.026 225.277 340.711 224.349C345.43 222.729 348.465 217.033 347.794 211.112C347.754 210.745 348.004 210.419 348.365 210.378C348.725 210.337 349.046 210.592 349.086 210.959C349.827 217.491 346.411 223.779 341.132 225.603C340.08 225.97 338.968 226.143 337.826 226.143H337.816Z" fill="#171717"/>
<path d="M492.54 384.548C492.54 377.017 493.642 369.476 496.037 362.332C497.179 358.745 498.811 355.321 500.715 352.081C502.628 348.84 504.882 345.844 507.166 342.909C509.45 339.964 511.734 337.049 513.788 333.961C515.832 330.874 517.615 327.613 519.198 324.26C522.253 317.493 524.647 310.38 525.939 303.063C527.252 295.746 527.372 288.205 526.24 280.868C525.659 277.199 524.707 273.602 523.665 270.014C522.614 266.437 521.482 262.881 520.33 259.324C519.178 255.768 518.036 252.211 516.843 248.675L513.147 238.087C511.895 234.53 511.203 230.749 510.883 226.989C510.552 223.188 510.883 219.407 511.203 215.677C511.865 208.218 512.375 200.758 512.876 193.288C513.117 189.558 513.357 185.818 513.477 182.088C513.598 178.359 513.578 174.639 513.017 170.981C511.875 163.613 510.432 156.255 509.09 148.897L504.982 126.855L504.471 124.103C504.291 123.186 504.001 122.309 503.77 121.403C503.259 119.619 502.718 117.836 502.097 116.083C500.875 112.577 499.463 109.133 497.86 105.79C494.674 99.0746 490.707 92.7869 486.54 86.6215C485.518 85.0623 484.446 83.5948 483.294 82.1171L479.908 77.674L473.216 68.7265L459.983 50.7296L460.073 50.8315C446.97 39.4281 433.596 28.3303 419.651 18.0478C416.155 15.49 412.619 12.983 409.012 10.6086C405.396 8.24432 401.719 5.98198 397.803 4.3005C393.906 2.62922 389.668 1.80376 385.461 2.18082C381.263 2.52731 377.196 4.00497 373.59 6.24694L373.369 6.37942L373.119 6.32846L354.846 2.46617H354.977L354.015 2.28273L353.193 2.14006C352.643 2.04835 352.082 1.97701 351.521 1.90567C350.399 1.763 349.277 1.67128 348.145 1.57957C345.881 1.41651 343.617 1.34518 341.342 1.33499C336.804 1.51842 332.256 1.52861 327.748 2.2012C318.732 3.28142 309.787 5.26863 301.151 8.18318C292.496 11.0468 284.071 14.6135 275.917 18.7612C267.782 22.9088 259.858 27.5762 252.465 32.9365L252.515 32.8958C248.548 36.6154 244.671 40.4471 240.895 44.3604C237.158 48.3246 233.461 52.3296 229.955 56.4976C222.883 64.7929 216.281 73.5059 210.25 82.6165C204.22 91.7168 198.72 101.194 193.831 110.988C192.649 113.454 191.367 115.879 190.275 118.386C189.163 120.893 188.011 123.369 186.929 125.886C184.765 130.931 182.601 135.975 180.568 141.06C178.524 146.146 176.591 151.272 174.878 156.479C173.185 161.687 171.732 166.976 170.6 172.326C168.266 183.026 167.515 194.042 168.086 204.987C168.386 210.46 168.867 215.952 169.248 221.445C169.638 226.938 169.989 232.431 170.269 237.934C170.84 248.93 171.211 259.946 171.492 270.942C171.742 281.917 173.145 292.831 174.968 303.664C176.811 314.487 179.145 325.238 181.88 335.867C183.252 341.176 184.745 346.455 186.478 351.653C188.201 356.84 190.195 362.017 191.387 367.438C192.609 372.839 193.461 378.291 194.092 383.774C194.723 389.267 194.823 394.79 195.484 400.222C196.115 405.664 197.267 411.024 198.479 416.374C199.692 421.724 201.114 427.023 202.777 432.241C204.45 437.459 206.353 442.595 208.517 447.619C209.599 450.136 210.791 452.582 211.973 455.068C213.155 457.565 214.187 460.143 215.089 462.752C216.942 467.96 218.154 473.361 220.308 478.334C222.502 483.287 225.417 487.954 228.923 492.051C232.44 496.147 236.777 499.48 241.506 502.007C246.244 504.534 251.383 506.277 256.652 507.306L256.081 508.101C252.465 501.396 249.6 494.221 247.917 486.731C247.066 482.991 246.535 479.18 246.314 475.348C246.084 471.516 246.204 467.674 246.484 463.863C246.745 460.052 247.176 456.271 247.166 452.5C247.186 450.615 247.035 448.74 246.785 446.885C246.464 445.041 246.084 443.206 245.453 441.443C244.25 437.897 242.457 434.575 240.424 431.405C238.4 428.236 236.176 425.169 233.862 422.203C231.538 419.238 229.004 416.445 226.559 413.551C224.095 410.667 221.761 407.661 219.567 404.553C215.199 398.336 211.242 391.835 207.646 385.129C200.443 371.728 194.833 357.451 190.736 342.776C189.694 339.108 188.832 335.358 188.301 331.556C187.77 327.755 187.54 323.924 187.52 320.102C187.51 312.449 188.372 304.785 190.245 297.356C190.726 295.501 191.277 293.657 191.948 291.863C192.639 290.07 193.37 288.276 194.593 286.666C194.893 286.269 195.274 285.892 195.765 285.586C195.905 285.525 196.045 285.453 196.195 285.402C196.366 285.372 196.536 285.351 196.716 285.351C197.087 285.372 197.438 285.586 197.638 285.82C198.069 286.299 198.229 286.788 198.399 287.267C198.56 287.746 198.67 288.215 198.78 288.694C199.191 290.579 199.491 292.454 199.832 294.33C200.493 298.07 201.254 301.789 202.166 305.468C203.078 309.157 204.079 312.795 205.422 316.331C208.096 323.414 211.162 330.374 214.127 337.365L223.133 358.297C226.148 365.267 229.154 372.248 232.319 379.137C233.121 380.849 233.922 382.571 234.824 384.202C235.765 385.781 236.867 387.361 237.919 388.91C240.073 392.008 242.377 395.004 244.591 398.092C246.815 401.169 248.859 404.42 250.572 407.834C252.295 411.248 253.747 414.784 255.01 418.392C256.272 421.999 257.354 425.668 258.175 429.408C258.376 430.346 258.556 431.283 258.706 432.241C258.776 432.72 258.836 433.199 258.876 433.698C258.896 433.943 258.906 434.198 258.896 434.463C258.896 434.595 258.886 434.738 258.866 434.881C258.796 435.044 258.896 435.196 258.506 435.533C258.285 435.686 257.945 435.594 257.855 435.502C257.754 435.431 257.674 435.349 257.634 435.288C257.524 435.156 257.464 435.044 257.394 434.931C257.264 434.707 257.153 434.483 257.053 434.259C256.853 433.81 256.673 433.362 256.492 432.924C256.142 432.027 255.821 431.14 255.49 430.244C252.946 423.08 250.391 415.926 247.576 408.874C244.781 401.811 241.796 394.841 238.621 387.952C235.445 381.063 232.049 374.286 228.523 367.571C226.77 364.208 224.986 360.855 223.323 357.421C221.66 353.996 220.168 350.46 219.096 346.771C216.942 339.403 216.151 331.699 216.241 324.056C216.291 320.224 216.612 316.413 217.062 312.622C217.263 310.737 217.573 308.821 217.603 306.997C217.603 306.772 217.583 306.558 217.553 306.365C217.523 306.171 217.433 306.039 217.433 306.039C217.463 306.039 217.363 306.018 217.213 306.11C217.062 306.192 216.892 306.314 216.742 306.457C216.111 307.048 215.55 307.812 215.039 308.576C212.995 311.695 211.392 315.149 209.92 318.624C208.467 322.12 207.185 325.687 206.063 329.304C203.819 336.54 202.166 343.979 201.174 351.5C199.131 366.551 200.122 381.95 203.689 396.696C205.432 404.084 207.816 411.299 210.31 418.473C212.815 425.637 215.77 432.628 219.116 439.415C225.838 452.989 234.153 465.738 243.8 477.356C243.95 477.529 243.92 477.794 243.75 477.936C243.579 478.089 243.319 478.059 243.179 477.885C233.491 466.227 225.127 453.428 218.375 439.792C215.009 432.975 212.033 425.943 209.519 418.759C207.015 411.574 204.62 404.329 202.867 396.9C199.281 382.072 198.259 366.541 200.323 351.388C201.324 343.816 202.987 336.336 205.241 329.039C206.373 325.391 207.656 321.804 209.118 318.278C210.601 314.762 212.204 311.297 214.317 308.067C214.858 307.272 215.419 306.477 216.171 305.784C216.361 305.611 216.571 305.448 216.832 305.305C217.072 305.183 217.503 305.009 217.934 305.295C218.315 305.58 218.375 305.937 218.435 306.202C218.485 306.477 218.495 306.742 218.495 306.986C218.465 308.974 218.144 310.828 217.944 312.724C217.493 316.494 217.183 320.275 217.132 324.066C217.042 331.628 217.844 339.261 219.957 346.506C221.019 350.124 222.492 353.609 224.135 357.013C225.778 360.417 227.561 363.769 229.324 367.132C232.85 373.848 236.266 380.645 239.452 387.555C242.638 394.454 245.633 401.445 248.438 408.517C251.253 415.579 253.817 422.753 256.362 429.907C256.683 430.794 257.013 431.691 257.354 432.567C257.524 433.005 257.704 433.444 257.895 433.861C257.985 434.075 258.085 434.269 258.195 434.452C258.245 434.544 258.305 434.626 258.345 434.687C258.376 434.717 258.386 434.728 258.376 434.717C258.376 434.687 258.175 434.646 258.045 434.717C257.905 434.83 257.945 434.809 257.935 434.819L257.955 434.728C257.955 434.636 257.975 434.544 257.975 434.432C257.975 434.218 257.975 433.994 257.955 433.77C257.915 433.311 257.865 432.853 257.794 432.384C257.654 431.456 257.474 430.529 257.274 429.612C256.462 425.923 255.39 422.285 254.138 418.708C251.654 411.554 248.328 404.726 243.84 398.652C241.636 395.595 239.322 392.589 237.158 389.47C236.086 387.891 235.014 386.362 234.012 384.691C233.081 382.999 232.279 381.277 231.468 379.555C228.292 372.646 225.287 365.665 222.272 358.694L213.256 337.763C210.28 330.772 207.225 323.822 204.52 316.688C203.168 313.111 202.146 309.412 201.224 305.713C200.303 302.013 199.541 298.263 198.87 294.513C198.53 292.638 198.229 290.753 197.828 288.928C197.718 288.48 197.618 288.021 197.468 287.593C197.327 287.176 197.157 286.748 196.937 286.523C196.736 286.309 196.576 286.299 196.245 286.472C195.945 286.666 195.624 286.941 195.364 287.308C194.282 288.725 193.541 290.488 192.88 292.23C192.218 293.983 191.687 295.797 191.207 297.621C189.363 304.948 188.502 312.54 188.522 320.112C188.542 323.893 188.772 327.684 189.293 331.434C189.814 335.184 190.656 338.863 191.697 342.511C195.785 357.135 201.365 371.321 208.537 384.65C212.114 391.315 216.051 397.796 220.388 403.962C222.572 407.039 224.876 410.015 227.331 412.879C229.765 415.752 232.309 418.565 234.664 421.561C237.008 424.557 239.232 427.635 241.295 430.845C243.349 434.045 245.202 437.449 246.444 441.107C247.106 442.921 247.506 444.827 247.827 446.732C248.087 448.648 248.248 450.584 248.218 452.5C248.218 456.352 247.797 460.154 247.536 463.934C247.266 467.715 247.146 471.506 247.376 475.277C247.596 479.047 248.127 482.797 248.959 486.487C250.612 493.865 253.437 500.937 257.023 507.571L257.574 508.59L256.452 508.366C251.093 507.316 245.853 505.553 241.005 502.965C236.166 500.376 231.718 496.973 228.112 492.764C224.516 488.565 221.57 483.837 219.306 478.762C217.092 473.646 215.88 468.245 214.047 463.109C213.155 460.52 212.144 458.003 210.972 455.537C209.799 453.071 208.587 450.595 207.495 448.057C205.312 442.992 203.398 437.826 201.705 432.577C200.022 427.329 198.6 421.999 197.367 416.619C196.155 411.258 194.983 405.847 194.342 400.344C193.671 394.841 193.571 389.328 192.94 383.896C192.309 378.454 191.457 373.023 190.245 367.693C189.063 362.353 187.099 357.247 185.356 352.019C183.613 346.792 182.11 341.482 180.728 336.152C177.983 325.483 175.639 314.721 173.786 303.858C171.952 292.995 170.54 282.019 170.279 270.972C169.999 259.966 169.618 248.97 169.047 237.985C168.757 232.492 168.416 226.999 168.025 221.517C167.645 216.034 167.154 210.551 166.853 205.038C166.262 194.001 167.024 182.863 169.378 172.061C170.52 166.66 171.982 161.33 173.686 156.082C175.409 150.844 177.352 145.687 179.396 140.582C181.439 135.476 183.603 130.421 185.767 125.377C186.849 122.85 188.011 120.353 189.123 117.846C190.225 115.319 191.507 112.893 192.689 110.407C197.598 100.573 203.108 91.0442 209.168 81.8929C215.219 72.7315 221.851 63.9776 228.953 55.6416C232.47 51.443 236.186 47.4278 239.943 43.4432C243.74 39.4994 247.627 35.6575 251.614 31.9175L251.644 31.8971L251.664 31.8767C259.157 26.4348 267.101 21.7573 275.295 17.5791C283.49 13.411 291.975 9.8137 300.701 6.91953C309.406 3.9744 318.422 1.96682 327.538 0.876406C332.086 0.193625 336.694 0.183434 341.282 0C343.576 0 345.881 0.0815278 348.175 0.24458C349.327 0.326106 350.469 0.428013 351.621 0.570684C352.192 0.642019 352.773 0.723543 353.344 0.81526L354.205 0.968123L354.636 1.05984L354.856 1.11079L354.967 1.14136H355.027C355.027 1.14136 354.957 1.14136 354.927 1.14136H355.057L373.329 5.01386L372.858 5.09538C376.615 2.77189 380.883 1.2127 385.3 0.856024C389.718 0.468775 394.196 1.34518 398.233 3.07761C402.27 4.82023 406.007 7.12334 409.643 9.49779C413.28 11.8926 416.816 14.4097 420.332 16.9778C434.317 27.3112 447.701 38.4396 460.814 49.8634L460.864 49.9041L460.904 49.9653L474.118 67.9622L480.8 76.8995L484.175 81.3426C485.318 82.8101 486.43 84.3489 487.461 85.9081C491.639 92.0837 495.636 98.4427 498.852 105.23C500.464 108.613 501.907 112.098 503.129 115.655C503.76 117.428 504.311 119.232 504.822 121.036C505.053 121.943 505.353 122.839 505.533 123.767L506.054 126.539L510.162 148.653C511.494 156.021 512.926 163.358 514.078 170.787C514.65 174.537 514.669 178.348 514.539 182.099C514.409 185.859 514.169 189.599 513.928 193.339C513.417 200.809 512.906 208.289 512.235 215.749C511.925 219.478 511.594 223.188 511.915 226.867C512.235 230.566 512.896 234.204 514.119 237.71L517.805 248.298C519.007 251.844 520.139 255.411 521.291 258.968C522.433 262.524 523.575 266.091 524.627 269.698C525.669 273.296 526.621 276.944 527.212 280.684C528.344 288.154 528.204 295.797 526.861 303.216C525.529 310.645 523.094 317.809 519.989 324.637C518.376 328.03 516.563 331.322 514.489 334.451C512.405 337.569 510.101 340.504 507.807 343.439C505.523 346.374 503.289 349.329 501.396 352.509C499.523 355.688 497.9 359.041 496.768 362.587C494.384 369.619 493.272 377.089 493.262 384.538C493.262 384.752 493.091 384.925 492.881 384.925C492.671 384.925 492.5 384.752 492.5 384.538L492.54 384.548Z" fill="#171717"/>
<path d="M458.28 583.88C458.28 583.88 458.23 583.88 458.2 583.88C457.839 583.839 457.589 583.503 457.639 583.136C460.143 562.622 459.682 531.897 443.233 502.048C438.735 493.885 433.246 486.201 426.914 479.21L407.76 478.11L398.594 516.672L398.073 513.441C396.32 502.547 395.97 491.49 397.021 480.576C398.584 464.362 403.182 448.72 410.686 434.076C410.856 433.749 411.247 433.627 411.567 433.79C411.888 433.963 412.008 434.361 411.848 434.687C404.424 449.178 399.876 464.658 398.334 480.698C397.402 490.379 397.582 500.183 398.885 509.885L406.769 476.724L427.535 477.916L427.716 478.11C434.187 485.233 439.797 493.06 444.395 501.396C461.015 531.56 461.486 562.581 458.951 583.299C458.911 583.635 458.631 583.88 458.31 583.88H458.28Z" fill="#171717"/>
<path d="M185.366 487.699C184.585 487.699 183.834 487.699 183.122 487.679C182.762 487.679 182.471 487.373 182.471 487.006C182.471 486.639 182.752 486.364 183.122 486.354C200.633 486.66 242.828 484 257.003 453.764C263.204 440.536 262.783 419.89 262.293 395.972C262.082 385.476 261.421 374.898 260.339 364.523C260.299 364.156 260.56 363.83 260.92 363.79C261.281 363.759 261.601 364.014 261.641 364.381C262.733 374.796 263.395 385.414 263.605 395.941C264.096 420.022 264.517 440.822 258.185 454.324C244.271 484.01 204.24 487.689 185.366 487.689V487.699Z" fill="#171717"/>
<path d="M550.814 557.057C550.553 557.057 550.313 556.894 550.213 556.64C546.616 547.499 541.918 538.887 536.238 531.051C515.251 502.078 486.63 491.551 477.223 488.097C461.756 482.41 445.377 479.608 428.537 479.842C428.186 479.842 427.886 479.557 427.876 479.19C427.866 478.823 428.156 478.527 428.517 478.517C445.507 478.324 462.046 481.106 477.664 486.853C487.161 490.339 516.062 500.968 537.28 530.266C543.02 538.194 547.778 546.907 551.415 556.15C551.545 556.487 551.385 556.874 551.054 557.007C550.974 557.037 550.894 557.057 550.814 557.057V557.057Z" fill="#171717"/>
<path d="M149.392 489.809C145.876 489.717 142.37 489.676 138.864 489.788C135.368 489.941 131.871 490.247 128.425 490.807C121.503 491.877 114.771 494.018 108.32 496.8C101.878 499.612 95.6672 503.006 89.8069 506.95C83.9365 510.873 78.2364 515.092 72.8368 519.668C62.0477 528.86 53.4224 540.416 46.3098 552.737C39.2072 565.098 33.3468 578.163 28.1276 591.462C22.9484 604.781 18.4605 618.386 14.814 632.225C11.1475 646.053 8.15222 660.076 6.02846 674.241C3.86462 688.396 2.40203 702.663 1.62065 716.961C0.80921 731.269 0.919405 745.597 1.3702 759.905V759.925C1.38022 760.292 1.09972 760.598 0.739081 760.608C0.378442 760.618 0.0779112 760.333 0.0678935 759.966C0.0678935 759.966 0.0678935 759.956 0.0678935 759.945L0.0178093 749.184C0.0178093 747.39 -0.0222617 745.597 0.0178093 743.803L0.158057 738.423L0.298305 733.042C0.338376 731.248 0.358412 729.455 0.478625 727.671L1.04964 716.93C2.05141 702.622 3.53403 688.355 5.74795 674.2C10.2259 645.901 17.3685 617.988 27.7369 591.309C32.9261 577.979 38.7464 564.874 45.839 552.451C52.9315 540.08 61.5668 528.432 72.396 519.138C77.8156 514.521 83.5057 510.272 89.3961 506.318C95.2766 502.333 101.478 498.838 107.959 495.944C114.44 493.08 121.243 490.848 128.255 489.697C131.751 489.095 135.287 488.759 138.824 488.576C142.36 488.433 145.906 488.433 149.422 488.494C149.783 488.494 150.074 488.8 150.064 489.167C150.054 489.534 149.763 489.829 149.402 489.819L149.392 489.809Z" fill="#171717"/>
<path d="M216.311 213.833C216.16 213.833 216.01 213.761 215.91 213.629C215.75 213.405 215.79 213.089 216.01 212.916C230.816 201.736 244.11 188.621 255.51 173.926C268.673 156.958 279.202 138.095 286.796 117.836C286.896 117.571 287.186 117.438 287.447 117.54C287.707 117.642 287.837 117.938 287.737 118.203C280.104 138.554 269.535 157.519 256.302 174.568C244.841 189.324 231.498 202.511 216.611 213.741C216.521 213.812 216.421 213.843 216.311 213.843V213.833Z" fill="#171717"/>
<path d="M216.05 470.772C215.92 470.772 215.78 470.721 215.68 470.609C205.822 459.858 196.476 454.905 187.88 455.884C179.075 456.882 171.441 464.087 167.775 467.552C165.661 469.549 165.02 470.151 164.469 469.549C163.988 469.03 164.469 468.439 165.771 466.869C167.605 464.648 171.031 460.51 173.255 454.661C175.629 448.404 176.06 441.79 175.308 440.159C175.208 439.945 175.138 439.915 175.138 439.915C174.777 439.915 173.806 441.443 173.154 442.452C172.523 443.43 171.812 444.551 170.981 445.601C163.056 455.629 146.838 457.341 139.926 456.026C137.712 455.608 136.439 454.905 136.139 453.947C135.778 452.775 136.92 451.97 138.824 450.625C140.557 449.402 142.921 447.731 145.666 444.929C154.902 435.482 158.969 422.305 158.569 417.882C158.498 417.159 158.328 417.016 158.328 417.016C158.038 417.057 157.116 418.229 156.305 419.258C154.111 422.06 150.434 426.738 144.143 429.785C138.894 432.333 132.823 433.24 126.101 432.486L124.939 432.353L125.841 431.589C138.172 421.062 147.629 408.772 153.93 395.075C164.168 372.839 163.357 352.774 162.506 331.536C162.415 329.243 162.325 326.93 162.245 324.596C161.093 290.926 162.856 255.656 167.474 219.764C167.514 219.489 167.755 219.285 168.035 219.326C168.306 219.366 168.506 219.621 168.466 219.896C163.858 255.727 162.095 290.936 163.247 324.555C163.327 326.889 163.417 329.192 163.507 331.485C164.359 352.855 165.17 373.043 154.832 395.503C148.621 408.996 139.395 421.133 127.383 431.579C133.454 432.088 138.934 431.171 143.712 428.858C149.793 425.913 153.379 421.337 155.523 418.616C157.046 416.68 157.887 415.61 158.799 416.109C159.18 416.323 159.42 416.771 159.53 417.495C160.161 421.826 156.084 435.686 146.377 445.621C143.572 448.495 141.058 450.268 139.395 451.44C137.972 452.439 136.95 453.163 137.09 453.621C137.221 454.039 138.082 454.62 140.106 455.007C146.607 456.24 162.626 454.518 170.199 444.949C171.001 443.94 171.692 442.85 172.313 441.882C173.585 439.904 174.417 438.59 175.448 438.936C175.769 439.038 176.019 439.303 176.21 439.711C177.192 441.831 176.54 448.832 174.186 455.028C172.183 460.317 169.237 464.22 167.274 466.625C171.091 463.027 178.784 455.884 187.77 454.865C196.706 453.856 206.333 458.91 216.421 469.906C216.611 470.11 216.601 470.436 216.401 470.63C216.301 470.721 216.181 470.762 216.06 470.762L216.05 470.772Z" fill="#171717"/>
<path d="M406.037 470.242C405.807 470.242 405.596 470.079 405.546 469.835C405.486 469.56 405.666 469.295 405.937 469.234C412.549 467.848 417.277 465.055 419.992 460.938C422.286 457.463 422.747 453.683 423.157 450.36C423.588 446.885 423.959 443.879 426.463 442.687C429.649 441.168 433.676 443.757 436.611 445.642C439.506 447.507 440.759 449.168 442.331 451.277C443.494 452.837 444.816 454.6 447.14 456.872C452.189 461.815 458.089 465.545 459.281 464.556C459.772 464.138 459.332 462.487 458.891 460.887C458.791 460.521 458.69 460.143 458.59 459.756C457.408 455.16 457.448 450.523 457.528 441.28C457.619 430.621 460.704 417.118 464.04 417.118C465.422 417.118 465.993 418.973 466.845 421.765C467.356 423.426 467.987 425.485 468.929 427.513C472.685 435.645 480.8 442.055 493.051 446.569C486.87 438.906 479.818 426.962 478.696 411.544C477.444 394.403 484.166 379.84 485.969 378.261C486.189 378.067 486.409 377.996 486.62 378.047C487.271 378.2 487.171 378.852 486.91 380.605C486.389 384.039 485.308 391.203 488.533 398.54C489.755 401.333 491.519 403.911 493.763 406.234L492.41 384.569C492.39 384.283 492.6 384.049 492.881 384.029C493.151 384.018 493.392 384.222 493.412 384.508L494.925 408.772L494.003 407.906C491.208 405.256 489.054 402.25 487.612 398.968C484.266 391.356 485.378 383.998 485.909 380.462C485.939 380.268 485.969 380.075 485.989 379.891C483.945 383.285 478.546 396.003 479.678 411.483C480.86 427.615 488.643 439.884 494.975 447.344L496.177 448.76L494.434 448.159C480.95 443.522 472.064 436.725 468.007 427.951C467.035 425.852 466.394 423.752 465.873 422.071C465.252 420.053 464.661 418.147 464.01 418.147C462.056 418.147 458.61 429.581 458.5 441.301C458.42 450.452 458.38 455.038 459.532 459.512C459.632 459.889 459.732 460.266 459.832 460.622C460.423 462.803 460.894 464.515 459.893 465.351C457.438 467.389 449.133 460.266 446.419 457.616C444.044 455.293 442.692 453.489 441.51 451.909C439.987 449.881 438.795 448.281 436.05 446.518C433.466 444.857 429.549 442.34 426.864 443.624C424.85 444.582 424.53 447.191 424.129 450.503C423.728 453.774 423.228 457.851 420.803 461.529C417.938 465.871 412.999 468.806 406.117 470.253C406.087 470.253 406.047 470.263 406.017 470.263L406.037 470.242Z" fill="#171717"/>
<path d="M334.911 527.046C333.879 527.046 332.847 527.046 331.816 527.025C290.663 526.455 259.708 514.603 244.831 508.906C229.214 502.924 214.027 495.515 199.692 486.894L174.076 488.147L149.453 489.809C149.092 489.839 148.781 489.554 148.761 489.187C148.741 488.82 149.012 488.504 149.372 488.484L174.006 486.823L200.022 485.549L200.192 485.651C214.508 494.282 229.685 501.691 245.302 507.663C260.109 513.329 290.913 525.13 331.846 525.7C353.464 526.016 375.202 523.143 396.47 517.222C396.821 517.13 397.171 517.334 397.272 517.69C397.372 518.047 397.161 518.404 396.811 518.506C376.435 524.182 355.628 527.056 334.921 527.056L334.911 527.046Z" fill="#171717"/>
<path d="M599.547 729.947C599.407 729.947 599.257 729.896 599.137 729.804C595.921 727.184 594.468 724.198 593.066 721.313C590.652 716.339 589.449 710.895 589.469 705.115C589.469 704.748 589.76 704.453 590.121 704.453C590.481 704.453 590.772 704.748 590.772 705.115C590.752 710.691 591.904 715.941 594.218 720.691C595.63 723.607 596.953 726.328 599.948 728.764C600.229 728.989 600.279 729.407 600.048 729.692C599.918 729.855 599.728 729.937 599.537 729.937L599.547 729.947Z" fill="#171717"/>
<path d="M590.375 488.197C583.864 503.334 577.142 518.36 570.21 533.283C566.783 540.765 563.247 548.196 559.761 555.648L549.122 577.92L538.313 600.102C534.647 607.461 531.04 614.852 527.314 622.191C519.95 636.9 512.367 651.497 504.573 665.993C511.085 650.855 517.797 635.83 524.729 620.907C528.155 613.425 531.691 606.004 535.178 598.542L545.816 576.279L556.635 554.098C560.302 546.738 563.908 539.348 567.635 532.009C575.008 517.3 582.581 502.702 590.375 488.207V488.197Z" fill="#FFBC82"/>
<path d="M548.376 602.549C553.619 591.509 552.825 580.079 546.603 577.019C540.381 573.96 531.087 580.43 525.844 591.47C520.602 602.511 521.395 613.94 527.617 617C533.839 620.059 543.133 613.589 548.376 602.549Z" fill="#7AAD7D"/>
<path d="M570.967 553.465C576.21 542.425 575.416 530.995 569.194 527.936C562.972 524.876 553.678 531.346 548.436 542.387C543.193 553.427 543.987 564.857 550.209 567.916C556.431 570.975 565.725 564.505 570.967 553.465Z" fill="#7AAD7D"/>
<path d="M506.366 668.103L505.194 667.522C511.696 652.395 518.478 637.227 525.36 622.415C527.644 617.431 530.018 612.385 532.312 607.502C533.484 605.025 534.647 602.538 535.809 600.061L546.447 577.788L557.267 555.607C558.439 553.242 559.611 550.877 560.783 548.512C563.217 543.589 565.742 538.492 568.276 533.507C575.599 518.89 583.253 504.14 591.026 489.696L592.199 490.277C585.707 505.353 578.925 520.531 572.023 535.383C569.699 540.47 567.274 545.607 564.94 550.582C563.818 552.967 562.696 555.352 561.574 557.737L550.935 580.01L540.116 602.191C538.884 604.658 537.662 607.125 536.45 609.592C534.065 614.413 531.591 619.408 529.117 624.281C521.804 638.878 514.15 653.628 506.366 668.093V668.103ZM584.224 505.292C579.195 514.874 574.247 524.517 569.438 534.109C566.904 539.093 564.389 544.18 561.955 549.103C560.783 551.468 559.621 553.833 558.439 556.198L547.62 578.369L536.981 600.632C535.819 603.109 534.657 605.596 533.485 608.073C531.19 612.956 528.816 617.991 526.532 622.976C521.994 632.731 517.506 642.65 513.108 652.609C518.157 642.986 523.126 633.312 527.945 623.69C530.429 618.807 532.893 613.832 535.278 609.011C536.5 606.544 537.722 604.077 538.944 601.61L549.753 579.439L560.382 557.177C561.494 554.791 562.616 552.406 563.748 550.021C566.092 545.046 568.507 539.909 570.831 534.833C575.359 525.088 579.837 515.21 584.204 505.312L584.224 505.292Z" fill="#171717"/>
<path d="M532.162 620.214C530.9 620.214 529.688 619.948 528.566 619.398C522.034 616.187 521.103 604.332 526.492 592.987C529.077 587.543 532.713 583.007 536.72 580.214C540.838 577.339 544.895 576.636 548.121 578.226C551.346 579.817 553.32 583.476 553.67 588.552C554.011 593.486 552.779 599.205 550.194 604.648C545.726 614.057 538.293 620.214 532.152 620.214H532.162ZM544.464 578.726C542.31 578.726 539.916 579.602 537.462 581.305C533.635 583.965 530.159 588.318 527.664 593.557C522.585 604.25 523.246 615.31 529.137 618.205C535.027 621.1 543.953 614.76 549.022 604.067C551.507 598.827 552.699 593.354 552.368 588.644C552.048 584.067 550.334 580.795 547.55 579.419C546.598 578.95 545.566 578.726 544.464 578.726V578.726Z" fill="#171717"/>
<path d="M554.812 571.152C553.51 571.152 552.288 570.877 551.156 570.327C547.93 568.736 545.957 565.077 545.606 560.011C545.265 555.077 546.498 549.358 549.082 543.915C551.667 538.472 555.303 533.936 559.31 531.143C563.427 528.268 567.475 527.565 570.71 529.155C573.936 530.745 575.91 534.404 576.26 539.471C576.601 544.404 575.369 550.123 572.784 555.566C570.199 561.01 566.563 565.546 562.556 568.339C559.871 570.204 557.226 571.152 554.812 571.152ZM567.054 529.644C564.9 529.644 562.506 530.521 560.051 532.223C556.225 534.884 552.749 539.236 550.254 544.476C547.77 549.715 546.578 555.189 546.908 559.898C547.229 564.475 548.942 567.748 551.727 569.124C554.522 570.49 558.098 569.827 561.825 567.238C565.651 564.577 569.128 560.225 571.622 554.985C574.106 549.746 575.298 544.272 574.968 539.562C574.647 534.986 572.934 531.713 570.149 530.337C569.198 529.868 568.166 529.644 567.064 529.644H567.054Z" fill="#171717"/>
<path d="M449.466 622.956C455.617 613.455 488.736 622.68 504.924 629.092C511.576 631.722 512.518 632.752 518.769 634.729C521.864 635.708 535.388 639.836 559.13 639.041C577.373 638.43 583.724 635.514 596.306 639.551C599.382 640.54 608.949 643.608 609.259 648.562C609.479 652.079 604.951 655.127 601.585 657.104C559.711 681.66 520.772 677.654 520.772 677.654C505.475 676.074 485.69 674.046 468.57 658.888C456.749 648.429 444.668 630.366 449.476 622.956H449.466Z" fill="#FFBC82"/>
<path d="M540.016 876C521.593 876 501.608 871.464 485.98 860.567C480.04 856.418 470.092 849.487 471.154 841.954C471.725 837.927 475.261 834.482 481.683 831.709C491.721 827.377 506.777 825.532 519.89 826.123C520.602 823.819 521.213 821.037 521.914 817.591C515.342 817.367 508.34 817.805 500.366 820.17C484.919 824.747 474.18 834.044 467.888 841.036C467.648 841.301 467.237 841.322 466.967 841.077C466.706 840.832 466.686 840.414 466.927 840.139C473.328 833.024 484.267 823.565 500.005 818.896C508.25 816.449 515.453 816.011 522.185 816.266C522.305 815.695 522.415 815.094 522.545 814.482C526.031 797.031 523.026 771.985 522.896 770.935L520.481 722.445C520.211 721.782 519.169 719.234 517.536 715.635C516.094 714.259 514.681 712.853 513.279 711.425L497.501 708.143C491.921 704.81 490.368 703.281 490.088 702.363L483.145 702.302C481.903 701.966 475.562 699.978 472.667 693.464C471.966 691.895 469.892 686.37 472.517 681.049C475.732 674.515 483.666 673.24 484.007 673.189C484.348 673.138 484.688 673.108 485.039 673.098C482.224 671.936 479.479 670.56 476.874 668.99C461.717 659.917 450.658 644.648 444.006 623.598C434.219 592.661 443.816 565.413 447.432 555.148C449.906 548.125 453.052 541.295 456.789 534.843C456.969 534.527 457.37 534.425 457.68 534.608C457.991 534.792 458.091 535.2 457.911 535.516C454.214 541.897 451.099 548.655 448.654 555.597C445.088 565.739 435.601 592.691 445.248 623.19C451.8 643.924 462.669 658.949 477.545 667.848C480.26 669.469 483.125 670.896 486.061 672.078C499.504 671.365 512.728 670.244 525.36 668.745C527.023 668.551 528.756 668.337 530.559 668.113C539.926 666.961 551.587 665.534 566.904 664.657C568.657 664.556 569.649 664.515 570.52 664.474C571.592 664.423 572.474 664.382 574.387 664.26C583.393 663.679 595.555 662.303 608.618 660.397C615.971 659.326 623.464 658.103 630.897 656.778C629.485 653.027 627.471 650.417 624.916 649.021C622.873 647.909 620.849 647.767 618.716 647.614C616.161 647.43 613.276 647.227 609.87 645.351C607.936 644.281 606.764 643.18 605.823 642.303C605.572 642.069 605.332 641.844 605.091 641.63C599.812 636.962 592.108 636.88 577.823 637.135C573.445 637.216 568.997 637.064 564.69 636.921C556.926 636.656 548.882 636.381 541.108 637.461L540.757 637.512C537.522 637.971 532.623 638.654 527.494 636.217C525.38 635.219 518.448 631.386 517.747 624.067C517.356 619.959 519.109 615.708 522.675 612.11C525.49 609.266 528.906 607.91 537.942 606.065C548.802 603.843 555.604 603.252 555.674 603.252C569.548 602.09 576.33 602.09 581.269 602.1C586.108 602.1 589.033 602.1 595.094 600.938C598.329 600.316 600.864 599.664 602.898 599.133C607.476 597.951 610.23 597.248 614.398 598.522C617.413 599.449 621.801 602.232 630.536 607.767C633.832 609.857 635.485 610.907 637.779 612.477C642.448 615.678 644.822 617.686 647.577 620C649.47 621.59 651.614 623.394 654.83 625.851C658.616 628.746 661.301 630.58 663.264 631.916C666.841 634.352 668.173 635.269 669.566 638.073C670.928 640.815 671.038 642.803 671.239 646.421C671.319 647.93 671.429 649.816 671.649 652.181C672.03 656.299 673.052 661.497 675.085 671.854C677.159 682.425 679.022 687.552 680.675 692.068C682.078 695.921 683.3 699.244 684.171 704.963C687.878 729.213 677.199 750.793 677.099 751.007C673.032 759.09 669.816 765.472 662.944 769.151C652.826 774.564 641.917 770.568 628.102 765.512L625.898 764.707C602.166 756.063 587.35 751.986 576.531 749.019C561.224 744.809 553.54 742.699 539.235 733.097C532.503 728.571 526.061 723.505 520.011 717.949C520.862 719.906 521.443 721.344 521.734 722.047L521.784 722.261L524.208 770.813C524.338 771.832 527.364 797.092 523.827 814.747C523.717 815.287 523.617 815.807 523.517 816.317C526.552 816.47 529.498 816.745 532.423 817.01C546.948 818.356 560.663 819.62 573.215 829.885C585.998 840.333 591.608 849.222 589.884 856.306C588.562 861.739 582.672 866.744 573.285 870.373C564.109 873.931 552.418 875.98 540.026 875.98L540.016 876ZM515.082 827.397C503.341 827.397 490.749 829.242 482.204 832.922C476.313 835.46 472.947 838.651 472.456 842.137C471.515 848.855 481.042 855.501 486.732 859.466C512.507 877.437 550.324 877.866 572.824 869.15C581.8 865.674 587.41 861.005 588.622 856C590.205 849.456 584.755 841.026 572.403 830.934C560.152 820.924 546.628 819.671 532.312 818.345C529.347 818.07 526.342 817.795 523.256 817.642C522.565 821.067 521.954 823.85 521.253 826.195C530.83 826.765 539.225 828.672 543.623 831.913C545.386 833.218 549.523 836.256 549.423 840.506C549.363 843.35 547.449 846.011 543.753 848.416C536.099 853.401 526.552 849.956 522.806 848.243C519.049 846.531 512.768 842.973 512.928 838.437C512.998 836.378 514.341 835.022 515.523 833.829C515.693 833.656 515.863 833.483 516.024 833.31C517.536 831.73 518.578 829.885 519.44 827.489C518.007 827.428 516.545 827.407 515.072 827.407L515.082 827.397ZM520.812 827.55C519.86 830.302 518.708 832.402 516.965 834.227C516.795 834.4 516.625 834.584 516.444 834.767C515.382 835.838 514.281 836.949 514.23 838.478C514.13 841.23 517.446 844.349 523.337 847.03C526.893 848.651 535.929 851.933 543.041 847.295C546.357 845.134 548.06 842.841 548.12 840.465C548.201 836.908 544.454 834.156 542.861 832.973C538.644 829.864 530.319 828.06 520.822 827.54L520.812 827.55ZM518.668 714.891C525.31 721.211 532.453 726.95 539.966 731.996C554.101 741.486 561.715 743.576 576.881 747.745C587.721 750.722 602.557 754.799 626.349 763.463L628.553 764.269C642.067 769.213 652.736 773.117 662.343 767.979C668.854 764.493 671.83 758.581 675.947 750.406C676.057 750.191 686.536 729.009 682.899 705.167C682.048 699.591 680.856 696.319 679.473 692.537C677.89 688.194 675.917 682.792 673.823 672.119C671.79 661.712 670.768 656.492 670.367 652.313C670.147 649.918 670.036 648.022 669.956 646.503C669.756 642.945 669.656 641.161 668.424 638.674C667.181 636.177 666.019 635.382 662.553 633.017C660.58 631.671 657.875 629.826 654.058 626.911C650.812 624.434 648.659 622.619 646.765 621.019C644.04 618.725 641.676 616.738 637.068 613.578C634.794 612.008 633.141 610.968 629.865 608.889C621.23 603.415 616.892 600.673 614.037 599.786C610.22 598.614 607.736 599.246 603.238 600.408C601.184 600.938 598.63 601.6 595.354 602.232C589.173 603.425 586.218 603.425 581.289 603.425C576.371 603.425 569.619 603.425 555.804 604.577C555.734 604.577 549.002 605.168 538.223 607.37C529.487 609.154 526.212 610.438 523.617 613.058C520.331 616.381 518.718 620.244 519.069 623.944C519.7 630.56 526.111 634.097 528.065 635.025C532.843 637.298 537.512 636.635 540.607 636.207L540.968 636.156C548.862 635.055 556.946 635.331 564.77 635.596C569.058 635.738 573.495 635.891 577.833 635.81C592.449 635.545 600.333 635.636 605.973 640.631C606.223 640.856 606.474 641.09 606.734 641.324C607.666 642.201 608.728 643.2 610.511 644.189C613.667 645.932 616.291 646.115 618.826 646.299C621.11 646.462 623.264 646.615 625.548 647.859C628.563 649.5 630.867 652.609 632.41 657.084L632.66 657.818L631.909 657.95C624.215 659.336 616.451 660.611 608.828 661.722C595.534 663.659 583.663 664.994 574.487 665.595C572.564 665.718 571.682 665.758 570.6 665.809C569.739 665.85 568.747 665.891 567.004 665.993C551.727 666.869 540.096 668.297 530.74 669.438C528.926 669.663 527.193 669.877 525.53 670.07C513.279 671.518 500.476 672.619 487.463 673.342C496.199 675.289 505.285 688.806 511.946 701.181L588.071 701.66C590.896 701.415 594.232 701.211 598.991 701.089C609.649 700.794 620.389 701.089 630.907 701.935L630.847 703.26L588.121 702.985C586.268 703.148 584.635 703.322 582.972 703.495C579.185 703.903 575.269 704.31 568.206 704.596C551.256 705.258 536.36 704.341 520.592 703.362C518.097 703.209 515.543 703.199 513.028 703.23C514.361 705.788 515.583 708.255 516.665 710.539C517.937 710.885 519.219 711.232 520.502 711.568L567.815 721.313C570.821 721.762 573.696 722.169 576.531 722.567C586.018 723.902 594.973 725.166 607.426 727.786C618.605 730.141 629.855 733.026 640.875 736.369L640.564 737.653L567.595 722.618C561.304 721.68 554.452 720.549 546.137 718.877C537.482 717.134 528.786 715.116 520.211 712.853L517.496 712.292C517.917 713.199 518.318 714.066 518.688 714.891H518.668ZM590.205 725.931L621.34 732.343C616.612 731.16 611.873 730.069 607.145 729.081C600.754 727.735 595.294 726.746 590.205 725.931V725.931ZM515.613 711.915C515.743 712.047 515.873 712.18 516.014 712.312C515.964 712.2 515.903 712.078 515.853 711.966L515.623 711.915H515.613ZM510.864 708.918L513.199 709.58C513.78 709.744 514.361 709.907 514.932 710.07C513.89 707.929 512.738 705.625 511.496 703.25C511.295 703.25 511.085 703.25 510.885 703.25C505.816 703.322 500.566 703.393 495.477 702.486L495.307 702.455C495.177 702.435 495.046 702.414 494.926 702.384L491.62 702.363C492.121 702.955 493.614 704.27 498.082 706.94L511.666 709.743L510.864 708.908V708.918ZM530.249 702.628C542.561 703.332 554.712 703.811 568.126 703.281C570.801 703.179 573.015 703.046 574.948 702.914L530.249 702.628V702.628ZM495.046 701.079L510.384 701.171C503.081 687.725 493.023 673.169 484.217 674.504C483.907 674.555 476.624 675.717 473.709 681.64C471.344 686.431 473.238 691.477 473.879 692.914C476.484 698.755 482.124 700.63 483.426 700.997L490.629 701.038C491.38 700.59 492.853 700.692 495.046 701.069V701.079Z" fill="#171717"/>
<path d="M622.082 600.907L621.01 600.01C618.064 597.553 614.919 596.086 611.663 595.627C607.125 595.005 603.909 596.575 600.804 598.104C597.939 599.511 594.983 600.958 591.227 600.448C584.735 599.551 580.939 593.741 575.188 584.944C572.464 580.775 566.804 572.11 567.164 560.755C567.274 557.319 567.435 552.141 571.011 549.562C573.886 547.483 578.114 547.636 583.573 550.011C588.212 552.029 590.095 554.649 598.029 565.709C599.852 568.247 601.996 571.244 604.58 574.791C607.736 579.123 610.09 582.283 612.705 585.708C615.319 589.133 617.984 592.518 620.609 595.79C620.649 595.841 620.679 595.892 620.699 595.943C620.348 586.809 618.886 577.788 616.351 569.073C611.683 553.028 603.589 539.002 597.628 532.223C596.356 530.775 594.963 529.42 593.471 528.156C592.048 528.472 590.065 528.828 587.32 529.246C554.362 534.282 532.603 537.605 502.45 536.035C487.904 535.281 473.188 533.467 458.712 530.633C458.361 530.561 458.131 530.215 458.191 529.858C458.261 529.501 458.602 529.267 458.953 529.328C460.295 529.593 461.637 529.838 462.98 530.093C461.217 529.359 461.176 528.676 461.146 528.237C461.086 527.412 461.607 526.056 466.776 523.834C486.712 515.271 560.993 501.071 593.12 526.188C596.937 525.719 596.967 525.883 597.047 526.535C597.087 526.8 597.137 527.187 595.024 527.768C596.296 528.88 597.478 530.072 598.59 531.326C604.651 538.217 612.875 552.437 617.594 568.685C620.489 578.644 622.001 589.001 622.071 599.46V600.866L622.082 600.907ZM575.91 549.44C574.267 549.44 572.874 549.837 571.762 550.653C568.717 552.844 568.567 557.635 568.467 560.806C568.126 571.733 573.636 580.163 576.28 584.22C581.83 592.722 585.497 598.328 591.407 599.144C594.783 599.602 597.438 598.297 600.243 596.921C603.529 595.311 606.925 593.639 611.853 594.332C614.949 594.76 617.934 596.045 620.759 598.155C620.749 597.594 620.729 597.023 620.709 596.463C620.669 596.575 620.599 596.677 620.509 596.758C620.228 596.993 619.817 596.952 619.597 596.666C616.962 593.384 614.288 589.99 611.673 586.555C609.048 583.119 606.694 579.949 603.529 575.607C600.944 572.059 598.8 569.062 596.977 566.514C589.213 555.689 587.37 553.12 583.062 551.254C580.308 550.062 577.923 549.46 575.92 549.46L575.91 549.44ZM479.289 532.641C487.042 533.63 494.796 534.333 502.52 534.731C527.935 536.056 547.399 533.874 572.724 530.133C560.993 531.499 546.127 532.916 530.479 533.405C520.441 533.721 503.191 533.834 487.653 533.13C484.508 532.988 481.733 532.824 479.289 532.651V532.641ZM537.512 513.294C508.45 513.294 478.768 520.144 467.287 525.077C462.509 527.126 462.449 528.156 462.449 528.166C462.449 528.268 462.91 530.674 487.703 531.805C503.211 532.508 520.421 532.396 530.439 532.08C554.261 531.336 576.3 528.421 588.141 526.861C589.344 526.698 590.375 526.566 591.267 526.453C577.993 516.668 557.898 513.294 537.502 513.294H537.512Z" fill="#171717"/>
<path d="M693.188 744.075C693.188 744.075 693.148 744.075 693.128 744.075C692.767 744.045 692.507 743.718 692.537 743.351C692.727 741.17 692.847 738.948 692.887 736.746C693.088 725.431 691.074 718.337 686.205 701.191C685.154 697.491 683.971 693.322 682.649 688.561C678.772 674.555 674.755 660.366 670.708 646.38C670.608 646.034 670.808 645.657 671.149 645.555C671.489 645.453 671.86 645.646 671.96 646.003C676.007 659.999 680.034 674.198 683.911 688.204C685.234 692.965 686.416 697.124 687.458 700.824C692.366 718.112 694.4 725.258 694.2 736.777C694.16 739.009 694.039 741.262 693.839 743.474C693.809 743.82 693.528 744.075 693.188 744.075V744.075Z" fill="#171717"/>
<path d="M704.497 841.373C704.207 841.373 703.946 841.179 703.866 840.873C700.15 826.398 697.305 811.556 695.421 796.745C692.827 776.358 691.965 755.574 692.887 734.983C692.907 734.616 693.208 734.351 693.568 734.351C693.929 734.371 694.209 734.677 694.189 735.044C693.278 755.553 694.129 776.256 696.714 796.572C698.597 811.332 701.422 826.123 705.129 840.537C705.219 840.893 705.008 841.25 704.668 841.342C704.608 841.352 704.558 841.362 704.497 841.362V841.373Z" fill="#171717"/>
</svg>
