<svg width="254" height="342" viewBox="0 0 254 342" fill="none" xmlns="http://www.w3.org/2000/svg">
<path d="M152.59 204.773C152.456 204.773 152.313 204.725 152.198 204.639C149.128 202.182 147.741 199.38 146.402 196.674C144.097 192.008 142.949 186.901 142.968 181.48C142.968 181.136 143.245 180.858 143.59 180.858C143.934 180.858 144.211 181.136 144.211 181.48C144.192 186.71 145.292 191.635 147.502 196.091C148.85 198.825 150.113 201.378 152.973 203.664C153.241 203.874 153.289 204.266 153.069 204.534C152.944 204.687 152.763 204.763 152.581 204.763L152.59 204.773Z" fill="#171717"/>
<path d="M9.29255 104.41C15.1654 95.4982 46.787 104.152 62.2439 110.166C68.595 112.633 69.4941 113.599 75.4626 115.454C78.4182 116.372 91.3308 120.245 114 119.499C131.417 118.925 137.481 116.19 149.495 119.977C152.431 120.904 161.566 123.783 161.862 128.43C162.073 131.729 157.75 134.588 154.536 136.443C114.554 159.478 77.3756 155.72 77.3756 155.72C62.77 154.238 43.8793 152.335 27.5328 138.116C16.2462 128.305 4.71096 111.362 9.30212 104.41H9.29255Z" fill="#FFBC82"/>
<path d="M95.7491 341.778C78.1593 341.778 59.0773 337.523 44.156 327.301C38.484 323.409 28.9861 316.907 29.9999 309.84C30.5451 306.063 33.9216 302.832 40.0527 300.231C49.6367 296.167 64.0128 294.436 76.5333 294.991C77.2124 292.83 77.7958 290.219 78.4653 286.987C72.1908 286.777 65.5049 287.188 57.8913 289.406C43.1422 293.7 32.8886 302.42 26.8818 308.98C26.6522 309.229 26.2601 309.248 26.0018 309.018C25.7531 308.789 25.734 308.397 25.9635 308.138C32.0755 301.464 42.5204 292.591 57.5469 288.211C65.4188 285.916 72.296 285.505 78.7236 285.744C78.8384 285.209 78.9436 284.645 79.0679 284.071C82.3965 267.701 79.5271 244.207 79.4027 243.222L77.0976 197.735C76.8393 197.114 75.8446 194.723 74.2855 191.348C72.9081 190.057 71.5595 188.737 70.2204 187.399L55.1556 184.32C49.828 181.193 48.3455 179.759 48.0776 178.898L41.4491 178.841C40.2631 178.525 34.2085 176.661 31.4443 170.551C30.7747 169.078 28.7948 163.895 31.3008 158.904C34.3711 152.775 41.9465 151.579 42.2717 151.532C42.5969 151.484 42.9221 151.455 43.2569 151.446C40.5692 150.356 37.9484 149.065 35.4615 147.592C20.9898 139.082 10.4302 124.758 4.07905 105.012C-5.26587 75.9917 3.8973 50.4324 7.35024 40.8034C9.71277 34.2152 12.7161 27.8087 16.2839 21.7559C16.456 21.4595 16.8386 21.3638 17.1352 21.5359C17.4317 21.7081 17.5273 22.0905 17.3551 22.387C13.8257 28.3728 10.851 34.7124 8.51716 41.2242C5.11205 50.7384 -3.94592 76.0204 5.26509 104.63C11.5205 124.079 21.8985 138.173 36.1024 146.521C38.6945 148.041 41.43 149.38 44.2325 150.489C57.0686 149.82 69.6943 148.768 81.7557 147.363C83.3434 147.181 84.9982 146.98 86.7199 146.77C95.6631 145.689 106.797 144.351 121.421 143.528C123.095 143.433 124.042 143.394 124.874 143.356C125.898 143.308 126.739 143.27 128.566 143.155C137.165 142.61 148.777 141.319 161.25 139.531C168.27 138.527 175.425 137.38 182.522 136.137C181.173 132.618 179.251 130.17 176.812 128.86C174.861 127.818 172.928 127.684 170.891 127.541C168.452 127.368 165.697 127.177 162.445 125.418C160.599 124.414 159.48 123.381 158.581 122.559C158.342 122.339 158.112 122.128 157.883 121.928C152.842 117.548 145.487 117.472 131.847 117.711C127.667 117.787 123.42 117.644 119.308 117.51C111.895 117.261 104.214 117.003 96.7917 118.017L96.4569 118.065C93.3675 118.495 88.6902 119.135 83.793 116.85C81.7748 115.913 75.1559 112.318 74.4864 105.452C74.1133 101.599 75.7872 97.6114 79.1923 94.236C81.88 91.5682 85.1416 90.2965 93.7692 88.5657C104.138 86.4812 110.632 85.9266 110.699 85.9266C123.947 84.8365 130.422 84.8365 135.137 84.8461C139.757 84.8461 142.55 84.8461 148.337 83.756C151.427 83.1727 153.846 82.5608 155.788 82.0636C160.159 80.9544 162.79 80.2946 166.769 81.4898C169.648 82.36 173.837 84.9704 182.178 90.1626C185.325 92.1228 186.903 93.1077 189.093 94.5802C193.55 97.5827 195.817 99.4664 198.448 101.637C200.255 103.129 202.302 104.821 205.373 107.126C208.988 109.841 211.552 111.562 213.426 112.815C216.841 115.1 218.113 115.961 219.443 118.59C220.743 121.163 220.849 123.027 221.04 126.422C221.116 127.837 221.222 129.606 221.432 131.824C221.796 135.687 222.771 140.564 224.713 150.279C226.693 160.195 228.472 165.005 230.05 169.241C231.389 172.855 232.556 175.972 233.388 181.336C236.927 204.084 226.731 224.327 226.635 224.528C222.752 232.111 219.682 238.097 213.12 241.549C203.46 246.626 193.043 242.878 179.853 238.135L177.749 237.379C155.09 229.271 140.943 225.446 130.613 222.664C115.998 218.714 108.662 216.735 95.0031 207.728C88.5755 203.482 82.4252 198.73 76.648 193.518C77.4611 195.354 78.0158 196.703 78.2932 197.362L78.341 197.563L80.6557 243.107C80.7801 244.063 83.6687 267.758 80.2923 284.319C80.1871 284.826 80.0914 285.314 79.9958 285.792C82.8939 285.935 85.706 286.194 88.499 286.442C102.368 287.704 115.462 288.89 127.447 298.519C139.652 308.32 145.008 316.658 143.363 323.304C142.101 328.4 136.477 333.095 127.514 336.499C118.753 339.837 107.591 341.758 95.7587 341.758L95.7491 341.778ZM71.9421 296.186C60.732 296.186 48.7089 297.917 40.55 301.369C34.9259 303.749 31.7121 306.742 31.2434 310.013C30.3443 316.314 39.4405 322.548 44.8734 326.268C69.4839 343.126 105.591 343.527 127.074 335.352C135.644 332.091 141.001 327.712 142.158 323.017C143.669 316.878 138.466 308.97 126.673 299.504C114.975 290.114 102.062 288.938 88.3937 287.695C85.5625 287.437 82.6931 287.178 79.7471 287.035C79.0871 290.248 78.5036 292.858 77.8341 295.058C86.9781 295.593 94.9935 297.381 99.1925 300.422C100.876 301.646 104.826 304.495 104.731 308.483C104.673 311.15 102.846 313.646 99.3169 315.903C92.0093 320.579 82.8939 317.347 79.3166 315.74C75.7298 314.134 69.7326 310.797 69.8856 306.542C69.9526 304.61 71.2343 303.338 72.363 302.22C72.5256 302.057 72.6882 301.894 72.8412 301.732C74.2855 300.25 75.2803 298.519 76.1028 296.272C74.7351 296.215 73.3386 296.195 71.9325 296.195L71.9421 296.186ZM77.4132 296.329C76.5046 298.911 75.4046 300.881 73.7403 302.592C73.5777 302.755 73.4151 302.927 73.2429 303.099C72.229 304.103 71.1769 305.146 71.1291 306.58C71.0334 309.162 74.1994 312.088 79.8236 314.602C83.2191 316.123 91.8467 319.202 98.6378 314.851C101.804 312.824 103.43 310.672 103.487 308.444C103.564 305.107 99.9864 302.526 98.4656 301.416C94.4388 298.5 86.4903 296.807 77.4228 296.32L77.4132 296.329ZM75.3663 190.65C81.7079 196.578 88.5276 201.962 95.7013 206.695C109.197 215.597 116.467 217.557 130.948 221.468C141.297 224.26 155.463 228.085 178.18 236.213L180.284 236.968C193.187 241.606 203.374 245.268 212.546 240.449C218.764 237.179 221.604 231.633 225.535 223.964C225.641 223.763 235.646 203.893 232.173 181.528C231.36 176.297 230.222 173.228 228.902 169.68C227.391 165.607 225.507 160.539 223.508 150.528C221.566 140.765 220.59 135.869 220.208 131.949C219.997 129.702 219.892 127.923 219.816 126.498C219.624 123.161 219.529 121.488 218.352 119.155C217.166 116.812 216.057 116.066 212.747 113.848C210.863 112.586 208.28 110.855 204.636 108.12C201.537 105.797 199.481 104.094 197.673 102.593C195.071 100.442 192.814 98.5772 188.414 95.6129C186.243 94.1404 184.665 93.165 181.537 91.2144C173.292 86.0796 169.15 83.5074 166.424 82.6755C162.78 81.5759 160.408 82.1688 156.113 83.2588C154.153 83.7561 151.713 84.3776 148.586 84.9704C142.684 86.0892 139.863 86.0891 135.157 86.0891C130.46 86.0891 124.013 86.0891 110.823 87.1697C110.757 87.1697 104.329 87.7243 94.037 89.7896C85.6964 91.463 82.5687 92.6678 80.0914 95.1253C76.9541 98.2425 75.4142 101.866 75.7489 105.338C76.3515 111.543 82.4731 114.861 84.3382 115.731C88.9007 117.864 93.3579 117.242 96.3135 116.841L96.6578 116.793C104.195 115.76 111.914 116.018 119.384 116.267C123.478 116.401 127.715 116.544 131.857 116.468C145.812 116.219 153.34 116.305 158.725 120.991C158.964 121.201 159.203 121.421 159.451 121.641C160.341 122.463 161.355 123.4 163.057 124.328C166.07 125.963 168.576 126.135 170.996 126.307C173.177 126.46 175.234 126.603 177.414 127.77C180.293 129.31 182.493 132.226 183.966 136.424L184.205 137.112L183.488 137.236C176.142 138.537 168.729 139.732 161.451 140.774C148.758 142.591 137.423 143.844 128.662 144.408C126.826 144.523 125.984 144.561 124.951 144.609C124.128 144.647 123.181 144.685 121.517 144.781C106.931 145.603 95.8257 146.942 86.892 148.013C85.1608 148.223 83.5061 148.424 81.9183 148.606C70.2204 149.963 57.9965 150.996 45.5716 151.675C53.9123 153.501 62.5876 166.181 68.9483 177.789L141.632 178.238C144.329 178.009 147.514 177.818 152.058 177.703C162.235 177.426 172.488 177.703 182.532 178.497L182.474 179.74L141.68 179.481C139.91 179.634 138.351 179.797 136.763 179.96C133.148 180.342 129.408 180.724 122.665 180.992C106.481 181.614 92.258 180.753 77.2028 179.835C74.8212 179.692 72.3821 179.682 69.9813 179.711C71.2534 182.111 72.4203 184.425 73.4533 186.567C74.6681 186.892 75.8924 187.217 77.1167 187.533L122.292 196.674C125.161 197.095 127.906 197.477 130.613 197.85C139.671 199.103 148.222 200.288 160.111 202.746C170.786 204.955 181.527 207.661 192.049 210.797L191.752 212.002L122.081 197.898C116.075 197.018 109.532 195.957 101.593 194.389C93.3293 192.754 85.0269 190.86 76.8393 188.737L74.2472 188.212C74.649 189.063 75.0316 189.875 75.3855 190.65H75.3663ZM143.669 201.006L173.397 207.02C168.882 205.911 164.358 204.888 159.844 203.96C153.741 202.698 148.528 201.77 143.669 201.006ZM72.449 187.858C72.5734 187.982 72.6977 188.106 72.8316 188.231C72.7838 188.125 72.7264 188.011 72.6786 187.906L72.4586 187.858H72.449ZM67.9153 185.046L70.1439 185.668C70.6987 185.821 71.2534 185.974 71.7986 186.127C70.8039 184.119 69.7039 181.958 68.5179 179.73C68.3266 179.73 68.1257 179.73 67.9344 179.73C63.0946 179.797 58.0826 179.864 53.2236 179.013L53.0609 178.984C52.9366 178.965 52.8122 178.946 52.6975 178.917L49.541 178.898C50.0193 179.453 51.4445 180.686 55.7104 183.191L68.6805 185.821L67.9153 185.037V185.046ZM86.4234 179.147C98.1786 179.807 109.781 180.256 122.588 179.759C125.142 179.663 127.256 179.539 129.102 179.415L86.4234 179.147ZM52.8123 177.693L67.4562 177.779C60.4834 165.167 50.8802 151.512 42.4726 152.765C42.1761 152.813 35.2224 153.903 32.439 159.459C30.1817 163.953 31.9894 168.686 32.6016 170.034C35.0885 175.513 40.4735 177.273 41.717 177.617L48.5941 177.655C49.3115 177.234 50.7176 177.33 52.8123 177.684V177.693Z" fill="#171717"/>
<path d="M174.105 83.7273L173.082 82.8859C170.27 80.5814 167.266 79.2045 164.158 78.7742C159.825 78.1909 156.755 79.6635 153.789 81.0978C151.054 82.4173 148.232 83.7751 144.645 83.297C138.447 82.4556 134.822 77.0052 129.332 68.7532C126.73 64.8423 121.326 56.7146 121.671 46.0625C121.776 42.8401 121.929 37.9826 125.343 35.5634C128.089 33.6128 132.125 33.7562 137.338 35.9842C141.766 37.8774 143.565 40.3349 151.14 50.7096C152.881 53.0906 154.928 55.9019 157.395 59.2294C160.408 63.2933 162.656 66.2575 165.153 69.4703C167.649 72.6832 170.193 75.8578 172.699 78.9272C172.738 78.975 172.766 79.0228 172.785 79.0706C172.451 70.5031 171.054 62.0406 168.634 53.8651C164.177 38.8145 156.449 25.6572 150.757 19.2984C149.543 17.9406 148.213 16.6689 146.788 15.4832C145.43 15.7796 143.536 16.1142 140.915 16.5063C109.447 21.2299 88.6715 24.3472 59.8811 22.8746C45.9929 22.167 31.942 20.465 18.1207 17.8068C17.786 17.7398 17.566 17.4147 17.6234 17.08C17.6903 16.7454 18.0155 16.5254 18.3503 16.5828C19.632 16.8314 20.9137 17.0609 22.1954 17.2999C20.512 16.6115 20.4737 15.9708 20.445 15.5596C20.3876 14.7851 20.885 13.5134 25.8205 11.4288C44.8547 3.39675 115.778 -9.92315 146.453 13.6377C150.097 13.1978 150.126 13.3508 150.203 13.9628C150.241 14.2114 150.289 14.5748 148.271 15.1198C149.485 16.1621 150.614 17.2808 151.676 18.457C157.462 24.9209 165.315 38.2599 169.82 53.5017C172.585 62.8438 174.029 72.5589 174.096 82.3695V83.689L174.105 83.7273ZM130.021 35.4487C128.452 35.4487 127.122 35.8216 126.061 36.5865C123.153 38.6424 123.01 43.1365 122.914 46.1103C122.589 56.3608 127.849 64.2686 130.375 68.0743C135.674 76.049 139.174 81.3081 144.818 82.0731C148.041 82.5034 150.576 81.2794 153.254 79.9885C156.391 78.4778 159.634 76.9096 164.34 77.5598C167.295 77.9614 170.145 79.1662 172.843 81.1456C172.833 80.6197 172.814 80.0842 172.795 79.5583C172.757 79.6634 172.69 79.7591 172.604 79.8356C172.336 80.0555 171.944 80.0172 171.733 79.7495C169.218 76.6705 166.664 73.4864 164.167 70.264C161.661 67.0416 159.414 64.0678 156.391 59.9944C153.923 56.6668 151.877 53.8556 150.136 51.4651C142.723 41.3102 140.963 38.9006 136.85 37.1507C134.22 36.0319 131.943 35.4678 130.03 35.4678L130.021 35.4487ZM37.7671 19.6904C45.1703 20.618 52.5735 21.2777 59.9481 21.6506C84.2143 22.8937 102.799 20.8475 126.979 17.3382C115.779 18.6195 101.584 19.9486 86.6438 20.4076C77.0598 20.704 60.589 20.8092 45.7538 20.1495C42.7504 20.0156 40.1009 19.8626 37.7671 19.7V19.6904ZM93.3583 1.54175C65.6105 1.54175 37.2697 7.96742 26.3083 12.5954C21.7458 14.5174 21.6884 15.4831 21.6884 15.4927C21.6884 15.5883 22.1284 17.845 45.8016 18.9064C60.6081 19.5661 77.0406 19.461 86.6055 19.1645C109.351 18.4665 130.394 15.7318 141.699 14.2688C142.847 14.1158 143.832 13.9915 144.684 13.8863C132.01 4.70675 112.823 1.54175 93.3487 1.54175H93.3583Z" fill="#171717"/>
<path d="M241.998 218.026C241.998 218.026 241.96 218.026 241.941 218.026C241.596 217.997 241.348 217.691 241.376 217.347C241.558 215.301 241.673 213.216 241.711 211.151C241.902 200.537 239.98 193.882 235.331 177.799C234.327 174.328 233.198 170.417 231.936 165.951C228.234 152.813 224.399 139.503 220.534 126.384C220.439 126.058 220.63 125.705 220.955 125.609C221.281 125.513 221.634 125.695 221.73 126.03C225.594 139.158 229.439 152.478 233.141 165.616C234.404 170.082 235.532 173.983 236.527 177.454C241.214 193.671 243.155 200.374 242.964 211.18C242.926 213.274 242.811 215.387 242.62 217.462C242.591 217.787 242.323 218.026 241.998 218.026Z" fill="#171717"/>
<path d="M252.797 309.295C252.519 309.295 252.271 309.114 252.194 308.827C248.646 295.249 245.929 281.327 244.131 267.433C241.654 248.309 240.831 228.812 241.711 209.497C241.73 209.152 242.017 208.904 242.361 208.904C242.706 208.923 242.974 209.21 242.955 209.554C242.084 228.793 242.897 248.213 245.365 267.27C247.163 281.116 249.86 294.991 253.399 308.511C253.485 308.846 253.285 309.181 252.959 309.267C252.902 309.276 252.854 309.286 252.797 309.286V309.295Z" fill="#171717"/>
</svg>
