<svg width="906" height="912" viewBox="0 0 906 912" fill="none" xmlns="http://www.w3.org/2000/svg">
<g clip-path="url(#clip0_20_1714)">
<path d="M179.175 207.861L162.766 203.019L56.8731 396.838L187.767 471.78L227.167 423.01C227.167 423.01 226.965 347.059 215.409 297.667C203.852 248.276 179.171 207.858 179.171 207.858L179.175 207.861Z" fill="white"/>
<path d="M179.175 207.861L179.634 206.305L163.225 201.463C162.494 201.247 161.708 201.57 161.343 202.239L55.4509 396.058C55.028 396.832 55.3025 397.806 56.0698 398.244L186.964 473.186C187.656 473.581 188.529 473.421 189.032 472.798L228.432 424.028C228.669 423.735 228.792 423.38 228.791 423.003C228.792 422.983 228.741 403.968 227.243 378.762C226.495 366.157 225.383 352.005 223.735 337.899C222.087 323.791 219.902 309.733 216.991 297.296C216.326 294.456 215.62 291.646 214.877 288.873C208.745 265.987 200.173 245.546 193.135 230.812C186.096 216.078 180.583 207.049 180.56 207.012C180.352 206.67 180.018 206.414 179.633 206.302L179.175 207.858L177.789 208.703L177.802 208.726C178.112 209.24 183.617 218.348 190.534 232.899C197.45 247.45 205.776 267.446 211.743 289.713C212.477 292.455 213.175 295.231 213.834 298.036C216.701 310.296 218.875 324.253 220.514 338.278C222.974 359.315 224.233 380.511 224.877 396.441C225.2 404.405 225.366 411.052 225.453 415.706C225.496 418.034 225.518 419.862 225.534 421.109C225.542 421.73 225.544 422.211 225.547 422.532C225.547 422.691 225.55 422.813 225.549 422.896C225.55 422.975 225.548 423.016 225.548 423.016L227.169 423.013L225.907 421.994L187.373 469.69L59.0589 396.219L163.561 204.945L178.714 209.417L179.172 207.861L177.787 208.707L179.172 207.861L179.175 207.861Z" fill="black"/>
<path d="M192.956 457.777L195.997 459.51L196.575 458.496L193.534 456.763L192.956 457.777ZM188.393 455.175L191.434 456.908L192.011 455.894L188.97 454.161L188.393 455.175ZM183.829 452.573L186.87 454.306L187.447 453.292L184.406 451.559L183.829 452.573ZM179.265 449.971L182.306 451.704L182.883 450.69L179.842 448.957L179.265 449.971ZM174.701 447.369L177.742 449.102L178.319 448.088L175.278 446.355L174.701 447.369ZM170.137 444.767L173.178 446.5L173.755 445.486L170.714 443.753L170.137 444.767ZM165.573 442.165L168.614 443.898L169.191 442.884L166.15 441.151L165.573 442.165ZM161.009 439.563L164.05 441.296L164.628 440.282L161.587 438.549L161.009 439.563ZM156.445 436.961L159.486 438.694L160.064 437.68L157.023 435.947L156.445 436.961ZM151.882 434.358L154.923 436.091L155.5 435.078L152.459 433.345L151.882 434.358ZM147.318 431.756L150.359 433.489L150.936 432.475L147.895 430.743L147.318 431.756ZM142.754 429.154L145.795 430.887L146.372 429.873L143.331 428.14L142.754 429.154ZM138.19 426.552L141.231 428.285L141.808 427.271L138.767 425.538L138.19 426.552ZM133.626 423.95L136.667 425.683L137.244 424.669L134.203 422.936L133.626 423.95ZM129.062 421.348L132.103 423.081L132.68 422.067L129.639 420.334L129.062 421.348ZM124.498 418.746L127.539 420.479L128.117 419.465L125.076 417.732L124.498 418.746ZM119.934 416.144L122.975 417.877L123.553 416.863L120.512 415.13L119.934 416.144ZM115.371 413.542L118.412 415.275L118.989 414.261L115.948 412.528L115.371 413.542ZM110.807 410.94L113.848 412.673L114.425 411.659L111.384 409.926L110.807 410.94ZM106.243 408.338L109.284 410.071L109.861 409.057L106.82 407.324L106.243 408.338ZM101.679 405.736L104.72 407.469L105.297 406.455L102.256 404.722L101.679 405.736ZM97.1151 403.134L100.156 404.866L100.733 403.853L97.6923 402.12L97.1151 403.134V403.134ZM92.5512 400.531L95.5922 402.264L96.1695 401.25L93.1285 399.518L92.5512 400.531ZM87.9873 397.929L91.0283 399.662L91.6056 398.648L88.5646 396.915L87.9873 397.929ZM83.4234 395.327L86.4644 397.06L87.0417 396.046L84.0007 394.313L83.4234 395.327ZM78.8596 392.725L81.9006 394.458L82.4778 393.444L79.4368 391.711L78.8596 392.725ZM74.2957 390.123L77.3367 391.856L77.9139 390.842L74.8729 389.109L74.2957 390.123ZM69.7318 387.521L72.7728 389.254L73.3501 388.24L70.3091 386.507L69.7318 387.521ZM65.1679 384.919L68.2089 386.652L68.7862 385.638L65.7452 383.905L65.1679 384.919Z" fill="black"/>
<path d="M194.695 454.491L197.736 456.224L198.313 455.21L195.272 453.477L194.695 454.491ZM190.131 451.889L193.172 453.622L193.749 452.608L190.708 450.875L190.131 451.889ZM185.567 449.287L188.608 451.02L189.185 450.006L186.144 448.273L185.567 449.287ZM181.003 446.685L184.044 448.418L184.621 447.404L181.58 445.671L181.003 446.685ZM176.439 444.083L179.48 445.816L180.058 444.802L177.017 443.069L176.439 444.083ZM171.875 441.481L174.916 443.214L175.494 442.2L172.453 440.467L171.875 441.481ZM167.311 438.879L170.352 440.612L170.93 439.598L167.889 437.865L167.311 438.879ZM162.748 436.277L165.789 438.01L166.366 436.996L163.325 435.263L162.748 436.277ZM158.184 433.675L161.225 435.408L161.802 434.394L158.761 432.661L158.184 433.675ZM153.62 431.073L156.661 432.806L157.238 431.792L154.197 430.059L153.62 431.073ZM149.056 428.471L152.097 430.203L152.674 429.19L149.633 427.457L149.056 428.471ZM144.492 425.868L147.533 427.601L148.11 426.587L145.069 424.855L144.492 425.868ZM139.928 423.266L142.969 424.999L143.547 423.985L140.505 422.252L139.928 423.266ZM135.364 420.664L138.405 422.397L138.983 421.383L135.942 419.65L135.364 420.664ZM130.8 418.062L133.841 419.795L134.419 418.781L131.378 417.048L130.8 418.062ZM126.237 415.46L129.278 417.193L129.855 416.179L126.814 414.446L126.237 415.46ZM121.673 412.858L124.714 414.591L125.291 413.577L122.25 411.844L121.673 412.858ZM117.109 410.256L120.15 411.989L120.727 410.975L117.686 409.242L117.109 410.256ZM112.545 407.654L115.586 409.387L116.163 408.373L113.122 406.64L112.545 407.654ZM107.981 405.052L111.022 406.785L111.599 405.771L108.558 404.038L107.981 405.052ZM103.417 402.45L106.458 404.183L107.035 403.169L103.994 401.436L103.417 402.45ZM98.8533 399.848L101.894 401.581L102.472 400.567L99.4306 398.834L98.8533 399.848ZM94.2895 397.246L97.3305 398.978L97.9077 397.965L94.8667 396.232L94.2895 397.246ZM89.7256 394.643L92.7666 396.376L93.3439 395.363L90.3029 393.63L89.7256 394.643ZM85.1617 392.041L88.2027 393.774L88.78 392.76L85.739 391.028L85.1617 392.041ZM80.5978 389.439L83.6388 391.172L84.2161 390.158L81.1751 388.425L80.5978 389.439ZM76.034 386.837L79.075 388.57L79.6522 387.556L76.6112 385.823L76.034 386.837ZM71.4701 384.235L74.5111 385.968L75.0884 384.954L72.0474 383.221L71.4701 384.235ZM66.9062 381.633L69.9472 383.366L70.5245 382.352L67.4835 380.619L66.9062 381.633Z" fill="black"/>
<path d="M566.912 99.3459L576.429 94.1352L765.337 207.002L689.736 336.857L626.368 311.845C626.368 311.845 557.84 173.582 566.912 99.3459V99.3459Z" fill="white"/>
<path d="M566.912 99.3459L567.691 100.769L576.396 96.0051L763.132 207.573L689.039 334.837L626.965 310.338L626.372 311.847L627.823 311.126C627.823 311.126 627.794 311.064 627.734 310.941C626.794 309.03 618.656 292.384 608.664 268.396C598.668 244.409 586.818 213.08 578.446 181.834C574.471 166.999 571.28 152.183 569.442 138.195C567.601 124.208 567.119 111.047 568.527 99.5435L566.916 99.3482L567.695 100.772L566.916 99.3482L565.305 99.1528C563.854 111.04 564.362 124.445 566.227 138.622C568.092 152.795 571.313 167.739 575.313 182.68C584.014 215.152 596.411 247.605 606.633 271.956C616.855 296.307 624.908 312.548 624.918 312.572L625.194 313.131L690.439 338.885L767.548 206.44L576.465 92.2746L565.403 98.3304L565.303 99.1568L566.914 99.3521L566.912 99.3459Z" fill="black"/>
<path d="M678.624 326.784L676.857 329.805L677.864 330.394L679.631 327.373L678.624 326.784ZM681.276 322.248L679.508 325.27L680.515 325.859L682.282 322.838L681.276 322.248ZM683.927 317.713L682.16 320.734L683.167 321.324L684.934 318.302L683.927 317.713ZM686.578 313.177L684.811 316.199L685.818 316.788L687.585 313.767L686.578 313.177ZM689.23 308.642L687.463 311.663L688.469 312.253L690.237 309.231L689.23 308.642ZM691.881 304.107L690.114 307.128L691.121 307.717L692.888 304.696L691.881 304.107ZM694.532 299.571L692.765 302.592L693.772 303.182L695.539 300.161L694.532 299.571ZM697.184 295.036L695.417 298.057L696.424 298.646L698.191 295.625L697.184 295.036ZM699.835 290.5L698.068 293.522L699.075 294.111L700.842 291.09L699.835 290.5ZM702.487 285.965L700.72 288.986L701.726 289.576L703.494 286.554L702.487 285.965ZM705.138 281.43L703.371 284.451L704.378 285.04L706.145 282.019L705.138 281.43ZM707.789 276.894L706.022 279.915L707.029 280.505L708.796 277.484L707.789 276.894ZM710.441 272.359L708.674 275.38L709.681 275.969L711.448 272.948L710.441 272.359ZM713.092 267.823L711.325 270.845L712.332 271.434L714.099 268.413L713.092 267.823ZM715.744 263.288L713.977 266.309L714.983 266.899L716.751 263.877L715.744 263.288ZM718.395 258.753L716.628 261.774L717.635 262.363L719.402 259.342L718.395 258.753ZM721.046 254.217L719.279 257.238L720.286 257.828L722.053 254.807L721.046 254.217ZM723.698 249.682L721.931 252.703L722.938 253.292L724.705 250.271L723.698 249.682ZM726.349 245.146L724.582 248.168L725.589 248.757L727.356 245.736L726.349 245.146ZM729.001 240.611L727.233 243.632L728.24 244.222L730.007 241.2L729.001 240.611ZM731.652 236.076L729.885 239.097L730.892 239.686L732.659 236.665L731.652 236.076ZM734.303 231.54L732.536 234.561L733.543 235.151L735.31 232.13L734.303 231.54ZM736.955 227.005L735.188 230.026L736.194 230.615L737.962 227.594L736.955 227.005ZM739.606 222.469L737.839 225.491L738.846 226.08L740.613 223.059L739.606 222.469ZM742.258 217.934L740.49 220.955L741.497 221.545L743.264 218.523L742.258 217.934ZM744.909 213.398L743.142 216.42L744.149 217.009L745.916 213.988L744.909 213.398ZM747.56 208.863L745.793 211.884L746.8 212.474L748.567 209.452L747.56 208.863ZM750.212 204.328L748.445 207.349L749.451 207.938L751.219 204.917L750.212 204.328ZM752.863 199.792L751.096 202.814L752.103 203.403L753.87 200.382L752.863 199.792Z" fill="black"/>
<path d="M675.478 324.807L673.711 327.828L674.717 328.418L676.485 325.396L675.478 324.807ZM678.129 320.271L676.362 323.293L677.369 323.882L679.136 320.861L678.129 320.271ZM680.78 315.736L679.013 318.757L680.02 319.347L681.787 316.325L680.78 315.736ZM683.432 311.201L681.665 314.222L682.672 314.811L684.439 311.79L683.432 311.201ZM686.083 306.665L684.316 309.686L685.323 310.276L687.09 307.255L686.083 306.665ZM688.735 302.13L686.967 305.151L687.974 305.74L689.741 302.719L688.735 302.13ZM691.386 297.594L689.619 300.616L690.626 301.205L692.393 298.184L691.386 297.594ZM694.037 293.059L692.27 296.08L693.277 296.67L695.044 293.648L694.037 293.059ZM696.689 288.524L694.922 291.545L695.929 292.134L697.696 289.113L696.689 288.524ZM699.34 283.988L697.573 287.009L698.58 287.599L700.347 284.578L699.34 283.988ZM701.992 279.453L700.224 282.474L701.231 283.063L702.998 280.042L701.992 279.453ZM704.643 274.917L702.876 277.939L703.883 278.528L705.65 275.507L704.643 274.917ZM707.294 270.382L705.527 273.403L706.534 273.993L708.301 270.971L707.294 270.382ZM709.946 265.847L708.179 268.868L709.186 269.457L710.953 266.436L709.946 265.847ZM712.597 261.311L710.83 264.332L711.837 264.922L713.604 261.901L712.597 261.311ZM715.249 256.776L713.481 259.797L714.488 260.386L716.255 257.365L715.249 256.776ZM717.9 252.24L716.133 255.262L717.14 255.851L718.907 252.83L717.9 252.24ZM720.551 247.705L718.784 250.726L719.791 251.316L721.558 248.294L720.551 247.705ZM723.203 243.17L721.436 246.191L722.442 246.78L724.21 243.759L723.203 243.17ZM725.854 238.634L724.087 241.655L725.094 242.245L726.861 239.224L725.854 238.634ZM728.505 234.099L726.738 237.12L727.745 237.709L729.512 234.688L728.505 234.099ZM731.157 229.563L729.39 232.585L730.397 233.174L732.164 230.153L731.157 229.563ZM733.808 225.028L732.041 228.049L733.048 228.639L734.815 225.617L733.808 225.028ZM736.46 220.492L734.693 223.514L735.699 224.103L737.467 221.082L736.46 220.492ZM739.111 215.957L737.344 218.978L738.351 219.568L740.118 216.547L739.111 215.957ZM741.762 211.422L739.995 214.443L741.002 215.032L742.769 212.011L741.762 211.422ZM744.414 206.886L742.647 209.908L743.654 210.497L745.421 207.476L744.414 206.886ZM747.065 202.351L745.298 205.372L746.305 205.962L748.072 202.94L747.065 202.351ZM749.717 197.815L747.949 200.837L748.956 201.426L750.723 198.405L749.717 197.815Z" fill="black"/>
<path d="M264.535 131.659L255.09 133.489L162.768 203.018C162.768 203.018 226.627 284.166 222.875 426.821C262.766 575.696 334.947 865.969 334.947 865.969C334.947 865.969 485.803 837.864 758.815 751.833C695.828 516.763 636.718 317.05 636.718 317.05C636.718 317.05 566.878 196.353 576.428 94.1361C477.306 79.2678 462.43 75.9756 462.43 75.9756C462.43 75.9756 419.697 100.304 360.97 117.158C302.244 134.015 264.535 131.659 264.535 131.659Z" fill="white"/>
<path d="M264.534 131.659L264.227 130.066L254.782 131.896C254.54 131.945 254.311 132.046 254.116 132.194L161.793 201.72C161.448 201.982 161.216 202.376 161.159 202.809C161.102 203.239 161.224 203.681 161.495 204.023C161.838 204.462 189.86 240.378 207.45 306.037C216.286 339.016 222.495 379.5 221.251 426.778C221.248 426.928 221.266 427.093 221.306 427.241C241.247 501.662 269.264 611.448 292.295 702.623C303.811 748.21 314.08 789.146 321.47 818.684C325.165 833.451 328.141 845.373 330.193 853.601C331.219 857.715 332.014 860.906 332.55 863.068C333.09 865.229 333.371 866.364 333.371 866.364C333.577 867.195 334.398 867.724 335.242 867.568C335.279 867.558 400.383 855.431 522.417 822.732C586.21 805.639 665.555 782.926 759.3 753.385C760.125 753.124 760.602 752.256 760.378 751.417C697.385 516.326 638.271 316.601 638.269 316.594C638.232 316.465 638.186 316.358 638.119 316.243C638.119 316.243 638.113 316.232 638.099 316.205C637.64 315.409 629.763 301.656 619.814 279.946C609.865 258.235 597.849 228.563 589.114 195.951C580.37 163.319 574.913 127.742 578.043 94.2901C578.122 93.433 577.521 92.6619 576.668 92.5355C527.109 85.101 498.617 80.5605 482.518 77.881C474.469 76.5412 469.523 75.6672 466.589 75.1263C465.123 74.8555 464.162 74.6718 463.571 74.555C463.276 74.4947 463.073 74.4561 462.943 74.428C462.88 74.415 462.834 74.4041 462.806 74.3984L462.778 74.3926L462.771 74.3943L462.765 74.4193L462.771 74.3912C462.379 74.3037 461.968 74.3673 461.616 74.5644L461.588 74.582C460.351 75.2851 418.13 99.0648 360.512 115.598C357.996 116.319 355.517 117.006 353.079 117.66C325.96 124.926 303.814 128.017 288.461 129.298C280.787 129.938 274.807 130.12 270.758 130.147C268.732 130.159 267.19 130.134 266.16 130.102C265.645 130.087 265.256 130.072 264.997 130.058C264.87 130.053 264.773 130.049 264.712 130.045C264.682 130.043 264.658 130.043 264.644 130.04L264.627 130.038C264.493 130.031 264.352 130.039 264.217 130.065L264.524 131.658L264.424 133.277C264.563 133.286 299.275 135.434 353.918 120.792C356.375 120.134 358.869 119.442 361.406 118.713C420.326 101.801 463.147 77.4186 463.22 77.3793L462.417 75.9688L462.066 77.5525C462.122 77.564 465.854 78.3884 481.978 81.0745C498.1 83.7575 526.606 88.3008 576.179 95.7352L576.419 94.1315L574.803 93.9806C571.63 127.992 577.165 163.906 585.971 196.784C594.914 230.159 607.24 260.405 617.331 282.323C627.422 304.241 635.283 317.826 635.303 317.86L636.706 317.046L635.151 317.506C635.151 317.506 635.383 318.283 635.83 319.806C642.552 342.6 698.194 531.893 757.238 752.249L758.803 751.829L758.316 750.281C664.616 779.807 585.315 802.509 521.568 819.589C457.822 836.67 413.849 847.126 382.357 854.237C366.61 857.793 354.675 860.327 346.679 861.972C342.681 862.795 339.669 863.396 337.655 863.79C336.65 863.986 335.893 864.132 335.388 864.228C335.136 864.276 334.947 864.313 334.821 864.337C334.694 864.361 334.635 864.374 334.635 864.374L334.933 865.969L336.506 865.577C336.506 865.577 264.325 575.305 224.426 426.399L222.86 426.818L224.48 426.862C225.734 379.25 219.479 338.446 210.57 305.194C192.69 238.465 164.123 202.138 164.027 202.014L162.754 203.019L163.729 204.317L255.77 135.012L264.846 133.254L264.538 131.661L264.534 131.659Z" fill="black"/>
<path d="M751.365 736.704C752.416 736.373 753.468 736.041 754.523 735.709L754.172 734.595C753.117 734.928 752.065 735.259 751.013 735.591L751.365 736.704ZM746.367 738.276C747.475 737.929 748.584 737.579 749.698 737.231L749.347 736.117C748.234 736.468 747.123 736.816 746.016 737.162L746.364 738.277L746.367 738.276ZM741.355 739.844C742.466 739.497 743.58 739.149 744.697 738.8L744.348 737.685C743.232 738.034 742.118 738.383 741.007 738.73L741.355 739.844ZM736.343 741.41C737.454 741.062 738.567 740.714 739.684 740.365L739.336 739.251C738.219 739.6 737.105 739.948 735.995 740.295L736.343 741.41ZM731.33 742.972C732.441 742.628 733.555 742.279 734.672 741.93L734.324 740.816C733.207 741.165 732.092 741.51 730.981 741.858L731.327 742.973L731.33 742.972ZM726.315 744.528C727.426 744.184 728.541 743.838 729.658 743.489L729.313 742.374C728.195 742.72 727.081 743.069 725.97 743.413L726.315 744.528ZM721.299 746.081C722.41 745.737 723.525 745.391 724.643 745.045L724.298 743.93C723.18 744.276 722.065 744.621 720.954 744.966L721.299 746.081ZM716.282 747.631C717.394 747.286 718.509 746.944 719.627 746.598L719.282 745.483C718.164 745.829 717.049 746.171 715.937 746.516L716.282 747.631ZM711.264 749.174C712.376 748.833 713.491 748.488 714.61 748.145L714.268 747.029C713.15 747.375 712.034 747.717 710.922 748.058L711.264 749.174ZM706.245 750.715C707.357 750.374 708.473 750.032 709.591 749.689L709.249 748.573C708.131 748.916 707.015 749.258 705.903 749.599L706.245 750.715ZM701.222 752.253C702.334 751.912 703.451 751.573 704.569 751.23L704.227 750.114C703.109 750.457 701.993 750.799 700.88 751.137L701.222 752.253ZM696.197 753.785C697.311 753.447 698.426 753.105 699.545 752.766L699.203 751.65C698.085 751.993 696.968 752.331 695.855 752.67L696.194 753.786L696.197 753.785ZM691.172 755.314C692.285 754.976 693.401 754.637 694.52 754.295L694.181 753.178C693.061 753.518 691.945 753.857 690.832 754.195L691.171 755.311L691.172 755.314ZM686.146 756.84C687.259 756.502 688.375 756.163 689.494 755.824L689.155 754.707C688.036 755.047 686.92 755.386 685.807 755.724L686.146 756.84ZM681.118 758.36C682.232 758.025 683.348 757.686 684.467 757.346L684.128 756.23C683.009 756.57 681.892 756.905 680.779 757.243L681.114 758.361L681.118 758.36ZM676.089 759.877C677.203 759.542 678.32 759.206 679.439 758.866L679.103 757.749C677.983 758.085 676.867 758.424 675.753 758.759L676.089 759.877ZM671.058 761.387C672.172 761.052 673.289 760.716 674.413 760.379L674.077 759.261C672.957 759.598 671.839 759.934 670.725 760.269L671.061 761.386L671.058 761.387ZM666.027 762.895C667.142 762.563 668.259 762.227 669.382 761.889L669.046 760.772C667.926 761.109 666.808 761.441 665.694 761.776L666.027 762.895ZM660.995 764.399C662.11 764.067 663.228 763.734 664.351 763.397L664.018 762.278C662.897 762.612 661.78 762.948 660.665 763.28L660.998 764.398L660.995 764.399ZM655.961 765.897C657.076 765.565 658.194 765.232 659.318 764.898L658.985 763.78C657.864 764.113 656.746 764.446 655.631 764.778L655.964 765.896L655.961 765.897ZM650.926 767.392C652.041 767.06 653.16 766.73 654.284 766.396L653.951 765.278C652.83 765.611 651.712 765.941 650.597 766.273L650.93 767.391L650.926 767.392ZM645.89 768.881C647.006 768.552 648.125 768.222 649.249 767.888L648.919 766.769C647.797 767.099 646.679 767.432 645.564 767.761L645.893 768.88L645.89 768.881ZM640.853 770.366C641.969 770.038 643.087 769.708 644.212 769.377L643.883 768.258C642.761 768.588 641.642 768.918 640.526 769.246L640.856 770.366L640.853 770.366ZM635.814 771.846C636.93 771.517 638.05 771.191 639.175 770.859L638.845 769.74C637.723 770.071 636.603 770.397 635.485 770.727L635.814 771.846ZM630.775 773.322C631.891 772.997 633.01 772.667 634.136 772.339L633.809 771.219C632.686 771.546 631.568 771.876 630.448 772.202L630.775 773.322ZM625.733 774.793C626.85 774.467 627.97 774.14 629.095 773.812L628.769 772.692C627.646 773.02 626.526 773.346 625.407 773.673L625.733 774.793ZM620.691 776.26C621.808 775.934 622.928 775.611 624.054 775.282L623.727 774.162C622.605 774.49 621.484 774.813 620.365 775.14L620.691 776.26ZM615.648 777.721C616.765 777.398 617.885 777.072 619.011 776.746L618.688 775.626C617.564 775.95 616.444 776.276 615.324 776.6L615.648 777.721ZM610.603 779.179C611.72 778.856 612.841 778.532 613.967 778.207L613.644 777.087C612.52 777.411 611.4 777.734 610.28 778.058L610.603 779.179ZM605.557 780.63C606.675 780.311 607.795 779.987 608.922 779.662L608.598 778.541C607.475 778.866 606.354 779.186 605.233 779.509L605.557 780.63ZM600.51 782.079C601.628 781.759 602.749 781.439 603.876 781.114L603.555 779.992C602.431 780.313 601.311 780.637 600.189 780.957L600.51 782.079ZM595.461 783.521C596.579 783.202 597.7 782.881 598.828 782.559L598.507 781.438C597.383 781.759 596.259 782.08 595.141 782.399L595.461 783.521ZM590.411 784.957C591.53 784.641 592.651 784.321 593.778 783.999L593.458 782.877C592.334 783.198 591.208 783.516 590.09 783.836L590.408 784.958L590.411 784.957ZM585.359 786.39C586.478 786.074 587.601 785.757 588.728 785.435L588.411 784.312C587.285 784.63 586.161 784.951 585.042 785.268L585.359 786.39ZM580.307 787.817C581.426 787.501 582.548 787.184 583.676 786.865L583.359 785.742C582.233 786.06 581.108 786.378 579.989 786.695L580.307 787.817ZM575.253 789.241C576.373 788.928 577.495 788.611 578.623 788.292L578.306 787.169C577.181 787.487 576.055 787.802 574.936 788.119L575.25 789.242L575.253 789.241ZM570.198 790.659C571.317 790.345 572.44 790.031 573.569 789.715L573.255 788.592C572.126 788.908 571.003 789.222 569.883 789.535L570.198 790.659ZM565.141 792.07C566.26 791.757 567.384 791.446 568.513 791.13L568.199 790.007C567.07 790.322 565.947 790.637 564.826 790.947L565.141 792.07ZM560.083 793.478C561.203 793.168 562.326 792.854 563.456 792.541L563.142 791.418C562.013 791.734 560.889 792.045 559.768 792.355L560.08 793.479L560.083 793.478ZM555.023 794.881C556.144 794.57 557.268 794.259 558.398 793.947L558.086 792.822C556.956 793.135 555.833 793.446 554.712 793.756L555.023 794.881ZM549.959 796.277C551.08 795.967 552.204 795.659 553.334 795.346L553.023 794.222C551.893 794.535 550.768 794.843 549.648 795.153L549.959 796.277ZM544.893 797.668C546.015 797.361 547.139 797.053 548.269 796.74L547.961 795.615C546.83 795.925 545.706 796.236 544.585 796.543L544.893 797.668ZM539.826 799.055C540.948 798.748 542.072 798.44 543.203 798.131L542.895 797.006C541.764 797.315 540.64 797.623 539.518 797.93L539.826 799.055ZM534.758 800.437C535.88 800.133 537.005 799.825 538.136 799.518L537.828 798.393C536.698 798.703 535.572 799.008 534.45 799.312L534.752 800.438L534.758 800.437ZM529.694 801.81C530.817 801.509 531.942 801.201 533.073 800.895L532.771 799.768C531.637 800.075 530.511 800.38 529.389 800.684L529.691 801.811L529.694 801.81ZM524.625 803.178C525.749 802.877 526.874 802.572 528.006 802.266L527.704 801.139C526.568 801.443 525.444 801.751 524.32 802.052L524.622 803.179L524.625 803.178ZM519.553 804.544C520.676 804.243 521.802 803.941 522.935 803.638L522.633 802.511C521.5 802.815 520.371 803.117 519.251 803.417L519.553 804.544ZM514.482 805.903C515.549 805.617 516.62 805.33 517.696 805.041L517.864 804.997L517.562 803.87C517.506 803.885 517.45 803.9 517.395 803.915C516.318 804.203 515.247 804.49 514.18 804.776L514.482 805.903ZM509.406 807.256C510.529 806.955 511.656 806.657 512.789 806.356L512.487 805.23C511.355 805.533 510.229 805.835 509.107 806.129L509.409 807.255L509.406 807.256ZM504.328 808.604C505.452 808.306 506.579 808.007 507.713 807.707L507.411 806.58C506.281 806.883 505.154 807.178 504.03 807.476L504.331 808.603L504.328 808.604ZM499.249 809.945C500.374 809.65 501.501 809.351 502.634 809.051L502.332 807.924C501.202 808.224 500.074 808.519 498.95 808.817L499.246 809.945L499.249 809.945ZM494.168 811.279C495.293 810.985 496.421 810.689 497.554 810.389L497.259 809.26C496.125 809.558 494.997 809.853 493.873 810.151L494.168 811.279ZM489.086 812.608C490.208 812.314 491.339 812.021 492.473 811.724L492.178 810.595C491.044 810.893 489.916 811.188 488.79 811.48L489.086 812.608ZM484.002 813.931C485.124 813.64 486.256 813.346 487.39 813.049L487.098 811.92C485.963 812.214 484.835 812.51 483.709 812.801L484.002 813.931ZM478.916 815.247C480.038 814.956 481.17 814.663 482.305 814.369L482.013 813.239C480.878 813.534 479.749 813.826 478.623 814.118L478.916 815.247ZM473.828 816.557C474.952 816.269 476.084 815.976 477.219 815.685L476.927 814.556C475.792 814.85 474.659 815.14 473.536 815.428L473.825 816.558L473.828 816.557ZM468.739 817.861C469.863 817.573 470.992 817.284 472.131 816.992L471.842 815.862C470.706 816.153 469.573 816.443 468.45 816.731L468.739 817.861ZM463.652 819.158C464.776 818.873 465.905 818.584 467.045 818.295L466.755 817.165C465.62 817.456 464.486 817.743 463.362 818.028L463.649 819.159L463.652 819.158ZM458.562 820.449C459.686 820.164 460.817 819.878 461.956 819.589L461.67 818.458C460.53 818.747 459.4 819.033 458.276 819.318L458.562 820.449ZM453.471 821.733C454.596 821.452 455.727 821.165 456.866 820.876L456.58 819.746C455.44 820.034 454.309 820.318 453.185 820.602L453.468 821.734L453.471 821.733ZM448.378 823.008C449.503 822.727 450.634 822.444 451.774 822.158L451.491 821.026C450.351 821.312 449.219 821.595 448.094 821.877L448.378 823.008ZM443.283 824.277C444.408 823.999 445.54 823.716 446.681 823.433L446.398 822.301C445.257 822.587 444.125 822.867 443 823.149L443.28 824.281L443.283 824.277ZM438.186 825.54C439.312 825.262 440.444 824.982 441.585 824.699L441.305 823.567C440.163 823.849 439.031 824.129 437.906 824.408L438.186 825.54ZM433.086 826.794C434.21 826.519 435.345 826.238 436.487 825.959L436.207 824.826C435.066 825.109 433.933 825.386 432.809 825.66L433.086 826.794ZM427.985 828.041C429.109 827.767 430.242 827.49 431.387 827.209L431.11 826.076C429.968 826.355 428.835 826.632 427.711 826.907L427.989 828.04L427.985 828.041ZM422.883 829.282C424.007 829.011 425.14 828.734 426.286 828.457L426.009 827.323C424.866 827.6 423.73 827.878 422.609 828.148L422.883 829.282ZM417.778 830.514C418.902 830.243 420.036 829.969 421.183 829.695L420.909 828.561C419.763 828.838 418.629 829.112 417.507 829.379L417.781 830.513L417.778 830.514ZM412.67 831.737C413.795 831.468 414.93 831.198 416.076 830.92L415.805 829.785C414.658 830.06 413.524 830.334 412.402 830.601L412.673 831.736L412.67 831.737ZM407.561 832.953C408.683 832.686 409.821 832.417 410.968 832.143L410.697 831.008C409.551 831.282 408.415 831.55 407.293 831.817L407.561 832.953ZM402.449 834.16C403.572 833.896 404.707 833.628 405.858 833.356L405.59 832.221C404.443 832.492 403.307 832.759 402.184 833.024L402.452 834.16L402.449 834.16ZM397.335 835.358C398.459 835.097 399.594 834.829 400.746 834.56L400.478 833.425C399.326 833.693 398.191 833.961 397.07 834.222L397.335 835.358ZM392.218 836.547C393.339 836.286 394.476 836.025 395.631 835.755L395.366 834.619C394.214 834.887 393.077 835.149 391.957 835.409L392.221 836.546L392.218 836.547ZM387.099 837.726C388.221 837.469 389.358 837.207 390.51 836.941L390.248 835.804C389.096 836.07 387.959 836.331 386.837 836.589L387.099 837.726ZM381.977 838.896C383.097 838.643 384.234 838.381 385.39 838.118L385.128 836.98C383.972 837.244 382.835 837.505 381.716 837.759L381.974 838.897L381.977 838.896ZM376.853 840.057C377.972 839.803 379.111 839.548 380.267 839.285L380.009 838.146C378.852 838.41 377.714 838.665 376.595 838.918L376.85 840.058L376.853 840.057ZM371.729 841.204C372.846 840.955 373.984 840.699 375.146 840.441L374.89 839.302C373.73 839.563 372.591 839.819 371.473 840.065L371.726 841.205L371.729 841.204ZM366.601 842.339C367.716 842.094 368.855 841.841 370.019 841.583L369.767 840.443C368.603 840.702 367.463 840.954 366.349 841.199L366.601 842.339ZM361.47 843.462C362.582 843.22 363.723 842.971 364.891 842.715L364.642 841.574C363.473 841.831 362.333 842.08 361.224 842.321L361.473 843.461L361.47 843.462ZM356.336 844.572C357.443 844.335 358.584 844.089 359.759 843.834L359.513 842.693C358.338 842.948 357.196 843.194 356.092 843.43L356.339 844.572L356.336 844.572ZM351.198 845.67C352.297 845.439 353.439 845.196 354.624 844.942L354.381 843.799C353.195 844.054 352.057 844.296 350.958 844.527L351.201 845.67L351.198 845.67ZM346.055 846.75C347.142 846.525 348.285 846.285 349.484 846.03L349.244 844.887C348.044 845.139 346.905 845.378 345.818 845.606L346.058 846.749L346.055 846.75ZM340.908 847.811C341.97 847.592 343.114 847.359 344.339 847.103L344.102 845.959C342.881 846.214 341.736 846.447 340.674 846.666L340.908 847.811V847.811ZM335.757 848.849C336.759 848.65 337.904 848.42 339.193 848.157L338.959 847.012C337.673 847.274 336.527 847.502 335.53 847.702L335.757 848.849V848.849ZM330.595 849.854C330.595 849.854 331.75 849.637 334.038 849.19L333.814 848.046C332.67 848.269 331.813 848.436 331.239 848.547C330.665 848.657 330.381 848.71 330.381 848.71L330.596 849.857L330.595 849.854Z" fill="black"/>
<path d="M750.308 732.758C751.36 732.427 752.412 732.095 753.467 731.762L753.115 730.649C752.06 730.982 751.008 731.313 749.957 731.645L750.308 732.758ZM745.31 734.329C746.418 733.983 747.528 733.632 748.642 733.284L748.29 732.171C747.177 732.522 746.067 732.87 744.959 733.216L745.307 734.33L745.31 734.329ZM740.299 735.898C741.409 735.551 742.523 735.202 743.64 734.853L743.292 733.739C742.175 734.088 741.061 734.436 739.95 734.784L740.299 735.898ZM735.286 737.463C736.397 737.116 737.511 736.768 738.628 736.419L738.279 735.304C737.162 735.653 736.049 736.002 734.938 736.349L735.286 737.463ZM730.273 739.026C731.385 738.681 732.498 738.333 733.615 737.984L733.267 736.87C732.15 737.219 731.035 737.564 729.925 737.911L730.27 739.026L730.273 739.026ZM725.258 740.582C726.37 740.237 727.484 739.892 728.601 739.543L728.256 738.428C727.138 738.774 726.024 739.122 724.913 739.467L725.258 740.582ZM720.242 742.135C721.354 741.79 722.468 741.445 723.586 741.099L723.241 739.984C722.123 740.33 721.009 740.675 719.897 741.019L720.242 742.135ZM715.226 743.684C716.337 743.34 717.453 742.998 718.57 742.652L718.225 741.537C717.107 741.883 715.992 742.225 714.881 742.569L715.226 743.684ZM710.207 745.228C711.32 744.887 712.434 744.542 713.553 744.199L713.211 743.083C712.093 743.429 710.978 743.771 709.865 744.112L710.207 745.228ZM705.188 746.769C706.301 746.428 707.416 746.085 708.535 745.743L708.193 744.627C707.074 744.97 705.959 745.312 704.846 745.653L705.188 746.769ZM700.165 748.307C701.278 747.966 702.394 747.627 703.513 747.284L703.17 746.168C702.052 746.511 700.936 746.853 699.823 747.191L700.165 748.307ZM695.141 749.839C696.254 749.501 697.369 749.159 698.489 748.819L698.147 747.703C697.028 748.046 695.912 748.385 694.799 748.723L695.138 749.84L695.141 749.839ZM690.115 751.368C691.228 751.03 692.345 750.691 693.463 750.348L693.124 749.232C692.005 749.571 690.889 749.91 689.775 750.248L690.114 751.365L690.115 751.368ZM685.089 752.894C686.202 752.556 687.318 752.217 688.438 751.877L688.099 750.761C686.979 751.1 685.863 751.439 684.75 751.777L685.089 752.894ZM680.061 754.414C681.175 754.079 682.291 753.74 683.411 753.4L683.072 752.283C681.952 752.623 680.835 752.959 679.722 753.297L680.058 754.415L680.061 754.414ZM675.032 755.93C676.146 755.595 677.263 755.26 678.383 754.92L678.047 753.802C676.926 754.139 675.81 754.478 674.696 754.813L675.032 755.93ZM670.002 757.441C671.116 757.106 672.233 756.77 673.356 756.433L673.02 755.315C671.9 755.652 670.783 755.988 669.669 756.323L670.005 757.44L670.002 757.441ZM664.97 758.948C666.085 758.616 667.202 758.281 668.326 757.943L667.99 756.826C666.869 757.162 665.751 757.495 664.637 757.83L664.97 758.948ZM659.938 760.453C661.053 760.121 662.171 759.788 663.294 759.451L662.961 758.332C661.84 758.666 660.723 759.002 659.608 759.333L659.941 760.452L659.938 760.453ZM654.904 761.951C656.019 761.619 657.137 761.286 658.261 760.952L657.929 759.833C656.807 760.167 655.689 760.5 654.575 760.831L654.908 761.95L654.904 761.951ZM649.87 763.446C650.985 763.114 652.103 762.784 653.228 762.45L652.895 761.331C651.774 761.665 650.655 761.995 649.54 762.327L649.873 763.445L649.87 763.446ZM644.834 764.934C645.949 764.606 647.068 764.276 648.192 763.942L647.862 762.822C646.74 763.153 645.623 763.486 644.507 763.814L644.837 764.934L644.834 764.934ZM639.796 766.42C640.912 766.091 642.031 765.762 643.156 765.43L642.826 764.311C641.704 764.642 640.585 764.971 639.47 765.3L639.8 766.419L639.796 766.42ZM634.758 767.9C635.873 767.571 636.993 767.244 638.118 766.913L637.788 765.794C636.666 766.124 635.547 766.451 634.428 766.781L634.758 767.9ZM629.718 769.376C630.835 769.05 631.953 768.721 633.079 768.393L632.752 767.273C631.63 767.6 630.511 767.93 629.391 768.256L629.718 769.376ZM624.677 770.846C625.793 770.521 626.913 770.194 628.039 769.866L627.712 768.746C626.589 769.073 625.47 769.4 624.35 769.726L624.677 770.846ZM619.635 772.313C620.751 771.988 621.872 771.664 622.997 771.336L622.671 770.216C621.548 770.543 620.428 770.867 619.308 771.193L619.635 772.313ZM614.591 773.774C615.708 773.452 616.828 773.125 617.954 772.8L617.631 771.679C616.507 772.004 615.388 772.33 614.267 772.654L614.591 773.774ZM609.546 775.232C610.664 774.91 611.784 774.586 612.911 774.261L612.587 773.14C611.464 773.465 610.343 773.788 609.223 774.111L609.546 775.232ZM604.5 776.684C605.618 776.364 606.739 776.041 607.865 775.716L607.542 774.595C606.418 774.919 605.297 775.24 604.177 775.563L604.5 776.684ZM599.453 778.132C600.571 777.813 601.693 777.493 602.819 777.168L602.499 776.046C601.374 776.367 600.254 776.69 599.133 777.011L599.453 778.132ZM594.404 779.575C595.523 779.255 596.644 778.935 597.771 778.613L597.451 777.491C596.326 777.812 595.202 778.134 594.084 778.453L594.404 779.575ZM589.354 781.011C590.473 780.695 591.594 780.374 592.722 780.052L592.401 778.931C591.277 779.252 590.152 779.57 589.034 779.889L589.351 781.012L589.354 781.011ZM584.303 782.444C585.422 782.128 586.544 781.81 587.671 781.488L587.354 780.366C586.229 780.684 585.104 781.005 583.985 781.322L584.303 782.444ZM579.25 783.871C580.369 783.555 581.491 783.237 582.619 782.918L582.302 781.796C581.177 782.114 580.052 782.432 578.933 782.749L579.25 783.871ZM574.196 785.295C575.316 784.981 576.438 784.664 577.566 784.345L577.249 783.223C576.124 783.541 574.998 783.856 573.879 784.172L574.193 785.296L574.196 785.295ZM569.141 786.712C570.261 786.399 571.384 786.085 572.513 785.769L572.198 784.646C571.069 784.962 569.946 785.276 568.827 785.589L569.141 786.712ZM564.084 788.124C565.204 787.811 566.327 787.499 567.457 787.184L567.142 786.06C566.013 786.376 564.89 786.69 563.77 787L564.084 788.124ZM559.026 789.532C560.147 789.222 561.27 788.908 562.4 788.595L562.085 787.472C560.956 787.788 559.832 788.099 558.712 788.409L559.023 789.533L559.026 789.532ZM553.967 790.934C555.087 790.624 556.211 790.313 557.341 790L557.03 788.876C555.9 789.189 554.776 789.5 553.655 789.81L553.967 790.934ZM548.902 792.331C550.023 792.021 551.148 791.713 552.277 791.4L551.966 790.276C550.836 790.589 549.712 790.897 548.591 791.207L548.902 792.331ZM543.836 793.722C544.958 793.415 546.082 793.107 547.212 792.794L546.904 791.669C545.774 791.978 544.65 792.289 543.528 792.597L543.836 793.722ZM538.77 795.109C539.891 794.802 541.016 794.494 542.146 794.184L541.838 793.059C540.708 793.369 539.583 793.677 538.462 793.984L538.77 795.109ZM533.701 796.49C534.824 796.186 535.948 795.878 537.08 795.572L536.772 794.447C535.641 794.757 534.516 795.061 533.393 795.365L533.695 796.492L533.701 796.49ZM528.637 797.864C529.761 797.563 530.885 797.255 532.017 796.948L531.715 795.822C530.58 796.129 529.455 796.434 528.332 796.738L528.634 797.865L528.637 797.864ZM523.569 799.232C524.692 798.931 525.817 798.626 526.949 798.32L526.647 797.193C525.512 797.497 524.387 797.805 523.264 798.106L523.566 799.233L523.569 799.232ZM518.496 800.598C519.619 800.297 520.746 799.995 521.878 799.692L521.576 798.565C520.444 798.868 519.314 799.171 518.194 799.471L518.496 800.598ZM513.425 801.957C514.493 801.671 515.563 801.384 516.64 801.095L516.807 801.05L516.505 799.924C516.449 799.939 516.394 799.954 516.338 799.969C515.261 800.257 514.191 800.544 513.123 800.83L513.425 801.957ZM508.349 803.31C509.472 803.009 510.599 802.71 511.733 802.41L511.431 801.283C510.298 801.587 509.172 801.889 508.05 802.182L508.352 803.309L508.349 803.31ZM503.272 804.657C504.396 804.359 505.523 804.061 506.656 803.76L506.354 802.634C505.225 802.936 504.097 803.232 502.973 803.53L503.275 804.656L503.272 804.657ZM498.193 805.998C499.317 805.704 500.444 805.405 501.578 805.105L501.276 803.978C500.146 804.277 499.018 804.573 497.894 804.871L498.189 805.999L498.193 805.998ZM493.112 807.333C494.237 807.038 495.364 806.743 496.498 806.442L496.202 805.314C495.068 805.611 493.94 805.907 492.816 806.205L493.112 807.333ZM488.029 808.662C489.151 808.368 490.283 808.075 491.417 807.777L491.121 806.649C489.987 806.946 488.859 807.242 487.734 807.533L488.029 808.662ZM482.945 809.984C484.068 809.693 485.199 809.4 486.333 809.103L486.041 807.974C484.906 808.268 483.778 808.564 482.653 808.855L482.945 809.984ZM477.859 811.301C478.982 811.01 480.114 810.717 481.249 810.422L480.956 809.293C479.821 809.587 478.692 809.88 477.567 810.171L477.859 811.301ZM472.772 812.611C473.895 812.323 475.027 812.03 476.163 811.739L475.87 810.61C474.735 810.904 473.603 811.194 472.479 811.482L472.769 812.612L472.772 812.611ZM467.683 813.915C468.806 813.627 469.936 813.338 471.074 813.046L470.785 811.916C469.649 812.207 468.517 812.497 467.393 812.785L467.683 813.915ZM462.595 815.212C463.719 814.927 464.849 814.637 465.988 814.349L465.699 813.219C464.563 813.51 463.43 813.797 462.305 814.082L462.592 815.212L462.595 815.212ZM457.506 816.502C458.63 816.218 459.76 815.931 460.9 815.642L460.613 814.512C459.474 814.801 458.343 815.087 457.219 815.371L457.506 816.502ZM452.415 817.787C453.54 817.505 454.67 817.219 455.81 816.933L455.524 815.802C454.384 816.091 453.253 816.374 452.129 816.659L452.412 817.791L452.415 817.787ZM447.321 819.062C448.446 818.78 449.577 818.497 450.718 818.212L450.434 817.08C449.294 817.366 448.163 817.649 447.038 817.93L447.321 819.062ZM442.226 820.331C443.352 820.053 444.483 819.769 445.623 819.484L445.34 818.352C444.2 818.638 443.068 818.918 441.943 819.199L442.223 820.332L442.226 820.331ZM437.129 821.594C438.255 821.315 439.387 821.035 440.528 820.753L440.248 819.62C439.107 819.903 437.975 820.183 436.849 820.461L437.129 821.594ZM432.03 822.847C433.153 822.573 434.289 822.292 435.431 822.012L435.15 820.88C434.009 821.163 432.876 821.44 431.753 821.714L432.03 822.847ZM426.929 824.095C428.052 823.82 429.185 823.543 430.331 823.263L430.053 822.13C428.911 822.409 427.778 822.686 426.655 822.961L426.932 824.094L426.929 824.095ZM421.826 825.336C422.951 825.065 424.084 824.788 425.23 824.51L424.952 823.377C423.809 823.653 422.674 823.931 421.552 824.202L421.826 825.336ZM416.721 826.568C417.846 826.296 418.979 826.023 420.126 825.748L419.852 824.614C418.706 824.892 417.572 825.165 416.45 825.433L416.724 826.567L416.721 826.568ZM411.614 827.79C412.739 827.522 413.873 827.251 415.019 826.974L414.748 825.839C413.601 826.113 412.468 826.387 411.346 826.655L411.617 827.79L411.614 827.79ZM406.504 829.007C407.626 828.739 408.765 828.471 409.912 828.197L409.641 827.062C408.494 827.336 407.359 827.604 406.236 827.871L406.504 829.007ZM401.393 830.214C402.515 829.95 403.651 829.682 404.802 829.41L404.534 828.274C403.386 828.545 402.251 828.813 401.128 829.077L401.396 830.213L401.393 830.214ZM396.278 831.412C397.402 831.151 398.537 830.883 399.689 830.614L399.421 829.478C398.27 829.747 397.134 830.015 396.014 830.275L396.278 831.412ZM391.162 832.6C392.282 832.34 393.419 832.078 394.574 831.809L394.309 830.672C393.158 830.941 392.021 831.203 390.9 831.463L391.165 832.6L391.162 832.6ZM386.042 833.78C387.164 833.522 388.301 833.261 389.453 832.995L389.192 831.858C388.039 832.123 386.902 832.385 385.781 832.642L386.042 833.78ZM380.921 834.95C382.04 834.696 383.177 834.435 384.333 834.171L384.072 833.034C382.915 833.297 381.778 833.559 380.659 833.812L380.918 834.951L380.921 834.95ZM375.796 836.11C376.916 835.857 378.054 835.602 379.211 835.338L378.952 834.2C377.796 834.463 376.657 834.719 375.538 834.972L375.793 836.111L375.796 836.11ZM370.672 837.258C371.789 837.008 372.928 836.753 374.089 836.495L373.833 835.356C372.673 835.617 371.534 835.872 370.417 836.119L370.669 837.259L370.672 837.258ZM365.544 838.393C366.659 838.147 367.799 837.895 368.963 837.636L368.71 836.496C367.546 836.755 366.407 837.008 365.292 837.253L365.544 838.393ZM360.413 839.516C361.526 839.274 362.666 839.025 363.834 838.768L363.585 837.628C362.417 837.884 361.276 838.133 360.167 838.374L360.416 839.515L360.413 839.516ZM355.279 840.626C356.386 840.389 357.527 840.143 358.702 839.888L358.456 838.746C357.281 839.002 356.14 839.248 355.036 839.484L355.282 840.625L355.279 840.626ZM350.141 841.724C351.24 841.493 352.382 841.25 353.567 840.995L353.324 839.853C352.139 840.107 351 840.35 349.901 840.581L350.144 841.723L350.141 841.724ZM344.999 842.804C346.086 842.579 347.229 842.339 348.427 842.084L348.187 840.941C346.988 841.192 345.848 841.431 344.762 841.659L345.002 842.803L344.999 842.804ZM339.851 843.864C340.913 843.646 342.058 843.412 343.283 843.157L343.046 842.013C341.824 842.267 340.68 842.501 339.617 842.72L339.851 843.864V843.864ZM334.701 844.903C335.702 844.704 336.847 844.473 338.137 844.211L337.903 843.066C336.617 843.328 335.47 843.555 334.473 843.756L334.701 844.903V844.903ZM329.538 845.908C329.538 845.908 330.694 845.691 332.981 845.244L332.758 844.1C331.614 844.323 330.756 844.49 330.183 844.601C329.609 844.711 329.324 844.764 329.324 844.764L329.539 845.911L329.538 845.908Z" fill="black"/>
<g clip-path="url(#clip1_20_1714)">
<path d="M437.474 248.036C437.286 247.336 437.241 246.638 437.34 245.939C437.439 245.241 437.661 244.586 438.007 243.977C438.351 243.366 438.801 242.84 439.353 242.394C439.906 241.951 440.54 241.632 441.259 241.439C441.979 241.246 442.672 241.209 443.373 241.317C444.074 241.425 444.731 241.657 445.342 242.011C445.954 242.366 446.481 242.82 446.922 243.372C447.361 243.926 447.676 244.552 447.863 245.253C448.051 245.953 448.099 246.68 447.996 247.379C447.893 248.079 447.661 248.73 447.305 249.335C446.948 249.94 446.492 250.459 445.939 250.893C445.384 251.329 444.752 251.64 444.043 251.83C443.334 252.02 442.617 252.07 441.919 251.971C441.221 251.871 440.572 251.648 439.969 251.3C439.367 250.954 438.849 250.502 438.414 249.947C437.979 249.392 437.667 248.756 437.474 248.036V248.036ZM439.546 247.481C439.667 247.934 439.86 248.333 440.127 248.681C440.393 249.029 440.711 249.313 441.082 249.536C441.452 249.757 441.851 249.901 442.277 249.965C442.704 250.029 443.143 249.999 443.593 249.878C444.043 249.758 444.406 249.573 444.736 249.306C445.066 249.039 445.328 248.721 445.523 248.347C445.718 247.974 445.842 247.571 445.895 247.135C445.945 246.702 445.913 246.26 445.791 245.808C445.67 245.355 445.474 244.941 445.205 244.587C444.937 244.235 444.623 243.945 444.263 243.721C443.901 243.498 443.51 243.352 443.087 243.288C442.664 243.223 442.234 243.25 441.79 243.369C441.346 243.488 440.96 243.68 440.626 243.947C440.292 244.215 440.023 244.535 439.818 244.912C439.612 245.288 439.485 245.696 439.435 246.133C439.385 246.57 439.42 247.021 439.544 247.482L439.546 247.481Z" fill="#2D2D2D"/>
<path d="M448.5 239.618L450.503 239.082L452.709 247.316L457.49 246.035L458.009 247.97L451.225 249.788L448.5 239.618Z" fill="#2D2D2D"/>
<path d="M457.355 237.245L459.358 236.709L462.083 246.879L460.08 247.415L457.355 237.245Z" fill="#2D2D2D"/>
<path d="M463.52 235.594L468.452 242.121L467.228 242.197L468.023 234.387L470.4 233.75L468.609 245.633L461.115 236.238L463.52 235.594V235.594Z" fill="#2D2D2D"/>
<path d="M472.152 233.281L479.088 231.422L479.606 233.358L474.674 234.68L475.255 236.849L479.62 235.679L480.138 237.615L475.773 238.784L476.362 240.98L481.488 239.607L482.007 241.542L474.878 243.453L472.153 233.283L472.152 233.281Z" fill="#2D2D2D"/>
<path d="M487.445 231.819C487.001 231.711 486.561 231.641 486.122 231.61C485.685 231.578 485.29 231.61 484.941 231.703C484.507 231.82 484.19 231.999 483.989 232.24C483.787 232.481 483.734 232.778 483.827 233.127C483.891 233.367 484.044 233.556 484.283 233.692C484.523 233.831 484.812 233.934 485.15 234.001C485.489 234.068 485.836 234.12 486.189 234.151C486.514 234.184 486.841 234.236 487.172 234.31C487.503 234.383 487.815 234.503 488.104 234.666C488.394 234.83 488.654 235.062 488.883 235.362C489.112 235.661 489.292 236.055 489.423 236.543C489.561 237.058 489.555 237.574 489.408 238.087C489.26 238.6 488.964 239.063 488.522 239.472C488.079 239.882 487.48 240.189 486.725 240.391C486.338 240.495 485.934 240.56 485.511 240.59C485.091 240.619 484.663 240.605 484.233 240.547C483.802 240.489 483.375 240.385 482.949 240.233L483.414 238.435C483.701 238.545 484.001 238.632 484.319 238.689C484.637 238.748 484.946 238.775 485.252 238.772C485.558 238.769 485.829 238.737 486.069 238.673C486.308 238.609 486.541 238.51 486.767 238.375C486.992 238.241 487.162 238.069 487.281 237.861C487.398 237.652 487.416 237.401 487.338 237.106C487.283 236.904 487.166 236.737 486.989 236.607C486.812 236.476 486.591 236.373 486.329 236.294C486.066 236.216 485.789 236.164 485.494 236.133C485.148 236.097 484.789 236.044 484.415 235.977C484.041 235.911 483.681 235.802 483.329 235.653C482.979 235.505 482.668 235.287 482.399 234.998C482.13 234.709 481.929 234.321 481.798 233.833C481.64 233.244 481.633 232.698 481.78 232.194C481.927 231.69 482.205 231.248 482.617 230.867C483.029 230.486 483.543 230.197 484.162 230.002C484.983 229.782 485.673 229.701 486.236 229.758C486.799 229.814 487.319 229.921 487.797 230.079L487.449 231.816L487.445 231.819Z" fill="#2D2D2D"/>
<path d="M493.9 227.454L500.255 225.751L500.774 227.686L496.422 228.853L497.04 231.16L500.812 230.15L501.33 232.085L497.559 233.096L498.629 237.089L496.626 237.626L493.901 227.456L493.9 227.454Z" fill="#2D2D2D"/>
<path d="M502.933 230.497C502.745 229.796 502.7 229.098 502.799 228.399C502.898 227.701 503.12 227.046 503.466 226.437C503.81 225.826 504.259 225.3 504.812 224.854C505.365 224.411 505.999 224.092 506.718 223.899C507.438 223.707 508.131 223.67 508.832 223.777C509.533 223.885 510.19 224.117 510.801 224.472C511.413 224.826 511.94 225.28 512.381 225.832C512.82 226.386 513.135 227.012 513.322 227.713C513.51 228.413 513.558 229.14 513.455 229.84C513.352 230.539 513.12 231.19 512.764 231.795C512.407 232.4 511.951 232.919 511.398 233.354C510.843 233.789 510.211 234.1 509.502 234.29C508.793 234.48 508.076 234.53 507.378 234.431C506.679 234.332 506.031 234.109 505.428 233.76C504.826 233.414 504.308 232.962 503.873 232.407C503.438 231.852 503.126 231.216 502.933 230.497ZM505.005 229.942C505.126 230.394 505.319 230.793 505.586 231.141C505.852 231.489 506.17 231.774 506.541 231.997C506.911 232.218 507.31 232.361 507.736 232.425C508.163 232.489 508.601 232.459 509.052 232.339C509.502 232.218 509.865 232.033 510.195 231.766C510.525 231.5 510.787 231.182 510.982 230.807C511.177 230.434 511.301 230.031 511.354 229.596C511.404 229.163 511.372 228.72 511.25 228.268C511.129 227.816 510.933 227.402 510.664 227.047C510.396 226.695 510.082 226.405 509.722 226.181C509.36 225.958 508.969 225.813 508.546 225.748C508.123 225.683 507.693 225.711 507.249 225.829C506.805 225.948 506.419 226.14 506.085 226.407C505.751 226.675 505.482 226.995 505.277 227.372C505.071 227.748 504.944 228.156 504.894 228.594C504.844 229.031 504.879 229.481 505.003 229.942L505.005 229.942Z" fill="#2D2D2D"/>
<path d="M517.041 221.253C517.676 221.083 518.263 221.011 518.805 221.039C519.345 221.068 519.823 221.186 520.24 221.395C520.656 221.603 521.007 221.895 521.296 222.266C521.583 222.638 521.798 223.088 521.938 223.611C522.049 224.026 522.097 224.457 522.084 224.905C522.071 225.353 521.971 225.785 521.78 226.202C521.59 226.618 521.293 226.991 520.888 227.323C520.483 227.654 519.938 227.911 519.259 228.093L517.822 228.478L518.689 231.711L516.686 232.248L513.961 222.078L517.043 221.252L517.041 221.253ZM518.726 226.163C519.029 226.082 519.27 225.963 519.445 225.808C519.62 225.653 519.745 225.482 519.819 225.293C519.893 225.107 519.931 224.921 519.936 224.737C519.94 224.553 519.923 224.386 519.883 224.239C519.853 224.127 519.799 223.993 519.722 223.831C519.645 223.669 519.531 223.515 519.384 223.367C519.236 223.219 519.043 223.113 518.803 223.049C518.562 222.985 518.269 223.001 517.919 223.094L516.483 223.479L517.305 226.546L518.729 226.165L518.726 226.163ZM520.938 226.903L524.503 230.153L522.168 230.779L518.561 227.599L520.936 226.904L520.938 226.903Z" fill="#2D2D2D"/>
<path d="M531.296 213.887C531.321 213.981 531.326 214.075 531.311 214.171C531.296 214.265 531.258 214.352 531.198 214.429C531.137 214.506 531.063 214.567 530.974 214.611C528.835 215.448 526.893 216.412 525.148 217.505C525.526 227.356 525.89 235.304 526.238 241.348C526.322 243.242 526.141 244.831 525.697 246.111C525.253 247.391 524.564 248.286 523.631 248.8C523.388 248.946 523.125 249.057 522.843 249.133C521.524 249.486 520.131 249.143 518.66 248.103C517.587 247.339 516.623 246.191 515.767 244.652C514.911 243.116 514.274 241.267 513.857 239.107C513.441 236.948 513.363 234.773 513.624 232.584C514.107 228.74 515.591 225.274 518.075 222.184C519.669 220.224 521.65 218.46 524.018 216.899C523.87 213.184 523.768 210.091 523.713 207.623C523.686 206.318 523.587 205.235 523.417 204.372C523.246 203.509 523.082 202.953 522.924 202.702C522.767 202.451 522.626 202.322 522.502 202.315C522.257 202.299 521.97 202.514 521.643 202.953C521.317 203.394 521.007 204.012 520.717 204.807C520.425 205.602 520.241 206.422 520.166 207.27C520.13 207.663 520.121 208.044 520.139 208.414C520.157 208.783 520.221 209.174 520.332 209.589C520.443 210.003 520.653 210.355 520.963 210.646C521.273 210.937 521.66 211.12 522.125 211.198C522.271 211.22 522.392 211.294 522.487 211.419C522.581 211.545 522.618 211.682 522.597 211.83C522.575 211.977 522.501 212.096 522.376 212.191C522.25 212.286 522.103 212.325 521.938 212.308C520.903 212.141 520.13 211.602 519.613 210.69C519.096 209.78 518.906 208.598 519.043 207.149C519.171 205.742 519.574 204.387 520.255 203.084C520.937 201.78 521.694 201.149 522.534 201.186C523.958 201.228 524.723 203.366 524.826 207.597C524.884 209.925 524.977 212.795 525.106 216.213C526.757 215.224 528.582 214.343 530.574 213.566C530.7 213.512 530.838 213.515 530.985 213.577C531.133 213.639 531.237 213.742 531.297 213.889L531.296 213.887ZM525.104 241.406C524.784 235.618 524.439 227.886 524.069 218.215C522.483 219.306 521.099 220.486 519.914 221.75C518.729 223.017 517.794 224.291 517.108 225.576C516.422 226.86 515.896 228.076 515.527 229.224C515.158 230.373 514.901 231.542 514.755 232.732C514.541 234.424 514.571 236.208 514.841 238.084C515.112 239.96 515.639 241.742 516.424 243.428C517.21 245.116 518.165 246.364 519.29 247.172C519.989 247.67 520.67 247.972 521.334 248.078C521.998 248.182 522.586 248.097 523.095 247.818C523.835 247.417 524.376 246.668 524.717 245.567C525.058 244.465 525.186 243.078 525.101 241.405L525.104 241.406Z" fill="#7AAD7D"/>
<path d="M542.01 218.389C542.154 218.321 542.295 218.308 542.439 218.351C542.581 218.394 542.692 218.486 542.77 218.625C542.848 218.766 542.864 218.902 542.819 219.036C542.69 219.454 542.545 219.9 542.391 220.377C542.237 220.853 541.993 221.507 541.663 222.344C541.332 223.179 541 223.92 540.668 224.564C540.335 225.208 539.949 225.8 539.51 226.342C539.069 226.884 538.653 227.207 538.257 227.313C538.106 227.354 537.968 227.362 537.839 227.335C536.844 227.239 536.203 225.866 535.917 223.217C535.524 224.231 535.129 225.022 534.736 225.592C534.169 226.411 533.547 226.657 532.877 226.333C532.256 226.055 531.83 225.383 531.594 224.314C531.358 223.248 531.392 222.147 531.696 221.017C531.736 220.864 531.825 220.75 531.966 220.672C532.107 220.594 532.253 220.575 532.404 220.616C532.557 220.656 532.67 220.74 532.745 220.871C532.821 221.002 532.839 221.144 532.799 221.297C532.62 221.91 532.546 222.526 532.58 223.141C532.615 223.759 532.707 224.253 532.857 224.627C533.007 225.002 533.164 225.226 533.327 225.304C533.447 225.373 533.608 225.258 533.81 224.963C534.189 224.417 534.602 223.508 535.049 222.238C535.133 222.033 535.198 221.88 535.243 221.778C535.286 221.677 535.338 221.552 535.399 221.403C535.461 221.255 535.516 221.155 535.56 221.102C535.607 221.049 535.661 220.99 535.724 220.923C535.788 220.857 535.858 220.817 535.936 220.806C536.015 220.796 536.105 220.796 536.21 220.809C536.479 220.838 536.669 221.015 536.776 221.338C536.883 221.663 536.952 222.105 536.979 222.661C537.048 223.752 537.181 224.567 537.375 225.099C537.568 225.633 537.7 225.957 537.77 226.068C537.841 226.18 537.903 226.229 537.96 226.214C538.027 226.236 538.122 226.195 538.246 226.092C538.368 225.987 538.51 225.834 538.668 225.632C538.826 225.429 538.995 225.177 539.178 224.875C539.358 224.574 539.559 224.214 539.779 223.789C540 223.367 540.216 222.91 540.427 222.421C540.639 221.931 540.862 221.366 541.094 220.729C541.327 220.092 541.543 219.423 541.739 218.725C541.779 218.572 541.869 218.463 542.013 218.395L542.01 218.389Z" fill="#7AAD7D"/>
<path d="M543.974 196.106C544.526 196.585 544.702 198.015 544.505 200.399C544.305 202.784 543.704 205.606 542.701 208.862C542.687 208.886 542.673 208.911 542.659 208.935C542.744 213.999 542.935 219.253 543.234 224.695C543.533 230.137 543.822 233.99 544.107 236.256L544.163 236.241C544.33 236.257 544.463 236.323 544.563 236.436C544.664 236.551 544.708 236.69 544.691 236.855C544.663 237.205 544.639 237.469 544.614 237.647C544.592 237.824 544.535 238.006 544.443 238.193C544.353 238.38 544.23 238.492 544.08 238.532C544.024 238.547 543.956 238.554 543.875 238.557C543.587 238.533 543.377 238.312 543.245 237.894C543.112 237.476 542.966 236.4 542.803 234.666C542.597 232.541 542.395 229.75 542.194 226.291C541.758 218.412 541.531 211.347 541.51 205.093C541.511 204.568 541.515 204.017 541.52 203.44C541.528 202.863 541.564 202.132 541.629 201.246C541.694 200.361 541.781 199.575 541.891 198.89C542 198.204 542.159 197.576 542.371 197.005C542.583 196.434 542.831 196.09 543.124 195.971C543.429 195.828 543.714 195.874 543.978 196.105L543.974 196.106ZM542.634 204.885C543.378 201.637 543.627 199.178 543.382 197.507C542.887 198.972 542.637 201.432 542.634 204.885Z" fill="#7AAD7D"/>
<path d="M554.493 214.803C554.637 214.735 554.779 214.726 554.925 214.777C555.07 214.829 555.173 214.927 555.232 215.074C555.292 215.22 555.298 215.358 555.254 215.492C553.923 219.039 552.548 221.667 551.129 223.38C550.564 224.056 549.942 224.485 549.265 224.666C548.737 224.808 548.238 224.79 547.767 224.614C547.496 224.504 547.232 224.334 546.978 224.1C546.723 223.866 546.462 223.512 546.193 223.038C545.926 222.564 545.722 221.904 545.586 221.05C545.448 220.198 545.407 219.199 545.464 218.054L545.456 218.027C545.525 216.171 545.801 214.645 546.287 213.443C546.773 212.245 547.314 211.554 547.912 211.373C548.341 211.238 548.673 211.352 548.912 211.712C549.264 212.204 549.227 213.041 548.798 214.225C548.37 215.411 547.631 216.759 546.582 218.271C546.553 219.066 546.573 219.788 546.647 220.434C546.719 221.082 546.82 221.583 546.946 221.944C547.072 222.304 547.225 222.606 547.401 222.852C547.577 223.098 547.724 223.266 547.838 223.355C547.952 223.446 548.068 223.514 548.183 223.565C548.86 223.828 549.553 223.52 550.267 222.643C551.612 221.032 552.917 218.522 554.183 215.113C554.248 214.974 554.351 214.872 554.495 214.802L554.493 214.803ZM548.032 212.613C547.483 213.204 547.075 214.272 546.802 215.82C547.601 214.435 548.011 213.365 548.032 212.613Z" fill="#7AAD7D"/>
<path d="M565.68 211.578C565.826 211.518 565.968 211.525 566.109 211.598C566.251 211.671 566.35 211.781 566.409 211.926C566.469 212.072 566.457 212.215 566.374 212.359C563.861 217.596 562.429 220.614 562.079 221.413C561.871 221.913 561.667 222.4 561.473 222.879C562.024 223.881 562.32 224.913 562.363 225.971C562.405 227.03 562.313 227.973 562.09 228.799C561.867 229.625 561.534 230.342 561.091 230.945C560.685 231.539 560.257 231.895 559.805 232.016C559.523 232.091 559.262 232.06 559.022 231.923C557.765 231.23 558.167 228.245 560.226 222.969C559.826 222.31 559.311 221.701 558.677 221.143C557.356 219.982 556.344 218.992 555.639 218.171C554.935 217.35 554.499 216.549 554.33 215.767C554.166 215.003 554.186 214.272 554.393 213.569C554.6 212.869 554.963 212.246 555.482 211.703C555.925 211.242 556.429 210.904 556.997 210.691C557.564 210.478 558.125 210.418 558.676 210.514C558.829 210.554 558.946 210.638 559.032 210.766C559.116 210.894 559.145 211.033 559.115 211.183C559.085 211.333 559.004 211.45 558.876 211.536C558.747 211.62 558.609 211.653 558.462 211.631C557.699 211.493 556.977 211.777 556.298 212.484C555.474 213.331 555.191 214.345 555.448 215.528C555.576 216.161 555.972 216.846 556.635 217.586C557.298 218.329 558.224 219.226 559.415 220.278C559.919 220.729 560.36 221.206 560.736 221.71C560.837 221.48 560.941 221.231 561.049 220.959C561.4 220.159 562.839 217.128 565.365 211.867C565.43 211.728 565.534 211.63 565.68 211.571L565.68 211.578ZM560.891 228.85C561.381 227.366 561.376 225.883 560.88 224.402C560.392 225.743 560.027 226.921 559.782 227.936C559.54 228.95 559.418 229.664 559.418 230.079C559.419 230.491 559.457 230.77 559.536 230.911C559.701 230.846 559.914 230.631 560.182 230.269C560.447 229.905 560.684 229.433 560.891 228.852L560.891 228.85Z" fill="#7AAD7D"/>
</g>
<path d="M293.674 150.164C293.674 150.164 392.309 145.185 444.896 103.6C445.188 95.6661 437.813 90.6922 437.813 90.6922C437.813 90.6922 402.429 107.425 353.395 120.564C304.361 133.702 279.03 133.842 279.03 133.842L293.673 150.161L293.674 150.164Z" fill="white"/>
<path d="M293.674 150.164L293.758 151.787C293.826 151.782 330.544 149.932 371.25 139.028C384.295 135.533 397.752 131.104 410.549 125.499C423.347 119.894 435.489 113.107 445.902 104.876C446.274 104.581 446.5 104.139 446.519 103.663C446.573 102.169 446.388 100.762 446.039 99.4722C445.606 97.8565 444.927 96.4229 444.163 95.1812C443.014 93.3194 441.675 91.8837 440.615 90.9003C439.556 89.9169 438.77 89.3844 438.717 89.3488C438.24 89.0288 437.634 88.9822 437.116 89.2271L437.091 89.2337C436.068 89.7203 401.098 106.103 352.973 118.998C328.524 125.549 310 128.854 297.607 130.523C291.411 131.357 286.746 131.781 283.64 131.996C282.087 132.104 280.921 132.161 280.153 132.188C279.768 132.201 279.479 132.209 279.291 132.213C279.195 132.215 279.126 132.217 279.082 132.216L279.033 132.216L279.023 132.218L279.028 132.741L279.023 132.218L279.028 132.741L279.023 132.218C278.381 132.221 277.808 132.597 277.548 133.184C277.287 133.771 277.396 134.449 277.826 134.928L292.469 151.247C292.795 151.611 293.273 151.808 293.76 151.783L293.677 150.16L294.885 149.077L280.242 132.757L279.034 133.841L279.044 135.464C279.18 135.464 304.655 135.303 353.819 122.129C402.995 108.952 438.452 92.1832 438.508 92.1582L437.813 90.6891L436.904 92.0374L437.31 91.4375L436.904 92.0374L437.31 91.4375L436.904 92.0374C436.904 92.0374 438.106 92.8598 439.444 94.3127C440.113 95.0391 440.816 95.9188 441.431 96.9283C442.047 97.9378 442.575 99.07 442.904 100.309C443.174 101.315 443.315 102.388 443.273 103.541L444.897 103.6L443.889 102.327C433.762 110.335 421.856 117.002 409.248 122.524C396.641 128.045 383.333 132.427 370.409 135.89C350.245 141.292 331.021 144.46 316.85 146.273C309.764 147.18 303.941 147.748 299.893 148.09C297.87 148.26 296.289 148.375 295.217 148.447C294.682 148.481 294.272 148.508 293.998 148.525C293.86 148.532 293.756 148.54 293.69 148.541C293.658 148.543 293.631 148.543 293.615 148.545L293.592 148.544L293.675 150.167L294.884 149.084L293.675 150.167L293.674 150.164Z" fill="black"/>
<path d="M256.077 140.53C255.341 139.665 254.664 138.835 254.047 138.051L253.124 138.78C253.751 139.574 254.438 140.415 255.183 141.29L256.08 140.529L256.077 140.53ZM259.598 144.449C258.756 143.56 257.967 142.694 257.227 141.853L256.346 142.634C257.093 143.482 257.892 144.359 258.743 145.256L259.598 144.449V144.449ZM263.305 148.197C262.436 147.355 261.604 146.529 260.813 145.716L259.971 146.536C260.771 147.356 261.609 148.193 262.486 149.04L263.304 148.194L263.305 148.197ZM267.172 151.778C266.272 150.981 265.407 150.191 264.578 149.408L263.772 150.264C264.614 151.054 265.488 151.851 266.393 152.657L267.172 151.778V151.778ZM271.188 155.194C270.263 154.437 269.365 153.685 268.493 152.934L267.724 153.823C268.6 154.58 269.507 155.343 270.441 156.104L271.184 155.192L271.188 155.194ZM275.342 158.443C274.388 157.73 273.46 157.014 272.558 156.296L271.827 157.219C272.737 157.94 273.674 158.665 274.636 159.386L275.342 158.443ZM279.625 161.519C278.645 160.846 277.691 160.169 276.756 159.488L276.063 160.44C277.006 161.126 277.968 161.81 278.957 162.491L279.623 161.523L279.625 161.519ZM284.029 164.416C283.024 163.786 282.041 163.147 281.08 162.506L280.426 163.484C281.396 164.133 282.388 164.776 283.401 165.413L284.026 164.417L284.029 164.416ZM288.547 167.13C287.52 166.542 286.512 165.947 285.521 165.343L284.908 166.347C285.906 166.955 286.924 167.558 287.961 168.149L288.546 167.127L288.547 167.13ZM293.175 169.652C292.124 169.107 291.094 168.554 290.078 167.993L289.508 169.022C290.532 169.59 291.574 170.147 292.633 170.696L293.172 169.652L293.175 169.652ZM297.903 171.974C296.831 171.475 295.776 170.968 294.738 170.447L294.211 171.5C295.26 172.025 296.323 172.537 297.406 173.04L297.902 171.971L297.903 171.974ZM302.725 174.092C301.633 173.642 300.56 173.176 299.498 172.705L299.017 173.779C300.087 174.259 301.17 174.725 302.274 175.182L302.723 174.096L302.725 174.092ZM307.636 175.998C306.527 175.595 305.433 175.178 304.354 174.751L303.921 175.845C305.011 176.276 306.116 176.697 307.236 177.103L307.636 175.998ZM312.625 177.686C311.5 177.334 310.389 176.965 309.293 176.585L308.907 177.697C310.015 178.081 311.136 178.453 312.273 178.809L312.625 177.686V177.686ZM317.683 179.151C316.545 178.849 315.418 178.53 314.304 178.198L313.97 179.326C315.094 179.662 316.231 179.981 317.382 180.29L317.684 179.154L317.683 179.151ZM322.801 180.39C321.649 180.138 320.509 179.87 319.382 179.588L319.098 180.729C320.236 181.015 321.385 181.284 322.548 181.539L322.801 180.39V180.39ZM327.966 181.401C326.805 181.202 325.656 180.985 324.516 180.753L324.282 181.908C325.432 182.14 326.592 182.36 327.767 182.563L327.967 181.404L327.966 181.401ZM333.173 182.182C332.003 182.035 330.844 181.868 329.698 181.687L329.515 182.851C330.675 183.034 331.844 183.199 333.025 183.35L333.173 182.182V182.182ZM338.408 182.734C337.231 182.638 336.069 182.521 334.914 182.393L334.783 183.562C335.949 183.694 337.124 183.808 338.311 183.907L338.408 182.734V182.734ZM343.663 183.054C342.484 183.008 341.317 182.946 340.158 182.865L340.077 184.038C341.246 184.116 342.427 184.181 343.617 184.228L343.663 183.051L343.663 183.054ZM348.929 183.149C347.749 183.153 346.579 183.142 345.42 183.111L345.39 184.286C346.561 184.314 347.743 184.33 348.932 184.326L348.929 183.149V183.149ZM354.193 183.019C353.014 183.073 351.846 183.107 350.684 183.13L350.704 184.306C351.876 184.284 353.057 184.249 354.245 184.193L354.192 183.016L354.193 183.019ZM359.446 182.673C358.27 182.776 357.102 182.86 355.946 182.928L356.016 184.103C357.185 184.035 358.362 183.949 359.548 183.847L359.447 182.676L359.446 182.673ZM364.682 182.116C363.511 182.264 362.35 182.396 361.193 182.51L361.311 183.68C362.477 183.563 363.648 183.431 364.828 183.281L364.681 182.113L364.682 182.116ZM369.893 181.353C368.728 181.546 367.571 181.723 366.42 181.883L366.583 183.047C367.743 182.885 368.909 182.705 370.084 182.513L369.893 181.353V181.353ZM375.071 180.394C373.914 180.631 372.766 180.849 371.624 181.056L371.831 182.214C372.983 182.008 374.141 181.788 375.307 181.548L375.072 180.397L375.071 180.394ZM380.212 179.245C379.063 179.523 377.923 179.786 376.788 180.03L377.036 181.181C378.181 180.934 379.33 180.669 380.488 180.389L380.212 179.245V179.245ZM385.269 177.847C384.591 178.062 383.908 178.275 383.221 178.482L383.391 179.044L383.239 178.474C382.799 178.592 382.355 178.704 381.914 178.816L382.203 179.956C382.647 179.844 383.093 179.727 383.54 179.611L383.549 179.608L383.558 179.606C384.252 179.397 384.94 179.183 385.621 178.964L385.264 177.842L385.269 177.847ZM390.262 176.161C389.17 176.553 388.062 176.933 386.941 177.306L387.311 178.425C388.44 178.049 389.558 177.667 390.66 177.272L390.263 176.164L390.262 176.161ZM395.187 174.294C394.109 174.725 393.018 175.147 391.912 175.56L392.324 176.663C393.44 176.248 394.543 175.823 395.626 175.387L395.187 174.294V174.294ZM400.037 172.245C398.977 172.718 397.903 173.178 396.811 173.633L397.261 174.72C398.363 174.262 399.445 173.797 400.514 173.321L400.034 172.246L400.037 172.245ZM404.803 170.006C403.763 170.52 402.708 171.025 401.636 171.518L402.128 172.587C403.208 172.088 404.276 171.58 405.324 171.06L404.803 170.006V170.006ZM409.475 167.579C408.456 168.134 407.422 168.68 406.372 169.217L406.908 170.264C407.97 169.721 409.012 169.17 410.04 168.612L409.478 167.579L409.475 167.579ZM414.043 164.962C413.049 165.56 412.039 166.146 411.011 166.727L411.588 167.753C412.625 167.17 413.646 166.575 414.648 165.971L414.043 164.962V164.962ZM418.498 162.156C417.531 162.793 416.546 163.425 415.543 164.049L416.162 165.048C417.174 164.418 418.168 163.784 419.145 163.137L418.498 162.156V162.156ZM422.825 159.162C421.887 159.842 420.93 160.516 419.954 161.179L420.616 162.153C421.6 161.481 422.566 160.804 423.515 160.115L422.825 159.162V159.162ZM427.02 155.981C426.113 156.702 425.186 157.415 424.238 158.123L424.942 159.066C425.898 158.352 426.833 157.634 427.748 156.904L427.017 155.982L427.02 155.981ZM431.071 152.62C430.193 153.379 429.301 154.133 428.387 154.882L429.132 155.794C430.054 155.039 430.958 154.279 431.843 153.511L431.072 152.623L431.071 152.62ZM434.968 149.081C434.127 149.88 433.265 150.672 432.384 151.459L433.17 152.336C434.058 151.541 434.928 150.741 435.777 149.936L434.968 149.081V149.081ZM438.706 145.373C437.902 146.208 437.076 147.037 436.233 147.863L437.055 148.704C437.907 147.872 438.739 147.032 439.552 146.191L438.706 145.373V145.373ZM442.275 141.504C441.507 142.373 440.721 143.24 439.914 144.1L440.773 144.905C441.587 144.033 442.381 143.16 443.157 142.282L442.275 141.504ZM445.67 137.479C444.944 138.38 444.194 139.281 443.426 140.18L444.321 140.945C445.096 140.038 445.851 139.129 446.588 138.218L445.674 137.478L445.67 137.479ZM448.887 133.309C448.199 134.243 447.493 135.172 446.765 136.104L447.691 136.828C448.428 135.887 449.144 134.946 449.836 134.004L448.89 133.305L448.887 133.309ZM451.922 129.003C451.277 129.962 450.61 130.927 449.919 131.888L450.876 132.574C451.57 131.602 452.246 130.631 452.897 129.661L451.922 129.003ZM454.769 124.568C454.165 125.556 453.542 126.545 452.892 127.539L453.877 128.181C454.531 127.179 455.161 126.178 455.773 125.181L454.769 124.568V124.568ZM457.427 120.017C456.865 121.027 456.281 122.043 455.676 123.064L456.686 123.666C457.299 122.636 457.886 121.609 458.453 120.592L457.424 120.021L457.427 120.017ZM459.893 115.359C459.376 116.39 458.835 117.427 458.271 118.478L459.306 119.036C459.875 117.978 460.42 116.93 460.944 115.89L459.893 115.362L459.893 115.359ZM462.163 110.601C461.69 111.646 461.192 112.709 460.671 113.784L461.727 114.297C462.253 113.214 462.754 112.141 463.234 111.084L462.162 110.598L462.163 110.601ZM464.236 105.753C463.807 106.813 463.355 107.896 462.876 108.993L463.954 109.464C464.436 108.356 464.892 107.262 465.326 106.194L464.236 105.753V105.753ZM466.108 100.822C465.726 101.893 465.318 102.995 464.883 104.12L465.979 104.546C466.42 103.409 466.83 102.301 467.216 101.219L466.108 100.822V100.822ZM467.775 95.8175C467.443 96.8918 467.082 98.007 466.689 99.1639L467.802 99.5425C468.199 98.3777 468.563 97.2484 468.9 96.1663L467.775 95.8175ZM469.225 90.7449C468.947 91.8113 468.633 92.9435 468.283 94.1355L469.41 94.4672C469.763 93.2612 470.08 92.118 470.359 91.0415L469.221 90.7426L469.225 90.7449ZM470.435 85.6071C470.223 86.6227 469.967 87.7726 469.657 89.0401L470.8 89.321C471.113 88.0395 471.372 86.8786 471.587 85.849L470.435 85.6102L470.435 85.6071ZM471.334 80.4131C471.334 80.4131 471.332 80.4303 471.329 80.4676C471.299 80.7277 471.146 81.9265 470.778 83.8828L471.934 84.1005C472.359 81.837 472.501 80.5584 472.504 80.5444L471.334 80.4131V80.4131Z" fill="black"/>
<path d="M438.033 103.392C438.241 103.277 438.449 103.161 438.656 103.043L438.079 102.016C437.871 102.132 437.666 102.246 437.459 102.362L438.032 103.389L438.033 103.392ZM433.38 105.926C434.416 105.376 435.453 104.817 436.488 104.247L435.923 103.215C434.893 103.779 433.862 104.337 432.829 104.886L433.383 105.925L433.38 105.926ZM428.681 108.366C429.726 107.834 430.775 107.294 431.819 106.749L431.275 105.707C430.234 106.252 429.191 106.79 428.148 107.318L428.681 108.366ZM423.939 110.718C424.996 110.206 426.051 109.688 427.106 109.16L426.579 108.107C425.525 108.631 424.474 109.152 423.423 109.659L423.936 110.719L423.939 110.718ZM419.154 112.982C420.219 112.491 421.282 111.991 422.35 111.482L421.843 110.421C420.782 110.927 419.721 111.424 418.659 111.914L419.151 112.983L419.154 112.982ZM414.325 115.159C415.399 114.685 416.477 114.204 417.552 113.713L417.066 112.643C415.993 113.129 414.921 113.609 413.854 114.081L414.328 115.158L414.325 115.159ZM409.454 117.253C410.537 116.801 411.62 116.338 412.708 115.867L412.239 114.789C411.158 115.258 410.077 115.716 409.002 116.17L409.455 117.256L409.454 117.253ZM404.547 119.262C405.638 118.827 406.73 118.385 407.822 117.933L407.375 116.845C406.286 117.296 405.197 117.737 404.112 118.171L404.548 119.265L404.547 119.262ZM399.608 121.186C400.703 120.769 401.803 120.345 402.905 119.914L402.475 118.818C401.377 119.249 400.283 119.671 399.19 120.086L399.608 121.186V121.186ZM394.636 123.025C395.739 122.627 396.844 122.221 397.954 121.808L397.543 120.707C396.436 121.12 395.334 121.524 394.237 121.921L394.636 123.028L394.636 123.025ZM389.635 124.783C390.744 124.403 391.857 124.015 392.974 123.62L392.581 122.511C391.47 122.905 390.36 123.292 389.254 123.671L389.635 124.783ZM384.606 126.459C385.719 126.098 386.837 125.729 387.963 125.351L387.588 124.237C386.469 124.613 385.354 124.982 384.243 125.342L384.607 126.462L384.606 126.459ZM379.549 128.056C380.667 127.714 381.793 127.362 382.923 127L382.566 125.878C381.442 126.236 380.319 126.586 379.204 126.931L379.549 128.056ZM374.47 129.573C375.593 129.246 376.724 128.913 377.859 128.569L377.52 127.442C376.388 127.782 375.264 128.117 374.143 128.44L374.472 129.569L374.47 129.573ZM369.368 131.013C370.496 130.705 371.631 130.387 372.771 130.062L372.448 128.931C371.311 129.255 370.179 129.572 369.054 129.88L369.365 131.014L369.368 131.013ZM364.244 132.373C365.339 132.09 366.439 131.802 367.549 131.504C367.587 131.494 367.624 131.484 367.664 131.473L367.36 130.337C367.322 130.347 367.282 130.358 367.245 130.368C366.14 130.664 365.04 130.952 363.952 131.234L364.244 132.373ZM359.1 133.658C360.234 133.385 361.378 133.101 362.531 132.812L362.242 131.672C361.093 131.963 359.951 132.243 358.82 132.516L359.097 133.659L359.1 133.658ZM353.939 134.866C355.076 134.607 356.223 134.343 357.383 134.069L357.113 132.924C355.959 133.196 354.812 133.46 353.681 133.717L353.942 134.865L353.939 134.866ZM348.76 135.995C349.899 135.756 351.05 135.507 352.214 135.248L351.959 134.099C350.798 134.357 349.65 134.602 348.514 134.843L348.756 135.995L348.76 135.995ZM343.564 137.048C344.704 136.826 345.86 136.596 347.029 136.355L346.793 135.201C345.627 135.441 344.475 135.673 343.337 135.895L343.564 137.048V137.048ZM338.351 138.027C339.493 137.821 340.652 137.606 341.826 137.385L341.606 136.229C340.436 136.453 339.28 136.667 338.14 136.87L338.348 138.028L338.351 138.027ZM333.124 138.927C334.267 138.74 335.428 138.542 336.609 138.335L336.405 137.175C335.226 137.382 334.069 137.579 332.931 137.764L333.123 138.924L333.124 138.927ZM327.886 139.75C329.027 139.58 330.193 139.4 331.378 139.209L331.193 138.048C330.01 138.235 328.848 138.417 327.71 138.586L327.883 139.751L327.886 139.75ZM322.636 140.493C323.773 140.341 324.943 140.18 326.137 140.006L325.967 138.841C324.777 139.014 323.612 139.173 322.476 139.325L322.632 140.491L322.636 140.493ZM317.375 141.153C318.506 141.019 319.679 140.877 320.883 140.721L320.733 139.553C319.53 139.706 318.365 139.849 317.237 139.982L317.374 141.15L317.375 141.153ZM312.101 141.73C313.222 141.619 314.395 141.494 315.618 141.355L315.487 140.186C314.27 140.323 313.1 140.447 311.982 140.558L312.1 141.727L312.101 141.73ZM306.815 142.214C307.915 142.125 309.092 142.022 310.34 141.904L310.228 140.732C308.983 140.85 307.813 140.952 306.72 141.042L306.815 142.214V142.214ZM301.521 142.591C302.559 142.529 303.738 142.452 305.051 142.352L304.962 141.178C303.655 141.276 302.48 141.356 301.448 141.416L301.518 142.592L301.521 142.591ZM296.198 142.826C296.198 142.826 297.447 142.807 299.753 142.69L299.694 141.515C298.549 141.573 297.669 141.606 297.077 141.626C296.781 141.635 296.557 141.642 296.406 141.646C296.33 141.647 296.274 141.648 296.237 141.648C296.201 141.648 296.182 141.65 296.182 141.65L296.198 142.826V142.826Z" fill="black"/>
<path d="M438.794 106.353C439.001 106.235 439.205 106.12 439.412 106.002L438.83 104.98C438.626 105.098 438.418 105.213 438.215 105.331L438.794 106.353ZM434.159 108.922C435.19 108.364 436.222 107.795 437.252 107.221L436.678 106.194C435.651 106.767 434.625 107.331 433.597 107.888L434.156 108.923L434.159 108.922ZM429.48 111.397C430.523 110.858 431.564 110.311 432.606 109.756L432.052 108.717C431.016 109.27 429.978 109.814 428.938 110.351L429.477 111.397L429.48 111.397ZM424.757 113.783C425.808 113.263 426.862 112.738 427.912 112.202L427.379 111.153C426.331 111.686 425.285 112.212 424.236 112.729L424.757 113.783V113.783ZM419.991 116.082C421.051 115.583 422.113 115.076 423.175 114.559L422.662 113.499C421.605 114.011 420.548 114.52 419.49 115.016L419.99 116.079L419.991 116.082ZM415.173 118.299C416.244 117.816 417.318 117.329 418.388 116.83L417.893 115.762C416.825 116.257 415.755 116.746 414.69 117.224L415.172 118.296L415.173 118.299ZM410.319 120.429C411.399 119.967 412.48 119.498 413.559 119.02L413.085 117.943C412.009 118.42 410.931 118.888 409.857 119.348L410.319 120.429V120.429ZM405.425 122.473C406.51 122.03 407.599 121.579 408.69 121.121L408.234 120.035C407.146 120.493 406.062 120.942 404.98 121.385L405.425 122.473ZM400.498 124.434C401.591 124.008 402.69 123.578 403.785 123.135L403.346 122.042C402.253 122.481 401.159 122.913 400.071 123.334L400.497 124.431L400.498 124.434ZM395.539 126.31C396.64 125.902 397.744 125.49 398.848 125.068L398.427 123.97C397.326 124.391 396.226 124.802 395.131 125.208L395.54 126.313L395.539 126.31ZM390.552 128.104C391.658 127.715 392.769 127.321 393.881 126.917L393.479 125.81C392.37 126.214 391.264 126.606 390.161 126.994L390.552 128.104ZM385.536 129.819C386.647 129.449 387.764 129.073 388.884 128.687L388.5 127.576C387.383 127.961 386.273 128.335 385.165 128.705L385.536 129.819ZM380.492 131.453C381.608 131.101 382.732 130.74 383.857 130.372L383.491 129.253C382.369 129.62 381.251 129.979 380.138 130.33L380.492 131.453ZM375.424 133.007C376.545 132.673 377.673 132.331 378.806 131.978L378.458 130.853C377.328 131.203 376.205 131.543 375.088 131.879L375.424 133.007V133.007ZM370.331 134.484C371.456 134.166 372.59 133.842 373.727 133.508L373.398 132.378C372.263 132.709 371.134 133.035 370.015 133.351L370.334 134.483L370.331 134.484ZM365.218 135.884C365.481 135.813 365.741 135.744 366.007 135.673C366.877 135.44 367.751 135.202 368.631 134.959L368.318 133.826C367.441 134.068 366.569 134.304 365.703 134.537C365.44 134.607 365.18 134.677 364.917 134.747L365.221 135.883L365.218 135.884ZM360.084 137.207C361.215 136.923 362.358 136.634 363.509 136.335L363.213 135.197C362.066 135.494 360.927 135.786 359.798 136.066L360.084 137.207V137.207ZM354.93 138.452C356.066 138.187 357.213 137.913 358.367 137.63L358.088 136.488C356.936 136.77 355.792 137.043 354.659 137.307L354.927 138.452L354.93 138.452ZM349.758 139.622C350.895 139.373 352.046 139.115 353.209 138.85L352.948 137.702C351.789 137.966 350.644 138.223 349.51 138.471L349.761 139.621L349.758 139.622ZM344.569 140.714C345.707 140.482 346.863 140.241 348.03 139.992L347.785 138.84C346.621 139.089 345.471 139.327 344.336 139.559L344.568 140.71L344.569 140.714ZM339.366 141.729C340.507 141.517 341.664 141.293 342.838 141.061L342.609 139.908C341.441 140.139 340.287 140.362 339.15 140.577L339.367 141.733L339.366 141.729ZM334.147 142.67C335.288 142.474 336.447 142.27 337.629 142.052L337.418 140.895C336.242 141.11 335.087 141.314 333.948 141.509L334.15 142.669L334.147 142.67ZM328.916 143.531C330.055 143.352 331.218 143.163 332.405 142.964L332.211 141.806C331.027 142.003 329.867 142.192 328.734 142.369L328.916 143.531V143.531ZM323.67 144.313C324.807 144.151 325.972 143.981 327.167 143.801L326.991 142.637C325.799 142.817 324.638 142.989 323.504 143.147L323.669 144.31L323.67 144.313ZM318.412 145.012C319.545 144.871 320.711 144.718 321.917 144.554L321.758 143.389C320.555 143.552 319.392 143.705 318.265 143.844L318.412 145.012V145.012ZM313.142 145.628C314.264 145.507 315.435 145.375 316.656 145.227L316.516 144.06C315.298 144.208 314.13 144.338 313.014 144.458L313.142 145.628ZM307.86 146.151C308.958 146.052 310.135 145.939 311.381 145.814L311.264 144.645C310.021 144.772 308.851 144.884 307.756 144.981L307.861 146.154L307.86 146.151ZM302.567 146.567C303.606 146.498 304.783 146.411 306.097 146.302L305.998 145.13C304.691 145.238 303.517 145.324 302.488 145.394L302.567 146.567V146.567ZM297.245 146.842C297.245 146.842 298.494 146.813 300.799 146.679L300.73 145.504C299.584 145.572 298.706 145.611 298.112 145.635C297.817 145.647 297.59 145.655 297.442 145.658C297.366 145.662 297.31 145.664 297.274 145.663C297.237 145.663 297.218 145.665 297.218 145.665L297.245 146.842V146.842Z" fill="black"/>
<path d="M270.387 120.075L254.194 134.306C254.194 134.306 287.07 148.105 367.135 127.498C416.395 114.299 457.178 88.111 468.42 77.1865L449.354 72.4028C449.354 72.4028 402.305 98.0106 360.043 109.334C317.782 120.658 270.387 120.075 270.387 120.075Z" fill="#F2F2F2"/>
<path d="M270.388 120.075L269.315 118.856L253.122 133.088C252.703 133.455 252.502 134.017 252.591 134.57C252.683 135.123 253.05 135.592 253.565 135.805C253.74 135.878 262.155 139.372 280.56 140.253C298.969 141.135 327.368 139.411 367.538 129.072L367.554 129.068C392.337 122.427 414.949 112.534 432.803 102.919C441.729 98.1125 449.467 93.3754 455.691 89.1432C458.804 87.0252 461.538 85.0355 463.861 83.2221C466.184 81.4087 468.087 79.7742 469.552 78.3498C469.976 77.9377 470.142 77.3326 469.989 76.7631C469.837 76.1936 469.39 75.7526 468.814 75.6083L449.748 70.8246C449.353 70.7247 448.936 70.7768 448.577 70.9724C448.577 70.9724 448.534 70.9973 448.444 71.0446C447.068 71.7882 435.04 78.2457 418.259 85.8771C401.484 93.51 379.948 102.316 359.62 107.763C338.643 113.384 316.31 116.064 299.243 117.329C290.707 117.961 283.49 118.243 278.409 118.364C275.868 118.424 273.862 118.447 272.493 118.453C271.808 118.457 271.284 118.455 270.932 118.453C270.756 118.454 270.622 118.45 270.533 118.45C270.489 118.449 270.457 118.451 270.434 118.45L270.403 118.449C270.001 118.444 269.615 118.587 269.311 118.854L270.384 120.073L270.365 121.697C270.398 121.698 282.289 121.842 299.487 120.568C316.684 119.291 339.179 116.6 360.464 110.901C381.742 105.199 404.128 95.9366 421.225 88.0979C438.318 80.2599 450.109 73.8429 450.132 73.8301L449.355 72.4028L448.961 73.9779C448.961 73.9779 448.961 73.9779 449.26 74.0538C450.153 74.279 453.729 75.1752 468.028 78.7616L468.421 77.1865L467.29 76.0201C465.943 77.3298 464.116 78.9009 461.862 80.6626C457.916 83.7467 452.67 87.4084 446.354 91.3367C427.404 103.129 398.845 117.323 366.716 125.929L366.731 125.924C326.834 136.194 298.764 137.87 280.718 137.006C271.695 136.574 265.177 135.504 260.937 134.553C258.816 134.077 257.267 133.632 256.256 133.31C255.752 133.149 255.381 133.016 255.143 132.931C255.025 132.886 254.936 132.854 254.884 132.831L254.828 132.81L254.818 132.806L254.551 133.445L254.818 132.806L254.551 133.445L254.818 132.806L254.228 134.218L254.821 132.805L254.231 134.217L254.824 132.804L254.197 134.302L255.27 135.521L271.463 121.29L270.39 120.071L270.371 121.695L270.39 120.071L270.388 120.075Z" fill="black"/>
<path d="M270.15 121.27C270.15 121.27 313.953 171.704 374.243 159.222C416.764 147.828 438.383 112.361 449.351 72.4037C466.529 77.4078 468.417 77.1873 468.417 77.1873C468.417 77.1873 460.906 151.828 382.535 175.654C314.019 193.731 269.222 152.038 255.156 133.766C264.327 126.506 270.15 121.27 270.15 121.27V121.27Z" fill="white"/>
<path d="M270.15 121.27L268.924 122.335C268.998 122.414 280.044 135.136 298.756 146.321C308.11 151.912 319.387 157.118 332.171 160.138C344.952 163.159 359.248 163.986 374.573 160.812L374.663 160.788C385.465 157.897 394.962 153.465 403.287 147.814C415.779 139.335 425.623 128.118 433.369 115.268C441.118 102.416 446.775 87.926 450.919 72.8329L449.354 72.4028L448.9 73.9611C457.511 76.4706 462.307 77.6736 464.984 78.2568C466.325 78.5476 467.135 78.6856 467.649 78.7501C467.907 78.7838 468.09 78.7979 468.235 78.8056C468.382 78.8124 468.488 78.8107 468.61 78.7946L468.419 77.1803L466.803 77.0162C466.792 77.1718 464.858 95.6603 453.304 116.956C447.526 127.607 439.352 138.956 427.809 149.109C416.266 159.261 401.363 168.22 382.065 174.091L382.538 175.647L382.123 174.076C365.185 178.545 349.752 179.313 335.895 177.685C315.114 175.241 297.858 167.398 284.476 158.461C271.103 149.528 261.611 139.488 256.443 132.772L255.156 133.763L256.164 135.036C265.369 127.746 271.215 122.494 271.233 122.476L270.147 121.267L269.06 120.059L269.044 120.073C268.713 120.371 262.992 125.483 254.145 132.488C253.45 133.039 253.327 134.051 253.866 134.753C257.453 139.414 262.962 145.519 270.301 151.793C281.308 161.201 296.442 170.989 315.359 176.712C334.27 182.439 356.967 184.077 382.949 177.218L383.008 177.203C402.82 171.181 418.2 161.924 430.092 151.429C439.01 143.56 445.967 134.994 451.38 126.584C459.5 113.965 464.156 101.69 466.789 92.5555C469.421 83.4205 470.026 77.4231 470.036 77.3476C470.087 76.8563 469.911 76.3727 469.559 76.0257C469.207 75.6787 468.719 75.5143 468.23 75.5722L468.389 76.9197L468.358 75.5646C468.334 75.5643 468.292 75.5657 468.231 75.5753L468.39 76.9228L468.359 75.5677L468.374 76.2204L468.382 75.5681L468.359 75.5677L468.374 76.2204L468.382 75.5681L468.38 75.7112L468.386 75.5704L468.383 75.7103L468.389 75.5696C468.389 75.5696 468.154 75.5595 467.598 75.4662C466.762 75.3286 465.182 75.0123 462.384 74.3091C459.582 73.6067 455.561 72.5213 449.817 70.8491C449.4 70.7286 448.949 70.7797 448.571 70.9904C448.194 71.2012 447.911 71.5588 447.798 71.9773C442.356 91.814 434.275 110.47 422.367 125.52C416.412 133.048 409.504 139.679 401.473 145.128C393.443 150.578 384.295 154.853 373.834 157.656L374.254 159.226L373.925 157.635C359.104 160.701 345.315 159.907 332.927 156.98C314.348 152.593 298.933 143.391 288.176 135.276C282.798 131.22 278.587 127.435 275.726 124.676C274.294 123.294 273.204 122.17 272.472 121.394C272.106 121.008 271.83 120.707 271.65 120.503C271.559 120.401 271.49 120.327 271.446 120.276C271.423 120.252 271.408 120.233 271.398 120.219L271.387 120.205L271.246 120.323L271.386 120.202C271.103 119.873 270.695 119.674 270.259 119.645C269.827 119.618 269.396 119.767 269.073 120.059L270.16 121.267L270.15 121.27Z" fill="black"/>
</g>
<defs>
<clipPath id="clip0_20_1714">
<rect width="737.36" height="745.566" fill="white" transform="translate(0 190.843) rotate(-15)"/>
</clipPath>
<clipPath id="clip1_20_1714">
<rect width="133.893" height="46.4633" fill="white" transform="translate(431.439 225.518) rotate(-15)"/>
</clipPath>
</defs>
</svg>
