<svg width="705" height="245" viewBox="0 0 705 245" fill="none" xmlns="http://www.w3.org/2000/svg">
<g clip-path="url(#clip0_6_1529)">
<path d="M0 122.931C0 119.106 0.722418 115.489 2.17872 112.066C3.63503 108.644 5.65321 105.612 8.24474 102.982C10.8248 100.341 13.8291 98.2733 17.2463 96.7573C20.6635 95.2529 24.3214 94.4949 28.2431 94.4949C32.1648 94.4949 35.7425 95.2529 39.1597 96.7573C42.5768 98.2618 45.6041 100.341 48.23 102.982C50.856 105.623 52.92 108.655 54.4107 112.066C55.8899 115.489 56.6353 119.106 56.6353 122.931C56.6353 126.755 55.8899 130.522 54.4107 133.944C52.9315 137.367 50.8674 140.364 48.23 142.96C45.5926 145.555 42.5653 147.576 39.1597 149.035C35.7425 150.494 32.1075 151.217 28.2431 151.217C24.3787 151.217 20.6635 150.494 17.2463 149.035C13.8291 147.576 10.8363 145.555 8.24474 142.96C5.65321 140.376 3.63503 137.367 2.17872 133.944C0.722418 130.522 0 126.858 0 122.931H0ZM11.295 122.931C11.295 125.4 11.7307 127.697 12.6137 129.833C13.4966 131.969 14.7236 133.852 16.306 135.495C17.8885 137.126 19.7232 138.4 21.7987 139.308C23.8857 140.215 26.1561 140.663 28.6101 140.663C31.064 140.663 33.1624 140.215 35.2036 139.308C37.2447 138.4 39.0106 137.137 40.5128 135.495C42.0149 133.864 43.196 131.98 44.056 129.833C44.9046 127.697 45.3403 125.4 45.3403 122.931C45.3403 120.461 44.9046 118.084 44.0216 115.914C43.1387 113.754 41.9347 111.848 40.4096 110.217C38.873 108.586 37.0841 107.312 35.0201 106.404C32.956 105.497 30.7314 105.049 28.3119 105.049C25.8924 105.049 23.6678 105.497 21.6037 106.404C19.5397 107.312 17.7394 108.575 16.1799 110.217C14.6204 111.848 13.4163 113.754 12.5678 115.914C11.7192 118.073 11.2835 120.416 11.2835 122.931H11.295Z" fill="#2D2D2D"/>
<path d="M67.5527 95.1036H78.4693V140.054H104.534V150.62H67.5527V95.1036Z" fill="#2D2D2D"/>
<path d="M115.828 95.1036H126.745V150.62H115.828V95.1036Z" fill="#2D2D2D"/>
<path d="M149.425 95.1036L165.616 135.081L159.287 133.795L173.976 95.1036H186.934L161.626 153.181L136.318 95.1036H149.425Z" fill="#2D2D2D"/>
<path d="M196.486 95.1036H234.293V105.669H207.403V117.51H231.197V128.076H207.403V140.066H235.348V150.631H196.486V95.1151V95.1036Z" fill="#2D2D2D"/>
<path d="M276.25 108.529C274.14 107.369 271.996 106.416 269.806 105.658C267.627 104.9 265.574 104.521 263.671 104.521C261.309 104.521 259.451 105.003 258.098 105.956C256.745 106.91 256.068 108.345 256.068 110.252C256.068 111.561 256.584 112.732 257.616 113.754C258.648 114.788 259.978 115.707 261.607 116.511C263.235 117.315 264.932 118.05 266.687 118.693C268.292 119.301 269.886 120.014 271.468 120.84C273.051 121.667 274.473 122.701 275.723 123.93C276.972 125.159 277.982 126.698 278.738 128.535C279.495 130.373 279.874 132.624 279.874 135.288C279.874 138.102 279.14 140.72 277.695 143.132C276.239 145.544 274.106 147.496 271.296 148.978C268.487 150.459 265.024 151.206 260.907 151.206C258.797 151.206 256.653 150.987 254.463 150.562C252.284 150.138 250.128 149.483 248.018 148.599C245.908 147.714 243.879 146.6 241.918 145.245L246.734 136.724C248.041 137.677 249.452 138.527 250.988 139.25C252.525 139.985 254.061 140.548 255.621 140.95C257.18 141.352 258.602 141.559 259.91 141.559C261.217 141.559 262.536 141.375 263.866 140.996C265.196 140.617 266.297 139.974 267.18 139.078C268.063 138.171 268.498 136.919 268.498 135.311C268.498 134.208 268.131 133.198 267.409 132.291C266.687 131.383 265.7 130.556 264.473 129.798C263.247 129.04 261.905 128.397 260.449 127.835C258.74 127.18 256.986 126.422 255.174 125.572C253.362 124.722 251.676 123.677 250.094 122.437C248.511 121.208 247.227 119.669 246.252 117.831C245.278 115.994 244.785 113.743 244.785 111.079C244.785 107.863 245.496 105.072 246.929 102.706C248.362 100.34 250.381 98.4685 252.995 97.0904C255.61 95.7122 258.614 94.9428 262.031 94.7935C266.503 94.7935 270.127 95.3217 272.913 96.3783C275.7 97.4349 278.199 98.6867 280.413 100.145L276.273 108.517L276.25 108.529Z" fill="#2D2D2D"/>
<path d="M315.031 95.1036H349.673V105.669H325.948V118.268H346.508V128.834H325.948V150.631H315.031V95.1151V95.1036Z" fill="#2D2D2D"/>
<path d="M356.828 122.931C356.828 119.106 357.551 115.489 359.007 112.066C360.463 108.644 362.481 105.612 365.073 102.982C367.653 100.341 370.657 98.2733 374.074 96.7573C377.492 95.2529 381.15 94.4949 385.071 94.4949C388.993 94.4949 392.571 95.2529 395.988 96.7573C399.405 98.2618 402.432 100.341 405.058 102.982C407.684 105.623 409.748 108.655 411.239 112.066C412.718 115.489 413.463 119.106 413.463 122.931C413.463 126.755 412.718 130.522 411.239 133.944C409.76 137.367 407.696 140.364 405.058 142.96C402.421 145.555 399.393 147.576 395.988 149.035C392.571 150.494 388.936 151.217 385.071 151.217C381.207 151.217 377.492 150.494 374.074 149.035C370.657 147.576 367.664 145.555 365.073 142.96C362.481 140.376 360.463 137.367 359.007 133.944C357.551 130.522 356.828 126.858 356.828 122.931ZM368.123 122.931C368.123 125.4 368.559 127.697 369.442 129.833C370.325 131.969 371.552 133.852 373.134 135.495C374.717 137.126 376.551 138.4 378.627 139.308C380.714 140.215 382.984 140.663 385.438 140.663C387.892 140.663 389.991 140.215 392.032 139.308C394.073 138.4 395.839 137.137 397.341 135.495C398.843 133.864 400.024 131.98 400.884 129.833C401.733 127.697 402.168 125.4 402.168 122.931C402.168 120.461 401.733 118.084 400.85 115.914C399.967 113.754 398.763 111.848 397.238 110.217C395.701 108.586 393.912 107.312 391.848 106.404C389.784 105.497 387.56 105.049 385.14 105.049C382.721 105.049 380.496 105.497 378.432 106.404C376.368 107.312 374.568 108.575 373.008 110.217C371.449 111.848 370.244 113.754 369.396 115.914C368.547 118.073 368.112 120.416 368.112 122.931H368.123Z" fill="#2D2D2D"/>
<path d="M441.18 95.1036C444.643 95.1036 447.728 95.54 450.446 96.4243C453.152 97.3086 455.422 98.5604 457.257 100.191C459.092 101.822 460.479 103.786 461.442 106.071C462.394 108.357 462.876 110.941 462.876 113.8C462.876 116.063 462.532 118.325 461.855 120.588C461.179 122.85 460.078 124.917 458.541 126.778C457.005 128.638 454.986 130.131 452.475 131.268C449.964 132.405 446.845 132.968 443.141 132.968H435.309V150.62H424.393V95.1036H441.192H441.18ZM443.061 122.414C444.712 122.414 446.1 122.138 447.2 121.587C448.301 121.036 449.173 120.335 449.803 119.474C450.434 118.624 450.881 117.728 451.156 116.798C451.432 115.868 451.569 114.995 451.569 114.191C451.569 113.582 451.478 112.824 451.306 111.894C451.134 110.964 450.767 110.022 450.216 109.069C449.666 108.116 448.829 107.312 447.693 106.657C446.558 106.002 445.045 105.681 443.141 105.681H435.309V122.425H443.072L443.061 122.414ZM453.301 129.201L467.004 150.62H454.275L440.263 129.5L453.289 129.201H453.301Z" fill="#2D2D2D"/>
<path d="M523.718 77.0384C523.718 77.5552 523.615 78.0375 523.408 78.5084C523.202 78.9678 522.892 79.3583 522.48 79.6684C522.067 79.9784 521.608 80.1852 521.092 80.2885C509.075 81.6322 497.883 83.8947 487.517 87.0759C476.016 137.769 467.037 178.746 460.57 210.007C458.414 219.768 455.329 227.612 451.327 233.527C447.325 239.441 442.601 243.059 437.154 244.403C435.721 244.816 434.23 245.023 432.693 245.023C425.504 245.023 418.887 241.371 412.821 234.067C408.406 228.715 405.069 221.549 402.81 212.545C400.551 203.552 399.829 193.262 400.655 181.697C401.48 170.132 404.049 158.946 408.36 148.151C416.055 129.236 428.324 113.605 445.169 101.259C455.948 93.4498 468.424 87.1678 482.598 82.4476C486.909 63.3258 490.601 47.4312 493.686 34.7867C495.326 28.1027 496.301 22.4523 496.61 17.824C496.92 13.1957 496.84 10.1409 496.381 8.64786C495.922 7.15487 495.383 6.30501 494.764 6.09829C493.537 5.68485 491.783 6.3854 489.524 8.17699C487.265 9.98007 484.845 12.7019 482.288 16.354C479.719 20.0061 477.667 23.9338 476.13 28.1486C475.408 30.101 474.846 32.0304 474.433 33.9369C474.02 35.8433 473.814 37.922 473.814 40.1845C473.814 42.4469 474.399 44.5256 475.58 46.432C476.761 48.3385 478.481 49.797 480.74 50.8306C481.451 51.1407 481.967 51.6805 482.276 52.45C482.586 53.2194 482.586 53.9659 482.276 54.6894C481.967 55.413 481.428 55.9183 480.66 56.2284C479.891 56.5385 479.089 56.5385 478.275 56.2284C473.241 53.9659 470.041 50.1645 468.654 44.8127C467.266 39.4724 467.908 33.1904 470.58 26.001C473.149 19.0069 477.048 12.656 482.288 6.94815C487.528 1.24032 492.241 -0.941742 496.461 0.390467C503.651 2.54956 504.626 14.482 499.385 36.1763C496.507 48.1088 493.067 62.855 489.065 80.4378C498.812 77.6586 509.293 75.6602 520.484 74.4199C521.195 74.3166 521.895 74.5233 522.56 75.0401C523.225 75.5569 523.615 76.223 523.718 77.0499V77.0384ZM454.721 208.755C460.982 178.837 469.766 138.986 481.061 89.2235C471.509 92.6115 462.863 96.7344 455.111 101.558C447.36 106.393 440.869 111.607 435.629 117.211C430.389 122.816 426.054 128.294 422.614 133.634C419.174 138.986 416.273 144.591 413.91 150.448C410.516 158.774 408.234 167.904 407.053 177.827C405.872 187.749 406.124 197.546 407.822 207.204C409.519 216.874 412.672 224.535 417.293 230.185C420.171 233.676 423.222 236.145 426.455 237.592C429.689 239.028 432.797 239.396 435.766 238.672C440.078 237.638 443.851 234.561 447.084 229.415C450.318 224.27 452.864 217.38 454.71 208.743L454.721 208.755Z" fill="#7AAD7D"/>
<path d="M572.074 114.593C572.9 114.444 573.634 114.57 574.31 114.983C574.975 115.397 575.411 116.017 575.617 116.832C575.824 117.659 575.721 118.371 575.308 118.991C574.081 120.944 572.739 123.023 571.306 125.239C569.872 127.456 567.74 130.453 564.919 134.266C562.098 138.067 559.403 141.386 556.834 144.212C554.266 147.037 551.491 149.529 548.521 151.688C545.54 153.847 542.982 154.927 540.827 154.927C540.001 154.927 539.29 154.777 538.671 154.467C533.74 152.618 532.353 144.751 534.508 130.867C531.126 135.495 528.041 138.986 525.266 141.352C521.264 144.751 517.767 145.153 514.797 142.592C512.022 140.33 510.772 136.322 511.024 130.556C511.276 124.803 512.95 119.244 516.035 113.904C516.448 113.18 517.056 112.721 517.881 112.514C518.707 112.307 519.475 112.411 520.186 112.824C520.908 113.238 521.367 113.823 521.574 114.593C521.78 115.362 521.677 116.109 521.264 116.832C519.521 119.715 518.305 122.747 517.64 125.928C516.975 129.121 516.769 131.762 517.021 133.875C517.273 135.989 517.767 137.344 518.489 137.964C519.005 138.481 519.98 138.113 521.413 136.884C524.085 134.622 527.422 130.556 531.424 124.699C532.135 123.769 532.674 123.08 533.041 122.621C533.396 122.161 533.832 121.598 534.348 120.921C534.864 120.255 535.277 119.818 535.575 119.612C535.884 119.405 536.24 119.175 536.653 118.923C537.065 118.67 537.478 118.567 537.891 118.612C538.304 118.67 538.763 118.796 539.279 119.003C540.609 119.52 541.331 120.68 541.434 122.471C541.538 124.274 541.285 126.617 540.666 129.488C539.531 135.139 539.095 139.468 539.359 142.443C539.611 145.429 539.84 147.255 540.047 147.921C540.253 148.587 540.506 148.92 540.815 148.92C541.125 149.127 541.664 149.047 542.432 148.691C543.2 148.323 544.129 147.737 545.207 146.922C546.285 146.107 547.489 145.05 548.831 143.764C550.161 142.477 551.674 140.915 553.371 139.055C555.069 137.206 556.789 135.173 558.532 132.968C560.275 130.763 562.178 128.191 564.231 125.262C566.283 122.333 568.29 119.221 570.239 115.937C570.652 115.213 571.26 114.777 572.086 114.627L572.074 114.593Z" fill="#7AAD7D"/>
<path d="M612.426 3.77839C614.582 6.9711 613.527 14.4935 609.272 26.3685C605.007 38.2435 598.104 51.7953 588.563 67.0123C588.46 67.1157 588.357 67.2191 588.253 67.3224C581.786 93.2316 575.594 120.255 569.7 148.38C563.806 176.506 560.022 196.524 558.382 208.456H558.692C559.517 208.766 560.102 209.283 560.458 209.995C560.813 210.719 560.847 211.488 560.538 212.303C559.919 214.049 559.437 215.358 559.07 216.231C558.715 217.104 558.176 217.954 557.453 218.781C556.742 219.608 555.962 220.01 555.148 220.01C554.839 220.01 554.483 219.952 554.07 219.86C552.637 219.343 551.869 217.931 551.766 215.622C551.662 213.314 552.385 207.629 553.921 198.579C555.768 187.474 558.543 172.98 562.235 155.087C570.755 114.363 579.229 78.072 587.646 46.1909C588.368 43.5149 589.136 40.7127 589.95 37.7842C590.776 34.8556 591.957 31.1805 593.494 26.759C595.03 22.3374 596.544 18.4557 598.035 15.1136C599.525 11.7716 601.188 8.78566 603.046 6.16718C604.903 3.5487 606.635 2.1361 608.286 1.92938C610.029 1.6193 611.417 2.23946 612.449 3.77839H612.426ZM593.643 46.6617C601.853 31.1346 606.474 18.9495 607.506 10.1064C602.988 16.8938 598.367 29.0789 593.643 46.6617Z" fill="#7AAD7D"/>
<path d="M640.453 113.364C641.278 113.215 642.012 113.364 642.689 113.823C643.354 114.283 643.743 114.926 643.847 115.753C643.95 116.58 643.789 117.292 643.388 117.912C631.784 134.163 621.211 145.67 611.659 152.457C607.863 155.133 604.114 156.466 600.421 156.466C597.543 156.466 595.032 155.696 592.876 154.157C591.649 153.227 590.537 151.998 589.562 150.459C588.587 148.92 587.739 146.761 587.017 143.982C586.306 141.203 586.168 137.562 586.638 133.026C587.097 128.501 588.255 123.356 590.101 117.602V117.453C592.979 108.093 596.465 100.697 600.57 95.2414C604.676 89.7978 608.368 87.0185 611.659 86.9151C614.021 86.8118 615.558 87.8454 616.28 90.0045C617.404 92.9905 616.074 97.2053 612.278 102.649C608.483 108.104 602.887 113.961 595.491 120.232C594.264 124.24 593.381 127.949 592.876 131.337C592.36 134.737 592.188 137.424 592.337 139.434C592.486 141.444 592.853 143.189 593.415 144.682C593.977 146.175 594.493 147.232 594.952 147.841C595.41 148.461 595.903 148.966 596.419 149.38C599.504 151.642 603.449 151.022 608.276 147.531C617.312 141.157 627.369 130.154 638.457 114.524C638.973 113.904 639.638 113.525 640.464 113.364H640.453ZM610.581 93.3924C606.98 95.6549 603.449 100.536 599.951 108.047C605.903 102.086 609.446 97.1938 610.581 93.3924Z" fill="#7AAD7D"/>
<path d="M701.743 112.204C702.568 112.101 703.279 112.33 703.898 112.893C704.518 113.456 704.873 114.156 704.976 114.972C705.08 115.799 704.827 116.511 704.208 117.131C684.29 140.376 672.892 153.79 670.025 157.384C668.282 159.647 666.585 161.852 664.945 164.022C666.379 169.88 666.482 175.541 665.255 180.985C664.028 186.44 662.273 191.114 660.014 195.019C657.755 198.924 655.084 202.117 652.01 204.586C649.132 207.055 646.472 208.284 644.007 208.284C642.47 208.284 641.186 207.767 640.154 206.745C634.707 201.497 640.819 186.842 658.478 162.782C657.343 158.877 655.554 155.076 653.088 151.366C647.951 143.649 644.156 137.229 641.69 132.084C639.225 126.939 638.101 122.265 638.308 118.05C638.514 113.938 639.615 110.24 641.621 106.944C643.628 103.66 646.323 100.984 649.706 98.928C652.584 97.1823 655.611 96.1487 658.787 95.8386C661.964 95.5285 664.899 95.9879 667.571 97.2283C668.294 97.6417 668.775 98.2274 669.039 98.9969C669.291 99.7663 669.245 100.513 668.89 101.236C668.534 101.96 667.961 102.442 667.193 102.706C666.425 102.959 665.679 102.936 664.957 102.626C661.264 100.88 657.205 101.34 652.79 104.016C647.447 107.208 644.626 111.986 644.316 118.36C644.11 121.759 645.188 125.79 647.55 130.465C649.912 135.15 653.398 140.984 658.019 147.967C659.969 150.953 661.562 153.985 662.789 157.063C663.615 156.029 664.487 154.904 665.404 153.663C668.282 150.069 679.726 136.597 699.747 113.249C700.263 112.629 700.929 112.273 701.754 112.17L701.743 112.204ZM653.845 193.641C658.363 186.75 660.358 179.194 659.854 170.971C655.542 177.138 652.079 182.639 649.453 187.474C646.839 192.309 645.245 195.777 644.683 197.89C644.121 199.992 643.938 201.462 644.144 202.289C645.073 202.186 646.449 201.382 648.307 199.9C650.153 198.407 651.999 196.328 653.845 193.653V193.641Z" fill="#7AAD7D"/>
</g>
<defs>
<clipPath id="clip0_6_1529">
<rect width="705" height="245" fill="white"/>
</clipPath>
</defs>
</svg>
