<svg width="527" height="715" viewBox="0 0 527 715" fill="none" xmlns="http://www.w3.org/2000/svg">
<path d="M421.636 209.314C426.009 205.354 430.842 201.882 436.067 199.07C438.69 197.683 441.407 196.411 444.374 195.751C447.35 195.158 450.413 195.177 453.38 195.751L452.987 195.809C453.82 195.474 454.633 195.063 455.399 194.565C456.184 194.087 456.825 193.427 457.552 192.844L457.858 192.576V192.968C457.83 194.106 457.6 195.388 456.614 196.316C456.375 196.545 456.088 196.727 455.81 196.87C455.676 196.947 455.533 196.995 455.408 197.052C455.351 197.071 455.294 197.109 455.303 197.1C455.274 197.09 455.418 197.109 455.475 196.756C455.475 196.612 455.437 196.526 455.361 196.449C455.313 196.402 455.322 196.411 455.303 196.392C455.246 196.363 455.418 196.411 455.523 196.421C455.648 196.43 455.772 196.44 455.906 196.44C456.164 196.449 456.442 196.44 456.71 196.44C457.791 196.383 458.835 196.201 459.839 195.809C460.844 195.436 461.811 194.91 462.749 194.278H462.768L463.007 194.508L460.107 198.152V198.171L460.079 197.655C460.548 198.133 461.103 198.535 461.725 198.774C462.337 199.013 463.007 199.061 463.667 198.898C464.328 198.745 464.959 198.429 465.562 198.075C466.184 197.712 466.768 197.339 467.342 196.899L467.371 196.88C467.323 196.88 467.543 196.813 467.591 196.909C467.629 196.937 467.658 197.042 467.61 197.109C467.543 197.196 467.572 197.157 467.553 197.186L467.495 197.234L467.39 197.329L467.17 197.511L466.739 197.875L465.869 198.592L464.127 200.017L464.108 200.036V199.759C464.567 199.988 465.017 200.266 465.467 200.543C465.907 200.84 466.357 201.107 466.759 201.442C467.562 202.121 468.366 202.8 469.075 203.585L469.094 203.604L468.96 203.566C471.783 203.259 474.482 202.006 476.53 200.036C476.654 199.912 476.778 199.787 476.893 199.663C476.951 199.596 477.008 199.529 477.056 199.472C477.075 199.443 477.113 199.405 477.113 199.386C477.113 199.386 477.133 199.348 477.113 199.405C477.113 199.472 477.113 199.52 477.247 199.577C477.353 199.577 477.286 199.577 477.286 199.577C477.008 199.74 476.711 199.969 476.424 200.17L474.702 201.461L471.285 204.072C468.998 205.804 466.768 207.592 464.423 209.295C461.973 210.902 459.064 211.581 456.203 211.858C454.767 212.001 453.332 212.107 451.887 212.126C450.442 212.145 449.006 212.049 447.571 211.963L438.977 211.428C436.115 211.275 433.244 211.208 430.373 211.093C428.938 211.055 427.502 210.968 426.076 210.959H421.77C421.674 210.959 421.597 210.882 421.597 210.796C421.597 210.71 421.674 210.624 421.77 210.624H426.076C427.512 210.634 428.947 210.72 430.383 210.758C433.254 210.873 436.125 210.94 438.996 211.093L447.59 211.628C449.025 211.715 450.451 211.81 451.877 211.791C453.303 211.772 454.739 211.676 456.155 211.533C458.988 211.255 461.84 210.586 464.213 209.027C466.519 207.353 468.768 205.545 471.056 203.814L474.482 201.203L476.204 199.912C476.501 199.701 476.769 199.491 477.113 199.29C477.152 199.29 477.123 199.261 477.276 199.252C477.448 199.309 477.42 199.386 477.429 199.472C477.41 199.548 477.41 199.52 477.401 199.548C477.362 199.615 477.343 199.644 477.305 199.682C477.247 199.759 477.18 199.826 477.123 199.893C476.999 200.027 476.874 200.16 476.74 200.285C474.644 202.313 471.869 203.594 468.979 203.91H468.902L468.845 203.872L468.826 203.852C467.917 203.317 467.103 202.676 466.29 202.045C465.897 201.7 465.467 201.423 465.065 201.098C464.663 200.773 464.261 200.438 463.888 200.065L463.696 199.874L463.868 199.787L463.888 199.768L465.629 198.343L466.5 197.626L466.931 197.262L467.141 197.081L467.247 196.995L467.294 196.947C467.294 196.947 467.333 196.899 467.285 196.966C467.247 197.033 467.285 197.129 467.314 197.148C467.352 197.243 467.572 197.176 467.524 197.176C466.988 197.635 466.376 198.066 465.773 198.458C465.17 198.85 464.51 199.233 463.773 199.434C463.045 199.644 462.213 199.644 461.476 199.395C460.739 199.156 460.079 198.716 459.524 198.2L459.256 197.951L459.504 197.683H459.514L462.73 194.297L462.969 194.537H462.959C462.222 195.445 461.284 196.21 460.203 196.727C459.122 197.253 457.906 197.511 456.72 197.53C456.423 197.53 456.126 197.53 455.82 197.521C455.667 197.511 455.514 197.492 455.351 197.463C455.169 197.415 455.054 197.435 454.748 197.272C454.691 197.234 454.672 197.224 454.605 197.157C454.509 197.042 454.442 196.928 454.442 196.756C454.442 196.536 454.547 196.43 454.605 196.363C454.652 196.306 454.71 196.268 454.739 196.258C454.873 196.182 454.94 196.163 455.016 196.124L455.399 195.981C455.638 195.895 455.839 195.79 456.031 195.646C456.806 195.063 457.217 193.991 457.495 192.92L457.791 193.054C457.16 193.762 456.595 194.556 455.858 195.187C455.141 195.837 454.356 196.411 453.514 196.918L453.351 197.014L453.121 196.976C450.308 196.469 447.379 196.382 444.566 196.88C441.761 197.415 439.044 198.573 436.431 199.854C431.196 202.466 426.296 205.756 421.827 209.572C421.76 209.629 421.645 209.629 421.588 209.553C421.53 209.486 421.53 209.381 421.607 209.314H421.636Z" fill="#171717"/>
<path d="M416.917 260.494C416.697 260.494 416.487 260.379 416.372 260.169C413.482 254.927 412.601 248.557 410.831 235.865C409.328 225.047 410.773 212.374 415.013 199.223C415.118 198.898 415.463 198.716 415.798 198.821C416.123 198.927 416.305 199.281 416.2 199.606C412.008 212.585 410.582 225.067 412.065 235.702C413.817 248.242 414.688 254.545 417.463 259.576C417.626 259.872 417.52 260.255 417.214 260.417C417.118 260.465 417.013 260.494 416.917 260.494Z" fill="#171717"/>
<path d="M423.004 188.913C422.717 188.913 422.468 188.721 422.401 188.434C422.324 188.1 422.535 187.765 422.87 187.688C426.191 186.914 429.521 186.234 432.775 185.67L434.431 185.383C437.617 184.838 440.91 184.283 443.848 183.327C445.675 182.734 447.59 182.017 447.963 181.883L448.068 181.844C448.786 181.577 449.599 181.261 450.738 180.792C453.035 179.855 454.815 179.08 456.384 178.401C460.385 176.66 462.586 175.694 466.596 175.12C470.529 174.547 473.563 174.709 476.443 175.646C479.037 176.488 481.401 177.885 483.477 179.788C484.071 178.726 484.683 177.139 484.31 175.465C484.023 174.183 483.238 173.246 481.927 171.706C480.798 170.376 480.051 169.496 479.065 168.923C478.022 168.31 476.807 168.11 475.611 168.119C474.931 168.999 472.309 169.363 470.653 169.506C470.127 169.554 469.524 169.602 469.4 169.018L469.314 168.626L469.687 168.349C469.888 168.205 470.96 167.698 472.443 167.316C471.295 167.086 469.83 166.857 468.328 166.694C465.61 166.398 463.265 166.139 460.461 166.694C458.777 167.019 457.313 167.545 453.494 169.65C450.164 171.476 447.532 173.141 445.608 174.355C442.24 176.479 440.986 177.272 440.173 176.488C439.589 175.924 439.895 174.92 440.422 173.791C440 174.212 439.522 174.661 438.986 175.111C435.694 177.856 430.871 179.798 429.234 178.172C428.947 177.894 428.832 177.579 428.765 177.378C428.229 177.684 426.937 179.75 426.152 181.012L426.038 181.204C424.612 183.499 423.1 185.871 421.54 188.243C421.348 188.53 420.966 188.606 420.678 188.425C420.391 188.233 420.315 187.851 420.497 187.564C422.047 185.202 423.549 182.839 424.975 180.553L425.09 180.362C426.918 177.426 428 175.79 429.205 176.163C429.693 176.316 429.837 176.718 429.923 176.966C429.981 177.129 430.019 177.215 430.105 177.301C430.89 178.076 434.708 177.072 438.192 174.164C439.206 173.313 440.01 172.452 440.594 171.811C441.436 170.902 441.895 170.396 442.47 170.807C443.101 171.247 442.728 171.983 442.039 173.322C441.752 173.887 441.197 174.987 441.101 175.503C441.733 175.321 443.293 174.336 444.939 173.303C446.881 172.079 449.532 170.405 452.891 168.559C456.853 166.378 458.413 165.824 460.222 165.47C463.208 164.886 465.648 165.154 468.462 165.47C472.682 165.938 474.472 166.455 475.218 166.895C476.702 166.828 478.29 167.058 479.678 167.861C480.845 168.54 481.688 169.535 482.855 170.912C484.243 172.548 485.152 173.628 485.506 175.207C486.061 177.703 484.865 179.989 484.109 181.127L483.688 181.749L483.152 181.223C481.085 179.176 478.692 177.703 476.041 176.842C473.352 175.972 470.491 175.819 466.758 176.364C462.921 176.919 460.892 177.799 456.863 179.558C455.284 180.247 453.504 181.022 451.188 181.959C449.972 182.456 449.14 182.782 448.384 183.059C448.001 183.203 446.068 183.92 444.211 184.522C441.197 185.508 437.857 186.072 434.622 186.627L432.976 186.914C429.751 187.478 426.44 188.157 423.138 188.922C423.09 188.932 423.042 188.941 422.994 188.941L423.004 188.913Z" fill="#171717"/>
<path d="M234.177 260.666C236.436 271.369 239.019 282.005 241.948 292.545C244.848 303.094 248.054 313.558 251.652 323.878C255.269 334.16 259.337 344.442 265.873 353.213C272.275 362.031 280.065 369.865 288.937 376.187C293.358 379.372 298.086 382.098 302.995 384.489C307.914 386.851 312.881 389.156 317.973 391.127C323.054 393.107 328.26 394.79 333.495 396.387L349.228 401.084C354.482 402.614 359.727 404.182 365.067 405.254C370.417 406.268 375.862 406.87 381.307 406.975C392.217 407.234 403.137 405.77 413.702 403.044L413.645 403.063C418.966 400.777 423.865 397.497 427.961 393.394C432 389.214 435.809 384.785 439.398 380.194C442.986 375.603 446.365 370.84 449.542 365.962C451.14 363.523 452.662 361.046 454.164 358.54C454.911 357.287 455.638 356.025 456.346 354.753L457.399 352.84L457.916 351.874L458.165 351.396L458.289 351.156C458.289 351.156 458.337 351.089 458.385 351.051L458.423 350.908C463.591 340.655 467.783 329.923 471.142 318.933L476.204 302.454L481.075 285.907C488.521 264.205 489.976 240.246 483.458 218.094C482.425 212.432 481.985 206.655 482.214 200.897C482.329 198.018 482.635 195.158 482.922 192.298C483.219 189.439 483.43 186.579 483.583 183.709C483.87 177.971 483.927 172.222 483.611 166.484C483.468 163.614 483.238 160.754 482.875 157.904C482.53 155.054 482.071 152.223 481.458 149.42C479.066 138.182 474.367 127.527 468.452 117.714C465.467 112.817 462.117 108.14 458.452 103.721C456.653 101.483 454.681 99.3977 452.738 97.2839C450.69 95.2753 448.709 93.1998 446.518 91.3443C438 83.6544 428.124 77.4948 417.521 73.1716C414.898 72.0047 412.171 71.0865 409.453 70.1779C406.725 69.298 403.969 68.5137 401.156 68.0067C395.528 67.0694 389.729 67.2607 384.131 68.3606C378.513 69.4223 373.048 71.2874 367.421 72.5882C361.813 73.9272 356.042 74.788 350.243 74.7785C347.353 74.7976 344.472 74.6541 341.611 74.6732C338.749 74.6732 335.897 74.8837 333.074 75.2949C327.428 76.1749 321.877 77.6956 316.604 79.8955C306.02 84.2569 296.392 90.78 287.903 98.4508C279.405 106.122 271.931 114.959 265.787 124.619C262.725 129.45 260.007 134.519 257.92 139.827C256.858 142.486 256.045 145.183 255.394 147.995C254.686 150.788 253.891 153.571 253.001 156.316C249.46 167.306 244.57 177.865 238.436 187.66L238.512 187.21C239.297 190.73 239.67 194.336 239.632 197.942C239.603 201.547 239.125 205.144 238.273 208.654C237.383 212.154 236.12 215.55 234.455 218.754C232.799 221.958 230.789 224.981 228.445 227.716L227.688 228.596L227.411 227.467C225.813 221.011 222.894 214.813 218.482 209.83C217.401 208.568 216.195 207.42 214.941 206.33C213.678 205.268 212.328 204.264 210.95 203.317C208.223 201.423 205.247 199.797 202.031 199.242C200.433 198.974 198.796 199.003 197.227 199.395C195.677 199.826 194.212 200.543 192.901 201.509C190.317 203.499 188.394 206.291 186.968 209.276C186.25 210.768 185.638 212.327 185.149 213.914C184.614 215.502 184.413 217.08 184.432 218.744C184.46 222.054 185.054 225.392 185.685 228.682C187.016 235.272 188.824 241.776 190.719 248.242C191.676 251.474 192.643 254.707 193.648 257.921C194.672 261.125 195.724 264.329 197.16 267.361C200.127 273.377 204.089 278.906 208.558 283.937C213.065 288.948 217.879 293.702 223.171 297.882C223.191 297.901 223.2 297.93 223.171 297.958C223.152 297.977 223.124 297.987 223.095 297.958C217.745 293.836 212.864 289.13 208.29 284.157C203.744 279.164 199.696 273.664 196.624 267.61C195.131 264.549 194.03 261.336 192.987 258.131C191.954 254.918 190.968 251.694 189.992 248.462C188.049 241.996 186.193 235.492 184.805 228.864C184.145 225.545 183.523 222.197 183.465 218.754C183.417 217.052 183.647 215.244 184.192 213.627C184.681 211.982 185.303 210.385 186.03 208.836C187.475 205.746 189.485 202.81 192.25 200.658C193.657 199.615 195.255 198.821 196.959 198.353C198.672 197.913 200.481 197.884 202.203 198.171C205.677 198.764 208.778 200.476 211.572 202.399C212.979 203.355 214.338 204.369 215.668 205.469C216.96 206.588 218.214 207.774 219.334 209.075C223.899 214.211 226.904 220.581 228.559 227.18L227.526 226.941C229.803 224.263 231.756 221.317 233.364 218.19C234.981 215.072 236.196 211.753 237.058 208.348C237.89 204.943 238.369 201.433 238.397 197.922C238.445 194.412 238.091 190.892 237.335 187.459L237.278 187.22L237.412 187.009C243.508 177.311 248.379 166.857 251.91 155.963C252.791 153.237 253.585 150.492 254.303 147.708C254.954 144.925 255.805 142.094 256.887 139.416C259.021 134.021 261.787 128.914 264.878 124.036C271.098 114.299 278.64 105.423 287.224 97.6952C295.799 89.9766 305.522 83.4153 316.24 79.0156C321.58 76.7966 327.208 75.2662 332.94 74.3863C335.811 73.9655 338.711 73.7742 341.601 73.7742C344.491 73.7646 347.372 73.9176 350.233 73.8985C355.956 73.9176 361.65 73.0855 367.22 71.7656C372.809 70.4935 378.274 68.638 383.977 67.5763C389.662 66.4764 395.548 66.2947 401.28 67.2703C404.142 67.7963 406.917 68.5997 409.663 69.4892C412.401 70.4074 415.128 71.3352 417.769 72.5212C428.44 76.9114 438.364 83.1379 446.901 90.8948C449.092 92.7694 451.083 94.8641 453.14 96.8822C455.083 99.0151 457.054 101.119 458.863 103.367C462.529 107.815 465.878 112.52 468.874 117.446C474.788 127.326 479.468 138.029 481.841 149.325C482.453 152.137 482.903 154.987 483.238 157.847C483.592 160.707 483.812 163.576 483.956 166.455C484.253 172.203 484.176 177.971 483.879 183.709C483.726 186.579 483.497 189.448 483.2 192.318C482.903 195.177 482.587 198.037 482.463 200.907C482.195 206.636 482.645 212.403 483.698 218.046C484.214 220.868 484.932 223.651 485.621 226.444C486.243 229.256 486.808 232.087 487.152 234.947C487.899 240.657 488.09 246.434 487.813 252.192C487.573 257.95 486.827 263.669 485.841 269.341L485.458 271.464C485.334 272.163 485.21 272.89 485.009 273.588L483.851 277.748L481.468 286.041L476.664 302.607L471.658 319.125C468.338 330.133 464.127 340.913 458.969 351.204L459.007 351.061C458.969 351.185 458.911 351.319 458.854 351.443L458.72 351.692L458.461 352.18L457.945 353.146L456.892 355.068C456.174 356.34 455.447 357.613 454.7 358.866C453.207 361.381 451.676 363.868 450.078 366.316C446.891 371.223 443.513 375.996 439.924 380.615C436.326 385.235 432.517 389.663 428.45 393.891C424.296 398.061 419.32 401.399 413.922 403.733H413.893L413.865 403.752C403.242 406.516 392.256 407.999 381.259 407.75C375.766 407.645 370.283 407.052 364.876 406.038C359.468 404.967 354.214 403.398 348.96 401.877L333.218 397.2C327.973 395.603 322.748 393.929 317.628 391.94C312.498 389.96 307.522 387.655 302.574 385.292C297.636 382.901 292.842 380.137 288.372 376.933C279.443 370.506 271.625 362.577 265.222 353.653C261.988 349.215 259.26 344.394 257.002 339.392C254.743 334.39 252.829 329.244 251.039 324.07C247.489 313.711 244.321 303.219 241.479 292.65C238.665 282.072 236.196 271.397 234.053 260.666C234.053 260.637 234.062 260.609 234.091 260.599C234.12 260.599 234.148 260.609 234.158 260.637L234.177 260.666Z" fill="#171717"/>
<path d="M363.986 268.05C363.67 271.99 364.637 276.199 367.355 279.097C368.675 280.57 370.254 281.89 372.159 282.129C373.106 282.263 374.016 282.1 374.896 281.699C375.776 281.297 376.666 280.761 377.633 280.369C381.518 278.753 385.988 279.049 389.816 280.608C393.682 282.138 397.012 285.123 398.85 288.91C399.003 289.226 398.869 289.599 398.563 289.752C398.257 289.905 397.883 289.771 397.73 289.465C396.084 285.926 393.05 283.105 389.423 281.603C385.815 280.073 381.624 279.738 377.968 281.192C377.049 281.545 376.197 282.043 375.231 282.473C374.274 282.913 373.116 283.105 372.054 282.923C370.982 282.77 369.977 282.311 369.125 281.708C368.264 281.096 367.537 280.35 366.857 279.585C365.469 278.035 364.503 276.141 363.986 274.152C363.45 272.163 363.326 270.087 363.517 268.05C363.527 267.916 363.651 267.82 363.785 267.83C363.919 267.839 364.015 267.964 364.005 268.088L363.986 268.05Z" fill="#171717"/>
<path d="M407.568 288.776C410.046 286.911 412.381 284.864 414.535 282.607C415.607 281.498 416.803 280.264 418.411 279.719C419.98 279.154 421.703 279.25 423.234 279.728C423.387 279.776 423.473 279.939 423.425 280.092C423.377 280.245 423.224 280.321 423.071 280.283C421.607 279.881 420.037 279.872 418.659 280.417C417.272 280.943 416.229 282.072 415.195 283.229C413.099 285.582 410.783 287.762 408.333 289.752C408.065 289.972 407.673 289.924 407.462 289.656C407.242 289.388 407.29 288.996 407.558 288.786C407.558 288.786 407.568 288.776 407.577 288.776H407.568Z" fill="#171717"/>
<path d="M427.493 276.601C427.416 276.601 427.34 276.591 427.263 276.553C426.947 276.428 426.785 276.065 426.909 275.749C427.646 273.884 427.971 271.933 427.876 269.972C427.675 265.965 425.732 263.057 424.593 261.68C424.373 261.412 424.411 261.02 424.679 260.8C424.947 260.58 425.34 260.618 425.56 260.886C426.794 262.378 428.909 265.544 429.129 269.905C429.235 272.048 428.881 274.171 428.077 276.199C427.981 276.448 427.742 276.591 427.502 276.591L427.493 276.601Z" fill="#171717"/>
<path d="M235.834 343.132L227.307 342.912L227.125 342.72C223.048 338.416 220.1 333.175 218.617 327.561C216.263 318.666 218.196 311.349 219.019 308.221C220.713 301.813 223.995 295.768 228.522 290.756L228.551 290.727C229.728 289.589 231.47 289.302 232.886 290.01C234.101 290.613 234.886 291.866 234.944 293.262V293.501L234.79 293.683C232.015 296.935 228.388 302.368 226.866 309.809C226.331 312.458 224.895 319.507 227.843 327.484C228.455 329.139 229.211 330.736 230.101 332.247C232.963 325.179 233.891 317.747 232.781 310.689C232.35 307.963 231.623 305.266 230.599 302.664L230.245 301.765L231.211 301.822C231.862 301.861 232.513 301.861 233.154 301.822C234.905 301.727 236.638 301.363 238.312 300.751L238.858 300.55L239.097 301.076C242.188 307.944 246.514 321.478 240.714 334.992C239.518 337.785 237.929 340.435 235.996 342.883L235.805 343.132H235.834ZM227.862 341.688L235.24 341.879C237.02 339.593 238.485 337.116 239.595 334.514C245.069 321.774 241.202 308.948 238.217 302.119C236.599 302.654 234.924 302.98 233.25 303.075C232.876 303.094 232.484 303.104 232.111 303.104C232.991 305.514 233.633 308.001 234.034 310.507C235.212 318.006 234.168 325.896 231.01 333.366L234.618 338.11L233.68 338.923C230.561 335.729 228.206 332.037 226.694 327.934C223.622 319.622 225.106 312.324 225.661 309.579C227.192 302.023 230.838 296.476 233.69 293.09C233.585 292.239 233.077 291.502 232.341 291.139C231.403 290.67 230.235 290.861 229.441 291.617C225.058 296.485 221.871 302.339 220.225 308.556C219.421 311.588 217.545 318.685 219.823 327.264C221.239 332.601 224.015 337.584 227.852 341.707L227.862 341.688Z" fill="#171717"/>
<path d="M371.039 186.799C371.039 186.799 371.01 186.799 371.001 186.799C365.814 186.445 360.531 185.948 355.316 185.307C348.722 184.494 344.76 183.786 340.568 183.021C337.86 182.533 335.065 182.026 331.371 181.462C319.562 179.644 311.044 178.334 300.422 178.669C292.201 178.927 283.846 180.171 275.587 182.37L273.357 182.963L274.994 181.328C282.688 173.619 291.809 168.167 301.35 165.565C306.058 164.284 315.408 164.599 334.032 165.24C343.018 165.546 350.081 167.679 356.301 169.554L357.794 170.003C359.613 170.549 361.077 170.941 362.101 171.17C361.45 170.51 360.914 169.736 360.483 168.856L359.909 167.679L361.182 167.976C364.369 168.731 367.01 170.061 369.02 171.955C369.221 172.136 369.431 172.347 369.661 172.576C370.848 173.753 372.484 175.36 375.039 176.555C376.284 177.129 376.532 176.976 376.552 176.957C376.666 176.861 376.781 176.421 376.207 174.575C376.016 173.954 375.824 173.37 376.427 173.141L376.714 173.035L377.011 173.208C377.528 173.523 378.954 175.828 379.279 178.688C379.557 181.175 378.954 183.767 377.528 186.196C377.355 186.493 376.973 186.588 376.676 186.416C376.379 186.244 376.284 185.861 376.456 185.565C377.748 183.365 378.293 181.041 378.044 178.822C377.987 178.296 377.882 177.799 377.757 177.339C377.671 177.569 377.537 177.76 377.346 177.923C376.513 178.611 375.164 177.98 374.513 177.684C371.757 176.402 369.967 174.633 368.781 173.466C368.561 173.246 368.35 173.045 368.159 172.863C366.627 171.429 364.685 170.329 362.378 169.602C362.723 170.061 363.115 170.462 363.546 170.826C363.67 170.931 363.795 171.027 363.9 171.103C364.264 171.381 364.666 171.696 364.484 172.203C364.273 172.777 364.12 173.198 357.44 171.199L355.938 170.749C349.784 168.894 342.817 166.799 334.022 166.493C315.494 165.852 306.211 165.537 301.675 166.771C293.024 169.133 284.727 173.896 277.549 180.591C285.157 178.726 292.823 177.665 300.383 177.425C311.111 177.091 319.686 178.401 331.543 180.228C335.266 180.802 338.07 181.309 340.779 181.797C344.951 182.552 348.894 183.269 355.459 184.073C360.656 184.714 365.91 185.211 371.077 185.555C371.422 185.575 371.68 185.871 371.652 186.215C371.633 186.541 371.355 186.799 371.03 186.799H371.039Z" fill="#171717"/>
<path d="M426.545 199.013C427.741 197.463 429.148 196.076 430.669 194.823C432.21 193.59 433.895 192.538 435.675 191.648C437.464 190.778 439.359 190.127 441.311 189.706C443.264 189.286 445.273 189.123 447.264 189.152C449.254 189.219 451.197 189.391 453.169 189.668C455.121 189.974 457.064 190.405 458.939 191.007C460.815 191.61 462.653 192.337 464.433 193.169C466.194 194.049 467.907 195.005 469.514 196.115C467.763 195.244 466.002 194.403 464.184 193.724C462.385 193.006 460.547 192.394 458.671 191.916C454.939 190.94 451.082 190.481 447.235 190.376C443.407 190.261 439.608 191.026 436.067 192.499C434.306 193.245 432.612 194.183 431.024 195.292C429.406 196.363 427.942 197.645 426.535 198.994L426.545 199.013Z" fill="#171717"/>
<path d="M356.79 200.687C354.675 198.707 352.416 196.889 349.966 195.397C347.545 193.857 344.942 192.624 342.243 191.677C339.516 190.816 336.75 190.118 333.908 189.802C331.065 189.525 328.204 189.544 325.371 189.869C319.687 190.433 314.155 192.203 309.025 194.747C306.461 196.019 304.001 197.53 301.723 199.271C299.408 200.973 297.273 202.934 295.264 205.019C297.063 202.752 299.13 200.686 301.341 198.793C303.58 196.928 306.02 195.302 308.585 193.896C313.724 191.122 319.409 189.305 325.247 188.635C328.166 188.339 331.123 188.358 334.042 188.683C336.951 189.066 339.832 189.754 342.578 190.787C345.306 191.858 347.918 193.226 350.311 194.89C352.684 196.583 354.885 198.506 356.799 200.687H356.79Z" fill="#171717"/>
<path d="M301.139 205.641C302.431 204.206 303.867 202.896 305.417 201.739C306.192 201.165 306.996 200.62 307.838 200.132L310.403 198.783L310.307 199.864C307.953 198.248 306.068 195.971 304.919 193.36L302.957 188.913L305.972 192.729C306.986 194.01 308.183 195.139 309.542 196.019C310.221 196.459 310.939 196.842 311.685 197.157C312.432 197.482 313.236 197.626 314.001 197.875L313.685 197.894L316.911 196.889L316.853 198.056C315.188 197.348 313.647 196.325 312.346 195.072C311.044 193.81 309.972 192.327 309.159 190.72L310.211 190.07C311.618 191.935 313.15 193.743 315.025 195.024C315.954 195.656 316.978 196.153 318.03 196.325C319.083 196.526 320.145 196.268 321.341 196.019C323.724 195.512 326.184 195.359 328.596 195.436C331.036 195.474 333.486 196.029 335.773 196.784C340.348 198.353 344.712 200.409 348.817 202.944C350.875 204.206 352.798 205.612 354.808 206.837C356.808 208.08 358.933 209.103 361.086 210.06H361.105L363.555 211.198L360.885 211.255L354.129 211.408C351.87 211.437 349.621 211.648 347.372 211.762C342.865 212.03 338.367 212.394 333.869 212.7C331.61 212.834 329.371 213.054 327.084 213.073C324.815 213.073 322.547 212.948 320.289 212.681C318.03 212.403 315.762 211.982 313.609 211.093C311.475 210.203 309.484 209.008 307.685 207.535C307.417 207.315 307.379 206.923 307.599 206.655C307.819 206.387 308.211 206.349 308.479 206.569C308.479 206.569 308.498 206.588 308.508 206.588C310.125 208.07 311.972 209.333 313.973 210.27C315.973 211.169 318.174 211.657 320.384 211.992C322.605 212.298 324.854 212.422 327.093 212.461C329.323 212.461 331.581 212.279 333.83 212.107C338.328 211.743 342.836 211.418 347.334 211.007C351.832 210.567 356.339 210.318 360.856 209.993L360.627 211.188H360.608C358.406 210.203 356.224 209.151 354.167 207.879C352.1 206.626 350.176 205.22 348.166 203.986C344.166 201.509 339.84 199.481 335.39 197.951C333.151 197.215 330.902 196.708 328.557 196.66C326.213 196.583 323.878 196.727 321.59 197.215C321.016 197.329 320.423 197.463 319.791 197.549C319.15 197.635 318.47 197.635 317.829 197.53C316.528 197.32 315.351 196.736 314.317 196.029C312.24 194.603 310.661 192.71 309.207 190.778L310.259 190.127C311.752 193.121 314.26 195.589 317.332 196.88L318.901 197.54L317.274 198.047L314.049 199.051L313.867 199.108L313.733 199.07C312.891 198.802 312.011 198.64 311.197 198.286C310.374 197.951 309.589 197.53 308.853 197.042C307.369 196.076 306.068 194.852 304.986 193.475L306.039 192.834C307.092 195.235 308.833 197.329 310.996 198.812L311.848 199.395L310.91 199.893L308.451 201.184C307.656 201.653 306.881 202.169 306.144 202.714C304.661 203.814 303.283 205.067 302.048 206.444C301.819 206.703 301.426 206.722 301.168 206.492C300.909 206.263 300.89 205.871 301.12 205.612L301.139 205.641Z" fill="#171717"/>
<path d="M339.544 319.297C343.219 321.401 347.104 323.142 351.19 324.232C353.229 324.758 355.315 325.15 357.411 325.246C359.516 325.447 361.593 325.16 363.727 324.94C367.976 324.452 372.245 324.022 376.494 323.62C380.752 323.218 385.011 322.788 389.298 322.549C391.433 322.424 393.624 322.434 395.758 322.654C397.902 322.826 400.027 323.199 402.122 323.352C404.218 323.515 406.314 323.18 408.353 322.606C410.381 322.042 412.353 321.105 414.544 320.808C418.927 320.005 423.263 322.128 427.167 322.635C429.206 322.578 431.244 321.908 433.177 321.085C435.12 320.263 436.996 319.278 438.833 318.216C439.13 318.044 439.513 318.149 439.685 318.446C439.857 318.742 439.752 319.125 439.455 319.297C439.455 319.297 439.436 319.297 439.436 319.306C437.532 320.311 435.579 321.258 433.551 322.023C431.522 322.769 429.416 323.467 427.167 323.486C426.603 323.477 426.038 323.429 425.473 323.276C424.89 323.104 424.459 322.922 423.933 322.769C422.918 322.453 421.894 322.176 420.861 321.937C419.827 321.717 418.784 321.458 417.76 321.382C416.726 321.305 415.664 321.344 414.63 321.478C412.563 321.745 410.611 322.644 408.515 323.218C406.448 323.811 404.247 324.175 402.075 324.022C399.902 323.878 397.806 323.515 395.682 323.362C393.557 323.151 391.461 323.151 389.327 323.295C385.078 323.553 380.819 324.012 376.57 324.433C372.312 324.854 368.072 325.313 363.823 325.82C359.593 326.489 355.105 326.279 350.922 325.217C346.712 324.165 342.702 322.444 338.922 320.368C338.625 320.206 338.51 319.823 338.673 319.526C338.835 319.23 339.218 319.115 339.515 319.278L339.544 319.297Z" fill="#171717"/>
<path d="M355.679 320.77C358.991 320.464 362.283 320.014 365.498 319.239C368.723 318.493 371.881 317.489 374.886 316.16C376.389 315.5 377.853 314.754 379.308 313.969C380.762 313.185 382.198 312.334 383.729 311.607C385.26 310.87 386.926 310.297 388.658 310.105C390.38 309.904 392.132 310 393.816 310.402C395.51 310.813 397.032 311.502 398.572 311.827C400.113 312.171 401.74 312.162 403.319 311.932C404.113 311.817 404.869 311.616 405.597 311.33C406.324 311.033 407.032 310.631 407.827 310.268C409.434 309.512 411.234 309.321 412.927 309.417C414.65 309.503 416.325 309.952 417.904 310.517C419.483 311.09 421.014 311.76 422.526 312.439C425.56 313.807 428.565 315.28 431.388 317.04C428.421 315.528 425.397 314.18 422.287 313.003C419.215 311.798 416.105 310.43 412.889 310.364C411.281 310.344 409.683 310.564 408.267 311.234C407.549 311.569 406.812 311.999 406.008 312.334C405.195 312.669 404.343 312.908 403.491 313.032C401.788 313.29 400.037 313.329 398.324 312.965C396.611 312.611 395.07 311.932 393.519 311.578C391.979 311.196 390.361 311.09 388.782 311.253C387.203 311.416 385.672 311.913 384.198 312.602C381.27 313.998 378.389 315.834 375.241 317.02C372.121 318.273 368.886 319.192 365.603 319.813C362.311 320.397 358.981 320.722 355.66 320.751L355.679 320.77Z" fill="#171717"/>
<path d="M362.13 335.662C364.8 336.666 367.479 337.623 370.207 338.397C372.925 339.21 375.671 339.909 378.456 340.454C381.241 340.97 384.026 341.458 386.84 341.745C389.644 342.041 392.496 342.185 395.319 342.281C398.142 342.395 400.965 342.348 403.75 342.013C406.544 341.688 409.291 341.047 411.971 340.195C414.66 339.354 417.263 338.225 419.742 336.877C422.249 335.566 424.613 333.969 426.871 332.238C424.795 334.189 422.479 335.891 420.048 337.403C417.588 338.876 414.985 340.129 412.277 341.095C406.86 343.094 400.994 343.696 395.271 343.514C389.567 343.247 383.825 342.73 378.246 341.372C375.461 340.712 372.714 339.909 370.015 338.962C367.326 337.986 364.685 336.915 362.12 335.652L362.13 335.662Z" fill="#171717"/>
<g opacity="0.06">
<path d="M312.279 226.454C314.308 226.865 316.337 227.267 318.385 227.496C320.423 227.773 322.471 227.965 324.519 228.041C328.615 228.185 332.731 228.032 336.779 227.42C340.836 226.865 344.818 225.861 348.713 224.579C350.655 223.928 352.569 223.173 354.455 222.331C356.35 221.528 358.187 220.581 360.015 219.615C358.331 220.82 356.541 221.882 354.713 222.876C352.866 223.842 350.971 224.703 349.038 225.468C345.153 226.989 341.085 228.051 336.951 228.644C332.817 229.237 328.615 229.371 324.462 228.988C322.385 228.797 320.318 228.5 318.28 228.099C316.251 227.659 314.232 227.142 312.279 226.454Z" fill="#171717"/>
</g>
<g opacity="0.06">
<path d="M431.312 218.907C436.872 221.929 442.824 224.053 449.007 224.894C455.179 225.784 461.486 225.392 467.668 224.043C464.711 225.181 461.591 225.947 458.414 226.281C455.237 226.635 452.012 226.568 448.834 226.128C442.489 225.239 436.345 222.771 431.312 218.917V218.907Z" fill="#171717"/>
</g>
<path d="M443.551 212.633C440.652 212.633 437.819 211.504 435.847 209.821C432.957 207.353 432.173 204.034 431.962 202.274C431.924 201.93 432.163 201.624 432.508 201.586C432.852 201.547 433.158 201.786 433.197 202.131C433.388 203.709 434.087 206.684 436.661 208.883C439.714 211.495 445.083 212.623 449.016 209.572C452.595 206.789 453.648 201.586 451.466 197.473C451.303 197.167 451.418 196.794 451.724 196.631C452.031 196.469 452.404 196.583 452.566 196.889C455.026 201.528 453.83 207.41 449.782 210.557C447.887 212.03 445.705 212.652 443.561 212.652L443.551 212.633Z" fill="#171717"/>
<path d="M322.815 212.661C320.758 212.661 318.614 212.059 316.633 210.882C313.13 208.807 310.709 205.249 309.992 201.136C309.934 200.801 310.154 200.476 310.499 200.419C310.834 200.361 311.159 200.581 311.216 200.926C311.877 204.685 314.078 207.927 317.274 209.821C319.983 211.428 323.016 211.848 325.581 210.978C330.089 209.457 332.988 204.111 332.347 198.554C332.309 198.209 332.548 197.903 332.893 197.865C333.237 197.827 333.543 198.066 333.582 198.41C334.29 204.541 331.027 210.442 325.983 212.154C324.978 212.499 323.916 212.661 322.825 212.661H322.815Z" fill="#171717"/>
<path d="M470.625 361.333C470.625 354.265 471.678 347.187 473.965 340.482C475.056 337.116 476.616 333.902 478.434 330.86C480.262 327.819 482.415 325.007 484.597 322.252C486.779 319.488 488.961 316.753 490.923 313.855C492.875 310.957 494.579 307.896 496.091 304.749C499.01 298.398 501.297 291.722 502.532 284.855C503.785 277.987 503.9 270.91 502.819 264.023C502.264 260.58 501.355 257.204 500.359 253.837C499.354 250.48 498.273 247.142 497.172 243.804C496.072 240.466 494.981 237.128 493.842 233.809L490.311 223.871C489.114 220.533 488.454 216.985 488.148 213.455C487.832 209.888 488.148 206.339 488.454 202.839C489.086 195.837 489.574 188.836 490.052 181.825C490.282 178.325 490.512 174.814 490.626 171.314C490.741 167.813 490.722 164.322 490.186 160.888C489.095 153.973 487.717 147.068 486.435 140.162L482.511 119.474L482.023 116.891C481.851 116.03 481.573 115.208 481.353 114.357C480.865 112.683 480.348 111.009 479.755 109.364C478.587 106.074 477.238 102.841 475.707 99.7038C472.664 93.4007 468.874 87.4994 464.893 81.7128C463.916 80.2494 462.892 78.8721 461.792 77.4852L458.557 73.3151L452.164 64.9174L439.522 48.0263L439.608 48.122C427.091 37.4192 414.315 27.0034 400.993 17.3527C397.653 14.952 394.275 12.5991 390.83 10.3706C387.375 8.15162 383.863 6.02829 380.121 4.45013C376.398 2.88154 372.35 2.10681 368.331 2.4607C364.321 2.78589 360.435 4.17276 356.99 6.27697L356.779 6.40131L356.54 6.35348L339.084 2.72851H339.209L338.29 2.55635L337.505 2.42244C336.979 2.33636 336.443 2.26941 335.907 2.20245C334.835 2.06855 333.763 1.98247 332.682 1.89639C330.519 1.74335 328.356 1.6764 326.184 1.66684C321.849 1.839 317.504 1.84857 313.197 2.47983C304.584 3.49367 296.038 5.35877 287.789 8.09424C279.52 10.7819 271.472 14.1295 263.682 18.0223C255.911 21.915 248.341 26.2956 241.278 31.3266L241.326 31.2883C237.536 34.7794 233.833 38.3757 230.225 42.0485C226.655 45.7691 223.124 49.528 219.774 53.4399C213.018 61.2255 206.711 69.4032 200.95 77.9539C195.189 86.4951 189.935 95.3901 185.265 104.582C184.135 106.896 182.91 109.173 181.867 111.526C180.805 113.878 179.704 116.203 178.671 118.565C176.604 123.3 174.536 128.034 172.594 132.807C170.641 137.579 168.794 142.39 167.158 147.278C165.541 152.165 164.153 157.129 163.072 162.151C160.842 172.194 160.124 182.533 160.669 192.805C160.957 197.942 161.416 203.097 161.78 208.252C162.153 213.407 162.488 218.563 162.756 223.728C163.301 234.048 163.655 244.387 163.923 254.707C164.163 265.008 165.502 275.252 167.244 285.419C169.005 295.577 171.235 305.667 173.847 315.643C175.159 320.626 176.584 325.581 178.24 330.459C179.886 335.327 181.791 340.186 182.929 345.274C184.097 350.343 184.91 355.461 185.513 360.606C186.116 365.762 186.212 370.946 186.844 376.044C187.447 381.151 188.547 386.182 189.705 391.203C190.863 396.225 192.222 401.198 193.811 406.095C195.409 410.992 197.227 415.813 199.294 420.528C200.328 422.891 201.467 425.186 202.596 427.52C203.725 429.863 204.711 432.283 205.572 434.732C207.343 439.619 208.501 444.688 210.558 449.356C212.654 454.004 215.439 458.385 218.789 462.23C222.148 466.075 226.291 469.202 230.809 471.574C235.335 473.947 240.245 475.582 245.278 476.548L244.733 477.294C241.278 471.001 238.541 464.267 236.933 457.237C236.12 453.727 235.613 450.15 235.402 446.554C235.182 442.957 235.297 439.351 235.565 435.774C235.814 432.197 236.225 428.649 236.216 425.11C236.235 423.34 236.091 421.58 235.852 419.84C235.546 418.109 235.182 416.387 234.579 414.732C233.431 411.404 231.718 408.286 229.775 405.311C227.842 402.337 225.717 399.458 223.507 396.674C221.286 393.891 218.865 391.27 216.53 388.554C214.176 385.847 211.946 383.026 209.85 380.108C205.678 374.274 201.897 368.172 198.462 361.878C191.581 349.301 186.222 335.901 182.307 322.128C181.312 318.685 180.489 315.165 179.982 311.597C179.475 308.03 179.255 304.434 179.235 300.847C179.226 293.664 180.049 286.471 181.838 279.499C182.298 277.758 182.824 276.027 183.465 274.343C184.126 272.66 184.824 270.977 185.992 269.465C186.279 269.092 186.643 268.739 187.112 268.452C187.246 268.394 187.38 268.327 187.523 268.279C187.686 268.251 187.848 268.232 188.021 268.232C188.375 268.251 188.71 268.452 188.901 268.672C189.313 269.121 189.466 269.58 189.628 270.03C189.782 270.479 189.887 270.919 189.992 271.369C190.385 273.138 190.672 274.898 190.997 276.658C191.629 280.168 192.356 283.659 193.227 287.112C194.098 290.574 195.055 293.989 196.337 297.308C198.892 303.955 201.821 310.488 204.654 317.049L213.257 336.695C216.138 343.237 219.009 349.789 222.033 356.254C222.798 357.861 223.564 359.478 224.425 361.008C225.325 362.491 226.378 363.973 227.382 365.427C229.44 368.334 231.641 371.146 233.756 374.045C235.881 376.933 237.833 379.984 239.469 383.188C241.116 386.392 242.503 389.711 243.709 393.097C244.915 396.483 245.948 399.926 246.733 403.436C246.925 404.316 247.097 405.196 247.24 406.095C247.307 406.545 247.365 406.994 247.403 407.463C247.422 407.693 247.432 407.932 247.422 408.18C247.422 408.305 247.413 408.439 247.393 408.573C247.326 408.726 247.422 408.869 247.049 409.185C246.838 409.328 246.513 409.242 246.427 409.156C246.331 409.089 246.255 409.013 246.216 408.955C246.111 408.831 246.054 408.726 245.987 408.62C245.862 408.41 245.757 408.2 245.661 407.989C245.47 407.568 245.298 407.148 245.125 406.736C244.79 405.895 244.484 405.062 244.168 404.221C241.738 397.497 239.297 390.783 236.608 384.164C233.938 377.536 231.086 370.993 228.052 364.528C225.019 358.062 221.774 351.702 218.406 345.399C216.731 342.242 215.027 339.096 213.439 335.872C211.85 332.659 210.424 329.34 209.4 325.877C207.343 318.962 206.587 311.731 206.673 304.558C206.721 300.962 207.027 297.384 207.458 293.826C207.649 292.057 207.946 290.259 207.974 288.547C207.974 288.336 207.955 288.135 207.926 287.954C207.898 287.772 207.812 287.648 207.812 287.648C207.84 287.648 207.745 287.629 207.601 287.715C207.458 287.791 207.295 287.906 207.151 288.04C206.548 288.595 206.012 289.312 205.524 290.029C203.572 292.956 202.041 296.198 200.634 299.46C199.246 302.741 198.021 306.088 196.95 309.484C194.806 316.274 193.227 323.257 192.279 330.315C190.327 344.442 191.275 358.894 194.681 372.734C196.347 379.668 198.624 386.44 201.007 393.174C203.4 399.898 206.223 406.459 209.419 412.829C215.841 425.569 223.784 437.534 233 448.438C233.144 448.6 233.115 448.849 232.952 448.983C232.79 449.126 232.541 449.098 232.407 448.935C223.152 437.993 215.161 425.98 208.711 413.183C205.496 406.784 202.653 400.185 200.251 393.441C197.859 386.698 195.572 379.898 193.897 372.925C190.471 359.009 189.495 344.433 191.466 330.21C192.423 323.104 194.012 316.083 196.165 309.235C197.246 305.811 198.471 302.444 199.868 299.135C201.285 295.835 202.816 292.583 204.835 289.551C205.352 288.805 205.888 288.059 206.606 287.409C206.788 287.246 206.989 287.093 207.237 286.959C207.467 286.844 207.879 286.682 208.29 286.949C208.654 287.217 208.711 287.552 208.769 287.801C208.816 288.059 208.826 288.308 208.826 288.537C208.797 290.402 208.491 292.143 208.3 293.922C207.869 297.461 207.572 301.009 207.525 304.567C207.438 311.664 208.204 318.828 210.223 325.629C211.238 329.024 212.645 332.295 214.214 335.49C215.784 338.684 217.487 341.831 219.171 344.987C222.54 351.29 225.803 357.67 228.847 364.155C231.89 370.63 234.751 377.191 237.431 383.829C240.12 390.457 242.57 397.191 245.001 403.905C245.307 404.737 245.623 405.579 245.948 406.401C246.111 406.813 246.283 407.224 246.465 407.616C246.551 407.817 246.647 407.999 246.752 408.171C246.8 408.257 246.858 408.334 246.896 408.391C246.925 408.42 246.934 408.429 246.925 408.42C246.925 408.391 246.733 408.353 246.609 408.42C246.475 408.525 246.513 408.506 246.503 408.515L246.523 408.429C246.523 408.343 246.542 408.257 246.542 408.152C246.542 407.951 246.542 407.741 246.523 407.53C246.484 407.1 246.436 406.669 246.369 406.229C246.235 405.359 246.063 404.489 245.872 403.628C245.097 400.165 244.073 396.751 242.876 393.394C240.503 386.679 237.326 380.271 233.038 374.571C230.933 371.701 228.722 368.88 226.655 365.953C225.631 364.47 224.607 363.036 223.65 361.467C222.76 359.879 221.994 358.263 221.219 356.647C218.186 350.162 215.315 343.61 212.434 337.068L203.821 317.422C200.979 310.861 198.06 304.338 195.476 297.643C194.184 294.286 193.208 290.814 192.327 287.342C191.447 283.87 190.719 280.35 190.078 276.83C189.753 275.07 189.466 273.301 189.083 271.589C188.978 271.168 188.882 270.738 188.738 270.336C188.604 269.944 188.442 269.542 188.231 269.332C188.04 269.131 187.887 269.121 187.571 269.284C187.284 269.465 186.978 269.724 186.729 270.068C185.695 271.397 184.987 273.052 184.355 274.688C183.724 276.333 183.217 278.035 182.757 279.747C180.996 286.624 180.173 293.75 180.192 300.856C180.212 304.405 180.432 307.963 180.929 311.483C181.427 315.002 182.231 318.455 183.226 321.879C187.131 335.604 192.461 348.918 199.313 361.429C202.73 367.684 206.491 373.767 210.635 379.554C212.721 382.442 214.922 385.235 217.267 387.923C219.592 390.62 222.023 393.26 224.272 396.072C226.512 398.884 228.636 401.772 230.608 404.785C232.569 407.788 234.34 410.983 235.527 414.417C236.158 416.119 236.541 417.908 236.847 419.696C237.096 421.494 237.249 423.312 237.22 425.11C237.22 428.725 236.819 432.293 236.57 435.841C236.311 439.39 236.196 442.948 236.417 446.487C236.627 450.026 237.134 453.545 237.929 457.008C239.508 463.932 242.206 470.57 245.633 476.797L246.159 477.753L245.087 477.543C239.967 476.558 234.962 474.903 230.33 472.474C225.708 470.044 221.459 466.85 218.013 462.899C214.578 458.959 211.764 454.521 209.601 449.758C207.486 444.956 206.328 439.887 204.577 435.066C203.725 432.637 202.759 430.275 201.639 427.96C200.519 425.645 199.361 423.321 198.318 420.94C196.232 416.186 194.404 411.337 192.787 406.411C191.179 401.485 189.82 396.483 188.643 391.433C187.485 386.402 186.365 381.323 185.753 376.158C185.111 370.993 185.016 365.819 184.413 360.721C183.81 355.614 182.996 350.516 181.838 345.513C180.709 340.502 178.833 335.71 177.168 330.803C175.503 325.896 174.068 320.913 172.747 315.911C170.125 305.897 167.885 295.797 166.115 285.601C164.363 275.405 163.014 265.104 162.765 254.736C162.497 244.406 162.134 234.086 161.588 223.775C161.311 218.62 160.985 213.465 160.612 208.319C160.248 203.173 159.779 198.028 159.492 192.853C158.928 182.495 159.655 172.041 161.904 161.902C162.995 156.833 164.392 151.831 166.019 146.905C167.665 141.989 169.522 137.149 171.474 132.357C173.426 127.565 175.493 122.821 177.561 118.087C178.594 115.715 179.704 113.372 180.767 111.019C181.819 108.647 183.044 106.37 184.174 104.036C188.863 94.8067 194.126 85.8638 199.916 77.2748C205.697 68.6763 212.032 60.4603 218.817 52.6365C222.176 48.6959 225.727 44.9274 229.316 41.1877C232.943 37.4862 236.656 33.8803 240.465 30.3701L240.493 30.351L240.513 30.3319C247.671 25.2244 255.26 20.8343 263.088 16.9128C270.917 13.0009 279.023 9.62457 287.358 6.90823C295.675 4.14407 304.288 2.25984 312.996 1.23643C317.341 0.595607 321.743 0.586042 326.126 0.413879C328.318 0.413879 330.519 0.490398 332.711 0.643431C333.811 0.719947 334.902 0.815593 336.003 0.949497C336.548 1.01645 337.103 1.09296 337.649 1.17904L338.472 1.32251L338.883 1.4086L339.094 1.45642L339.199 1.48511H339.257C339.257 1.48511 339.19 1.48511 339.161 1.48511H339.285L356.741 5.11965L356.291 5.19617C359.88 3.01544 363.957 1.55206 368.177 1.2173C372.398 0.85385 376.676 1.6764 380.532 3.30238C384.389 4.93792 387.959 7.09952 391.433 9.32807C394.907 11.5757 398.285 13.9382 401.644 16.3485C415.004 26.0469 427.789 36.4915 440.317 47.2134L440.365 47.2516L440.403 47.309L453.026 64.2L459.409 72.5882L462.634 76.7583C463.725 78.1356 464.787 79.5799 465.773 81.0433C469.764 86.8394 473.582 92.8077 476.654 99.1777C478.195 102.353 479.573 105.624 480.741 108.962C481.344 110.626 481.87 112.319 482.358 114.012C482.578 114.864 482.865 115.705 483.037 116.576L483.535 119.177L487.459 139.932C488.732 146.848 490.1 153.734 491.201 160.707C491.746 164.226 491.765 167.804 491.641 171.323C491.517 174.853 491.287 178.363 491.057 181.873C490.569 188.884 490.081 195.904 489.44 202.906C489.143 206.406 488.827 209.888 489.134 213.34C489.44 216.812 490.071 220.227 491.239 223.517L494.761 233.455C495.909 236.783 496.991 240.131 498.091 243.469C499.182 246.807 500.273 250.155 501.278 253.54C502.273 256.917 503.182 260.341 503.747 263.851C504.829 270.862 504.695 278.035 503.412 284.998C502.139 291.971 499.814 298.695 496.847 305.103C495.306 308.288 493.574 311.377 491.593 314.314C489.603 317.24 487.401 319.995 485.21 322.75C483.028 325.504 480.894 328.278 479.085 331.262C477.295 334.246 475.745 337.393 474.664 340.722C472.386 347.321 471.324 354.332 471.314 361.324C471.314 361.525 471.151 361.687 470.95 361.687C470.749 361.687 470.587 361.525 470.587 361.324L470.625 361.333Z" fill="#171717"/>
<path d="M437.895 548.416C437.895 548.416 437.847 548.416 437.818 548.416C437.474 548.378 437.234 548.062 437.282 547.718C439.675 528.465 439.235 499.627 423.521 471.613C419.224 463.952 413.979 456.74 407.931 450.179L389.633 449.146L380.876 485.338L380.379 482.306C378.704 472.081 378.369 461.704 379.374 451.46C380.867 436.243 385.259 421.561 392.427 407.817C392.59 407.511 392.963 407.396 393.27 407.549C393.576 407.712 393.691 408.085 393.538 408.391C386.446 421.992 382.101 436.52 380.628 451.575C379.737 460.661 379.91 469.862 381.154 478.968L388.685 447.845L408.524 448.964L408.697 449.146C414.879 455.831 420.238 463.177 424.631 471.001C440.507 499.312 440.957 528.426 438.536 547.871C438.498 548.187 438.23 548.416 437.924 548.416H437.895Z" fill="#171717"/>
<path d="M177.177 458.146C176.43 458.146 175.713 458.146 175.033 458.127C174.689 458.127 174.411 457.84 174.411 457.495C174.411 457.151 174.679 456.893 175.033 456.883C191.762 457.17 232.071 454.674 245.613 426.296C251.536 413.881 251.134 394.503 250.665 372.055C250.465 362.204 249.833 352.276 248.799 342.539C248.761 342.194 249.01 341.888 249.354 341.85C249.699 341.821 250.005 342.061 250.043 342.405C251.087 352.18 251.718 362.146 251.919 372.026C252.388 394.627 252.79 414.149 246.742 426.822C233.449 454.683 195.207 458.136 177.177 458.136V458.146Z" fill="#171717"/>
<path d="M526.294 523.242C526.045 523.242 525.815 523.089 525.72 522.85C522.284 514.271 517.796 506.189 512.369 498.833C492.32 471.641 464.978 461.761 455.992 458.519C441.216 453.182 425.569 450.552 409.481 450.772C409.147 450.772 408.859 450.504 408.85 450.159C408.84 449.815 409.118 449.538 409.462 449.528C425.693 449.346 441.493 451.958 456.413 457.352C465.486 460.623 493.095 470.599 513.365 498.097C518.848 505.538 523.394 513.716 526.868 522.391C526.992 522.707 526.839 523.07 526.524 523.194C526.447 523.223 526.37 523.242 526.294 523.242Z" fill="#171717"/>
<path d="M142.811 460.126C139.452 460.04 136.103 460.001 132.753 460.107C129.413 460.25 126.073 460.537 122.781 461.063C116.168 462.067 109.737 464.076 103.574 466.687C97.4203 469.327 91.4868 472.512 85.8883 476.213C80.2803 479.896 74.8349 483.855 69.6766 488.15C59.3697 496.777 51.1298 507.623 44.3351 519.187C37.5499 530.789 31.9514 543.051 26.9654 555.532C22.0176 568.033 17.7302 580.802 14.2467 593.791C10.7441 606.77 7.88264 619.931 5.85379 633.225C3.78665 646.511 2.38942 659.901 1.64295 673.32C0.867775 686.749 0.973046 700.197 1.4037 713.625V713.644C1.41327 713.989 1.1453 714.276 0.80078 714.285C0.456257 714.295 0.169156 714.027 0.159586 713.683C0.159586 713.683 0.159586 713.673 0.159586 713.663L0.11174 703.563C0.11174 701.88 0.0734597 700.197 0.11174 698.513L0.245721 693.463L0.379701 688.413C0.417981 686.73 0.437122 685.046 0.551963 683.372L1.09746 673.291C2.05446 659.863 3.47083 646.472 5.58582 633.187C9.86364 606.626 16.6871 580.429 26.5921 555.389C31.5494 542.878 37.1097 530.578 43.8853 518.919C50.6609 507.308 58.9103 496.375 69.2555 487.653C74.433 483.32 79.8688 479.331 85.496 475.62C91.1136 471.881 97.0375 468.6 103.229 465.884C109.421 463.196 115.919 461.101 122.618 460.02C125.958 459.456 129.337 459.141 132.715 458.968C136.093 458.834 139.481 458.834 142.84 458.892C143.184 458.892 143.462 459.179 143.452 459.523C143.443 459.867 143.165 460.145 142.821 460.135L142.811 460.126Z" fill="#171717"/>
<path d="M206.74 201.107C206.596 201.107 206.453 201.04 206.357 200.916C206.204 200.706 206.242 200.409 206.453 200.247C220.597 189.754 233.297 177.445 244.187 163.653C256.762 147.727 266.821 130.023 274.075 111.009C274.17 110.76 274.448 110.636 274.697 110.732C274.946 110.827 275.07 111.105 274.974 111.353C267.682 130.454 257.585 148.254 244.943 164.255C233.995 178.105 221.248 190.481 207.027 201.021C206.941 201.088 206.845 201.117 206.74 201.117V201.107Z" fill="#171717"/>
<path d="M206.49 442.259C206.366 442.259 206.232 442.211 206.136 442.106C196.719 432.015 187.79 427.367 179.579 428.285C171.167 429.223 163.874 435.985 160.372 439.237C158.353 441.111 157.74 441.676 157.214 441.111C156.754 440.624 157.214 440.069 158.458 438.596C160.209 436.511 163.482 432.628 165.607 427.137C167.875 421.265 168.286 415.057 167.569 413.527C167.473 413.326 167.406 413.298 167.406 413.298C167.061 413.298 166.133 414.732 165.511 415.679C164.908 416.597 164.229 417.649 163.434 418.635C155.864 428.046 140.37 429.653 133.767 428.419C131.652 428.027 130.437 427.367 130.15 426.468C129.805 425.368 130.896 424.612 132.714 423.35C134.37 422.202 136.628 420.634 139.251 418.003C148.074 409.137 151.96 396.77 151.577 392.619C151.51 391.94 151.347 391.806 151.347 391.806C151.07 391.844 150.189 392.944 149.414 393.91C147.318 396.54 143.806 400.931 137.796 403.79C132.781 406.181 126.982 407.033 120.56 406.325L119.45 406.201L120.311 405.483C132.092 395.603 141.126 384.068 147.146 371.213C156.927 350.343 156.151 331.511 155.338 311.578C155.252 309.426 155.166 307.255 155.089 305.065C153.989 273.463 155.673 240.36 160.085 206.674C160.123 206.416 160.353 206.224 160.621 206.263C160.879 206.301 161.07 206.54 161.032 206.798C156.63 240.427 154.946 273.473 156.046 305.027C156.123 307.217 156.209 309.378 156.295 311.53C157.108 331.587 157.884 350.535 148.007 371.615C142.074 384.279 133.26 395.67 121.785 405.474C127.585 405.952 132.82 405.091 137.385 402.92C143.194 400.156 146.62 395.861 148.668 393.308C150.122 391.49 150.926 390.486 151.797 390.955C152.161 391.156 152.39 391.576 152.496 392.255C153.099 396.32 149.204 409.328 139.93 418.654C137.251 421.351 134.848 423.015 133.26 424.115C131.901 425.052 130.925 425.731 131.059 426.162C131.183 426.554 132.006 427.099 133.939 427.463C140.15 428.62 155.453 427.004 162.688 418.022C163.453 417.076 164.114 416.052 164.707 415.143C165.922 413.288 166.717 412.054 167.703 412.379C168.009 412.475 168.248 412.724 168.43 413.106C169.368 415.096 168.746 421.667 166.497 427.482C164.583 432.446 161.769 436.109 159.893 438.366C163.54 434.99 170.889 428.285 179.474 427.329C188.01 426.382 197.207 431.126 206.844 441.446C207.026 441.637 207.016 441.943 206.825 442.125C206.729 442.211 206.614 442.249 206.5 442.249L206.49 442.259Z" fill="#171717"/>
<path d="M387.987 441.762C387.767 441.762 387.566 441.609 387.518 441.379C387.46 441.121 387.633 440.872 387.891 440.815C394.207 439.514 398.724 436.893 401.318 433.029C403.51 429.768 403.95 426.219 404.342 423.101C404.754 419.84 405.108 417.018 407.5 415.899C410.544 414.474 414.391 416.903 417.195 418.673C419.96 420.423 421.157 421.982 422.659 423.962C423.769 425.425 425.033 427.08 427.253 429.213C432.076 433.852 437.713 437.352 438.852 436.425C439.321 436.033 438.9 434.483 438.479 432.981C438.383 432.637 438.287 432.283 438.191 431.92C437.062 427.606 437.1 423.254 437.177 414.579C437.263 404.575 440.211 391.902 443.398 391.902C444.718 391.902 445.264 393.642 446.077 396.263C446.565 397.822 447.168 399.754 448.068 401.657C451.657 409.29 459.408 415.306 471.113 419.543C465.208 412.351 458.47 401.141 457.399 386.67C456.202 370.582 462.624 356.914 464.347 355.432C464.557 355.25 464.768 355.183 464.969 355.231C465.591 355.374 465.495 355.987 465.246 357.632C464.748 360.855 463.715 367.579 466.796 374.465C467.964 377.086 469.648 379.506 471.792 381.687L470.5 361.352C470.481 361.084 470.682 360.865 470.95 360.845C471.208 360.836 471.438 361.027 471.457 361.295L472.902 384.068L472.022 383.255C469.352 380.768 467.294 377.947 465.916 374.867C462.72 367.722 463.782 360.817 464.289 357.498C464.318 357.316 464.346 357.134 464.366 356.962C462.413 360.147 457.255 372.084 458.336 386.612C459.466 401.753 466.902 413.269 472.95 420.27L474.098 421.6L472.433 421.035C459.552 416.683 451.063 410.304 447.187 402.069C446.259 400.098 445.647 398.128 445.149 396.55C444.556 394.656 443.991 392.868 443.369 392.868C441.503 392.868 438.211 403.599 438.105 414.598C438.029 423.187 437.991 427.491 439.091 431.69C439.187 432.044 439.282 432.398 439.378 432.733C439.943 434.78 440.393 436.386 439.436 437.171C437.091 439.084 429.157 432.398 426.564 429.911C424.296 427.73 423.004 426.038 421.875 424.555C420.42 422.652 419.281 421.15 416.659 419.495C414.19 417.936 410.448 415.574 407.883 416.779C405.959 417.678 405.653 420.127 405.27 423.235C404.888 426.305 404.409 430.131 402.093 433.584C399.356 437.658 394.638 440.413 388.063 441.771C388.035 441.771 387.996 441.781 387.968 441.781L387.987 441.762Z" fill="#171717"/>
<path d="M320.039 495.075C319.053 495.075 318.068 495.075 317.082 495.056C277.768 494.52 248.197 483.396 233.985 478.05C219.065 472.435 204.557 465.482 190.862 457.39L166.392 458.567L142.868 460.126C142.524 460.154 142.227 459.887 142.208 459.542C142.189 459.198 142.447 458.901 142.792 458.882L166.325 457.323L191.178 456.128L191.341 456.223C205.016 464.325 219.515 471.278 234.435 476.883C248.579 482.201 278.007 493.276 317.111 493.812C337.763 494.109 358.53 491.411 378.847 485.854C379.182 485.768 379.517 485.96 379.613 486.294C379.709 486.629 379.508 486.964 379.173 487.059C359.707 492.387 339.83 495.084 320.049 495.084L320.039 495.075Z" fill="#171717"/>
<path d="M311.828 325.055C312.22 323.639 312.68 322.319 313.177 320.99C313.455 320.339 313.771 319.679 313.943 318.991C314.125 318.302 314.173 317.575 314.163 316.867C314.134 316.15 314.106 315.442 314.048 314.763C314.019 314.428 313.962 314.084 313.866 313.845C313.847 313.816 313.809 313.74 313.818 313.769C313.818 313.769 313.847 313.807 313.876 313.816C313.914 313.826 313.991 313.845 314.058 313.835C314.192 313.797 314.144 313.797 314.115 313.835C314.077 313.874 314.029 313.941 313.972 313.998C313.512 314.543 312.9 315.117 312.22 315.461C311.531 315.815 310.794 316.016 310.048 316.035C310.019 316.035 310 316.016 310 315.987C310 315.968 310.01 315.949 310.029 315.94C311.369 315.308 312.373 314.486 313.196 313.348C313.254 313.271 313.321 313.204 313.407 313.109C313.503 313.032 313.598 312.898 313.914 312.831C314.067 312.802 314.24 312.841 314.345 312.908C314.402 312.936 314.469 312.975 314.517 313.022L314.603 313.128C314.737 313.29 314.747 313.395 314.804 313.52C314.929 313.969 314.938 314.342 314.948 314.725C314.957 315.481 314.842 316.217 314.68 316.925C314.527 317.642 314.354 318.35 314.249 319.058C314.134 319.775 314.096 320.512 313.943 321.238C313.579 322.664 312.9 324.003 311.924 325.112C311.904 325.131 311.876 325.131 311.857 325.112C311.837 325.103 311.837 325.083 311.837 325.064L311.828 325.055Z" fill="#808080"/>
</svg>
