<svg width="984" height="1009" viewBox="0 0 984 1009" fill="none" xmlns="http://www.w3.org/2000/svg">
<path d="M612.684 301.941C617.737 297.366 623.321 293.354 629.359 290.105C632.389 288.502 635.529 287.033 638.957 286.27C642.396 285.585 645.935 285.607 649.363 286.27L648.91 286.336C649.872 285.949 650.811 285.474 651.696 284.9C652.603 284.347 653.344 283.584 654.184 282.91L654.538 282.601V283.054C654.505 284.369 654.239 285.85 653.101 286.922C652.824 287.187 652.492 287.397 652.172 287.563C652.017 287.651 651.851 287.707 651.707 287.773C651.641 287.795 651.575 287.839 651.586 287.828C651.552 287.817 651.718 287.839 651.785 287.43C651.785 287.265 651.74 287.165 651.652 287.077C651.597 287.021 651.608 287.033 651.586 287.01C651.519 286.977 651.718 287.033 651.84 287.044C651.984 287.055 652.127 287.066 652.282 287.066C652.581 287.077 652.901 287.066 653.211 287.066C654.461 286.999 655.666 286.789 656.827 286.336C657.988 285.905 659.105 285.297 660.189 284.568H660.211L660.487 284.833L657.137 289.044V289.066L657.104 288.469C657.645 289.022 658.287 289.486 659.006 289.762C659.713 290.039 660.487 290.094 661.25 289.906C662.013 289.729 662.743 289.364 663.44 288.955C664.158 288.536 664.833 288.105 665.497 287.596L665.53 287.574C665.474 287.574 665.729 287.497 665.784 287.607C665.828 287.64 665.861 287.762 665.806 287.839C665.729 287.939 665.762 287.895 665.74 287.928L665.673 287.983L665.552 288.093L665.297 288.303L664.8 288.723L663.794 289.552L661.781 291.199L661.759 291.221V290.901C662.29 291.166 662.809 291.486 663.329 291.807C663.838 292.149 664.358 292.459 664.822 292.846C665.751 293.63 666.68 294.415 667.498 295.321L667.52 295.343L667.365 295.299C670.627 294.945 673.746 293.498 676.112 291.221C676.256 291.077 676.4 290.934 676.532 290.79C676.599 290.713 676.665 290.635 676.72 290.569C676.742 290.536 676.787 290.492 676.787 290.47C676.787 290.47 676.809 290.425 676.787 290.492C676.787 290.569 676.787 290.624 676.942 290.691C677.063 290.691 676.986 290.691 676.986 290.691C676.665 290.878 676.322 291.144 675.991 291.376L674 292.868L670.052 295.885C667.41 297.885 664.833 299.952 662.124 301.919C659.293 303.776 655.931 304.56 652.625 304.881C650.966 305.047 649.308 305.168 647.638 305.19C645.968 305.212 644.309 305.102 642.651 305.002L632.721 304.384C629.414 304.207 626.097 304.129 622.78 303.997C621.121 303.953 619.462 303.853 617.815 303.842H612.838C612.728 303.842 612.639 303.754 612.639 303.654C612.639 303.555 612.728 303.455 612.838 303.455H617.815C619.473 303.466 621.132 303.566 622.791 303.61C626.108 303.743 629.425 303.82 632.743 303.997L642.673 304.616C644.332 304.715 645.979 304.826 647.627 304.804C649.274 304.781 650.933 304.671 652.57 304.505C655.843 304.185 659.138 303.411 661.881 301.61C664.546 299.676 667.144 297.587 669.787 295.586L673.746 292.569L675.736 291.077C676.079 290.834 676.389 290.591 676.787 290.359C676.831 290.359 676.798 290.326 676.975 290.315C677.174 290.381 677.141 290.47 677.152 290.569C677.129 290.657 677.13 290.624 677.118 290.657C677.074 290.735 677.052 290.768 677.008 290.812C676.942 290.901 676.864 290.978 676.798 291.055C676.654 291.21 676.51 291.365 676.355 291.508C673.934 293.851 670.727 295.332 667.387 295.697H667.299L667.233 295.653L667.211 295.631C666.16 295.012 665.22 294.271 664.28 293.542C663.827 293.144 663.329 292.824 662.865 292.448C662.4 292.072 661.936 291.685 661.505 291.254L661.283 291.033L661.482 290.934L661.505 290.912L663.517 289.265L664.523 288.436L665.021 288.016L665.264 287.806L665.386 287.707L665.441 287.651C665.441 287.651 665.485 287.596 665.43 287.674C665.386 287.751 665.43 287.861 665.463 287.883C665.508 287.994 665.762 287.917 665.707 287.917C665.087 288.447 664.38 288.944 663.683 289.398C662.986 289.851 662.223 290.293 661.372 290.525C660.531 290.768 659.569 290.768 658.718 290.481C657.867 290.204 657.103 289.696 656.462 289.099L656.153 288.812L656.44 288.502H656.451L660.167 284.59L660.443 284.866H660.432C659.58 285.916 658.497 286.8 657.247 287.397C655.998 288.005 654.593 288.303 653.222 288.326C652.879 288.326 652.537 288.326 652.183 288.315C652.006 288.303 651.829 288.281 651.641 288.248C651.431 288.193 651.298 288.215 650.944 288.027C650.878 287.983 650.856 287.972 650.778 287.895C650.668 287.762 650.59 287.629 650.59 287.43C650.59 287.176 650.712 287.055 650.778 286.977C650.834 286.911 650.9 286.867 650.933 286.856C651.088 286.767 651.165 286.745 651.254 286.701L651.696 286.535C651.973 286.436 652.205 286.314 652.426 286.148C653.322 285.474 653.797 284.236 654.118 282.999L654.461 283.153C653.731 283.971 653.078 284.889 652.227 285.618C651.398 286.369 650.491 287.033 649.518 287.618L649.33 287.729L649.064 287.685C645.813 287.099 642.43 286.999 639.179 287.574C635.939 288.193 632.798 289.53 629.779 291.011C623.731 294.028 618.069 297.83 612.905 302.24C612.827 302.306 612.695 302.306 612.628 302.217C612.562 302.14 612.562 302.019 612.65 301.941H612.684Z" fill="#171717"/>
<path d="M607.233 361.078C606.978 361.078 606.735 360.946 606.602 360.703C603.263 354.646 602.246 347.286 600.2 332.621C598.464 320.121 600.134 305.478 605.032 290.282C605.154 289.906 605.552 289.696 605.939 289.818C606.315 289.939 606.525 290.348 606.403 290.724C601.56 305.721 599.912 320.143 601.626 332.433C603.65 346.921 604.656 354.204 607.863 360.017C608.051 360.36 607.929 360.802 607.576 360.99C607.465 361.045 607.343 361.078 607.233 361.078V361.078Z" fill="#171717"/>
<path d="M614.265 278.368C613.934 278.368 613.646 278.147 613.569 277.816C613.48 277.429 613.724 277.042 614.111 276.954C617.948 276.058 621.796 275.274 625.556 274.622L627.469 274.29C631.151 273.66 634.955 273.019 638.35 271.914C640.462 271.229 642.673 270.4 643.105 270.245L643.226 270.201C644.056 269.892 644.996 269.527 646.311 268.985C648.965 267.902 651.022 267.007 652.836 266.222C657.458 264.211 660.001 263.095 664.635 262.432C669.179 261.769 672.685 261.957 676.013 263.04C679.01 264.012 681.741 265.626 684.141 267.825C684.826 266.598 685.534 264.764 685.103 262.83C684.771 261.349 683.864 260.266 682.349 258.486C681.045 256.95 680.182 255.933 679.043 255.27C677.838 254.563 676.433 254.331 675.051 254.342C674.266 255.359 671.236 255.779 669.323 255.944C668.715 256 668.018 256.055 667.875 255.381L667.775 254.928L668.206 254.607C668.438 254.441 669.677 253.856 671.391 253.414C670.064 253.148 668.372 252.883 666.636 252.695C663.496 252.353 660.786 252.054 657.546 252.695C655.6 253.071 653.908 253.679 649.496 256.11C645.648 258.221 642.607 260.144 640.384 261.548C636.492 264.001 635.043 264.918 634.103 264.012C633.429 263.36 633.783 262.2 634.391 260.896C633.904 261.382 633.352 261.901 632.732 262.421C628.928 265.593 623.355 267.836 621.464 265.957C621.132 265.637 621 265.272 620.922 265.04C620.303 265.394 618.81 267.781 617.904 269.24L617.771 269.461C616.123 272.113 614.376 274.854 612.574 277.595C612.352 277.926 611.91 278.015 611.578 277.805C611.247 277.584 611.158 277.141 611.368 276.81C613.16 274.08 614.896 271.35 616.543 268.709L616.676 268.488C618.788 265.095 620.038 263.205 621.431 263.636C621.995 263.813 622.161 264.277 622.26 264.565C622.327 264.753 622.371 264.852 622.47 264.952C623.377 265.847 627.789 264.686 631.814 261.327C632.987 260.343 633.916 259.348 634.59 258.608C635.563 257.558 636.094 256.972 636.757 257.447C637.487 257.956 637.056 258.807 636.26 260.354C635.928 261.006 635.287 262.277 635.176 262.874C635.906 262.664 637.708 261.526 639.61 260.332C641.855 258.917 644.918 256.983 648.8 254.85C653.378 252.331 655.18 251.69 657.27 251.281C660.72 250.607 663.54 250.916 666.791 251.281C671.667 251.822 673.735 252.419 674.598 252.927C676.312 252.85 678.147 253.115 679.751 254.044C681.1 254.828 682.073 255.978 683.422 257.569C685.025 259.459 686.076 260.708 686.485 262.531C687.126 265.416 685.744 268.057 684.871 269.372L684.384 270.091L683.765 269.483C681.376 267.118 678.612 265.416 675.549 264.421C672.441 263.415 669.135 263.239 664.823 263.868C660.388 264.509 658.044 265.526 653.389 267.56C651.564 268.355 649.507 269.251 646.831 270.334C645.427 270.908 644.465 271.284 643.591 271.605C643.149 271.77 640.915 272.599 638.77 273.295C635.287 274.434 631.427 275.086 627.69 275.727L625.788 276.058C622.061 276.71 618.235 277.495 614.42 278.379C614.365 278.39 614.31 278.401 614.254 278.401L614.265 278.368Z" fill="#171717"/>
<path d="M396.08 361.277C398.69 373.644 401.676 385.934 405.059 398.112C408.41 410.302 412.114 422.393 416.272 434.318C420.452 446.198 425.152 458.079 432.704 468.213C440.102 478.402 449.103 487.454 459.354 494.759C464.463 498.439 469.926 501.589 475.598 504.352C481.282 507.081 487.021 509.745 492.904 512.021C498.776 514.309 504.791 516.254 510.84 518.1L529.019 523.526C535.09 525.294 541.15 527.107 547.32 528.345C553.502 529.516 559.794 530.212 566.086 530.334C578.692 530.632 591.309 528.941 603.517 525.792L603.45 525.814C609.599 523.173 615.26 519.382 619.993 514.641C624.66 509.811 629.061 504.694 633.208 499.389C637.354 494.085 641.258 488.581 644.929 482.945C646.776 480.126 648.534 477.264 650.27 474.369C651.132 472.921 651.973 471.462 652.791 469.992L654.008 467.782L654.605 466.666L654.892 466.113L655.036 465.837C655.036 465.837 655.091 465.759 655.147 465.715L655.191 465.549C661.162 453.702 666.005 441.302 669.887 428.604L675.737 409.562L681.365 390.443C689.968 365.367 691.649 337.682 684.118 312.087C682.924 305.544 682.416 298.869 682.681 292.216C682.814 288.889 683.167 285.585 683.499 282.28C683.842 278.976 684.085 275.672 684.262 272.356C684.594 265.725 684.66 259.083 684.295 252.452C684.13 249.137 683.864 245.832 683.444 242.539C683.046 239.245 682.515 235.974 681.807 232.736C679.043 219.75 673.613 207.439 666.78 196.1C663.329 190.442 659.459 185.037 655.224 179.931C653.145 177.345 650.867 174.936 648.622 172.494C646.256 170.173 643.967 167.775 641.435 165.631C631.593 156.745 620.181 149.628 607.929 144.633C604.899 143.284 601.748 142.223 598.607 141.173C595.456 140.157 592.271 139.25 589.02 138.665C582.518 137.582 575.817 137.803 569.348 139.074C562.857 140.3 556.543 142.455 550.04 143.958C543.561 145.506 536.893 146.5 530.191 146.489C526.852 146.511 523.524 146.346 520.217 146.368C516.911 146.368 513.616 146.611 510.353 147.086C503.829 148.103 497.416 149.86 491.323 152.402C479.093 157.441 467.968 164.979 458.16 173.842C448.34 182.705 439.704 192.917 432.605 204.079C429.066 209.66 425.926 215.518 423.515 221.651C422.288 224.724 421.348 227.84 420.596 231.089C419.778 234.316 418.86 237.532 417.831 240.704C413.74 253.403 408.089 265.604 401.001 276.92L401.09 276.401C401.996 280.468 402.428 284.634 402.383 288.801C402.35 292.967 401.797 297.123 400.813 301.179C399.785 305.224 398.325 309.147 396.401 312.849C394.488 316.551 392.166 320.044 389.457 323.205L388.583 324.221L388.262 322.917C386.416 315.457 383.043 308.296 377.945 302.538C376.696 301.079 375.302 299.753 373.854 298.493C372.394 297.266 370.835 296.106 369.243 295.012C366.091 292.824 362.652 290.945 358.937 290.304C357.09 289.994 355.199 290.028 353.386 290.481C351.594 290.978 349.902 291.807 348.387 292.923C345.402 295.222 343.179 298.449 341.531 301.897C340.702 303.621 339.994 305.423 339.43 307.257C338.811 309.092 338.579 310.915 338.601 312.838C338.634 316.662 339.32 320.519 340.05 324.321C341.587 331.935 343.677 339.45 345.866 346.921C346.972 350.657 348.089 354.392 349.25 358.106C350.433 361.808 351.649 365.51 353.308 369.014C356.736 375.965 361.314 382.353 366.478 388.166C371.686 393.957 377.249 399.45 383.364 404.279C383.386 404.301 383.397 404.335 383.364 404.368C383.342 404.39 383.308 404.401 383.275 404.368C377.094 399.604 371.454 394.167 366.169 388.42C360.916 382.651 356.238 376.297 352.689 369.301C350.964 365.764 349.692 362.051 348.487 358.349C347.293 354.635 346.154 350.911 345.026 347.176C342.781 339.705 340.636 332.19 339.032 324.531C338.269 320.696 337.551 316.828 337.484 312.849C337.429 310.882 337.694 308.793 338.325 306.926C338.889 305.025 339.607 303.179 340.448 301.389C342.117 297.819 344.44 294.426 347.635 291.94C349.261 290.735 351.108 289.818 353.076 289.276C355.055 288.768 357.145 288.735 359.136 289.066C363.15 289.751 366.733 291.73 369.961 293.951C371.587 295.056 373.157 296.228 374.694 297.499C376.187 298.792 377.636 300.162 378.929 301.665C384.204 307.6 387.676 314.96 389.589 322.586L388.395 322.309C391.027 319.215 393.283 315.811 395.14 312.197C397.009 308.594 398.414 304.759 399.409 300.825C400.371 296.891 400.924 292.835 400.957 288.779C401.012 284.723 400.603 280.656 399.729 276.688L399.663 276.412L399.818 276.169C406.862 264.963 412.49 252.883 416.571 240.295C417.588 237.146 418.506 233.974 419.335 230.758C420.087 227.542 421.071 224.271 422.321 221.176C424.787 214.943 427.983 209.041 431.554 203.405C438.742 192.155 447.456 181.899 457.375 172.969C467.283 164.05 478.518 156.469 490.902 151.385C497.073 148.821 503.575 147.053 510.199 146.036C513.516 145.55 516.867 145.329 520.206 145.329C523.546 145.318 526.874 145.495 530.18 145.472C536.793 145.495 543.373 144.533 549.808 143.008C556.266 141.538 562.58 139.394 569.171 138.167C575.739 136.896 582.54 136.686 589.164 137.814C592.47 138.422 595.677 139.35 598.85 140.378C602.013 141.439 605.164 142.511 608.216 143.881C620.546 148.954 632.013 156.148 641.877 165.111C644.409 167.277 646.709 169.698 649.087 172.03C651.332 174.494 653.609 176.925 655.699 179.523C659.935 184.662 663.805 190.099 667.266 195.791C674.1 207.207 679.507 219.574 682.25 232.626C682.957 235.875 683.477 239.168 683.864 242.473C684.273 245.777 684.528 249.092 684.693 252.419C685.036 259.061 684.948 265.725 684.605 272.356C684.428 275.672 684.163 278.987 683.82 282.303C683.477 285.607 683.112 288.911 682.968 292.227C682.659 298.847 683.178 305.511 684.395 312.031C684.992 315.292 685.821 318.508 686.618 321.735C687.336 324.984 687.989 328.255 688.387 331.56C689.249 338.157 689.47 344.833 689.15 351.486C688.873 358.139 688.011 364.748 686.872 371.301L686.43 373.755C686.286 374.561 686.142 375.401 685.91 376.208L684.572 381.016L681.818 390.597L676.267 409.739L670.484 428.825C666.647 441.545 661.781 454 655.821 465.892L655.865 465.726C655.821 465.87 655.755 466.025 655.688 466.168L655.534 466.456L655.235 467.019L654.638 468.135L653.421 470.357C652.592 471.827 651.752 473.297 650.889 474.744C649.164 477.651 647.395 480.524 645.548 483.354C641.866 489.023 637.962 494.538 633.816 499.876C629.658 505.214 625.257 510.331 620.557 515.215C615.758 520.034 610.008 523.891 603.771 526.588H603.738L603.705 526.61C591.431 529.804 578.736 531.517 566.03 531.229C559.683 531.108 553.347 530.422 547.099 529.251C540.851 528.013 534.781 526.201 528.71 524.443L510.519 519.039C504.46 517.194 498.422 515.26 492.506 512.961C486.579 510.673 480.829 508.01 475.112 505.28C469.406 502.517 463.866 499.323 458.702 495.621C448.385 488.194 439.35 479.032 431.952 468.721C428.215 463.593 425.063 458.023 422.454 452.243C419.844 446.463 417.632 440.518 415.565 434.539C411.462 422.57 407.802 410.446 404.518 398.234C401.267 386.011 398.414 373.677 395.937 361.277C395.937 361.244 395.948 361.211 395.981 361.2C396.014 361.2 396.047 361.211 396.058 361.244L396.08 361.277Z" fill="#171717"/>
<path d="M546.071 369.809C545.706 374.362 546.823 379.225 549.964 382.574C551.49 384.276 553.314 385.801 555.515 386.077C556.609 386.232 557.66 386.044 558.677 385.58C559.695 385.116 560.723 384.497 561.84 384.044C566.329 382.176 571.493 382.518 575.917 384.32C580.384 386.088 584.232 389.536 586.355 393.913C586.532 394.277 586.377 394.708 586.024 394.885C585.67 395.062 585.238 394.907 585.062 394.554C583.16 390.465 579.654 387.204 575.463 385.469C571.294 383.701 566.451 383.314 562.227 384.994C561.165 385.403 560.181 385.978 559.064 386.475C557.958 386.983 556.62 387.204 555.393 386.994C554.155 386.818 552.993 386.287 552.009 385.591C551.014 384.884 550.174 384.022 549.389 383.137C547.785 381.347 546.668 379.159 546.071 376.86C545.452 374.561 545.308 372.163 545.529 369.809C545.54 369.654 545.684 369.544 545.839 369.555C545.994 369.566 546.104 369.71 546.093 369.853L546.071 369.809Z" fill="#171717"/>
<path d="M596.429 393.758C599.293 391.603 601.991 389.238 604.479 386.63C605.718 385.348 607.1 383.922 608.958 383.292C610.771 382.64 612.761 382.751 614.531 383.303C614.708 383.359 614.807 383.546 614.752 383.723C614.697 383.9 614.52 383.988 614.343 383.944C612.651 383.48 610.837 383.469 609.245 384.099C607.642 384.707 606.436 386.011 605.242 387.348C602.82 390.067 600.144 392.587 597.313 394.885C597.004 395.14 596.551 395.084 596.307 394.775C596.053 394.465 596.108 394.012 596.418 393.769C596.418 393.769 596.429 393.758 596.44 393.758H596.429Z" fill="#171717"/>
<path d="M619.451 379.689C619.363 379.689 619.274 379.678 619.186 379.634C618.821 379.49 618.633 379.071 618.777 378.706C619.628 376.551 620.004 374.296 619.894 372.031C619.661 367.4 617.417 364.04 616.101 362.449C615.846 362.139 615.891 361.686 616.2 361.432C616.51 361.178 616.963 361.222 617.218 361.532C618.644 363.256 621.088 366.914 621.342 371.953C621.464 374.429 621.055 376.882 620.126 379.225C620.015 379.513 619.739 379.678 619.462 379.678L619.451 379.689Z" fill="#171717"/>
<path d="M397.993 456.564L388.141 456.31L387.931 456.089C383.22 451.116 379.814 445.06 378.1 438.572C375.38 428.294 377.613 419.84 378.564 416.226C380.522 408.821 384.315 401.837 389.545 396.046L389.578 396.013C390.938 394.697 392.951 394.366 394.587 395.184C395.992 395.88 396.899 397.328 396.965 398.941V399.218L396.788 399.428C393.581 403.185 389.39 409.462 387.632 418.061C387.013 421.122 385.354 429.267 388.76 438.484C389.468 440.396 390.341 442.241 391.37 443.988C394.676 435.82 395.749 427.233 394.466 419.077C393.968 415.928 393.128 412.811 391.945 409.805L391.535 408.766L392.652 408.832C393.404 408.877 394.156 408.877 394.897 408.832C396.921 408.722 398.922 408.302 400.857 407.595L401.488 407.363L401.764 407.97C405.336 415.905 410.334 431.544 403.633 447.159C402.251 450.387 400.415 453.448 398.181 456.277L397.96 456.564H397.993ZM388.782 454.896L397.308 455.117C399.365 452.475 401.056 449.613 402.339 446.607C408.664 431.886 404.197 417.066 400.747 409.175C398.878 409.794 396.943 410.17 395.008 410.28C394.576 410.302 394.123 410.313 393.692 410.313C394.709 413.098 395.45 415.972 395.914 418.867C397.275 427.532 396.069 436.649 392.42 445.281L396.589 450.762L395.505 451.702C391.9 448.01 389.18 443.745 387.433 439.003C383.883 429.4 385.597 420.967 386.239 417.795C388.008 409.065 392.221 402.655 395.516 398.742C395.395 397.759 394.809 396.908 393.957 396.488C392.873 395.946 391.524 396.167 390.607 397.04C385.542 402.666 381.86 409.429 379.958 416.613C379.029 420.116 376.862 428.316 379.493 438.23C381.13 444.397 384.337 450.154 388.771 454.918L388.782 454.896Z" fill="#171717"/>
<path d="M554.22 275.926C554.22 275.926 554.187 275.926 554.176 275.926C548.183 275.517 542.079 274.942 536.052 274.202C528.433 273.262 523.855 272.444 519.012 271.56C515.882 270.997 512.653 270.411 508.385 269.759C494.739 267.659 484.898 266.145 472.624 266.532C463.125 266.83 453.471 268.267 443.928 270.809L441.352 271.494L443.242 269.604C452.133 260.697 462.671 254.397 473.696 251.391C479.137 249.91 489.94 250.275 511.459 251.015C521.843 251.369 530.003 253.834 537.191 256L538.916 256.519C541.017 257.149 542.709 257.602 543.892 257.867C543.14 257.105 542.521 256.21 542.023 255.193L541.36 253.834L542.831 254.176C546.513 255.049 549.565 256.585 551.887 258.774C552.119 258.984 552.363 259.227 552.628 259.492C553.999 260.851 555.89 262.708 558.843 264.089C560.28 264.753 560.568 264.576 560.59 264.554C560.722 264.443 560.855 263.935 560.192 261.802C559.97 261.083 559.749 260.409 560.446 260.144L560.778 260.022L561.12 260.221C561.718 260.586 563.365 263.25 563.741 266.554C564.062 269.427 563.365 272.422 561.718 275.229C561.519 275.572 561.076 275.683 560.733 275.484C560.391 275.285 560.28 274.843 560.479 274.5C561.972 271.958 562.602 269.273 562.315 266.709C562.248 266.101 562.127 265.526 561.983 264.996C561.883 265.261 561.729 265.482 561.508 265.67C560.545 266.466 558.986 265.736 558.234 265.394C555.05 263.913 552.982 261.868 551.611 260.52C551.356 260.266 551.113 260.034 550.892 259.824C549.123 258.166 546.878 256.895 544.213 256.055C544.611 256.585 545.064 257.05 545.562 257.47C545.706 257.591 545.849 257.702 545.971 257.79C546.391 258.111 546.856 258.475 546.646 259.061C546.402 259.724 546.225 260.21 538.507 257.901L536.771 257.381C529.661 255.237 521.61 252.817 511.448 252.463C490.04 251.723 479.314 251.358 474.072 252.784C464.076 255.513 454.488 261.017 446.195 268.753C454.986 266.598 463.843 265.371 472.579 265.095C484.975 264.708 494.883 266.222 508.584 268.333C512.886 268.996 516.126 269.582 519.255 270.146C524.076 271.019 528.632 271.848 536.218 272.776C542.222 273.516 548.293 274.091 554.265 274.489C554.663 274.511 554.961 274.854 554.928 275.252C554.906 275.627 554.585 275.926 554.209 275.926H554.22Z" fill="#171717"/>
<path d="M618.357 290.039C619.739 288.248 621.365 286.646 623.123 285.198C624.903 283.772 626.849 282.557 628.906 281.529C630.974 280.523 633.163 279.772 635.419 279.285C637.675 278.799 639.997 278.611 642.297 278.644C644.597 278.722 646.842 278.921 649.12 279.241C651.376 279.595 653.621 280.092 655.788 280.788C657.955 281.485 660.078 282.325 662.135 283.286C664.17 284.303 666.149 285.408 668.007 286.69C665.983 285.684 663.949 284.712 661.848 283.927C659.769 283.098 657.646 282.391 655.478 281.838C651.166 280.711 646.709 280.181 642.264 280.059C637.841 279.926 633.451 280.811 629.359 282.513C627.325 283.375 625.368 284.458 623.532 285.74C621.663 286.977 619.971 288.458 618.346 290.017L618.357 290.039Z" fill="#171717"/>
<path d="M537.755 291.973C535.311 289.685 532.702 287.585 529.871 285.861C527.073 284.082 524.066 282.656 520.947 281.562C517.796 280.567 514.6 279.761 511.316 279.396C508.031 279.075 504.725 279.098 501.452 279.473C494.884 280.125 488.492 282.17 482.565 285.11C479.601 286.579 476.76 288.326 474.128 290.337C471.452 292.304 468.986 294.57 466.664 296.979C468.742 294.36 471.131 291.973 473.685 289.784C476.273 287.629 479.093 285.751 482.056 284.126C487.994 280.921 494.563 278.821 501.308 278.048C504.681 277.705 508.098 277.727 511.471 278.103C514.832 278.545 518.161 279.341 521.334 280.534C524.486 281.772 527.505 283.352 530.269 285.275C533.011 287.231 535.555 289.453 537.766 291.973H537.755Z" fill="#171717"/>
<path d="M473.453 297.697C474.946 296.04 476.605 294.526 478.396 293.188C479.292 292.525 480.221 291.895 481.194 291.332L484.157 289.773L484.047 291.022C481.326 289.155 479.148 286.524 477.821 283.507L475.554 278.368L479.037 282.778C480.209 284.259 481.592 285.563 483.162 286.58C483.947 287.088 484.776 287.53 485.639 287.895C486.501 288.27 487.43 288.436 488.315 288.724L487.95 288.746L491.677 287.585L491.61 288.934C489.686 288.116 487.906 286.933 486.402 285.485C484.898 284.027 483.66 282.314 482.72 280.457L483.936 279.705C485.562 281.86 487.331 283.949 489.498 285.43C490.571 286.16 491.754 286.734 492.97 286.933C494.187 287.165 495.414 286.867 496.796 286.58C499.55 285.994 502.392 285.817 505.178 285.905C507.998 285.95 510.829 286.591 513.472 287.464C518.758 289.276 523.8 291.652 528.544 294.581C530.921 296.04 533.144 297.664 535.466 299.079C537.777 300.516 540.232 301.698 542.72 302.803H542.742L545.573 304.118L542.488 304.185L534.681 304.362C532.071 304.395 529.473 304.638 526.874 304.77C521.666 305.08 516.469 305.5 511.271 305.854C508.662 306.008 506.074 306.262 503.431 306.285C500.81 306.285 498.19 306.141 495.58 305.831C492.97 305.511 490.35 305.025 487.862 303.997C485.396 302.969 483.096 301.588 481.017 299.886C480.707 299.631 480.663 299.178 480.917 298.869C481.172 298.559 481.625 298.515 481.935 298.769C481.935 298.769 481.957 298.792 481.968 298.792C483.836 300.505 485.971 301.963 488.282 303.046C490.593 304.085 493.136 304.649 495.691 305.036C498.256 305.389 500.855 305.533 503.442 305.577C506.019 305.577 508.628 305.367 511.227 305.168C516.424 304.748 521.633 304.373 526.83 303.897C532.027 303.389 537.235 303.102 542.455 302.726L542.189 304.107H542.167C539.624 302.969 537.103 301.753 534.725 300.284C532.337 298.836 530.114 297.211 527.792 295.786C523.17 292.923 518.172 290.58 513.03 288.812C510.442 287.961 507.843 287.375 505.134 287.32C502.425 287.232 499.727 287.397 497.084 287.961C496.42 288.094 495.735 288.248 495.005 288.348C494.264 288.447 493.479 288.447 492.738 288.326C491.234 288.083 489.874 287.408 488.68 286.591C486.28 284.944 484.456 282.756 482.775 280.523L483.991 279.772C485.716 283.231 488.614 286.082 492.163 287.574L493.977 288.337L492.097 288.922L488.37 290.083L488.16 290.149L488.005 290.105C487.032 289.796 486.015 289.608 485.075 289.199C484.124 288.812 483.217 288.326 482.366 287.762C480.652 286.646 479.148 285.231 477.898 283.64L479.115 282.899C480.331 285.673 482.344 288.094 484.843 289.807L485.827 290.481L484.743 291.055L481.901 292.547C480.984 293.089 480.088 293.686 479.236 294.316C477.522 295.587 475.93 297.034 474.504 298.626C474.238 298.924 473.785 298.946 473.486 298.681C473.188 298.416 473.166 297.963 473.431 297.664L473.453 297.697Z" fill="#171717"/>
<path d="M517.828 429.024C522.075 431.455 526.564 433.467 531.286 434.726C533.641 435.334 536.052 435.787 538.473 435.898C540.906 436.13 543.306 435.798 545.772 435.544C550.682 434.981 555.613 434.483 560.523 434.019C565.444 433.555 570.365 433.058 575.319 432.781C577.785 432.638 580.317 432.649 582.783 432.903C585.26 433.102 587.715 433.533 590.136 433.71C592.558 433.898 594.98 433.511 597.335 432.848C599.679 432.196 601.957 431.113 604.49 430.77C609.554 429.842 614.563 432.295 619.075 432.881C621.43 432.815 623.786 432.041 626.019 431.091C628.264 430.14 630.432 429.002 632.555 427.775C632.898 427.576 633.34 427.698 633.539 428.04C633.738 428.383 633.616 428.825 633.274 429.024C633.274 429.024 633.251 429.024 633.251 429.035C631.051 430.195 628.795 431.289 626.451 432.174C624.106 433.036 621.674 433.842 619.075 433.864C618.423 433.853 617.77 433.798 617.118 433.621C616.443 433.422 615.946 433.212 615.337 433.036C614.165 432.671 612.982 432.35 611.788 432.074C610.594 431.82 609.388 431.522 608.205 431.433C607.011 431.345 605.783 431.389 604.589 431.544C602.201 431.853 599.945 432.892 597.523 433.555C595.135 434.24 592.591 434.66 590.081 434.483C587.571 434.318 585.149 433.898 582.694 433.721C580.239 433.478 577.818 433.478 575.352 433.643C570.442 433.942 565.521 434.472 560.612 434.959C555.691 435.445 550.792 435.975 545.882 436.561C540.995 437.335 535.809 437.092 530.976 435.865C526.111 434.649 521.477 432.66 517.109 430.262C516.767 430.074 516.634 429.632 516.822 429.289C517.01 428.946 517.452 428.814 517.795 429.002L517.828 429.024Z" fill="#171717"/>
<path d="M536.472 430.726C540.298 430.372 544.102 429.853 547.818 428.957C551.544 428.095 555.193 426.935 558.666 425.399C560.402 424.636 562.094 423.774 563.774 422.868C565.455 421.962 567.114 420.978 568.883 420.138C570.652 419.287 572.577 418.624 574.578 418.403C576.568 418.171 578.592 418.282 580.538 418.746C582.496 419.221 584.254 420.017 586.034 420.392C587.814 420.79 589.694 420.779 591.519 420.514C592.437 420.381 593.31 420.149 594.151 419.818C594.991 419.475 595.809 419.011 596.727 418.591C598.585 417.718 600.664 417.497 602.621 417.607C604.611 417.707 606.547 418.226 608.371 418.878C610.196 419.541 611.965 420.315 613.712 421.1C617.218 422.68 620.69 424.382 623.952 426.415C620.524 424.669 617.03 423.111 613.436 421.752C609.886 420.359 606.292 418.779 602.577 418.701C600.719 418.679 598.872 418.934 597.236 419.707C596.407 420.094 595.555 420.591 594.626 420.978C593.686 421.365 592.702 421.641 591.718 421.785C589.75 422.083 587.726 422.127 585.747 421.707C583.767 421.299 581.987 420.514 580.196 420.105C578.415 419.663 576.546 419.541 574.722 419.729C572.897 419.917 571.128 420.492 569.425 421.288C566.041 422.901 562.713 425.023 559.075 426.393C555.47 427.841 551.732 428.902 547.939 429.62C544.135 430.295 540.287 430.67 536.45 430.704L536.472 430.726Z" fill="#171717"/>
<path d="M543.925 447.933C547.01 449.093 550.107 450.199 553.258 451.094C556.398 452.033 559.572 452.84 562.79 453.47C566.008 454.067 569.226 454.63 572.477 454.962C575.717 455.304 579.012 455.47 582.274 455.581C585.536 455.713 588.798 455.658 592.016 455.271C595.245 454.896 598.419 454.155 601.515 453.171C604.622 452.199 607.63 450.895 610.494 449.337C613.391 447.822 616.123 445.977 618.732 443.977C616.333 446.231 613.657 448.198 610.848 449.944C608.006 451.646 604.998 453.094 601.869 454.21C595.61 456.52 588.832 457.216 582.219 457.006C575.628 456.697 568.994 456.1 562.547 454.531C559.329 453.768 556.155 452.84 553.037 451.746C549.93 450.619 546.878 449.381 543.914 447.922L543.925 447.933Z" fill="#171717"/>
<g opacity="0.06">
<path d="M486.324 321.746C488.669 322.221 491.013 322.685 493.379 322.95C495.735 323.271 498.101 323.492 500.467 323.58C505.2 323.746 509.955 323.569 514.633 322.862C519.321 322.221 523.921 321.06 528.422 319.58C530.667 318.828 532.878 317.955 535.057 316.982C537.246 316.054 539.369 314.96 541.481 313.844C539.535 315.236 537.467 316.463 535.355 317.612C533.221 318.729 531.032 319.723 528.798 320.607C524.308 322.365 519.609 323.591 514.832 324.276C510.055 324.962 505.2 325.116 500.401 324.674C498.001 324.453 495.613 324.111 493.258 323.647C490.913 323.138 488.58 322.541 486.324 321.746V321.746Z" fill="#171717"/>
</g>
<g opacity="0.06">
<path d="M623.863 313.026C630.288 316.518 637.166 318.972 644.309 319.944C651.442 320.972 658.729 320.519 665.873 318.961C662.456 320.276 658.851 321.16 655.179 321.547C651.508 321.956 647.782 321.878 644.11 321.37C636.779 320.342 629.68 317.491 623.863 313.037V313.026Z" fill="#171717"/>
</g>
<path d="M638.006 305.776C634.656 305.776 631.382 304.472 629.105 302.527C625.765 299.676 624.858 295.841 624.615 293.807C624.571 293.409 624.847 293.056 625.245 293.011C625.643 292.967 625.997 293.244 626.042 293.641C626.263 295.465 627.07 298.902 630.044 301.444C633.572 304.461 639.775 305.765 644.32 302.24C648.456 299.024 649.672 293.011 647.151 288.259C646.963 287.906 647.096 287.475 647.45 287.287C647.804 287.099 648.235 287.231 648.423 287.585C651.265 292.945 649.882 299.742 645.205 303.378C643.015 305.08 640.494 305.798 638.017 305.798L638.006 305.776Z" fill="#171717"/>
<path d="M498.499 305.809C496.122 305.809 493.645 305.113 491.356 303.754C487.308 301.355 484.511 297.244 483.681 292.492C483.615 292.105 483.869 291.73 484.267 291.663C484.654 291.597 485.03 291.851 485.097 292.249C485.86 296.592 488.403 300.339 492.096 302.527C495.226 304.384 498.731 304.87 501.695 303.864C506.903 302.107 510.254 295.929 509.513 289.508C509.469 289.11 509.745 288.757 510.143 288.712C510.541 288.668 510.895 288.944 510.939 289.342C511.758 296.426 507.987 303.245 502.159 305.224C500.998 305.621 499.771 305.809 498.51 305.809H498.499Z" fill="#171717"/>
<path d="M669.29 477.596C669.29 469.428 670.506 461.25 673.149 453.503C674.409 449.613 676.212 445.9 678.313 442.385C680.425 438.871 682.913 435.622 685.434 432.439C687.955 429.245 690.477 426.084 692.744 422.735C694.999 419.387 696.968 415.85 698.715 412.214C702.088 404.876 704.73 397.162 706.157 389.227C707.605 381.292 707.738 373.114 706.489 365.156C705.847 361.178 704.797 357.277 703.647 353.387C702.486 349.507 701.236 345.65 699.964 341.793C698.693 337.936 697.432 334.079 696.116 330.244L692.036 318.762C690.654 314.905 689.891 310.805 689.537 306.727C689.172 302.604 689.537 298.504 689.891 294.459C690.62 286.369 691.184 278.28 691.737 270.179C692.003 266.134 692.268 262.078 692.401 258.033C692.533 253.988 692.511 249.954 691.892 245.987C690.632 237.997 689.039 230.017 687.557 222.038L683.024 198.133L682.46 195.149C682.261 194.155 681.94 193.204 681.686 192.221C681.122 190.287 680.525 188.353 679.839 186.452C678.49 182.65 676.931 178.915 675.161 175.29C671.645 168.007 667.266 161.188 662.666 154.502C661.538 152.811 660.355 151.219 659.083 149.617L655.346 144.798L647.959 135.095L633.351 115.578L633.451 115.688C618.987 103.322 604.225 91.2864 588.832 80.1353C584.973 77.3613 581.069 74.6426 577.088 72.0676C573.096 69.5036 569.038 67.0502 564.714 65.2266C560.413 63.4142 555.735 62.519 551.091 62.9279C546.458 63.3037 541.968 64.9062 537.987 67.3375L537.744 67.4812L537.468 67.4259L517.298 63.2374H517.442L516.38 63.0384L515.473 62.8837C514.865 62.7842 514.246 62.7069 513.627 62.6295C512.388 62.4748 511.15 62.3753 509.9 62.2759C507.401 62.099 504.902 62.0217 502.392 62.0106C497.382 62.2096 492.362 62.2206 487.386 62.95C477.434 64.1215 467.559 66.2766 458.027 69.4373C448.473 72.5428 439.173 76.4109 430.172 80.9089C421.193 85.4069 412.446 90.4685 404.285 96.2817L404.341 96.2375C399.962 100.271 395.682 104.427 391.513 108.671C387.389 112.97 383.308 117.313 379.438 121.833C371.631 130.829 364.344 140.278 357.687 150.158C351.03 160.027 344.959 170.305 339.563 180.926C338.258 183.601 336.843 186.231 335.637 188.949C334.41 191.668 333.138 194.354 331.944 197.083C329.556 202.554 327.167 208.025 324.922 213.539C322.666 219.054 320.532 224.613 318.641 230.26C316.773 235.908 315.169 241.644 313.92 247.446C311.343 259.05 310.514 270.997 311.144 282.866C311.476 288.801 312.007 294.758 312.427 300.714C312.858 306.671 313.245 312.628 313.555 318.596C314.185 330.521 314.594 342.468 314.904 354.392C315.18 366.295 316.728 378.131 318.741 389.879C320.776 401.616 323.352 413.275 326.371 424.802C327.886 430.56 329.533 436.285 331.446 441.921C333.348 447.546 335.549 453.16 336.865 459.04C338.214 464.897 339.154 470.81 339.851 476.756C340.547 482.713 340.658 488.703 341.388 494.593C342.084 500.495 343.356 506.308 344.694 512.11C346.032 517.912 347.602 523.659 349.438 529.317C351.284 534.976 353.385 540.546 355.774 545.994C356.968 548.724 358.284 551.376 359.589 554.073C360.894 556.78 362.033 559.577 363.028 562.406C365.074 568.053 366.412 573.91 368.789 579.304C371.211 584.675 374.429 589.736 378.299 594.179C382.18 598.622 386.969 602.236 392.188 604.977C397.418 607.717 403.091 609.607 408.908 610.723L408.277 611.585C404.285 604.313 401.123 596.533 399.265 588.41C398.325 584.354 397.739 580.221 397.496 576.066C397.241 571.91 397.374 567.744 397.684 563.61C397.971 559.477 398.447 555.377 398.436 551.288C398.458 549.243 398.292 547.21 398.015 545.198C397.662 543.198 397.241 541.209 396.545 539.297C395.218 535.451 393.238 531.848 390.994 528.411C388.76 524.974 386.305 521.647 383.751 518.431C381.185 515.215 378.388 512.187 375.689 509.049C372.969 505.921 370.393 502.661 367.971 499.29C363.15 492.548 358.782 485.498 354.812 478.226C346.861 463.693 340.669 448.209 336.146 432.295C334.996 428.316 334.045 424.249 333.459 420.127C332.873 416.005 332.619 411.85 332.597 407.705C332.585 399.405 333.536 391.095 335.604 383.038C336.135 381.027 336.743 379.026 337.484 377.081C338.247 375.136 339.054 373.191 340.403 371.445C340.735 371.014 341.155 370.605 341.697 370.273C341.852 370.207 342.007 370.13 342.173 370.074C342.361 370.041 342.549 370.019 342.748 370.019C343.157 370.041 343.544 370.273 343.765 370.528C344.241 371.047 344.417 371.577 344.605 372.097C344.782 372.616 344.904 373.125 345.026 373.644C345.479 375.689 345.811 377.722 346.187 379.756C346.917 383.812 347.757 387.845 348.763 391.835C349.77 395.836 350.875 399.781 352.357 403.616C355.31 411.297 358.693 418.845 361.966 426.427L371.908 449.127C375.236 456.686 378.553 464.256 382.048 471.727C382.932 473.584 383.817 475.452 384.812 477.22C385.852 478.933 387.068 480.646 388.229 482.326C390.607 485.685 393.15 488.935 395.594 492.283C398.049 495.621 400.304 499.146 402.195 502.849C404.097 506.551 405.701 510.386 407.094 514.298C408.487 518.21 409.682 522.189 410.588 526.245C410.81 527.262 411.009 528.278 411.174 529.317C411.252 529.837 411.318 530.356 411.362 530.898C411.385 531.163 411.396 531.439 411.385 531.726C411.385 531.87 411.374 532.025 411.351 532.18C411.274 532.356 411.385 532.522 410.953 532.887C410.71 533.053 410.334 532.953 410.235 532.854C410.124 532.776 410.035 532.688 409.991 532.622C409.87 532.478 409.803 532.356 409.726 532.235C409.582 531.992 409.46 531.749 409.35 531.505C409.129 531.019 408.93 530.533 408.731 530.058C408.344 529.085 407.99 528.124 407.625 527.151C404.816 519.382 401.996 511.624 398.889 503.976C395.804 496.317 392.509 488.758 389.003 481.287C385.498 473.816 381.749 466.467 377.857 459.184C375.922 455.537 373.953 451.901 372.118 448.176C370.282 444.463 368.634 440.628 367.451 436.627C365.074 428.637 364.2 420.282 364.3 411.993C364.355 407.838 364.709 403.705 365.206 399.593C365.428 397.549 365.77 395.471 365.804 393.493C365.804 393.25 365.781 393.018 365.748 392.808C365.715 392.598 365.616 392.454 365.616 392.454C365.649 392.454 365.538 392.432 365.372 392.531C365.206 392.62 365.019 392.752 364.853 392.907C364.156 393.548 363.537 394.377 362.973 395.206C360.717 398.588 358.948 402.334 357.322 406.103C355.719 409.893 354.303 413.761 353.065 417.685C350.588 425.531 348.763 433.599 347.669 441.755C345.413 458.078 346.507 474.777 350.444 490.769C352.368 498.782 355 506.606 357.753 514.386C360.518 522.156 363.78 529.737 367.473 537.098C374.893 551.818 384.071 565.644 394.72 578.243C394.886 578.431 394.853 578.718 394.665 578.873C394.477 579.038 394.189 579.005 394.035 578.817C383.342 566.174 374.108 552.293 366.655 537.506C362.94 530.113 359.655 522.487 356.88 514.696C354.115 506.905 351.472 499.047 349.537 490.99C345.579 474.91 344.451 458.067 346.729 441.634C347.834 433.422 349.67 425.31 352.158 417.397C353.408 413.441 354.823 409.551 356.437 405.727C358.074 401.914 359.843 398.157 362.177 394.653C362.774 393.791 363.393 392.929 364.222 392.178C364.432 391.99 364.665 391.813 364.952 391.658C365.218 391.526 365.693 391.338 366.168 391.647C366.589 391.957 366.655 392.343 366.721 392.631C366.777 392.929 366.788 393.217 366.788 393.482C366.755 395.637 366.401 397.648 366.18 399.704C365.682 403.793 365.339 407.893 365.284 412.004C365.184 420.205 366.069 428.482 368.402 436.34C369.574 440.263 371.2 444.043 373.013 447.734C374.827 451.425 376.795 455.061 378.741 458.708C382.634 465.991 386.405 473.363 389.921 480.856C393.437 488.338 396.744 495.919 399.84 503.589C402.947 511.248 405.778 519.028 408.587 526.786C408.941 527.748 409.306 528.72 409.682 529.671C409.87 530.146 410.069 530.621 410.279 531.074C410.378 531.307 410.489 531.516 410.61 531.715C410.666 531.815 410.732 531.903 410.776 531.97C410.81 532.003 410.821 532.014 410.81 532.003C410.81 531.97 410.588 531.925 410.445 532.003C410.29 532.124 410.334 532.102 410.323 532.113L410.345 532.014C410.345 531.914 410.367 531.815 410.367 531.693C410.367 531.461 410.367 531.218 410.345 530.975C410.301 530.478 410.246 529.98 410.168 529.472C410.013 528.466 409.814 527.461 409.593 526.466C408.697 522.465 407.514 518.52 406.132 514.641C403.39 506.882 399.718 499.478 394.764 492.891C392.332 489.576 389.777 486.315 387.389 482.934C386.206 481.221 385.022 479.563 383.917 477.75C382.888 475.916 382.004 474.048 381.108 472.18C377.602 464.687 374.285 457.117 370.957 449.558L361.004 426.858C357.72 419.276 354.348 411.739 351.362 404.003C349.869 400.124 348.741 396.112 347.724 392.1C346.706 388.089 345.866 384.022 345.125 379.955C344.749 377.921 344.417 375.877 343.975 373.898C343.854 373.412 343.743 372.915 343.577 372.451C343.422 371.997 343.234 371.533 342.991 371.29C342.77 371.058 342.593 371.047 342.228 371.235C341.896 371.445 341.542 371.743 341.255 372.141C340.061 373.677 339.242 375.589 338.513 377.479C337.783 379.38 337.197 381.347 336.666 383.325C334.631 391.271 333.68 399.505 333.702 407.716C333.724 411.816 333.979 415.928 334.554 419.995C335.129 424.062 336.058 428.051 337.208 432.008C341.719 447.867 347.879 463.251 355.796 477.706C359.744 484.934 364.09 491.963 368.878 498.649C371.288 501.987 373.832 505.214 376.541 508.319C379.228 511.436 382.037 514.486 384.635 517.735C387.223 520.984 389.678 524.322 391.956 527.803C394.223 531.273 396.268 534.965 397.64 538.932C398.369 540.899 398.812 542.966 399.166 545.033C399.453 547.11 399.63 549.21 399.597 551.288C399.597 555.465 399.132 559.588 398.845 563.688C398.546 567.788 398.414 571.899 398.668 575.988C398.911 580.077 399.497 584.144 400.415 588.145C402.24 596.146 405.358 603.816 409.317 611.011L409.925 612.116L408.686 611.873C402.77 610.734 396.987 608.823 391.635 606.015C386.294 603.208 381.384 599.517 377.403 594.953C373.434 590.4 370.183 585.272 367.683 579.768C365.24 574.22 363.902 568.363 361.878 562.793C360.894 559.985 359.777 557.256 358.483 554.581C357.189 551.907 355.851 549.221 354.646 546.469C352.235 540.977 350.123 535.373 348.255 529.682C346.397 523.99 344.827 518.21 343.466 512.375C342.128 506.562 340.835 500.694 340.127 494.726C339.386 488.758 339.276 482.779 338.579 476.888C337.882 470.987 336.942 465.096 335.604 459.316C334.299 453.525 332.132 447.988 330.208 442.319C328.284 436.649 326.625 430.892 325.099 425.112C322.069 413.54 319.482 401.87 317.436 390.089C315.412 378.308 313.853 366.405 313.566 354.425C313.256 342.49 312.836 330.565 312.206 318.651C311.885 312.694 311.509 306.738 311.078 300.792C310.657 294.846 310.116 288.9 309.784 282.921C309.131 270.952 309.972 258.873 312.571 247.158C313.831 241.301 315.446 235.521 317.325 229.829C319.227 224.149 321.373 218.557 323.628 213.02C325.884 207.483 328.273 202.001 330.661 196.531C331.856 193.79 333.138 191.082 334.366 188.364C335.582 185.623 336.998 182.993 338.302 180.296C343.721 169.631 349.803 159.298 356.493 149.374C363.172 139.438 370.492 129.945 378.332 120.905C382.214 116.351 386.316 111.997 390.463 107.676C394.654 103.399 398.944 99.2325 403.345 95.1765L403.379 95.1544L403.401 95.1323C411.672 89.2308 420.441 84.1581 429.486 79.6269C438.532 75.1068 447.898 71.2056 457.529 68.0669C467.139 64.873 477.091 62.6958 487.154 61.5133C492.174 60.7728 497.261 60.7618 502.325 60.5629C504.858 60.5629 507.401 60.6513 509.933 60.8281C511.205 60.9165 512.465 61.027 513.737 61.1818C514.367 61.2591 515.009 61.3475 515.639 61.447L516.59 61.6128L517.066 61.7122L517.309 61.7675L517.43 61.8006H517.497C517.497 61.8006 517.419 61.8006 517.386 61.8006H517.53L537.7 66.0003L537.18 66.0887C541.327 63.5689 546.037 61.878 550.914 61.4912C555.791 61.0712 560.734 62.0217 565.19 63.9005C569.646 65.7903 573.771 68.288 577.785 70.863C581.799 73.4601 585.702 76.1899 589.584 78.9749C605.021 90.1812 619.794 102.25 634.269 114.638L634.324 114.683L634.369 114.749L648.954 134.266L656.33 143.958L660.056 148.777C661.317 150.368 662.544 152.037 663.683 153.728C668.294 160.425 672.707 167.321 676.256 174.682C678.036 178.351 679.629 182.131 680.978 185.988C681.675 187.911 682.283 189.867 682.847 191.823C683.101 192.807 683.433 193.779 683.632 194.785L684.207 197.791L688.741 221.773C690.211 229.763 691.793 237.72 693.064 245.777C693.695 249.844 693.717 253.977 693.573 258.044C693.429 262.122 693.164 266.178 692.898 270.234C692.334 278.335 691.77 286.447 691.03 294.537C690.687 298.582 690.322 302.604 690.676 306.594C691.03 310.606 691.759 314.551 693.108 318.353L697.178 329.836C698.505 333.681 699.754 337.55 701.026 341.407C702.287 345.264 703.547 349.132 704.708 353.044C705.858 356.945 706.909 360.902 707.561 364.958C708.811 373.058 708.656 381.347 707.174 389.393C705.704 397.449 703.016 405.219 699.588 412.623C697.808 416.303 695.807 419.873 693.518 423.266C691.218 426.648 688.674 429.831 686.142 433.013C683.621 436.196 681.155 439.401 679.065 442.849C676.997 446.297 675.206 449.933 673.956 453.779C671.324 461.405 670.097 469.506 670.086 477.585C670.086 477.817 669.898 478.005 669.666 478.005C669.433 478.005 669.245 477.817 669.245 477.585L669.29 477.596Z" fill="#171717"/>
<path d="M631.472 693.765C631.472 693.765 631.417 693.765 631.383 693.765C630.985 693.721 630.709 693.356 630.764 692.958C633.529 670.711 633.02 637.391 614.863 605.021C609.898 596.168 603.838 587.835 596.849 580.254L575.706 579.06L565.588 620.88L565.013 617.376C563.078 605.562 562.691 593.571 563.852 581.735C565.577 564.152 570.653 547.188 578.935 531.306C579.123 530.953 579.555 530.82 579.908 530.997C580.262 531.185 580.395 531.616 580.218 531.969C572.024 547.685 567.004 564.472 565.301 581.868C564.273 592.367 564.472 602.998 565.909 613.519L574.612 577.557L597.535 578.85L597.734 579.06C604.877 586.786 611.07 595.273 616.145 604.313C634.491 637.026 635.01 670.667 632.213 693.135C632.168 693.5 631.859 693.765 631.505 693.765H631.472Z" fill="#171717"/>
<path d="M330.219 589.46C329.357 589.46 328.527 589.46 327.742 589.438C327.344 589.438 327.023 589.106 327.023 588.709C327.023 588.311 327.333 588.012 327.742 588.001C347.072 588.333 393.648 585.448 409.295 552.658C416.14 538.313 415.675 515.923 415.133 489.984C414.901 478.601 414.171 467.13 412.977 455.879C412.933 455.481 413.22 455.128 413.618 455.084C414.017 455.05 414.37 455.327 414.415 455.724C415.62 467.019 416.35 478.535 416.582 489.951C417.124 516.066 417.588 538.623 410.6 553.266C395.24 585.459 351.052 589.449 330.219 589.449V589.46Z" fill="#171717"/>
<path d="M733.614 664.677C733.326 664.677 733.061 664.5 732.95 664.224C728.981 654.311 723.794 644.972 717.525 636.474C694.358 605.054 662.765 593.637 652.382 589.891C635.308 583.724 617.229 580.685 598.64 580.939C598.253 580.939 597.921 580.63 597.91 580.232C597.899 579.834 598.22 579.513 598.618 579.502C617.372 579.292 635.629 582.31 652.869 588.543C663.352 592.322 695.254 603.849 718.675 635.623C725.011 644.221 730.263 653.67 734.277 663.694C734.421 664.058 734.244 664.478 733.879 664.622C733.791 664.655 733.702 664.677 733.614 664.677V664.677Z" fill="#171717"/>
<path d="M290.51 591.748C286.629 591.648 282.758 591.604 278.888 591.726C275.029 591.891 271.17 592.223 267.366 592.831C259.725 593.991 252.294 596.312 245.172 599.329C238.062 602.379 231.206 606.06 224.737 610.337C218.257 614.591 211.965 619.167 206.005 624.129C194.096 634.098 184.575 646.63 176.724 659.992C168.883 673.397 162.415 687.565 156.653 701.988C150.936 716.432 145.982 731.186 141.957 746.194C137.91 761.191 134.604 776.398 132.259 791.76C129.871 807.111 128.256 822.583 127.394 838.088C126.498 853.605 126.62 869.143 127.117 884.66V884.682C127.129 885.08 126.819 885.411 126.421 885.422C126.023 885.433 125.691 885.124 125.68 884.726C125.68 884.726 125.68 884.715 125.68 884.704L125.625 873.034C125.625 871.088 125.58 869.143 125.625 867.198L125.779 861.363L125.934 855.528C125.978 853.583 126.001 851.638 126.133 849.704L126.764 838.055C127.869 822.539 129.506 807.066 131.95 791.716C136.893 761.025 144.777 730.755 156.222 701.822C161.95 687.366 168.375 673.154 176.204 659.682C184.033 646.265 193.565 633.633 205.518 623.554C211.501 618.548 217.782 613.939 224.284 609.651C230.775 605.33 237.62 601.54 244.774 598.401C251.929 595.295 259.437 592.875 267.178 591.626C271.037 590.974 274.94 590.609 278.844 590.411C282.747 590.256 286.662 590.256 290.543 590.322C290.941 590.322 291.262 590.654 291.251 591.052C291.24 591.449 290.919 591.77 290.521 591.759L290.51 591.748Z" fill="#171717"/>
<path d="M364.377 292.459C364.211 292.459 364.045 292.382 363.935 292.238C363.758 291.995 363.802 291.652 364.045 291.464C380.389 279.341 395.063 265.117 407.647 249.181C422.177 230.78 433.799 210.323 442.181 188.353C442.292 188.065 442.612 187.922 442.9 188.032C443.187 188.143 443.331 188.463 443.22 188.751C434.794 210.821 423.128 231.388 408.521 249.877C395.87 265.88 381.141 280.181 364.709 292.36C364.609 292.437 364.499 292.47 364.377 292.47V292.459Z" fill="#171717"/>
<path d="M364.09 571.103C363.946 571.103 363.791 571.048 363.681 570.926C352.8 559.267 342.483 553.896 332.995 554.957C323.275 556.04 314.849 563.853 310.801 567.611C308.468 569.777 307.761 570.429 307.152 569.777C306.622 569.213 307.152 568.572 308.59 566.87C310.613 564.461 314.395 559.974 316.85 553.631C319.471 546.845 319.946 539.672 319.117 537.904C319.006 537.672 318.929 537.639 318.929 537.639C318.531 537.639 317.458 539.297 316.74 540.391C316.043 541.452 315.258 542.667 314.34 543.806C305.593 554.681 287.69 556.537 280.06 555.112C277.617 554.658 276.212 553.896 275.88 552.857C275.482 551.586 276.743 550.713 278.844 549.254C280.757 547.928 283.367 546.116 286.397 543.076C296.592 532.832 301.082 518.542 300.639 513.745C300.562 512.961 300.374 512.806 300.374 512.806C300.053 512.85 299.036 514.121 298.14 515.237C295.718 518.277 291.66 523.349 284.716 526.654C278.921 529.417 272.22 530.4 264.8 529.582L263.518 529.439L264.513 528.61C278.125 517.193 288.564 503.865 295.519 489.012C306.821 464.897 305.925 443.137 304.985 420.105C304.885 417.618 304.786 415.11 304.697 412.579C303.426 376.064 305.372 337.815 310.47 298.891C310.514 298.593 310.779 298.371 311.089 298.416C311.388 298.46 311.609 298.736 311.564 299.035C306.478 337.892 304.532 376.075 305.803 412.535C305.892 415.065 305.991 417.563 306.091 420.05C307.031 443.225 307.926 465.118 296.515 489.476C289.659 504.108 279.474 517.271 266.216 528.599C272.917 529.151 278.966 528.157 284.24 525.648C290.952 522.454 294.911 517.492 297.278 514.541C298.958 512.441 299.887 511.281 300.894 511.822C301.314 512.054 301.579 512.541 301.701 513.325C302.397 518.022 297.897 533.053 287.182 543.828C284.085 546.944 281.31 548.867 279.474 550.138C277.904 551.221 276.776 552.006 276.931 552.503C277.075 552.957 278.026 553.586 280.259 554.006C287.436 555.344 305.118 553.476 313.477 543.098C314.362 542.004 315.125 540.822 315.811 539.772C317.215 537.628 318.133 536.202 319.272 536.578C319.626 536.689 319.902 536.976 320.112 537.418C321.196 539.717 320.477 547.309 317.879 554.029C315.667 559.764 312.416 563.997 310.249 566.605C314.462 562.704 322.954 554.957 332.873 553.852C342.737 552.758 353.364 558.239 364.499 570.164C364.709 570.385 364.698 570.739 364.477 570.949C364.366 571.048 364.234 571.092 364.101 571.092L364.09 571.103Z" fill="#171717"/>
<path d="M573.805 570.529C573.55 570.529 573.318 570.352 573.263 570.087C573.196 569.788 573.395 569.501 573.694 569.434C580.992 567.931 586.212 564.903 589.208 560.438C591.741 556.67 592.249 552.57 592.703 548.967C593.178 545.198 593.587 541.938 596.352 540.645C599.868 538.998 604.314 541.805 607.554 543.85C610.749 545.872 612.132 547.674 613.868 549.962C615.15 551.652 616.61 553.564 619.176 556.029C624.749 561.389 631.262 565.434 632.578 564.362C633.12 563.909 632.633 562.118 632.146 560.383C632.036 559.985 631.925 559.576 631.815 559.156C630.51 554.172 630.554 549.144 630.643 539.12C630.742 527.56 634.148 512.917 637.83 512.917C639.356 512.917 639.987 514.928 640.927 517.956C641.49 519.757 642.187 521.99 643.227 524.189C647.373 533.008 656.33 539.96 669.854 544.856C663.031 536.545 655.247 523.592 654.008 506.871C652.626 488.282 660.046 472.49 662.036 470.777C662.279 470.567 662.523 470.489 662.755 470.545C663.474 470.71 663.363 471.418 663.076 473.319C662.501 477.043 661.306 484.812 664.867 492.769C666.216 495.798 668.162 498.594 670.639 501.113L669.146 477.618C669.124 477.308 669.357 477.054 669.666 477.032C669.965 477.021 670.23 477.242 670.252 477.551L671.922 503.865L670.905 502.926C667.819 500.052 665.442 496.792 663.85 493.234C660.156 484.978 661.384 476.999 661.97 473.164C662.003 472.954 662.036 472.744 662.058 472.545C659.802 476.225 653.842 490.018 655.092 506.805C656.397 524.3 664.989 537.606 671.977 545.696L673.304 547.232L671.38 546.58C656.496 541.551 646.688 534.18 642.209 524.664C641.137 522.388 640.429 520.111 639.854 518.288C639.168 516.099 638.516 514.033 637.797 514.033C635.641 514.033 631.837 526.433 631.715 539.142C631.627 549.066 631.583 554.04 632.854 558.891C632.965 559.3 633.075 559.709 633.186 560.096C633.838 562.461 634.358 564.318 633.252 565.224C630.543 567.434 621.376 559.709 618.379 556.836C615.759 554.316 614.266 552.36 612.961 550.647C611.28 548.447 609.964 546.712 606.934 544.8C604.081 542.999 599.758 540.269 596.794 541.662C594.572 542.701 594.218 545.53 593.775 549.122C593.333 552.669 592.78 557.09 590.104 561.079C586.942 565.787 581.49 568.97 573.893 570.54C573.86 570.54 573.816 570.551 573.783 570.551L573.805 570.529Z" fill="#171717"/>
<path d="M495.293 632.13C494.154 632.13 493.015 632.13 491.876 632.108C446.45 631.489 412.281 618.636 395.86 612.458C378.62 605.971 361.856 597.937 346.032 588.587L317.757 589.946L290.577 591.748C290.179 591.781 289.836 591.471 289.814 591.074C289.792 590.676 290.09 590.333 290.488 590.311L317.68 588.51L346.397 587.128L346.585 587.239C362.387 596.599 379.14 604.634 396.379 611.11C412.723 617.255 446.726 630.053 491.909 630.671C515.772 631.014 539.768 627.898 563.244 621.477C563.631 621.377 564.018 621.598 564.129 621.985C564.239 622.372 564.007 622.759 563.62 622.869C541.128 629.025 518.161 632.141 495.304 632.141L495.293 632.13Z" fill="#171717"/>
<path d="M485.805 435.677C486.259 434.041 486.79 432.516 487.365 430.98C487.685 430.228 488.05 429.466 488.249 428.67C488.459 427.874 488.515 427.034 488.504 426.217C488.47 425.388 488.437 424.57 488.371 423.785C488.338 423.398 488.271 423.001 488.161 422.724C488.139 422.691 488.094 422.603 488.106 422.636C488.106 422.636 488.139 422.68 488.172 422.691C488.216 422.702 488.305 422.724 488.382 422.713C488.537 422.669 488.481 422.669 488.448 422.713C488.404 422.758 488.349 422.835 488.282 422.901C487.752 423.531 487.044 424.194 486.259 424.592C485.463 425.001 484.611 425.233 483.749 425.255C483.715 425.255 483.693 425.233 483.693 425.2C483.693 425.178 483.704 425.156 483.727 425.145C485.275 424.415 486.436 423.465 487.387 422.15C487.453 422.061 487.531 421.984 487.63 421.873C487.741 421.785 487.851 421.63 488.216 421.553C488.393 421.52 488.592 421.564 488.714 421.641C488.78 421.674 488.857 421.719 488.913 421.774L489.012 421.895C489.167 422.083 489.178 422.205 489.244 422.349C489.388 422.868 489.399 423.299 489.41 423.741C489.421 424.614 489.289 425.465 489.101 426.283C488.924 427.112 488.725 427.93 488.603 428.747C488.47 429.576 488.426 430.427 488.249 431.267C487.829 432.914 487.044 434.461 485.916 435.743C485.894 435.765 485.861 435.765 485.839 435.743C485.816 435.732 485.817 435.71 485.817 435.688L485.805 435.677Z" fill="#808080"/>
<path d="M862.203 849.891C862.048 849.891 861.882 849.836 861.749 849.736C858.2 846.895 856.596 843.656 855.048 840.528C852.383 835.133 851.056 829.23 851.078 822.962C851.078 822.564 851.399 822.243 851.797 822.243C852.195 822.243 852.516 822.564 852.516 822.962C852.494 829.009 853.766 834.702 856.32 839.853C857.879 843.015 859.339 845.967 862.645 848.609C862.955 848.852 863.01 849.305 862.756 849.615C862.612 849.791 862.402 849.88 862.192 849.88L862.203 849.891Z" fill="#171717"/>
<path d="M852.079 587.719C844.891 604.136 837.471 620.43 829.819 636.614C826.037 644.728 822.134 652.787 818.286 660.868L806.542 685.022L794.61 709.077C790.563 717.059 786.582 725.073 782.469 733.033C774.341 748.984 765.97 764.815 757.367 780.534C764.555 764.118 771.964 747.824 779.616 731.64C783.398 723.526 787.301 715.478 791.149 707.386L802.893 683.243L814.836 659.188C818.883 651.206 822.864 643.192 826.977 635.232C835.116 619.28 843.476 603.45 852.079 587.731V587.719Z" fill="#FFBC82"/>
<path d="M805.718 711.731C811.505 699.758 810.629 687.363 803.761 684.045C796.893 680.727 786.634 687.744 780.847 699.717C775.06 711.69 775.936 724.085 782.804 727.403C789.672 730.72 799.931 723.704 805.718 711.731Z" fill="#7AAD7D"/>
<path d="M830.656 658.501C836.443 646.528 835.566 634.133 828.698 630.815C821.83 627.497 811.571 634.514 805.784 646.487C799.997 658.46 800.873 670.855 807.741 674.173C814.609 677.49 824.868 670.474 830.656 658.501Z" fill="#7AAD7D"/>
<path d="M759.347 782.823L758.053 782.192C765.229 765.787 772.716 749.338 780.312 733.276C782.834 727.87 785.454 722.398 787.987 717.103C789.28 714.417 790.563 711.719 791.846 709.033L803.59 684.879L815.532 660.824C816.826 658.259 818.12 655.694 819.413 653.13C822.101 647.79 824.887 642.263 827.685 636.857C835.768 621.005 844.217 605.009 852.798 589.344L854.091 589.975C846.926 606.324 839.439 622.785 831.82 638.891C829.255 644.408 826.579 649.979 824.003 655.374C822.764 657.961 821.526 660.547 820.287 663.134L808.543 687.289L796.601 711.343C795.241 714.019 793.892 716.694 792.554 719.369C789.922 724.598 787.19 730.015 784.459 735.299C776.387 751.129 767.939 767.125 759.347 782.812V782.823ZM845.289 606.258C839.738 616.649 834.275 627.107 828.968 637.509C826.17 642.915 823.394 648.431 820.707 653.771C819.413 656.336 818.131 658.9 816.826 661.465L804.883 685.509L793.14 709.652C791.857 712.338 790.574 715.036 789.281 717.722C786.748 723.017 784.127 728.478 781.606 733.884C776.597 744.463 771.643 755.219 766.789 766.02C772.362 755.584 777.847 745.093 783.165 734.658C785.908 729.362 788.628 723.968 791.26 718.739C792.609 716.064 793.958 713.388 795.307 710.713L807.239 686.669L818.971 662.526C820.199 659.939 821.437 657.353 822.687 654.766C825.274 649.371 827.939 643.8 830.505 638.294C835.503 627.726 840.446 617.014 845.267 606.28L845.289 606.258Z" fill="#171717"/>
<path d="M787.822 730.888C786.428 730.888 785.09 730.601 783.852 730.004C776.642 726.521 775.613 713.665 781.563 701.361C784.416 695.458 788.43 690.539 792.853 687.51C797.398 684.392 801.876 683.63 805.437 685.354C808.998 687.079 811.176 691.047 811.563 696.552C811.939 701.903 810.579 708.104 807.726 714.008C802.794 724.211 794.589 730.888 787.81 730.888H787.822ZM801.401 685.896C799.023 685.896 796.38 686.846 793.671 688.692C789.447 691.578 785.61 696.298 782.856 701.98C777.25 713.576 777.98 725.571 784.482 728.71C790.984 731.85 800.837 724.974 806.432 713.377C809.174 707.695 810.49 701.759 810.125 696.652C809.772 691.688 807.881 688.14 804.807 686.647C803.756 686.139 802.617 685.896 801.401 685.896V685.896Z" fill="#171717"/>
<path d="M812.823 677.682C811.386 677.682 810.037 677.384 808.787 676.787C805.226 675.062 803.048 671.094 802.661 665.599C802.285 660.249 803.645 654.047 806.498 648.144C809.351 642.241 813.365 637.322 817.788 634.293C822.333 631.175 826.801 630.412 830.372 632.137C833.933 633.861 836.111 637.83 836.498 643.324C836.874 648.675 835.514 654.876 832.661 660.779C829.808 666.683 825.794 671.602 821.371 674.631C818.408 676.654 815.488 677.682 812.823 677.682ZM826.336 632.668C823.959 632.668 821.316 633.618 818.607 635.464C814.382 638.35 810.545 643.07 807.792 648.752C805.05 654.434 803.734 660.37 804.099 665.478C804.452 670.441 806.343 673.99 809.417 675.482C812.503 676.964 816.45 676.245 820.564 673.437C824.788 670.552 828.625 665.831 831.379 660.149C834.121 654.467 835.437 648.531 835.072 643.424C834.718 638.46 832.827 634.912 829.753 633.419C828.703 632.911 827.564 632.668 826.347 632.668H826.336Z" fill="#171717"/>
<path d="M696.537 733.862C703.327 723.559 739.885 733.563 757.754 740.517C765.097 743.369 766.136 744.485 773.036 746.63C776.453 747.691 791.382 752.168 817.589 751.306C837.726 750.643 844.736 747.481 858.625 751.859C862.02 752.931 872.58 756.258 872.923 761.631C873.166 765.445 868.168 768.75 864.453 770.895C818.23 797.525 775.248 793.181 775.248 793.181C758.362 791.467 736.523 789.268 717.625 772.829C704.577 761.487 691.241 741.899 696.548 733.862H696.537Z" fill="#FFBC82"/>
<path d="M796.49 1008.28C776.155 1008.28 754.094 1003.36 736.844 991.545C730.286 987.046 719.306 979.529 720.478 971.359C721.108 966.993 725.012 963.256 732.1 960.25C743.18 955.551 759.8 953.55 774.275 954.192C775.06 951.693 775.734 948.675 776.509 944.939C769.254 944.696 761.525 945.171 752.723 947.736C735.671 952.699 723.817 962.781 716.873 970.365C716.608 970.652 716.154 970.674 715.856 970.409C715.568 970.143 715.546 969.69 715.811 969.392C722.877 961.676 734.953 951.417 752.325 946.354C761.425 943.701 769.376 943.225 776.807 943.502C776.94 942.883 777.061 942.23 777.205 941.567C781.053 922.642 777.736 895.48 777.592 894.342L774.927 841.755C774.629 841.036 773.479 838.273 771.676 834.37C770.084 832.878 768.525 831.353 766.977 829.805L749.56 826.245C743.401 822.63 741.687 820.972 741.377 819.977L733.714 819.911C732.343 819.546 725.343 817.391 722.148 810.327C721.373 808.624 719.084 802.633 721.982 796.862C725.531 789.776 734.289 788.394 734.665 788.339C735.041 788.284 735.417 788.251 735.804 788.24C732.697 786.979 729.667 785.487 726.792 783.784C710.061 773.946 697.853 757.386 690.511 734.558C679.707 701.007 690.301 671.458 694.293 660.326C697.024 652.71 700.496 645.303 704.621 638.306C704.82 637.963 705.262 637.852 705.605 638.051C705.948 638.25 706.058 638.692 705.859 639.035C701.779 645.955 698.34 653.285 695.642 660.813C691.705 671.812 681.233 701.041 691.882 734.116C699.114 756.601 711.112 772.896 727.533 782.546C730.529 784.304 733.692 785.852 736.932 787.134C751.772 786.36 766.368 785.144 780.312 783.519C782.148 783.309 784.061 783.077 786.052 782.834C796.391 781.585 809.262 780.037 826.17 779.086C828.105 778.976 829.2 778.932 830.162 778.887C831.345 778.832 832.318 778.788 834.43 778.655C844.371 778.025 857.796 776.533 872.215 774.465C880.332 773.305 888.603 771.978 896.808 770.541C895.249 766.473 893.026 763.643 890.207 762.128C887.951 760.923 885.717 760.769 883.362 760.603C880.542 760.404 877.357 760.183 873.598 758.149C871.463 756.988 870.17 755.794 869.13 754.843C868.854 754.589 868.588 754.346 868.323 754.114C862.495 749.051 853.992 748.962 838.223 749.239C833.391 749.327 828.481 749.161 823.726 749.007C815.156 748.719 806.277 748.421 797.696 749.593L797.309 749.648C793.737 750.145 788.329 750.886 782.668 748.244C780.335 747.16 772.682 743.004 771.908 735.067C771.477 730.612 773.412 726.002 777.349 722.1C780.456 719.015 784.227 717.545 794.201 715.544C806.188 713.134 813.696 712.493 813.774 712.493C829.089 711.233 836.575 711.233 842.027 711.244C847.368 711.244 850.597 711.244 857.287 709.984C860.859 709.309 863.656 708.602 865.901 708.027C870.955 706.745 873.996 705.982 878.596 707.364C881.924 708.37 886.768 711.388 896.41 717.39C900.048 719.657 901.873 720.795 904.405 722.498C909.558 725.969 912.179 728.147 915.22 730.656C917.31 732.38 919.676 734.337 923.226 737.001C927.406 740.141 930.369 742.131 932.537 743.579C936.484 746.221 937.955 747.216 939.492 750.256C940.996 753.229 941.117 755.385 941.339 759.31C941.427 760.946 941.549 762.991 941.792 765.555C942.212 770.021 943.34 775.659 945.585 786.891C947.874 798.354 949.931 803.915 951.755 808.812C953.303 812.991 954.652 816.595 955.615 822.796C959.706 849.095 947.918 872.498 947.808 872.73C943.318 881.496 939.768 888.417 932.183 892.407C921.014 898.277 908.972 893.944 893.723 888.461L891.29 887.587C865.094 878.213 848.739 873.791 836.797 870.574C819.9 866.009 811.419 863.721 795.628 853.307C788.197 848.399 781.087 842.905 774.408 836.88C775.347 839.002 775.989 840.561 776.309 841.324L776.365 841.556L779.041 894.209C779.185 895.315 782.524 922.708 778.621 941.855C778.499 942.441 778.388 943.004 778.278 943.557C781.628 943.723 784.879 944.021 788.108 944.309C804.142 945.768 819.281 947.139 833.136 958.271C847.246 969.602 853.439 979.241 851.537 986.924C850.077 992.817 843.575 998.244 833.214 1002.18C823.085 1006.04 810.18 1008.26 796.501 1008.26L796.49 1008.28ZM768.967 955.573C756.007 955.573 742.107 957.574 732.675 961.565C726.173 964.318 722.457 967.778 721.915 971.558C720.876 978.843 731.392 986.051 737.673 990.351C766.125 1009.84 807.869 1010.3 832.705 1000.85C842.613 997.084 848.806 992.021 850.144 986.593C851.891 979.496 845.875 970.353 832.241 959.409C818.717 948.554 803.789 947.194 787.987 945.757C784.714 945.458 781.396 945.16 777.99 944.994C777.227 948.709 776.553 951.726 775.779 954.269C786.35 954.888 795.617 956.955 800.471 960.471C802.417 961.886 806.984 965.18 806.874 969.79C806.807 972.874 804.695 975.759 800.615 978.368C792.167 983.774 781.628 980.037 777.493 978.18C773.346 976.323 766.413 972.465 766.59 967.546C766.667 965.313 768.149 963.842 769.454 962.549C769.642 962.361 769.83 962.173 770.006 961.985C771.676 960.272 772.826 958.271 773.777 955.673C772.196 955.607 770.581 955.584 768.956 955.584L768.967 955.573ZM775.292 955.739C774.242 958.724 772.97 961.001 771.046 962.98C770.858 963.168 770.67 963.367 770.471 963.566C769.299 964.727 768.082 965.932 768.027 967.59C767.916 970.575 771.577 973.957 778.079 976.865C782.004 978.622 791.979 982.182 799.83 977.152C803.49 974.808 805.37 972.321 805.436 969.746C805.525 965.887 801.389 962.903 799.631 961.62C794.975 958.249 785.786 956.292 775.303 955.728L775.292 955.739ZM772.926 833.564C780.257 840.417 788.142 846.641 796.435 852.113C812.038 862.405 820.442 864.671 837.184 869.193C849.148 872.421 865.525 876.842 891.788 886.239L894.221 887.112C909.138 892.474 920.915 896.708 931.519 891.136C938.707 887.355 941.991 880.944 946.536 872.078C946.658 871.846 958.224 848.874 954.21 823.017C953.27 816.97 951.954 813.422 950.428 809.321C948.681 804.611 946.503 798.752 944.192 787.178C941.947 775.891 940.819 770.232 940.377 765.699C940.133 763.101 940.012 761.045 939.923 759.398C939.702 755.54 939.591 753.605 938.231 750.908C936.86 748.2 935.577 747.337 931.751 744.773C929.573 743.314 926.587 741.313 922.374 738.151C918.791 735.465 916.414 733.497 914.324 731.761C911.316 729.274 908.707 727.118 903.62 723.692C901.11 721.989 899.285 720.862 895.669 718.606C886.137 712.67 881.349 709.696 878.198 708.735C873.985 707.463 871.242 708.149 866.277 709.409C864.01 709.984 861.19 710.702 857.574 711.388C850.752 712.681 847.49 712.681 842.049 712.681C836.62 712.681 829.167 712.681 813.918 713.93C813.84 713.93 806.409 714.571 794.511 716.959C784.868 718.894 781.252 720.287 778.388 723.128C774.761 726.732 772.981 730.921 773.368 734.934C774.065 742.109 781.142 745.944 783.298 746.95C788.573 749.416 793.726 748.697 797.143 748.233L797.541 748.178C806.254 746.984 815.178 747.282 823.815 747.57C828.547 747.724 833.446 747.89 838.234 747.802C854.368 747.514 863.07 747.614 869.296 753.031C869.572 753.274 869.849 753.528 870.136 753.782C871.165 754.733 872.337 755.816 874.305 756.889C877.788 758.779 880.686 758.978 883.483 759.177C886.005 759.354 888.382 759.52 890.903 760.868C894.232 762.648 896.775 766.02 898.478 770.873L898.754 771.669L897.925 771.812C889.433 773.316 880.863 774.698 872.447 775.903C857.774 778.003 844.67 779.451 834.541 780.103C832.418 780.236 831.445 780.28 830.25 780.335C829.299 780.38 828.205 780.424 826.28 780.534C809.417 781.485 796.579 783.033 786.251 784.271C784.249 784.514 782.336 784.746 780.5 784.956C766.977 786.526 752.844 787.72 738.48 788.505C748.123 790.616 758.152 805.275 765.506 818.695L849.535 819.215C852.654 818.949 856.336 818.728 861.589 818.596C873.354 818.275 885.208 818.596 896.819 819.513L896.753 820.95L849.591 820.652C847.545 820.829 845.742 821.016 843.907 821.204C839.727 821.647 835.403 822.089 827.607 822.398C808.897 823.117 792.454 822.122 775.049 821.061C772.295 820.895 769.476 820.884 766.7 820.917C768.171 823.692 769.52 826.367 770.714 828.843C772.119 829.219 773.534 829.595 774.949 829.96L827.176 840.528C830.494 841.014 833.667 841.456 836.797 841.888C847.268 843.336 857.154 844.707 870.899 847.548C883.24 850.101 895.658 853.23 907.822 856.856L907.479 858.248L826.933 841.943C819.988 840.926 812.425 839.699 803.247 837.886C793.693 835.996 784.094 833.807 774.629 831.353L771.632 830.745C772.096 831.728 772.539 832.668 772.948 833.564H772.926ZM851.891 845.536L886.259 852.489C881.04 851.207 875.809 850.024 870.59 848.952C863.535 847.492 857.508 846.42 851.891 845.536V845.536ZM769.553 830.336C769.697 830.479 769.841 830.623 769.995 830.767C769.94 830.645 769.874 830.512 769.818 830.391L769.564 830.336H769.553ZM764.312 827.085L766.888 827.804C767.529 827.981 768.171 828.158 768.801 828.335C767.651 826.013 766.379 823.515 765.008 820.939C764.787 820.939 764.555 820.939 764.334 820.939C758.738 821.016 752.944 821.094 747.327 820.11L747.139 820.077C746.995 820.055 746.851 820.033 746.718 819.999L743.069 819.977C743.622 820.619 745.27 822.045 750.202 824.941L765.196 827.981L764.312 827.074V827.085ZM785.709 820.265C799.299 821.028 812.712 821.547 827.519 820.972C830.471 820.862 832.915 820.718 835.049 820.574L785.709 820.265V820.265ZM746.851 818.584L763.781 818.684C755.72 804.103 744.617 788.317 734.897 789.765C734.555 789.82 726.515 791.081 723.298 797.503C720.688 802.699 722.778 808.171 723.486 809.73C726.361 816.064 732.586 818.098 734.024 818.496L741.974 818.54C742.804 818.054 744.429 818.164 746.851 818.573V818.584Z" fill="#171717"/>
<path d="M887.077 709.951L885.894 708.978C882.643 706.314 879.171 704.722 875.577 704.224C870.568 703.55 867.018 705.252 863.59 706.911C860.427 708.436 857.165 710.006 853.019 709.453C845.853 708.48 841.662 702.179 835.315 692.639C832.307 688.118 826.059 678.721 826.457 666.406C826.579 662.681 826.756 657.065 830.704 654.268C833.877 652.013 838.544 652.179 844.57 654.755C849.69 656.944 851.769 659.785 860.527 671.779C862.54 674.532 864.906 677.782 867.759 681.629C871.242 686.327 873.841 689.754 876.727 693.468C879.613 697.183 882.554 700.853 885.452 704.401C885.496 704.456 885.529 704.512 885.551 704.567C885.164 694.662 883.55 684.879 880.752 675.427C875.599 658.027 866.664 642.816 860.085 635.465C858.68 633.895 857.143 632.425 855.496 631.054C853.925 631.396 851.736 631.783 848.706 632.237C812.325 637.698 788.307 641.301 755.023 639.599C738.967 638.781 722.723 636.813 706.744 633.74C706.357 633.663 706.102 633.287 706.169 632.9C706.246 632.513 706.622 632.259 707.009 632.325C708.491 632.612 709.973 632.878 711.454 633.154C709.508 632.358 709.464 631.617 709.431 631.142C709.364 630.247 709.939 628.776 715.645 626.367C737.651 617.081 819.646 601.682 855.109 628.92C859.322 628.412 859.355 628.589 859.443 629.296C859.487 629.583 859.543 630.004 857.21 630.634C858.614 631.839 859.919 633.132 861.146 634.492C867.836 641.965 876.915 657.386 882.123 675.007C885.319 685.807 886.989 697.039 887.066 708.381V709.906L887.077 709.951ZM836.111 654.136C834.297 654.136 832.76 654.567 831.533 655.451C828.171 657.828 828.005 663.024 827.895 666.462C827.519 678.312 833.601 687.454 836.52 691.854C842.646 701.074 846.693 707.154 853.218 708.038C856.944 708.536 859.875 707.121 862.971 705.628C866.598 703.882 870.346 702.069 875.787 702.82C879.204 703.285 882.499 704.678 885.618 706.966C885.606 706.358 885.584 705.739 885.562 705.131C885.518 705.252 885.441 705.363 885.341 705.451C885.031 705.706 884.578 705.661 884.335 705.352C881.427 701.792 878.474 698.111 875.588 694.386C872.691 690.66 870.092 687.222 866.598 682.513C863.745 678.666 861.378 675.416 859.366 672.652C850.796 660.912 848.761 658.127 844.006 656.104C840.965 654.81 838.334 654.158 836.122 654.158L836.111 654.136ZM729.457 635.918C738.016 636.99 746.575 637.753 755.1 638.184C783.154 639.621 804.64 637.255 832.595 633.198C819.646 634.68 803.236 636.216 785.963 636.747C774.883 637.09 755.841 637.211 738.69 636.448C735.218 636.294 732.155 636.117 729.457 635.929V635.918ZM793.726 614.936C761.647 614.936 728.882 622.365 716.209 627.715C710.935 629.937 710.868 631.054 710.868 631.065C710.868 631.175 711.377 633.784 738.746 635.011C755.863 635.774 774.861 635.652 785.919 635.31C812.215 634.503 836.542 631.341 849.613 629.65C850.94 629.473 852.079 629.329 853.063 629.208C838.411 618.595 816.229 614.936 793.715 614.936H793.726Z" fill="#171717"/>
<path d="M965.567 865.213C965.567 865.213 965.523 865.213 965.501 865.213C965.103 865.18 964.815 864.826 964.848 864.428C965.059 862.062 965.191 859.652 965.235 857.265C965.457 844.994 963.234 837.3 957.86 818.706C956.699 814.693 955.394 810.172 953.934 805.009C949.655 789.82 945.221 774.432 940.753 759.265C940.643 758.89 940.864 758.48 941.24 758.37C941.616 758.259 942.025 758.469 942.135 758.856C946.603 774.034 951.048 789.433 955.328 804.622C956.787 809.785 958.092 814.295 959.242 818.308C964.66 837.057 966.905 844.806 966.684 857.298C966.64 859.719 966.507 862.162 966.286 864.561C966.253 864.937 965.943 865.213 965.567 865.213V865.213Z" fill="#171717"/>
<path d="M978.051 970.729C977.731 970.729 977.443 970.519 977.355 970.188C973.252 954.49 970.112 938.395 968.033 922.332C965.169 900.223 964.218 877.682 965.235 855.352C965.257 854.954 965.589 854.667 965.987 854.667C966.385 854.689 966.695 855.02 966.673 855.418C965.666 877.66 966.606 900.112 969.459 922.144C971.538 938.151 974.657 954.192 978.748 969.823C978.848 970.21 978.615 970.597 978.239 970.696C978.173 970.707 978.118 970.718 978.051 970.718V970.729Z" fill="#171717"/>
<g clip-path="url(#clip0_117_26)">
<path d="M0 832.482C0 828.205 0.808494 824.159 2.43831 820.331C4.06813 816.504 6.32678 813.113 9.22709 810.172C12.1146 807.218 15.4769 804.906 19.3012 803.21C23.1255 801.528 27.2193 800.68 31.6082 800.68C35.9972 800.68 40.0012 801.528 43.8255 803.21C47.6498 804.893 51.0378 807.218 53.9766 810.172C56.9154 813.126 59.2254 816.517 60.8937 820.331C62.5492 824.159 63.3833 828.205 63.3833 832.482C63.3833 836.759 62.5492 840.971 60.8937 844.799C59.2382 848.626 56.9282 851.979 53.9766 854.881C51.0249 857.784 47.637 860.045 43.8255 861.676C40.0012 863.307 35.933 864.116 31.6082 864.116C27.2834 864.116 23.1255 863.307 19.3012 861.676C15.4769 860.045 12.1274 857.784 9.22709 854.881C6.32678 851.992 4.06813 848.626 2.43831 844.799C0.808494 840.971 0 836.874 0 832.482H0ZM12.6407 832.482C12.6407 835.243 13.1284 837.812 14.1166 840.201C15.1047 842.59 16.4779 844.696 18.2489 846.533C20.0198 848.357 22.0732 849.782 24.396 850.797C26.7316 851.812 29.2726 852.313 32.0189 852.313C34.7652 852.313 37.1137 851.812 39.398 850.797C41.6823 849.782 43.6587 848.37 45.3398 846.533C47.021 844.709 48.3428 842.603 49.3053 840.201C50.2549 837.812 50.7426 835.243 50.7426 832.482C50.7426 829.72 50.2549 827.061 49.2668 824.634C48.2786 822.219 46.9311 820.087 45.2243 818.263C43.5047 816.439 41.5027 815.014 39.1927 813.999C36.8827 812.984 34.3931 812.484 31.6852 812.484C28.9774 812.484 26.4878 812.984 24.1778 813.999C21.8678 815.014 19.853 816.427 18.1077 818.263C16.3624 820.087 15.0149 822.219 14.0652 824.634C13.1156 827.049 12.6279 829.669 12.6279 832.482H12.6407Z" fill="#2D2D2D"/>
<path d="M75.6006 801.361H87.8178V851.632H116.988V863.448H75.6006V801.361Z" fill="#2D2D2D"/>
<path d="M129.628 801.361H141.846V863.448H129.628V801.361Z" fill="#2D2D2D"/>
<path d="M167.23 801.361L185.35 846.07L178.266 844.632L194.706 801.361H209.207L180.884 866.312L152.562 801.361H167.23V801.361Z" fill="#2D2D2D"/>
<path d="M219.897 801.361H262.209V813.177H232.115V826.419H258.744V838.236H232.115V851.645H263.389V863.461H219.897V801.373V801.361Z" fill="#2D2D2D"/>
<path d="M309.165 816.375C306.804 815.078 304.404 814.012 301.953 813.164C299.515 812.317 297.218 811.893 295.087 811.893C292.444 811.893 290.365 812.432 288.85 813.498C287.336 814.564 286.579 816.17 286.579 818.302C286.579 819.766 287.156 821.076 288.311 822.219C289.466 823.375 290.955 824.403 292.777 825.302C294.6 826.201 296.499 827.023 298.462 827.742C300.259 828.423 302.043 829.219 303.814 830.144C305.585 831.069 307.176 832.225 308.575 833.599C309.974 834.973 311.103 836.694 311.95 838.749C312.797 840.804 313.221 843.322 313.221 846.302C313.221 849.448 312.399 852.377 310.782 855.074C309.153 857.771 306.766 859.955 303.621 861.612C300.477 863.269 296.602 864.103 291.995 864.103C289.633 864.103 287.233 863.859 284.782 863.384C282.344 862.909 279.931 862.177 277.57 861.188C275.209 860.199 272.937 858.953 270.743 857.437L276.133 847.907C277.596 848.973 279.174 849.924 280.894 850.733C282.613 851.555 284.333 852.184 286.078 852.634C287.824 853.083 289.415 853.314 290.878 853.314C292.341 853.314 293.817 853.109 295.305 852.685C296.794 852.261 298.026 851.542 299.014 850.54C300.002 849.526 300.49 848.126 300.49 846.327C300.49 845.094 300.079 843.964 299.271 842.949C298.462 841.935 297.359 841.01 295.986 840.162C294.612 839.315 293.111 838.595 291.481 837.966C289.569 837.234 287.606 836.386 285.578 835.436C283.55 834.485 281.664 833.316 279.893 831.929C278.122 830.555 276.684 828.834 275.594 826.779C274.503 824.724 273.951 822.206 273.951 819.227C273.951 815.63 274.747 812.509 276.351 809.863C277.955 807.218 280.214 805.124 283.14 803.583C286.066 802.041 289.428 801.181 293.252 801.014C298.257 801.014 302.312 801.605 305.431 802.786C308.549 803.968 311.347 805.368 313.824 806.999L309.191 816.362L309.165 816.375Z" fill="#2D2D2D"/>
<path d="M352.567 801.361H391.337V813.177H364.785V827.267H387.795V839.083H364.785V863.461H352.567V801.373V801.361Z" fill="#2D2D2D"/>
<path d="M399.345 832.482C399.345 828.205 400.153 824.159 401.783 820.331C403.413 816.504 405.672 813.113 408.572 810.172C411.459 807.218 414.822 804.906 418.646 803.21C422.47 801.528 426.564 800.68 430.953 800.68C435.342 800.68 439.346 801.528 443.17 803.21C446.995 804.893 450.382 807.218 453.321 810.172C456.26 813.126 458.57 816.517 460.238 820.331C461.894 824.159 462.728 828.205 462.728 832.482C462.728 836.759 461.894 840.971 460.238 844.799C458.583 848.626 456.273 851.979 453.321 854.881C450.37 857.784 446.982 860.045 443.17 861.676C439.346 863.307 435.278 864.116 430.953 864.116C426.628 864.116 422.47 863.307 418.646 861.676C414.822 860.045 411.472 857.784 408.572 854.881C405.672 851.992 403.413 848.626 401.783 844.799C400.153 840.971 399.345 836.874 399.345 832.482ZM411.985 832.482C411.985 835.243 412.473 837.812 413.461 840.201C414.449 842.59 415.823 844.696 417.594 846.533C419.365 848.357 421.418 849.782 423.741 850.797C426.076 851.812 428.617 852.313 431.364 852.313C434.11 852.313 436.458 851.812 438.743 850.797C441.027 849.782 443.003 848.37 444.685 846.533C446.366 844.709 447.688 842.603 448.65 840.201C449.6 837.812 450.087 835.243 450.087 832.482C450.087 829.72 449.6 827.061 448.612 824.634C447.623 822.219 446.276 820.087 444.569 818.263C442.849 816.439 440.847 815.014 438.537 813.999C436.227 812.984 433.738 812.484 431.03 812.484C428.322 812.484 425.833 812.984 423.523 813.999C421.213 815.014 419.198 816.427 417.452 818.263C415.707 820.087 414.36 822.219 413.41 824.634C412.46 827.049 411.973 829.669 411.973 832.482H411.985Z" fill="#2D2D2D"/>
<path d="M493.746 801.361C497.621 801.361 501.074 801.849 504.115 802.838C507.144 803.827 509.685 805.227 511.738 807.05C513.791 808.874 515.344 811.071 516.422 813.627C517.487 816.183 518.026 819.072 518.026 822.271C518.026 824.801 517.641 827.331 516.884 829.861C516.127 832.392 514.895 834.703 513.175 836.784C511.456 838.865 509.197 840.535 506.387 841.806C503.576 843.078 500.085 843.707 495.94 843.707H487.175V863.448H474.958V801.361H493.759H493.746ZM495.851 831.904C497.698 831.904 499.251 831.595 500.483 830.979C501.715 830.362 502.691 829.579 503.396 828.615C504.102 827.665 504.603 826.663 504.911 825.623C505.219 824.582 505.373 823.606 505.373 822.707C505.373 822.027 505.27 821.179 505.078 820.138C504.885 819.098 504.474 818.045 503.858 816.979C503.242 815.913 502.306 815.014 501.035 814.282C499.765 813.55 498.071 813.19 495.94 813.19H487.175V831.916H495.863L495.851 831.904ZM507.311 839.494L522.646 863.448H508.401L492.719 839.828L507.298 839.494H507.311Z" fill="#2D2D2D"/>
<path d="M586.12 781.157C586.12 781.735 586.004 782.275 585.773 782.801C585.542 783.315 585.196 783.752 584.734 784.098C584.272 784.445 583.758 784.676 583.181 784.792C569.731 786.295 557.206 788.825 545.605 792.383C532.733 849.076 522.685 894.903 515.447 929.864C513.034 940.782 509.582 949.554 505.103 956.169C500.625 962.784 495.337 966.829 489.241 968.332C487.637 968.794 485.969 969.026 484.249 969.026C476.203 969.026 468.798 964.941 462.009 956.773C457.069 950.787 453.334 942.773 450.806 932.703C448.278 922.646 447.469 911.138 448.393 898.204C449.317 885.27 452.192 872.76 457.017 860.687C465.628 839.533 479.36 822.052 498.212 808.245C510.275 799.511 524.238 792.486 540.1 787.207C544.925 765.822 549.057 748.046 552.509 733.904C554.344 726.429 555.435 720.11 555.782 714.934C556.128 709.758 556.038 706.341 555.525 704.671C555.012 703.002 554.409 702.051 553.716 701.82C552.342 701.358 550.379 702.141 547.851 704.145C545.323 706.161 542.615 709.205 539.753 713.29C536.878 717.374 534.581 721.767 532.862 726.481C532.053 728.664 531.424 730.822 530.962 732.954C530.5 735.086 530.269 737.411 530.269 739.941C530.269 742.471 530.924 744.796 532.246 746.928C533.567 749.06 535.492 750.691 538.021 751.847C538.816 752.194 539.394 752.798 539.74 753.658C540.087 754.519 540.087 755.354 539.74 756.163C539.394 756.972 538.791 757.537 537.931 757.884C537.071 758.231 536.173 758.231 535.261 757.884C529.628 755.354 526.047 751.102 524.494 745.117C522.942 739.145 523.66 732.119 526.65 724.079C529.525 716.257 533.888 709.154 539.753 702.771C545.618 696.387 550.892 693.947 555.615 695.437C563.661 697.851 564.752 711.196 558.887 735.458C555.666 748.803 551.816 765.295 547.338 784.959C558.246 781.851 569.975 779.616 582.501 778.229C583.296 778.113 584.079 778.344 584.823 778.922C585.568 779.5 586.004 780.245 586.12 781.17V781.157ZM508.902 928.464C515.909 895.006 525.739 850.438 538.38 794.785C527.69 798.574 518.014 803.185 509.338 808.579C500.663 813.986 493.399 819.818 487.535 826.085C481.67 832.353 476.819 838.48 472.969 844.452C469.119 850.437 465.872 856.705 463.228 863.256C459.43 872.568 456.876 882.779 455.554 893.876C454.232 904.973 454.515 915.929 456.414 926.731C458.313 937.545 461.843 946.112 467.014 952.431C470.235 956.336 473.649 959.097 477.268 960.716C480.887 962.321 484.365 962.732 487.689 961.923C492.514 960.767 496.736 957.325 500.355 951.571C503.974 945.817 506.823 938.11 508.889 928.452L508.902 928.464Z" fill="#7AAD7D"/>
<path d="M640.238 823.157C641.162 822.99 641.983 823.131 642.74 823.594C643.484 824.056 643.972 824.75 644.203 825.661C644.434 826.586 644.319 827.383 643.857 828.076C642.483 830.26 640.982 832.584 639.378 835.063C637.774 837.542 635.387 840.894 632.23 845.159C629.073 849.41 626.057 853.122 623.182 856.281C620.308 859.441 617.202 862.228 613.878 864.643C610.542 867.058 607.68 868.265 605.267 868.265C604.343 868.265 603.547 868.098 602.854 867.751C597.336 865.683 595.783 856.885 598.196 841.357C594.41 846.533 590.958 850.437 587.852 853.083C583.374 856.885 579.459 857.335 576.136 854.47C573.03 851.94 571.631 847.458 571.913 841.01C572.196 834.575 574.069 828.359 577.522 822.386C577.984 821.577 578.664 821.063 579.588 820.832C580.512 820.601 581.372 820.717 582.167 821.179C582.976 821.641 583.489 822.296 583.72 823.157C583.951 824.017 583.836 824.852 583.374 825.661C581.423 828.885 580.063 832.276 579.318 835.834C578.574 839.405 578.343 842.359 578.625 844.722C578.908 847.085 579.459 848.601 580.268 849.294C580.845 849.872 581.936 849.461 583.54 848.087C586.531 845.557 590.265 841.01 594.744 834.46C595.539 833.419 596.143 832.649 596.553 832.135C596.951 831.621 597.439 830.992 598.016 830.234C598.594 829.489 599.056 829.001 599.389 828.77C599.736 828.539 600.134 828.282 600.596 827.999C601.058 827.717 601.52 827.601 601.982 827.652C602.444 827.717 602.957 827.858 603.535 828.089C605.023 828.667 605.832 829.964 605.947 831.968C606.063 833.984 605.78 836.605 605.087 839.816C603.817 846.135 603.329 850.977 603.624 854.303C603.907 857.643 604.163 859.685 604.394 860.43C604.625 861.175 604.908 861.547 605.254 861.547C605.601 861.779 606.204 861.689 607.064 861.291C607.924 860.88 608.963 860.225 610.169 859.313C611.376 858.401 612.723 857.219 614.225 855.781C615.713 854.342 617.407 852.595 619.307 850.515C621.206 848.447 623.131 846.173 625.082 843.707C627.032 841.241 629.163 838.364 631.46 835.089C633.757 831.814 636.003 828.333 638.184 824.66C638.646 823.85 639.326 823.362 640.25 823.195L640.238 823.157Z" fill="#7AAD7D"/>
<path d="M685.398 699.226C687.81 702.796 686.63 711.209 681.869 724.49C677.095 737.77 669.369 752.926 658.692 769.944C658.576 770.06 658.461 770.176 658.345 770.291C651.107 799.267 644.177 829.489 637.581 860.944C630.985 892.399 626.75 914.786 624.915 928.131H625.261C626.185 928.477 626.84 929.055 627.237 929.852C627.635 930.661 627.674 931.521 627.327 932.433C626.634 934.386 626.095 935.85 625.685 936.826C625.287 937.802 624.684 938.752 623.875 939.677C623.08 940.602 622.207 941.052 621.296 941.052C620.949 941.052 620.551 940.987 620.089 940.885C618.485 940.307 617.625 938.727 617.51 936.145C617.394 933.564 618.203 927.206 619.923 917.085C621.989 904.665 625.094 888.456 629.227 868.445C638.762 822.9 648.245 782.313 657.665 746.658C658.474 743.666 659.333 740.532 660.245 737.257C661.168 733.981 662.49 729.871 664.21 724.926C665.93 719.981 667.624 715.64 669.292 711.903C670.96 708.165 672.821 704.826 674.9 701.897C676.979 698.969 678.917 697.389 680.765 697.158C682.715 696.811 684.268 697.505 685.423 699.226H685.398ZM664.377 747.185C673.565 729.82 678.737 716.193 679.892 706.303C674.836 713.893 669.664 727.521 664.377 747.185Z" fill="#7AAD7D"/>
<path d="M716.761 821.783C717.685 821.616 718.507 821.783 719.264 822.296C720.008 822.81 720.445 823.529 720.56 824.454C720.676 825.379 720.496 826.175 720.047 826.869C707.06 845.043 695.227 857.913 684.537 865.503C680.289 868.496 676.093 869.986 671.961 869.986C668.739 869.986 665.929 869.125 663.516 867.404C662.143 866.364 660.898 864.99 659.808 863.269C658.717 861.547 657.767 859.133 656.959 856.025C656.163 852.916 656.009 848.845 656.535 843.771C657.048 838.711 658.345 832.957 660.411 826.522V826.355C663.632 815.887 667.533 807.616 672.127 801.515C676.722 795.427 680.854 792.319 684.537 792.203C687.181 792.087 688.9 793.243 689.709 795.658C690.967 798.997 689.478 803.711 685.23 809.799C680.982 815.9 674.72 822.45 666.442 829.463C665.069 833.946 664.081 838.094 663.516 841.883C662.939 845.685 662.746 848.691 662.913 850.938C663.08 853.186 663.491 855.138 664.12 856.808C664.748 858.478 665.326 859.659 665.839 860.34C666.353 861.034 666.904 861.599 667.482 862.061C670.934 864.591 675.349 863.898 680.751 859.993C690.864 852.865 702.119 840.56 714.528 823.08C715.106 822.386 715.85 821.962 716.774 821.783H716.761ZM683.331 799.447C679.301 801.977 675.349 807.436 671.434 815.836C678.095 809.17 682.06 803.698 683.331 799.447Z" fill="#7AAD7D"/>
<path d="M785.355 820.485C786.279 820.37 787.075 820.627 787.768 821.256C788.461 821.885 788.859 822.669 788.974 823.581C789.09 824.506 788.807 825.302 788.114 825.996C765.823 851.992 753.067 866.993 749.859 871.014C747.908 873.544 746.009 876.01 744.173 878.437C745.778 884.988 745.893 891.32 744.52 897.408C743.147 903.509 741.183 908.736 738.655 913.103C736.127 917.47 733.137 921.041 729.698 923.802C726.476 926.564 723.499 927.938 720.74 927.938C719.02 927.938 717.583 927.36 716.428 926.217C710.332 920.347 717.172 903.958 736.935 877.05C735.665 872.683 733.663 868.432 730.904 864.283C725.155 855.652 720.907 848.472 718.148 842.718C715.388 836.964 714.131 831.737 714.362 827.023C714.593 822.425 715.825 818.289 718.071 814.603C720.316 810.93 723.332 807.937 727.118 805.638C730.339 803.686 733.727 802.53 737.282 802.183C740.837 801.836 744.122 802.35 747.112 803.737C747.921 804.199 748.46 804.854 748.755 805.715C749.037 806.575 748.986 807.41 748.588 808.219C748.19 809.029 747.549 809.568 746.689 809.864C745.829 810.146 744.995 810.12 744.186 809.774C740.054 807.821 735.511 808.335 730.57 811.328C724.59 814.898 721.433 820.241 721.086 827.37C720.855 831.172 722.062 835.68 724.705 840.907C727.349 846.148 731.25 852.672 736.422 860.482C738.604 863.821 740.388 867.212 741.761 870.654C742.685 869.498 743.66 868.239 744.687 866.852C747.908 862.832 760.715 847.766 783.122 821.654C783.7 820.961 784.444 820.563 785.368 820.447L785.355 820.485ZM731.751 911.562C736.807 903.856 739.04 895.404 738.475 886.208C733.65 893.105 729.775 899.257 726.836 904.665C723.91 910.072 722.126 913.951 721.497 916.314C720.868 918.665 720.663 920.309 720.894 921.233C721.933 921.118 723.473 920.219 725.552 918.562C727.619 916.892 729.685 914.567 731.751 911.575V911.562Z" fill="#7AAD7D"/>
</g>
<defs>
<clipPath id="clip0_117_26">
<rect width="789" height="274" fill="white" transform="translate(0 695)"/>
</clipPath>
</defs>
</svg>
