<svg width="85" height="169" viewBox="0 0 85 169" fill="none" xmlns="http://www.w3.org/2000/svg">
<path d="M82.8337 0C76.6165 14.1996 70.1984 28.294 63.5795 42.2928C60.3083 49.3113 56.9319 56.282 53.6033 63.2719L43.4454 84.1649L33.1248 104.972C29.6241 111.876 26.1807 118.808 22.6225 125.693C15.5923 139.491 8.35166 153.184 0.910156 166.781C7.12735 152.581 13.5358 138.487 20.1548 124.488C23.426 117.469 26.8024 110.508 30.131 103.509L40.2889 82.6254L50.619 61.8184C54.1198 54.9146 57.5632 47.9822 61.1213 41.0975C68.1611 27.2995 75.3922 13.6067 82.8337 0.00954218V0Z" fill="#FFBC82"/>
<path d="M42.7331 107.267C47.7388 96.9111 46.9809 86.1894 41.0401 83.3197C35.0994 80.45 26.2256 86.519 21.2199 96.8753C16.2142 107.232 16.9722 117.953 22.9129 120.823C28.8536 123.693 37.7274 117.624 42.7331 107.267Z" fill="#7AAD7D"/>
<path d="M64.3035 61.2245C69.3092 50.8683 68.5512 40.1465 62.6104 37.2768C56.6697 34.4071 47.7959 40.4761 42.7902 50.8324C37.7845 61.1887 38.5425 71.9105 44.4832 74.7802C50.4239 77.6499 59.2978 71.5808 64.3035 61.2245Z" fill="#7AAD7D"/>
<path d="M2.62304 168.76L1.50391 168.215C7.71153 154.025 14.187 139.797 20.7581 125.903C22.9389 121.227 25.2058 116.494 27.3961 111.914C28.5152 109.59 29.6248 107.257 30.7343 104.934L40.8923 84.0407L51.2224 63.2337C52.3415 61.0153 53.4606 58.7969 54.5797 56.5785C56.9039 51.9601 59.3143 47.1791 61.7342 42.5033C68.7261 28.7913 76.0338 14.9551 83.4561 1.4057L84.5752 1.95071C78.3771 16.0929 71.9017 30.3308 65.3115 44.2627C63.0924 49.0341 60.7777 53.8534 58.5491 58.5197C57.4778 60.7572 56.4065 62.9946 55.3353 65.2322L45.1773 86.1252L34.8472 106.932C33.6708 109.246 32.5038 111.56 31.3464 113.874C29.07 118.397 26.7075 123.082 24.3449 127.653C17.3625 141.346 10.055 155.182 2.62304 168.751V168.76ZM76.9615 16.0356C72.1599 25.0239 67.4349 34.0695 62.8437 43.0674C60.4238 47.7432 58.023 52.5147 55.6987 57.1332C54.5796 59.3515 53.4701 61.5699 52.3414 63.7883L42.0113 84.5857L31.8534 105.469C30.7439 107.793 29.6344 110.126 28.5153 112.449C26.3249 117.03 24.058 121.753 21.8772 126.429C17.5443 135.58 13.2592 144.884 9.06021 154.226C13.8809 145.199 18.6251 136.125 23.2258 127.098C25.5979 122.518 27.9509 117.852 30.2274 113.329C31.3943 111.015 32.5612 108.701 33.7281 106.387L44.0487 85.5897L54.197 64.7063C55.2587 62.4688 56.33 60.2312 57.4108 57.9937C59.649 53.3274 61.9542 48.5082 64.1732 43.7463C68.4966 34.605 72.7721 25.3394 76.9424 16.0547L76.9615 16.0356Z" fill="#171717"/>
<path d="M27.2539 123.838C26.0488 123.838 24.8914 123.589 23.8201 123.073C17.5838 120.061 16.6942 108.94 21.8402 98.2977C24.3079 93.1916 27.78 88.9364 31.606 86.3165C35.5371 83.62 39.4109 82.9602 42.4908 84.4519C45.5707 85.9436 47.455 89.3763 47.7898 94.1382C48.115 98.7663 46.9385 104.131 44.4708 109.237C40.2048 118.062 33.1077 123.838 27.2444 123.838H27.2539ZM38.9996 84.9204C36.9432 84.9204 34.6572 85.7427 32.3138 87.3396C28.66 89.8353 25.341 93.9183 22.9593 98.8332C18.1099 108.864 18.7411 119.239 24.3653 121.954C29.9895 124.67 38.5118 118.722 43.3516 108.692C45.7237 103.777 46.862 98.6419 46.5463 94.2243C46.2403 89.9309 44.6047 86.8615 41.9456 85.5706C41.037 85.1308 40.0518 84.9204 38.9996 84.9204Z" fill="#171717"/>
<path d="M48.8784 77.8159C47.635 77.8159 46.468 77.5577 45.3872 77.0414C42.3073 75.5497 40.423 72.1169 40.0882 67.3646C39.763 62.7366 40.9396 57.3723 43.4073 52.2661C45.875 47.16 49.3471 42.905 53.173 40.285C57.1042 37.5885 60.9684 36.9287 64.0579 38.4204C67.1378 39.912 69.0221 43.3448 69.3569 48.0971C69.6821 52.7251 68.5056 58.0894 66.0379 63.1955C63.5701 68.3016 60.098 72.5568 56.2721 75.1768C53.7087 76.9266 51.1835 77.8159 48.8784 77.8159ZM60.5667 38.8793C58.5102 38.8793 56.2242 39.7017 53.8808 41.2985C50.227 43.7942 46.908 47.8772 44.5264 52.792C42.1543 57.7069 41.016 62.8417 41.3317 67.2594C41.6378 71.5527 43.2733 74.6222 45.9324 75.9131C48.601 77.1944 52.0157 76.5728 55.5738 74.1441C59.2276 71.6484 62.5467 67.5654 64.9284 62.6505C67.3005 57.7356 68.4386 52.6009 68.123 48.1832C67.8169 43.8899 66.1813 40.8204 63.5223 39.5295C62.6136 39.0897 61.6284 38.8793 60.5763 38.8793H60.5667Z" fill="#171717"/>
</svg>
